<svg width="24" height="25" viewBox="0 0 24 25" fill="none" xmlns="http://www.w3.org/2000/svg">
<path d="M22.975 9.19405L15.889 2.10806C13.7396 -0.0358573 10.2605 -0.0358573 8.11101 2.10806L1.02503 9.19405C0.366528 9.84903 -0.0025647 10.7402 1.34159e-05 11.669V22.047C0.00221654 23.4016 1.1004 24.4989 2.45504 24.5H21.545C22.8996 24.4989 23.9978 23.4016 24 22.047V11.669C24.0026 10.7402 23.6335 9.84903 22.975 9.19405ZM21 21.5H16V18.318C16 16.2094 14.2906 14.5 12.182 14.5H11.818C9.7094 14.5 8.00001 16.2094 8.00001 18.318V21.5H3.00001V11.669C3.00034 11.5364 3.05274 11.4093 3.14602 11.315L10.232 4.22906C11.2082 3.2526 12.7911 3.25242 13.7675 4.22859C13.7677 4.22873 13.7679 4.22892 13.768 4.22906L20.854 11.315C20.9472 11.4093 20.9997 11.5364 21 11.669V21.5H21Z" fill="white"/>
</svg>
