<svg width="101" height="101" viewBox="0 0 101 101" fill="none" xmlns="http://www.w3.org/2000/svg">
<path d="M78.2003 16.1721L74.9684 27.2764C68.833 25.4907 62.4179 29.0132 60.6322 35.1486L49.528 31.9167C53.0562 19.6333 65.9295 12.6007 78.2003 16.1721Z" fill="#4526FF"/>
<path d="M93.9324 44.8875L82.8282 41.6556C84.6139 35.5202 81.0913 29.1051 74.9559 27.3194L78.1877 16.2153C90.4711 19.7435 97.5164 32.5734 93.9324 44.8875Z" fill="#4526FF"/>
<path d="M65.2601 60.6322L68.492 49.5281C74.6274 51.3138 81.0424 47.7911 82.8281 41.6557L93.9323 44.8876C90.3609 57.1584 77.531 64.2036 65.2601 60.6322Z" fill="#4526FF"/>
<path d="M44.8443 6.46379L41.6124 17.5681C47.7478 19.3538 51.2705 25.7687 49.4848 31.9041L60.589 35.136C64.2037 22.8778 57.1151 10.0352 44.8443 6.46379Z" fill="#4526FF"/>
<path d="M16.1595 22.2516L27.2637 25.4835C29.0494 19.3481 35.4644 15.8254 41.5999 17.6111L44.8317 6.50697C32.5735 2.89232 19.7435 9.93757 16.1595 22.2516Z" fill="#4526FF"/>
<path d="M31.9041 50.9239L35.136 39.8198C29.0006 38.0341 25.478 31.619 27.2637 25.4836L16.1595 22.2517C12.5881 34.5225 19.6333 47.3525 31.9041 50.9239Z" fill="#4526FF"/>
<path d="M55.5644 93.9449L58.7964 82.8406C52.661 81.0549 49.1382 74.64 50.9239 68.5046L39.8197 65.2727C36.2051 77.531 43.2936 90.3735 55.5644 93.9449Z" fill="#4526FF"/>
<path d="M84.2366 78.2003L73.1324 74.9684C71.3467 81.1038 64.9318 84.6263 58.7963 82.8406L55.5644 93.9449C67.8352 97.5164 80.6652 90.4711 84.2366 78.2003Z" fill="#4526FF"/>
<path d="M68.492 49.5281L65.2601 60.6322C71.3955 62.4179 74.9181 68.833 73.1324 74.9684L84.2366 78.2003C87.8081 65.9295 80.7628 53.0995 68.492 49.5281Z" fill="#4526FF"/>
<path d="M22.2084 84.2366L25.4403 73.1323C31.5758 74.918 37.9908 71.3956 39.7765 65.2601L50.8807 68.492C47.3525 80.7754 34.4792 87.8081 22.2084 84.2366Z" fill="#4526FF"/>
<path d="M6.46378 55.5644L17.568 58.7963C15.7823 64.9317 19.3049 71.3466 25.4403 73.1323L22.2084 84.2366C9.93759 80.6652 2.89234 67.8353 6.46378 55.5644Z" fill="#4526FF"/>
<path d="M35.136 39.8198L31.9041 50.9239C25.7687 49.1382 19.3537 52.6609 17.568 58.7963L6.46378 55.5644C10.0352 43.2936 22.8652 36.2484 35.136 39.8198Z" fill="#4526FF"/>
</svg>
