<svg width="101" height="101" viewBox="0 0 101 101" fill="none" xmlns="http://www.w3.org/2000/svg">
<path d="M78.2001 16.1721L74.9682 27.2764C68.8328 25.4907 62.4177 29.0132 60.632 35.1486L49.5278 31.9167C53.056 19.6333 65.9293 12.6007 78.2001 16.1721Z" fill="white"/>
<path d="M93.9323 44.8875L82.8281 41.6556C84.6138 35.5202 81.0913 29.1051 74.9558 27.3194L78.1877 16.2153C90.4711 19.7435 97.5164 32.5734 93.9323 44.8875Z" fill="white"/>
<path d="M65.2601 60.6322L68.492 49.5281C74.6274 51.3138 81.0424 47.7911 82.8281 41.6557L93.9323 44.8876C90.3609 57.1584 77.5309 64.2036 65.2601 60.6322Z" fill="white"/>
<path d="M44.8442 6.46379L41.6123 17.5681C47.7477 19.3538 51.2705 25.7687 49.4848 31.9041L60.589 35.136C64.2036 22.8778 57.1151 10.0352 44.8442 6.46379Z" fill="white"/>
<path d="M16.1595 22.2516L27.2637 25.4835C29.0494 19.3481 35.4644 15.8254 41.5998 17.6111L44.8317 6.50697C32.5734 2.89232 19.7435 9.93757 16.1595 22.2516Z" fill="white"/>
<path d="M31.9041 50.9239L35.1359 39.8198C29.0005 38.0341 25.4779 31.619 27.2636 25.4836L16.1594 22.2517C12.588 34.5225 19.6332 47.3525 31.9041 50.9239Z" fill="white"/>
<path d="M55.5642 93.9449L58.7961 82.8406C52.6607 81.0549 49.138 74.64 50.9237 68.5046L39.8195 65.2727C36.2048 77.531 43.2934 90.3735 55.5642 93.9449Z" fill="white"/>
<path d="M84.2365 78.2003L73.1323 74.9684C71.3466 81.1038 64.9316 84.6263 58.7962 82.8406L55.5643 93.9449C67.8351 97.5164 80.6651 90.4711 84.2365 78.2003Z" fill="white"/>
<path d="M68.4919 49.5281L65.2601 60.6322C71.3955 62.4179 74.9181 68.833 73.1324 74.9684L84.2366 78.2003C87.808 65.9295 80.7628 53.0995 68.4919 49.5281Z" fill="white"/>
<path d="M22.2083 84.2366L25.4403 73.1323C31.5757 74.918 37.9907 71.3956 39.7764 65.2601L50.8807 68.492C47.3524 80.7754 34.4792 87.8081 22.2083 84.2366Z" fill="white"/>
<path d="M6.46362 55.5644L17.5678 58.7963C15.7821 64.9317 19.3048 71.3466 25.4402 73.1323L22.2083 84.2366C9.93744 80.6652 2.89219 67.8353 6.46362 55.5644Z" fill="white"/>
<path d="M35.1359 39.8198L31.9041 50.9239C25.7686 49.1382 19.3536 52.6609 17.5679 58.7963L6.4637 55.5644C10.0351 43.2936 22.8651 36.2484 35.1359 39.8198Z" fill="white"/>
</svg>
