<svg width="67" height="54" viewBox="0 0 67 54" fill="none" xmlns="http://www.w3.org/2000/svg">
<path d="M5.76263 35.6233L10.181 29.142L15.0827 29.9623L28.1308 22.2991L19.0986 35.6233H5.76263Z" fill="#3751FF"/>
<path d="M30.0638 14.9811C30.0638 23.255 23.3565 29.9623 15.0827 29.9623C6.80884 29.9623 0.101562 23.255 0.101562 14.9811C0.101562 6.70728 6.80884 0 15.0827 0C23.3565 0 30.0638 6.70728 30.0638 14.9811Z" fill="#3751FF"/>
<circle cx="48.2902" cy="17.8117" r="17.8117" fill="#7B61FF"/>
<path d="M7.47688 43.0604C7.38506 44.9493 7.34571 46.7201 7.09648 47.7826C6.92596 48.5827 6.5718 48.9762 6.06023 48.9762C5.92906 48.9762 5.77165 48.95 5.60113 48.8975L5.48308 50.6421C5.70607 50.747 6.09958 50.7995 6.36192 50.7995C7.98845 50.7995 8.723 50.0256 9.07717 48.1892C9.24769 47.3759 9.32639 46.1954 9.40509 44.8706H10.8873V50.6946H12.9336V43.0604H7.47688ZM14.4137 50.6946H20.0672V48.8844H16.4337V47.7695H19.1096V46.1298H16.4337V44.8706H19.8179V43.0604H14.4137V50.6946ZM22.6988 50.6946H24.7188V44.8706H26.752V43.0604H20.6656V44.8706H22.6988V50.6946ZM30.9129 50.6946H32.9329V48.4647L33.4576 47.8744L35.3464 50.6946H37.7994L34.8349 46.3922L37.6682 43.0604H35.1366L32.9591 45.8019L32.9329 45.7888V43.0604H30.9129V50.6946ZM37.8007 50.6946H39.9125L40.3323 49.4747H43.0738L43.4935 50.6946H45.6185L42.6671 43.0604H40.7389L37.8007 50.6946ZM40.8701 47.8219L41.6833 45.3953H41.7096L42.5228 47.8219H40.8701ZM46.387 50.6946H48.1578L51.0173 46.379L51.0567 46.4053V50.6946H53.0636V43.0604H51.3321L48.4201 47.5334L48.3939 47.5202V43.0604H46.387V50.6946Z" fill="black"/>
</svg>
