<svg width="66" height="54" viewBox="0 0 66 54" fill="none" xmlns="http://www.w3.org/2000/svg">
<path d="M5.66107 35.6233L10.0795 29.142L14.9811 29.9623L28.0292 22.2991L18.9971 35.6233H5.66107Z" fill="white"/>
<path d="M29.9623 14.9811C29.9623 23.255 23.255 29.9623 14.9811 29.9623C6.70728 29.9623 0 23.255 0 14.9811C0 6.70728 6.70728 0 14.9811 0C23.255 0 29.9623 6.70728 29.9623 14.9811Z" fill="white"/>
<circle cx="48.1886" cy="17.8117" r="17.8117" fill="white"/>
<path d="M7.37532 43.0604C7.2835 44.9493 7.24414 46.7201 6.99492 47.7826C6.8244 48.5827 6.47023 48.9762 5.95867 48.9762C5.8275 48.9762 5.67009 48.95 5.49957 48.8975L5.38151 50.6421C5.6045 50.747 5.99802 50.7995 6.26036 50.7995C7.88688 50.7995 8.62144 50.0256 8.9756 48.1892C9.14613 47.3759 9.22483 46.1954 9.30353 44.8706H10.7858V50.6946H12.832V43.0604H7.37532ZM14.3121 50.6946H19.9656V48.8844H16.3322V47.7695H19.008V46.1298H16.3322V44.8706H19.7164V43.0604H14.3121V50.6946ZM22.5972 50.6946H24.6173V44.8706H26.6504V43.0604H20.5641V44.8706H22.5972V50.6946ZM30.8113 50.6946H32.8313V48.4647L33.356 47.8744L35.2449 50.6946H37.6978L34.7333 46.3922L37.5666 43.0604H35.035L32.8576 45.8019L32.8313 45.7888V43.0604H30.8113V50.6946ZM37.6991 50.6946H39.811L40.2307 49.4747H42.9722L43.3919 50.6946H45.5169L42.5656 43.0604H40.6374L37.6991 50.6946ZM40.7685 47.8219L41.5818 45.3953H41.608L42.4213 47.8219H40.7685ZM46.2854 50.6946H48.0562L50.9157 46.379L50.9551 46.4053V50.6946H52.962V43.0604H51.2306L48.3186 47.5334L48.2923 47.5202V43.0604H46.2854V50.6946Z" fill="white"/>
</svg>
