<svg width="253" height="1535" viewBox="0 0 253 1535" fill="none" xmlns="http://www.w3.org/2000/svg">
<path d="M75.4624 1365.1C27.7467 1417.3 80.3743 1474.8 112.653 1497.02L139.638 1533.51H86.3086L41.4025 1464.79C7.21893 1380.61 34.9877 1350.56 51.8377 1332.33L51.9255 1332.23C68.7666 1314.01 111.57 1286.62 139.638 1265.57C171.916 1243.35 224.544 1185.86 176.828 1133.65C117.183 1068.39 41.1412 1122.07 59.644 1169.44C77.1865 1214.35 133.322 1189.09 105.956 1147.69C108.997 1137.16 122.095 1121.86 150.163 1144.88C152.502 1148.39 156.479 1158.77 153.672 1172.25C153.204 1176.92 153.812 1187.12 159.987 1190.49C163.028 1204.06 160.689 1230.07 127.007 1225.58C123.265 1224.87 117.324 1226 123.499 1236.1C131.217 1248.73 104.553 1261.36 86.3086 1248.73C80.695 1269.78 55.5741 1309.92 -0.000595093 1302.06L2.80621 1281.71C21.2845 1284.99 56.978 1280.45 51.9255 1236.1C52.1595 1228.62 47.9962 1208.45 29.4711 1187.68C25.4947 1173.42 21.7521 1140.53 38.593 1123.13C28.0675 1115.41 11.5076 1096.6 29.4711 1083.13C17.0745 1074.94 -0.982483 1054.64 25.9626 1038.92C23.1557 1028.87 21.7521 1008.61 38.593 1008.05C4.34995 923.726 33.2134 884.688 51.9255 875.615C71.2522 860.879 111.57 830.005 139.638 808.954C171.916 786.733 224.544 729.24 176.828 677.033C117.183 611.775 41.1412 665.453 59.644 712.82C77.1865 757.729 133.322 732.468 105.956 691.067C108.997 680.542 122.095 665.245 150.163 688.26C152.502 691.769 156.479 702.154 153.672 715.627C153.204 720.305 153.812 730.503 159.987 733.871C163.028 747.438 160.689 773.448 127.007 768.957C123.265 768.255 117.324 769.378 123.499 779.482C131.217 792.113 104.553 804.743 86.3086 792.113C80.695 813.164 55.5741 853.301 -0.000595093 845.442L2.80621 825.093C21.2845 828.367 56.978 823.83 51.9255 779.482C52.1595 771.997 47.9962 751.835 29.4711 731.065C25.4947 716.797 21.7521 683.91 38.593 666.508C28.0675 658.789 11.5076 639.983 29.4711 626.511C17.0745 618.324 -0.982483 598.022 25.9626 582.304C23.1557 572.246 21.7521 551.99 38.593 551.429C4.34996 467.106 33.1256 427.976 51.8377 418.903C71.9539 405.475 111.57 373.197 139.638 352.146C171.916 329.926 224.543 272.433 176.828 220.226C117.183 154.968 41.1412 208.646 59.644 256.013C77.1865 300.922 133.322 275.66 105.956 234.26C108.997 223.735 122.095 208.438 150.163 231.453C152.502 234.962 156.479 245.347 153.672 258.82C153.204 263.498 153.812 273.696 159.987 277.064C163.028 290.63 160.689 316.64 127.007 312.149C123.265 311.448 117.324 312.57 123.499 322.675C131.217 335.306 104.553 347.936 86.3086 335.306C80.695 356.357 55.5741 396.494 -0.000595093 388.635L2.80621 368.286C21.2845 371.56 56.978 367.022 51.9255 322.675C52.1595 315.19 47.9962 295.028 29.4711 274.257C25.4947 259.99 21.7521 227.103 38.593 209.701C28.0675 201.982 11.5076 183.176 29.4711 169.704C17.0745 161.517 -0.982498 141.215 25.9626 125.496C23.1557 115.439 21.7521 95.183 38.593 94.6216C4.34996 10.2992 33.2134 -28.9271 51.9255 -37.9999L75.4624 -5.13574C27.7467 47.0708 80.3743 104.563 112.653 126.784C140.721 147.835 169.49 165.378 200.365 193.446C219.077 202.518 247.94 241.745 213.697 326.067C230.538 326.628 229.135 346.884 226.328 356.942C253.273 372.66 235.216 392.963 222.819 401.149C240.783 414.622 224.223 433.427 213.697 441.146C230.538 458.548 226.796 491.435 222.819 505.702C204.294 526.473 200.131 546.635 200.365 554.12C195.312 598.467 231.006 603.005 249.484 599.73L252.291 620.08C196.716 627.939 171.595 587.801 165.982 566.75C147.738 579.381 121.073 566.75 128.792 554.12C134.967 544.015 129.026 542.893 125.283 543.594C91.6015 548.085 89.2625 522.075 92.3032 508.509C98.4782 505.141 99.0863 494.943 98.6185 490.265C95.8117 476.792 99.788 466.407 102.127 462.899C130.195 439.883 143.293 455.18 146.334 465.705C118.968 507.106 175.104 532.367 192.646 487.458C211.149 440.091 134.405 385.827 74.7607 451.086C27.045 503.292 80.3743 561.371 112.653 583.591C140.721 604.642 169.49 622.185 200.365 650.253C219.077 659.326 247.94 698.552 213.697 782.874C230.538 783.436 229.135 803.691 226.328 813.749C253.273 829.467 235.216 849.77 222.819 857.956C240.783 871.429 224.223 890.234 213.697 897.953C230.538 915.355 226.796 948.242 222.819 962.51C204.294 983.28 200.131 1003.44 200.365 1010.93C195.312 1055.27 231.006 1059.81 249.484 1056.54L252.291 1076.89C196.716 1084.75 171.595 1044.61 165.982 1023.56C147.738 1036.19 121.073 1023.56 128.792 1010.93C134.967 1000.82 129.026 999.7 125.283 1000.4C91.6015 1004.89 89.2625 978.883 92.3032 965.316C98.4782 961.948 99.0863 951.75 98.6185 947.072C95.8117 933.6 99.788 923.214 102.127 919.706C130.195 896.69 143.293 911.987 146.334 922.513C118.968 963.913 175.104 989.174 192.646 944.265C211.149 896.898 135.107 843.22 75.4624 908.479C27.7467 960.685 80.3743 1018.18 112.653 1040.4C140.721 1061.45 169.49 1078.8 200.365 1106.87C219.077 1115.94 247.94 1155.17 213.697 1239.49C230.538 1240.05 229.135 1260.31 226.328 1270.37C253.273 1286.09 235.216 1306.39 222.819 1314.58C240.783 1328.05 224.223 1346.85 213.697 1354.57C230.538 1371.97 226.796 1404.86 222.819 1419.13C204.294 1439.9 200.131 1460.06 200.365 1467.55C195.312 1511.89 231.006 1516.43 249.484 1513.16L252.291 1533.51C196.716 1541.37 171.595 1501.23 165.982 1480.18C147.738 1492.81 121.073 1480.18 128.792 1467.55C134.967 1457.44 129.026 1456.32 125.283 1457.02C91.6015 1461.51 89.2625 1435.5 92.3032 1421.94C98.4782 1418.57 99.0863 1408.37 98.6185 1403.69C95.8117 1390.22 99.788 1379.83 102.127 1376.33C130.195 1353.31 143.293 1368.61 146.334 1379.13C118.968 1420.53 175.104 1445.79 192.646 1400.88C211.149 1353.52 135.107 1299.84 75.4624 1365.1Z" fill="#0B8C4E"/>
</svg>
