<svg width="1026" height="581" viewBox="0 0 1026 581" fill="none" xmlns="http://www.w3.org/2000/svg">
<path d="M168.643 522.429C155.113 570.976 100.499 560.883 74.8838 549.769L42.6451 547.24L62.782 579.466L121.262 580.655C185.036 569.526 192.709 541.4 197.365 524.332L197.389 524.243C202.043 507.185 202.43 470.979 204.552 446.069C205.791 418.174 220.661 364.663 270.226 373.783C332.182 385.184 328.458 451.404 292.849 458.108C259.087 464.465 253.155 421.005 288.506 421.909C293.719 416.097 298.016 402.406 273.51 394.136C270.507 394.047 262.73 395.566 255.648 402.349C252.998 404.398 246.606 407.881 242.239 405.422C232.893 408.707 218.059 419.942 233.491 438.599C235.328 440.595 236.893 444.609 228.455 444.693C217.908 444.799 220.344 465.681 234.865 471.936C224.264 483.277 209.496 513.613 235.23 544.228L246.466 534.848C237.51 524.918 226.775 501.636 255.481 487.944C259.915 484.976 273.671 479.879 293.217 483.23C303.341 480.246 324.626 470.089 328.783 453.342C337.422 456.787 355.039 459.693 356.397 443.751C366.025 448.151 385.112 451.396 384.435 429.179C391.573 427.077 404.343 420.277 398.323 409.888C462.208 398.741 474.899 366.559 473.315 351.825C474.923 334.582 478.356 298.561 480.478 273.651C481.717 245.756 496.587 192.245 546.152 201.366C608.108 212.766 604.384 278.986 568.775 285.691C535.013 292.047 529.082 248.587 564.432 249.491C569.645 243.679 573.942 229.988 549.436 221.718C546.433 221.629 538.656 223.148 531.574 229.931C528.924 231.98 522.532 235.464 518.165 233.004C508.819 236.289 493.985 247.524 509.417 266.181C511.254 268.178 512.819 272.192 504.381 272.276C493.834 272.381 496.27 293.263 510.791 299.518C500.19 310.859 485.422 341.195 511.156 371.81L522.393 362.43C513.436 352.501 502.701 329.218 531.407 315.526C535.841 312.558 549.597 307.461 569.143 310.812C579.267 307.828 600.553 297.671 604.709 280.924C613.348 284.37 630.965 287.276 632.323 271.333C641.951 275.733 661.038 278.978 660.361 256.761C667.499 254.659 680.269 247.859 674.249 237.471C738.134 226.323 750.914 194.159 749.331 179.426C749.849 162.2 754.395 126.073 756.518 101.163C757.757 73.2673 772.627 19.7563 822.192 28.877C884.147 40.2778 880.424 106.497 844.814 113.202C811.053 119.559 805.121 76.0982 840.472 77.0025C845.684 71.1907 849.982 57.4995 825.476 49.2292C822.472 49.1406 814.695 50.6593 807.614 57.4426C804.964 59.4916 798.571 62.975 794.204 60.5154C784.858 63.8005 770.024 75.0351 785.456 93.6925C787.293 95.689 788.858 99.703 780.421 99.7871C769.874 99.8921 772.31 120.774 786.831 127.03C776.23 138.371 761.461 168.706 787.195 199.321L798.432 189.941C789.476 180.012 778.74 156.73 807.446 143.037C811.881 140.07 825.637 134.972 845.183 138.324C855.306 135.339 876.592 125.183 880.749 108.435C889.388 111.881 907.004 114.787 908.363 98.8447C917.991 103.245 937.077 106.49 936.401 84.2723C943.539 82.1707 956.309 75.3703 950.289 64.9818C1014.17 53.8344 1026.98 21.581 1025.4 6.8478L996.649 5.03431C983.118 53.5809 928.505 43.4882 902.889 32.3734C879.57 23.3613 858.106 12.6006 829.487 4.54176C816.939 -3.33973 782.337 -5.96968 744.312 46.5625C737.614 36.5979 725.904 45.0946 720.886 50.5885C701.213 40.2412 695.763 58.8188 695.497 69.401C680.573 63.6332 675.462 80.741 674.772 90.0159C657.897 86.4103 639.438 101.09 632.318 108.88C626.762 127.917 616.15 138.046 611.539 140.731C586.648 160.53 570.428 140.674 565.43 128.272L552.073 134.259C568.309 170.81 602.049 170.834 616.889 166.277C616.146 182.071 633.847 193.415 638.564 183.981C642.339 176.434 645.261 179.601 646.25 182.127C656.254 204.176 672.854 195.768 679.904 188.808C679.608 183.805 685.54 179.587 688.544 178.103C697.745 174.712 702.519 168.388 703.756 165.649C707.066 139.998 692.876 137.859 685.368 139.996C670.684 172.165 634.222 147.782 654.735 120.224C676.372 91.1574 738.141 117.043 721.228 177.726C707.698 226.272 652.465 215.977 626.85 204.862C603.53 195.85 582.067 185.089 553.447 177.03C540.899 169.149 506.297 166.519 468.273 219.051C461.574 209.087 449.864 217.583 444.846 223.077C425.174 212.73 419.724 231.307 419.458 241.89C404.533 236.122 399.423 253.23 398.733 262.505C381.858 258.899 363.398 273.578 356.278 281.369C350.722 300.406 340.11 310.535 335.499 313.22C310.609 333.018 294.389 313.163 289.39 300.76L276.034 306.748C292.269 343.298 326.009 343.323 340.85 338.766C340.106 354.56 357.807 365.904 362.525 356.47C366.299 348.923 369.221 352.089 370.21 354.616C380.214 376.665 396.815 368.257 403.864 361.297C403.568 356.294 409.501 352.075 412.504 350.592C421.705 347.201 426.48 340.876 427.716 338.138C431.026 312.487 416.836 310.348 409.328 312.484C394.644 344.654 358.182 320.271 378.696 292.713C400.332 263.646 461.482 289.328 444.569 350.012C431.039 398.558 376.426 388.466 350.81 377.351C327.491 368.339 306.141 357.507 277.521 349.448C264.973 341.567 230.371 338.937 192.346 391.469C185.648 381.504 173.938 390.001 168.92 395.495C149.248 385.148 143.798 403.725 143.532 414.307C128.607 408.54 123.496 425.647 122.807 434.922C105.932 431.317 87.4723 445.996 80.352 453.786C74.7959 472.824 64.1843 482.953 59.573 485.637C34.6825 505.436 18.4627 485.581 13.4642 473.178L0.107628 479.166C16.3434 515.716 50.0831 515.74 64.9235 511.184C64.18 526.978 81.8809 538.321 86.5988 528.888C90.3731 521.341 93.2949 524.507 94.2839 527.033C104.288 549.082 120.889 540.675 127.938 533.715C127.642 528.711 133.575 524.493 136.578 523.009C145.779 519.618 150.553 513.294 151.79 510.556C155.1 484.904 140.91 482.765 133.402 484.902C118.718 517.072 82.2562 492.688 102.77 465.13C124.406 436.064 185.556 461.746 168.643 522.429Z" fill="#18A15F"/>
</svg>
