<svg width="895" height="775" viewBox="0 0 895 775" fill="none" xmlns="http://www.w3.org/2000/svg">
<path d="M173.99 695.219C171.727 745.565 116.243 748.017 88.7837 742.949L56.8024 747.737L83.6724 774.607L140.921 762.611C200.557 737.422 201.706 708.29 202.404 690.612L202.407 690.52C203.105 672.852 195.337 637.487 191.801 612.739C186.734 585.279 189.185 529.795 239.531 527.532C302.464 524.704 313.732 590.063 280.543 604.607C249.077 618.395 233.521 577.383 268.169 570.312C271.94 563.477 273.048 549.169 247.309 546.624C244.363 547.213 237.127 550.442 231.753 558.645C229.632 561.237 224.187 566.069 219.378 564.655C211.011 569.959 199.084 584.242 218.318 598.95C220.557 600.482 222.985 604.041 214.782 606.021C204.529 608.496 211.6 628.295 227.156 631.123C219.378 644.558 211.812 677.439 243.773 701.48L252.612 689.813C241.652 682.153 225.954 661.882 250.844 642.083C254.498 638.194 266.754 630.133 286.553 629.002C295.746 623.816 314.201 609.132 314.484 591.879C323.677 593.293 341.496 592.161 339.233 576.322C349.604 578.443 368.931 577.312 363.275 555.816C369.756 552.163 380.67 542.664 372.467 533.896C432.206 508.663 437.333 474.451 432.476 460.452C430.163 443.289 425.405 407.419 421.87 382.67C416.802 355.211 419.254 299.726 469.6 297.463C532.532 294.635 543.8 359.995 510.612 374.538C479.145 388.327 463.589 347.314 498.237 340.243C502.009 333.408 503.117 319.101 477.378 316.555C474.432 317.145 467.195 320.374 461.821 328.576C459.7 331.169 454.255 336.001 449.447 334.587C441.08 339.89 429.153 354.174 448.386 368.881C450.625 370.414 453.053 373.973 444.851 375.953C434.598 378.427 441.669 398.226 457.225 401.055C449.447 414.49 441.881 447.37 473.842 471.412L482.681 459.745C471.721 452.084 456.023 431.814 480.913 412.015C484.566 408.126 496.823 400.064 516.622 398.933C525.814 393.748 544.27 379.063 544.553 361.81C553.745 363.224 571.564 362.093 569.301 346.254C579.672 348.375 599 347.243 593.343 325.747C599.825 322.094 610.738 312.595 602.536 303.827C662.275 278.595 667.492 244.38 662.636 230.381C659.266 213.479 655.568 177.256 652.033 152.507C646.965 125.048 649.417 69.563 699.763 67.3002C762.695 64.4718 773.964 129.832 740.775 144.375C709.309 158.163 693.752 117.151 728.401 110.08C732.172 103.245 733.28 88.9376 707.541 86.3921C704.595 86.9813 697.359 90.2106 691.985 98.413C689.863 101.006 684.418 105.838 679.61 104.423C671.243 109.727 659.316 124.01 678.549 138.718C680.789 140.25 683.216 143.809 675.014 145.789C664.761 148.264 671.832 168.063 687.388 170.892C679.61 184.327 672.044 217.207 704.005 241.249L712.844 229.581C701.884 221.921 686.186 201.65 711.076 181.852C714.729 177.962 726.986 169.901 746.785 168.77C755.978 163.585 774.433 148.9 774.716 131.647C783.908 133.061 801.727 131.93 799.465 116.09C809.836 118.212 829.163 117.08 823.506 95.5843C829.988 91.9309 840.901 82.4322 832.699 73.6641C892.438 48.4315 897.66 14.1243 892.803 0.124817L864.385 4.82438C862.122 55.1703 806.638 57.6217 779.179 52.5541C754.43 49.0185 731.096 43.362 701.397 41.9476C687.398 37.0909 653.09 42.3121 627.858 102.052C619.09 93.8491 609.591 104.762 605.938 111.244C584.442 105.587 583.31 124.915 585.432 135.286C569.592 133.023 568.461 150.842 569.875 160.034C552.622 160.317 537.938 178.773 532.752 187.965C531.621 207.764 523.56 220.021 519.671 223.674C499.872 248.564 479.601 232.866 471.941 221.906L460.274 230.745C484.315 262.706 517.196 255.14 530.631 247.362C533.459 262.918 553.258 269.989 555.733 259.736C557.713 251.534 561.272 253.962 562.804 256.201C577.512 275.434 591.795 263.508 597.099 255.14C595.685 250.332 600.516 244.887 603.109 242.766C611.312 237.392 614.541 230.156 615.13 227.209C612.584 201.471 598.277 202.579 591.442 206.35C584.371 240.998 543.359 225.442 557.147 193.975C571.691 160.787 637.699 172.113 634.871 235.046C632.608 285.392 576.475 287.785 549.016 282.717C524.267 279.182 500.933 273.525 471.234 272.111C457.234 267.254 422.927 272.475 397.695 332.215C388.927 324.012 379.428 334.925 375.774 341.407C354.279 335.751 353.147 355.078 355.268 365.449C339.429 363.186 338.298 381.005 339.712 390.197C322.459 390.48 307.774 408.936 302.589 418.128C301.458 437.927 293.397 450.184 289.507 453.837C269.709 478.728 249.438 463.03 241.778 452.069L230.11 460.908C254.152 492.869 287.032 485.303 300.467 477.525C303.296 493.082 323.095 500.153 325.57 489.9C327.55 481.697 331.109 484.125 332.641 486.364C347.349 505.597 361.632 493.671 366.936 485.303C365.521 480.495 370.353 475.05 372.946 472.929C381.148 467.555 384.377 460.319 384.967 457.373C382.421 431.634 368.114 432.742 361.279 436.513C354.208 471.161 313.195 455.605 326.984 424.139C341.527 390.95 406.887 402.218 404.059 465.151C401.796 515.497 346.312 517.948 318.852 512.881C294.104 509.345 270.864 503.594 241.165 502.179C227.166 497.323 192.859 502.544 167.626 562.283C158.858 554.081 149.359 564.994 145.706 571.476C124.21 565.819 123.079 585.147 125.2 595.517C109.361 593.255 108.229 611.074 109.643 620.266C92.39 620.549 77.7058 639.005 72.5204 648.197C71.3891 667.996 63.328 680.252 59.4389 683.906C39.64 708.796 19.3695 693.098 11.7091 682.138L0.0417992 690.977C24.0834 722.938 56.9639 715.372 70.3989 707.594C73.2274 723.15 93.0263 730.221 95.5012 719.968C97.4811 711.766 101.04 714.193 102.572 716.433C117.28 735.666 131.564 723.739 136.867 715.372C135.453 710.564 140.285 705.119 142.877 702.998C151.08 697.624 154.309 690.387 154.898 687.441C152.353 661.703 138.045 662.81 131.21 666.582C124.139 701.23 83.1268 685.673 96.9154 654.207C111.459 621.018 176.818 632.287 173.99 695.219Z" fill="#18A15F"/>
</svg>
