<svg width="181" height="209" viewBox="0 0 181 209" fill="none" xmlns="http://www.w3.org/2000/svg">
<path d="M89.2054 6.87852H0.800781C15.6034 13.4567 20.6747 28.808 21.36 35.6614V177.521C21.36 198.903 10.3951 201.507 4.91263 200.136V208.36H76.8699L70.7021 191.912V105.564H76.8699C76.8699 105.564 107.709 130.235 113.876 145.97C120.044 161.706 115.932 193.257 115.932 193.257V208.36H180.002L173.498 200.136V177.521C173.498 138.047 124.156 101.452 113.876 101.452H103.597C97.4291 101.452 95.3732 93.2282 95.3732 93.2282C99.485 72.669 120.044 41.8302 142.659 41.8302C165.275 41.8302 169.386 39.7739 173.498 21.2706C176.788 6.468 162.533 1.39672 154.995 0.711416C122.1 -7.51227 91.2614 57.5913 80.9817 91.1713H70.7021H68.6462V35.6614C69.3315 28.808 74.4028 13.4567 89.2054 6.87852Z" fill="#242424"/>
</svg>
