<svg width="640" height="132" viewBox="0 0 640 132" fill="none" xmlns="http://www.w3.org/2000/svg">
<path d="M46.9625 14.5754H0C7.86348 18.0699 10.5575 26.2248 10.9215 29.8655V105.224C10.9215 116.583 5.0967 117.966 2.1843 117.238V121.607H40.4096L37.1331 112.869V66.9991H40.4096C40.4096 66.9991 56.7918 80.1049 60.0683 88.464C63.3447 96.8232 61.1604 113.583 61.1604 113.583V121.607H95.1955L91.7406 117.238V105.224C91.7406 84.2551 65.529 64.8148 60.0683 64.8148H54.6075C51.3311 64.8148 50.2389 60.4462 50.2389 60.4462C52.4232 49.5247 63.3447 33.1425 75.3584 33.1425C87.372 33.1425 89.5563 32.0502 91.7406 22.2208C93.4881 14.3573 85.9158 11.6634 81.9113 11.2993C64.4369 6.93071 48.0546 41.5151 42.5939 59.3536H37.1331H36.041V29.8655C36.405 26.2248 39.099 18.0699 46.9625 14.5754Z" fill="white"/>
<path fill-rule="evenodd" clip-rule="evenodd" d="M138.728 8.73706H181.322C181.322 8.73706 180.254 15.29 178.045 15.29V33.8565C184.598 58.976 199.67 110.962 207.533 117.952H164.939C166.76 117.588 170.4 115.986 170.4 112.491C170.4 111.759 170.492 110.751 170.604 109.523C171.161 103.424 172.212 91.911 164.939 81.9111C159.843 92.8326 143.121 124.505 129.991 124.505C116.86 124.505 110.113 119.7 109.24 100.478C108.366 81.2558 130.719 48.0545 142.004 33.8565C142.733 33.1284 144.189 30.7985 144.189 27.3036C144.189 23.8087 143.461 17.8383 143.097 15.29C140.938 15.29 138.728 8.73706 138.728 8.73706ZM149.664 45.1488C135.436 51.7017 123.413 84.0954 122.36 99.7563C121.307 115.417 144.164 105.465 154.033 80.0976C163.901 54.7303 163.891 38.5959 149.664 45.1488Z" fill="white"/>
<path fill-rule="evenodd" clip-rule="evenodd" d="M352.79 8.73706H395.384C395.384 8.73706 394.317 15.29 392.108 15.29V33.8565C398.661 58.976 413.732 110.962 421.596 117.952H379.002C380.822 117.588 384.463 115.986 384.463 112.491C384.463 111.759 384.555 110.751 384.667 109.523C385.224 103.424 386.275 91.911 379.002 81.9111C373.905 92.8326 357.184 124.505 344.053 124.505C330.922 124.505 324.176 119.7 323.302 100.478C322.429 81.2558 344.781 48.0545 356.067 33.8565C356.795 33.1284 358.252 30.7985 358.252 27.3036C358.252 23.8087 357.524 17.8383 357.16 15.29C355 15.29 352.79 8.73706 352.79 8.73706ZM363.726 45.1488C349.499 51.7017 337.476 84.0954 336.423 99.7563C335.369 115.417 358.227 105.465 368.095 80.0976C377.964 54.7303 377.954 38.5959 363.726 45.1488Z" fill="white"/>
<path d="M257.747 0.543098C240.273 0.543091 222.802 9.28031 219.524 23.4784C216.245 37.6766 241.979 47.7231 242.457 31.1237C242.935 14.5242 257.591 6.2917 266.484 9.28066C279.59 16.0433 277.042 36.1257 274.129 45.3216C271.508 49.6902 258.111 52.9667 253.379 54.0588C242.02 57.5537 259.567 63.5241 269.761 66.0725C285.051 83.5469 282.867 101.021 266.484 105.39C250.102 109.758 251.194 102.113 235.904 101.021C223.672 100.148 218.431 106.482 217.339 109.758C215.883 117.039 215.373 131.601 224.984 131.601C236.998 131.601 238.09 123.956 239.182 118.496C240.056 114.127 242.459 113.035 243.551 113.035C249.667 111.287 268.67 114.491 277.408 116.311C299.251 115.438 306.896 97.0167 307.988 87.9155C311.483 70.4411 291.242 61.7039 280.684 59.5196C276.315 60.3933 276.68 57.6993 277.408 56.2431C295.756 51.0008 303.619 47.3757 303.619 37.6766V24.5708C303.619 14.6111 295.976 1.76555 280.684 0.543277C265.392 -0.678992 257.747 0.543098 257.747 0.543098Z" fill="white"/>
<path d="M442.32 105.939L441.228 20.751C441.228 14.1981 435.767 9.8295 433.583 8.73735C431.398 7.6452 473.992 8.73735 473.992 8.73735C467.876 8.73735 467.075 17.4746 467.439 21.8432V49.1469C470.934 50.0206 482.729 49.1467 491.467 49.1468C500.204 49.1469 502.024 42.9581 502.388 39.3176V28.3961C503.262 17.9114 495.471 10.9217 491.467 8.73735L534.061 8.73723C536.245 16.3823 531.148 22.2072 528.6 25.1196C528.236 41.5019 527.508 77.7612 527.508 91.7408C527.508 105.72 532.604 113.584 535.153 115.768H491.467V112.492C496.709 113.365 500.932 105.575 502.388 101.57V74.2664C502.388 65.5292 498.384 62.9808 495.835 61.1606H466.347V98.2937C466.347 106.157 471.444 112.856 473.992 115.768H431.398V113.584C439.262 111.836 441.956 107.759 442.32 105.939Z" fill="white"/>
<path fill-rule="evenodd" clip-rule="evenodd" d="M552.629 4.36865H598.499C598.499 5.82485 596.533 10.0478 588.67 15.2902C586.122 27.6679 587.578 54.6076 613.789 58.9762H639.601C639.822 58.9762 640.001 59.1552 640.001 59.3762V112.092C640.001 112.312 639.822 112.492 639.601 112.492H554.813V108.123C557.726 108.487 563.332 105.939 562.458 92.8328V24.0274C562.822 18.9307 561.366 8.51882 552.629 7.6451V4.36865ZM588.67 62.2526C595.951 62.2526 611.168 65.0922 613.789 76.4506C613.789 76.4506 614.881 95.0171 612.697 98.2936C612.489 98.6063 612.282 98.929 612.072 99.2569C610.084 102.364 607.796 105.939 600.684 105.939C597.043 106.303 589.544 106.375 588.67 103.754V62.2526Z" fill="white"/>
</svg>
