<svg width="2560" height="809" viewBox="0 0 2560 809" fill="none" xmlns="http://www.w3.org/2000/svg">
<path d="M-453.375 611.26C-511.332 570.722 -561.509 630.364 -579.354 665.253L-612.032 696.745L-618.952 643.867L-556.644 590.424C-477.615 545.607 -444.216 569.241 -423.949 583.583L-423.844 583.658C-403.587 597.991 -370.879 636.879 -346.364 661.978C-320.143 691.1 -256.307 735.823 -210.733 681.736C-153.766 614.128 -216.857 545.694 -261.423 570.187C-303.676 593.408 -271.344 645.792 -233.845 613.285C-223.014 614.934 -206.146 625.937 -225.326 656.754C-228.501 659.528 -238.282 664.819 -252.005 663.784C-256.705 663.927 -266.738 665.853 -269.276 672.413C-282.333 677.188 -308.427 678.244 -308.344 644.265C-308.134 640.463 -310.018 634.718 -319.236 642.151C-330.758 651.444 -346.742 626.644 -336.585 606.915C-358.187 604.08 -401.244 584.38 -400.663 528.255L-380.122 528.398C-380.971 547.145 -371.84 581.948 -328.523 571.183C-321.071 570.444 -301.619 563.7 -283.428 542.636C-269.797 536.842 -237.674 528.864 -218.234 543.304C-211.946 531.866 -195.448 513.006 -179.759 529.07C-173.25 515.716 -155.462 495.177 -136.381 519.855C-126.772 515.766 -106.87 511.746 -104.128 528.372C-24.9616 483.477 17.4912 507.031 28.9155 524.407C46.035 541.659 81.8798 577.629 106.395 602.728C132.616 631.85 196.452 676.573 242.026 622.486C298.993 554.878 235.901 486.444 191.336 510.937C149.083 534.158 181.415 586.542 218.914 554.035C229.745 555.684 246.613 566.687 227.433 597.504C224.258 600.278 214.476 605.569 200.754 604.534C196.054 604.677 186.021 606.603 183.483 613.163C170.426 617.938 144.332 618.994 144.415 585.014C144.625 581.213 142.741 575.467 133.523 582.901C122.001 592.194 106.017 567.394 116.173 547.665C94.572 544.83 51.5144 525.13 52.0958 469.005L72.6373 469.148C71.7881 487.895 80.9189 522.698 124.236 511.933C131.688 511.194 151.139 504.45 169.33 483.386C182.962 477.592 215.085 469.614 234.525 484.054C240.813 472.616 257.311 453.756 273 469.82C279.509 456.465 297.297 435.927 316.378 460.604C325.987 456.516 345.889 452.496 348.631 469.122C427.797 424.227 470.331 447.682 481.755 465.058C497.68 483.262 534.825 518.355 559.34 543.454C585.561 572.576 649.397 617.298 694.971 563.212C751.938 495.604 688.847 427.17 644.281 451.662C602.028 474.884 634.36 527.267 671.859 494.76C682.69 496.409 699.558 507.412 680.379 538.229C677.203 541.004 667.422 546.294 653.699 545.259C649 545.402 638.966 547.329 636.428 553.889C623.371 558.664 597.278 559.72 597.36 525.74C597.57 521.938 595.686 516.193 586.468 523.627C574.946 532.919 558.962 508.119 569.119 488.39C547.517 485.556 504.46 465.855 505.041 409.731L525.582 409.873C524.733 428.62 533.864 463.423 577.181 452.659C584.633 451.92 604.085 445.175 622.276 424.112C635.907 418.318 668.03 410.339 687.47 424.78C693.758 413.342 710.256 394.482 725.945 410.545C732.454 397.191 750.242 376.652 769.324 401.33C778.932 397.242 798.834 393.222 801.576 409.847C880.743 364.952 923.382 388.482 934.807 405.858L905.274 433.461C847.318 392.923 797.14 452.565 779.296 487.454C762.065 518.016 748.403 548.819 724.579 583.075C718.011 602.806 682.862 636.515 594.809 613.503C596.437 630.275 576.171 631.511 565.834 630.033C553.745 658.79 531.271 643.52 521.545 632.291C510.517 651.85 489.722 637.871 480.703 628.436C465.633 647.392 432.539 647.949 417.876 645.857C394.877 630.184 374.345 628.672 366.954 629.875C322.326 630.62 322.458 666.6 328.103 684.498L308.29 689.921C293.286 635.836 329.824 605.719 349.969 597.422C335.078 580.971 344.141 552.893 357.667 558.907C368.487 563.719 368.83 557.682 367.648 554.062C358.825 521.248 384.311 515.554 398.157 516.809C402.298 522.495 412.489 521.774 417.067 520.703C430.061 516.172 440.874 518.767 444.657 520.631C471.12 545.475 457.652 560.448 447.61 564.829C403.009 543.066 385.245 602.005 432.05 613.572C481.418 625.772 525.265 542.636 452.819 491.963C394.862 451.425 344.195 511.84 326.351 546.729C309.12 577.291 295.458 608.093 271.634 642.349C265.066 662.08 229.916 695.79 141.864 672.778C143.492 689.549 123.226 690.786 112.889 689.308C100.8 718.064 78.326 702.795 68.6 691.565C57.5722 711.125 36.7769 697.145 27.7576 687.71C12.6878 706.667 -20.4062 707.223 -35.0695 705.132C-58.068 689.458 -78.5999 687.946 -85.9912 689.15C-130.619 689.894 -130.487 725.875 -124.842 743.772L-144.656 749.196C-159.659 695.111 -123.121 664.994 -102.976 656.696C-117.868 640.245 -108.804 612.167 -95.2784 618.182C-84.458 622.993 -84.1157 616.957 -85.2971 613.337C-94.1205 580.523 -68.6341 574.829 -54.788 576.083C-50.6471 581.769 -40.4564 581.049 -35.8786 579.978C-22.8841 575.447 -12.0707 578.042 -8.28838 579.906C18.1748 604.75 4.70672 619.723 -5.33525 624.103C-49.9366 602.34 -67.7001 661.28 -20.8946 672.847C28.4729 685.047 71.8298 602.682 -0.616015 552.01C-58.5727 511.472 -108.75 571.114 -126.595 606.003C-143.826 636.565 -157.301 667.343 -181.125 701.599C-187.693 721.331 -222.842 755.04 -310.895 732.028C-309.267 748.799 -329.533 750.036 -339.87 748.558C-351.959 777.315 -374.433 762.045 -384.159 750.815C-395.187 770.375 -415.982 756.395 -425.001 746.96C-440.071 765.917 -473.165 766.473 -487.828 764.382C-510.827 748.708 -531.359 747.197 -538.75 748.4C-583.378 749.144 -583.246 785.125 -577.601 803.022L-597.414 808.446C-612.418 754.361 -575.88 724.244 -555.735 715.946C-570.627 699.495 -561.563 671.417 -548.037 677.432C-537.217 682.243 -536.875 676.207 -538.056 672.587C-546.879 639.773 -521.393 634.079 -507.547 635.333C-503.406 641.019 -493.215 640.299 -488.638 639.228C-475.643 634.697 -464.83 637.292 -461.047 639.156C-434.584 664 -448.052 678.973 -458.094 683.353C-502.695 661.59 -520.459 720.53 -473.654 732.097C-424.286 744.297 -380.929 661.932 -453.375 611.26Z" fill="#FF391E"/>
<path d="M906.158 433.345C848.201 392.807 798.023 452.45 780.179 487.338L747.5 518.83L740.581 465.952L802.889 412.509C881.918 367.692 915.317 391.326 935.583 405.668L935.689 405.743C955.945 420.077 988.653 458.964 1013.17 484.063C1039.39 513.185 1103.23 557.908 1148.8 503.821C1205.77 436.213 1142.68 367.779 1098.11 392.272C1055.86 415.493 1088.19 467.877 1125.69 435.37C1136.52 437.019 1153.39 448.022 1134.21 478.839C1131.03 481.614 1121.25 486.904 1107.53 485.869C1102.83 486.012 1092.79 487.938 1090.26 494.498C1077.2 499.274 1051.11 500.329 1051.19 466.35C1051.4 462.548 1049.51 456.803 1040.3 464.237C1028.77 473.529 1012.79 448.729 1022.95 429C1001.35 426.165 958.288 406.465 958.869 350.34L979.411 350.483C978.562 369.23 987.693 404.033 1031.01 393.269C1038.46 392.529 1057.91 385.785 1076.1 364.721C1089.74 358.927 1121.86 350.949 1141.3 365.389C1147.59 353.951 1164.08 335.091 1179.77 351.155C1186.28 337.801 1204.07 317.262 1223.15 341.94C1232.76 337.851 1252.66 333.831 1255.4 350.457C1334.57 305.562 1377.02 329.116 1388.45 346.493C1405.57 363.744 1441.41 399.714 1465.93 424.813C1492.15 453.935 1555.98 498.658 1601.56 444.571C1658.53 376.963 1595.43 308.529 1550.87 333.022C1508.62 356.243 1540.95 408.627 1578.45 376.12C1589.28 377.769 1606.15 388.772 1586.97 419.589C1583.79 422.364 1574.01 427.654 1560.29 426.619C1555.59 426.762 1545.55 428.688 1543.02 435.248C1529.96 440.023 1503.86 441.079 1503.95 407.1C1504.16 403.298 1502.27 397.553 1493.06 404.987C1481.53 414.279 1465.55 389.479 1475.71 369.75C1454.1 366.915 1411.05 347.215 1411.63 291.09L1432.17 291.233C1431.32 309.98 1440.45 344.783 1483.77 334.019C1491.22 333.279 1510.67 326.535 1528.86 305.471C1542.49 299.677 1574.62 291.699 1594.06 306.139C1600.35 294.701 1616.84 275.841 1632.53 291.905C1639.04 278.551 1656.83 258.012 1675.91 282.69C1685.52 278.601 1705.42 274.581 1708.16 291.207C1787.33 246.312 1829.86 269.767 1841.29 287.143C1857.21 305.347 1894.36 340.44 1918.87 365.539C1945.09 394.661 2008.93 439.383 2054.5 385.297C2111.47 317.689 2048.38 249.255 2003.81 273.747C1961.56 296.969 1993.89 349.352 2031.39 316.845C2042.22 318.495 2059.09 329.497 2039.91 360.315C2036.74 363.089 2026.95 368.379 2013.23 367.344C2008.53 367.488 1998.5 369.414 1995.96 375.974C1982.9 380.749 1956.81 381.805 1956.89 347.825C1957.1 344.023 1955.22 338.278 1946 345.712C1934.48 355.005 1918.49 330.204 1928.65 310.475C1907.05 307.641 1863.99 287.941 1864.57 231.816L1885.11 231.958C1884.27 250.705 1893.4 285.508 1936.71 274.744C1944.17 274.005 1963.62 267.261 1981.81 246.197C1995.44 240.403 2027.56 232.425 2047 246.865C2053.29 235.427 2069.79 216.567 2085.48 232.63C2091.99 219.276 2109.77 198.738 2128.86 223.415C2138.46 219.327 2158.37 215.307 2161.11 231.933C2240.28 187.038 2282.92 210.567 2294.34 227.944L2264.81 255.546C2206.85 215.008 2156.67 274.651 2138.83 309.539C2121.6 340.102 2107.94 370.904 2084.11 405.16C2077.54 424.891 2042.39 458.601 1954.34 435.589C1955.97 452.36 1935.7 453.597 1925.37 452.118C1913.28 480.875 1890.8 465.605 1881.08 454.376C1870.05 473.936 1849.25 459.956 1840.24 450.521C1825.17 469.478 1792.07 470.034 1777.41 467.942C1754.41 452.269 1733.88 450.757 1726.49 451.96C1681.86 452.705 1681.99 488.686 1687.64 506.583L1667.82 512.006C1652.82 457.921 1689.36 427.805 1709.5 419.507C1694.61 403.056 1703.67 374.978 1717.2 380.992C1728.02 385.804 1728.36 379.767 1727.18 376.148C1718.36 343.334 1743.84 337.639 1757.69 338.894C1761.83 344.58 1772.02 343.859 1776.6 342.789C1789.59 338.257 1800.41 340.852 1804.19 342.716C1830.65 367.561 1817.18 382.533 1807.14 386.914C1762.54 365.151 1744.78 424.09 1791.58 435.657C1840.95 447.857 1884.8 364.721 1812.35 314.049C1754.39 273.511 1703.73 333.925 1685.88 368.814C1668.65 399.376 1654.99 430.178 1631.17 464.434C1624.6 484.166 1589.45 517.875 1501.4 494.863C1503.02 511.634 1482.76 512.871 1472.42 511.393C1460.33 540.15 1437.86 524.88 1428.13 513.65C1417.1 533.21 1396.31 519.23 1387.29 509.795C1372.22 528.752 1339.13 529.308 1324.46 527.217C1301.46 511.543 1280.93 510.032 1273.54 511.235C1228.91 511.979 1229.05 547.96 1234.69 565.857L1214.88 571.281C1199.87 517.196 1236.41 487.079 1256.56 478.781C1241.66 462.33 1250.73 434.252 1264.25 440.267C1275.07 445.078 1275.42 439.042 1274.24 435.422C1265.41 402.608 1290.9 396.914 1304.74 398.168C1308.89 403.854 1319.08 403.134 1323.65 402.063C1336.65 397.532 1347.46 400.127 1351.24 401.991C1377.71 426.835 1364.24 441.808 1354.2 446.188C1309.6 424.425 1291.83 483.365 1338.64 494.932C1388.01 507.132 1431.36 424.767 1358.92 374.095C1300.96 333.557 1250.78 393.2 1232.94 428.088C1215.71 458.65 1202.23 489.428 1178.41 523.684C1171.84 543.416 1136.69 577.125 1048.64 554.113C1050.27 570.884 1030 572.121 1019.66 570.643C1007.57 599.4 985.1 584.13 975.374 572.9C964.346 592.46 943.55 578.48 934.531 569.045C919.461 588.002 886.367 588.558 871.704 586.467C848.706 570.793 828.174 569.282 820.783 570.485C776.154 571.23 776.287 607.21 781.931 625.107L762.118 630.531C747.114 576.446 783.653 546.329 803.797 538.031C788.906 521.58 797.97 493.502 811.495 499.517C822.316 504.328 822.658 498.292 821.477 494.672C812.653 461.858 838.14 456.164 851.986 457.418C856.127 463.104 866.317 462.384 870.895 461.313C883.89 456.782 894.703 459.377 898.485 461.241C924.949 486.085 911.48 501.058 901.438 505.438C856.837 483.676 839.074 542.615 885.879 554.182C935.247 566.382 978.603 484.017 906.158 433.345Z" fill="#FF391E"/>
<path d="M2253.16 257.069C2195.21 216.531 2145.03 276.174 2127.18 311.063L2094.51 342.554L2087.59 289.676L2149.89 236.233C2228.92 191.416 2262.32 215.051 2282.59 229.392L2282.69 229.467C2302.95 243.801 2335.66 282.689 2360.17 307.788C2386.39 336.91 2450.23 381.632 2495.8 327.546C2552.77 259.938 2489.68 191.504 2445.11 215.996C2402.86 239.218 2435.19 291.601 2472.69 259.094C2483.52 260.744 2500.39 271.746 2481.21 302.564C2478.04 305.338 2468.26 310.628 2454.53 309.593C2449.83 309.737 2439.8 311.663 2437.26 318.223C2424.2 322.998 2398.11 324.054 2398.19 290.074C2398.4 286.272 2396.52 280.527 2387.3 287.961C2375.78 297.253 2359.8 272.453 2369.95 252.724C2348.35 249.89 2305.29 230.189 2305.87 174.065L2326.42 174.207C2325.57 192.954 2334.7 227.757 2378.01 216.993C2385.47 216.254 2404.92 209.51 2423.11 188.446C2436.74 182.652 2468.86 174.674 2488.3 189.114C2494.59 177.676 2511.09 158.816 2526.78 174.879C2533.29 161.525 2551.08 140.987 2570.16 165.664C2579.77 161.576 2599.67 157.556 2602.41 174.182C2681.58 129.287 2724.03 152.841 2735.45 170.217C2752.57 187.468 2788.42 223.439 2812.93 248.538C2839.15 277.66 2902.99 322.382 2948.56 268.296C3005.53 200.688 2942.44 132.254 2897.87 156.746C2855.62 179.968 2887.95 232.351 2925.45 199.844C2936.28 201.494 2953.15 212.496 2933.97 243.314C2930.8 246.088 2921.01 251.378 2907.29 250.344C2902.59 250.487 2892.56 252.413 2890.02 258.973C2876.96 263.748 2850.87 264.804 2850.95 230.824C2851.16 227.022 2849.28 221.277 2840.06 228.711C2828.54 238.004 2812.55 213.203 2822.71 193.474C2801.11 190.64 2758.05 170.94 2758.63 114.815L2779.18 114.957C2778.33 133.704 2787.46 168.507 2830.77 157.743C2838.23 157.004 2857.68 150.26 2875.87 129.196C2889.5 123.402 2921.62 115.424 2941.06 129.864C2947.35 118.426 2963.85 99.5659 2979.54 115.629C2986.05 102.275 3003.83 81.7366 3022.92 106.414C3032.52 102.326 3052.43 98.306 3055.17 114.932C3134.34 70.0366 3176.87 93.4915 3188.29 110.868C3204.22 129.072 3241.36 164.164 3265.88 189.264C3292.1 218.386 3355.93 263.108 3401.51 209.022C3458.48 141.414 3395.38 72.9795 3350.82 97.4721C3308.57 120.694 3340.9 173.077 3378.4 140.57C3389.23 142.219 3406.1 153.222 3386.92 184.039C3383.74 186.814 3373.96 192.104 3360.24 191.069C3355.54 191.212 3345.5 193.139 3342.97 199.698C3329.91 204.474 3303.82 205.53 3303.9 171.55C3304.11 167.748 3302.22 162.003 3293.01 169.437C3281.48 178.729 3265.5 153.929 3275.66 134.2C3254.05 131.366 3211 111.665 3211.58 55.5405L3232.12 55.6831C3231.27 74.4301 3240.4 109.233 3283.72 98.4688C3291.17 97.7296 3310.62 90.9853 3328.81 69.9217C3342.44 64.1276 3374.57 56.1493 3394.01 70.5897C3400.3 59.1517 3416.79 40.2915 3432.48 56.355C3438.99 43.0009 3456.78 22.4622 3475.86 47.14C3485.47 43.0517 3505.37 39.0317 3508.11 55.6573C3587.28 10.7623 3629.92 34.2918 3641.34 51.6685L3611.81 79.2707C3553.86 38.7327 3503.68 98.3754 3485.83 133.264C3468.6 163.826 3454.94 194.629 3431.12 228.885C3424.55 248.616 3389.4 282.325 3301.35 259.313C3302.98 276.085 3282.71 277.321 3272.37 275.843C3260.28 304.6 3237.81 289.33 3228.08 278.1C3217.06 297.66 3196.26 283.681 3187.24 274.246C3172.17 293.202 3139.08 293.759 3124.41 291.667C3101.42 275.994 3080.88 274.482 3073.49 275.685C3028.86 276.43 3029 312.41 3034.64 330.307L3014.83 335.731C2999.82 281.646 3036.36 251.529 3056.51 243.232C3041.62 226.781 3050.68 198.702 3064.2 204.717C3075.02 209.529 3075.37 203.492 3074.19 199.872C3065.36 167.058 3090.85 161.364 3104.69 162.619C3108.84 168.304 3119.03 167.584 3123.6 166.513C3136.6 161.982 3147.41 164.577 3151.19 166.441C3177.66 191.285 3164.19 206.258 3154.15 210.639C3109.55 188.876 3091.78 247.815 3138.59 259.382C3187.96 271.582 3231.8 188.446 3159.36 137.773C3101.4 97.2352 3050.73 157.65 3032.89 192.538C3015.66 223.101 3002 253.903 2978.17 288.159C2971.6 307.89 2936.45 341.6 2848.4 318.588C2850.03 335.359 2829.76 336.596 2819.43 335.117C2807.34 363.874 2784.86 348.604 2775.14 337.375C2764.11 356.935 2743.31 342.955 2734.3 333.52C2719.23 352.477 2686.13 353.033 2671.47 350.941C2648.47 335.268 2627.94 333.756 2620.55 334.959C2575.92 335.704 2576.05 371.685 2581.7 389.582L2561.88 395.005C2546.88 340.92 2583.42 310.804 2603.56 302.506C2588.67 286.055 2597.73 257.977 2611.26 263.991C2622.08 268.803 2622.42 262.766 2621.24 259.147C2612.42 226.332 2637.9 220.638 2651.75 221.893C2655.89 227.579 2666.08 226.858 2670.66 225.788C2683.65 221.256 2694.47 223.851 2698.25 225.715C2724.71 250.56 2711.24 265.532 2701.2 269.913C2656.6 248.15 2638.84 307.089 2685.64 318.656C2735.01 330.856 2778.37 248.492 2705.92 197.819C2647.97 157.281 2597.79 216.924 2579.94 251.813C2562.71 282.375 2549.24 313.153 2525.41 347.409C2518.84 367.14 2483.7 400.85 2395.64 377.838C2397.27 394.609 2377 395.845 2366.67 394.367C2354.58 423.124 2332.1 407.854 2322.38 396.625C2311.35 416.185 2290.56 402.205 2281.54 392.77C2266.47 411.726 2233.37 412.283 2218.71 410.191C2195.71 394.518 2175.18 393.006 2167.79 394.209C2123.16 394.954 2123.29 430.935 2128.94 448.832L2109.12 454.255C2094.12 400.17 2130.66 370.054 2150.8 361.756C2135.91 345.305 2144.98 317.227 2158.5 323.241C2169.32 328.053 2169.66 322.016 2168.48 318.397C2159.66 285.582 2185.14 279.888 2198.99 281.143C2203.13 286.829 2213.32 286.108 2217.9 285.038C2230.89 280.506 2241.71 283.101 2245.49 284.965C2271.95 309.81 2258.49 324.782 2248.44 329.163C2203.84 307.4 2186.08 366.339 2232.88 377.906C2282.25 390.106 2325.61 307.742 2253.16 257.069Z" fill="#FF391E"/>
</svg>
