<svg width="535" height="267" viewBox="0 0 535 267" fill="none" xmlns="http://www.w3.org/2000/svg">
<path d="M153.75 396.205C187.802 326.347 137.807 285.772 108.553 274.217C104.019 272.608 97.3201 266.845 106.798 256.664C118.646 243.939 125.667 217.611 164.282 199.619C169.986 196.84 184.994 192.95 199.387 199.619C217.378 207.957 213.867 178.118 212.551 174.169C211.234 170.219 206.846 116.685 267.402 70.1714C327.957 116.685 323.569 170.219 322.253 174.169C320.936 178.118 317.426 207.957 335.417 199.619C349.81 192.95 364.817 196.84 370.521 199.619C409.136 217.611 416.157 243.939 428.005 256.664C437.483 266.845 430.784 272.608 426.25 274.217C396.996 285.772 347.001 326.347 381.053 396.205C404.017 426.044 464.075 468.345 520.593 398.838C535.659 373.972 551.222 315.728 492.949 281.676C491.193 280.799 487.595 277.376 487.244 270.706C486.805 262.369 485.928 224.193 459.599 196.987C433.271 169.781 417.035 157.494 375.348 154.861C372.569 154.861 367.099 152.141 367.45 141.258C367.888 127.655 374.471 107.909 341.999 63.1505C335.124 53.058 316.285 31.4687 295.924 25.8519C289.635 21.1713 275.739 9.70383 270.473 1.27874C270.181 0.986199 269.157 0.401123 267.402 0.401123C265.646 0.401123 264.623 0.986199 264.33 1.27874C259.064 9.70383 245.169 21.1713 238.879 25.8519C218.519 31.4687 199.679 53.058 192.804 63.1505C160.333 107.909 166.915 127.655 167.354 141.258C167.705 152.141 162.234 154.861 159.455 154.861C117.768 157.494 101.533 169.781 75.2042 196.987C48.8758 224.193 47.9982 262.369 47.5593 270.706C47.2083 277.376 43.61 280.799 41.8547 281.676C-16.4189 315.728 -0.855865 373.972 14.2098 398.838C70.7282 468.345 130.786 426.044 153.75 396.205Z" fill="#32BD70"/>
<path d="M315.232 315.903C315.232 342.319 293.817 363.733 267.402 363.733C240.986 363.733 219.572 342.319 219.572 315.903C219.572 289.488 240.986 268.073 267.402 268.073C293.817 268.073 315.232 289.488 315.232 315.903Z" fill="#32BD70"/>
</svg>
