<svg width="2560" height="218" viewBox="0 0 2560 218" fill="none" xmlns="http://www.w3.org/2000/svg">
<mask id="mask0_441_322" style="mask-type:alpha" maskUnits="userSpaceOnUse" x="0" y="0" width="2560" height="218">
<rect width="2560" height="218" fill="white"/>
</mask>
<g mask="url(#mask0_441_322)">
<path d="M-45.2835 141C-82.4835 175 -123.45 137.5 -139.283 114.5L-165.283 95.2716V133.272L-116.32 165.27C-56.3396 189.627 -34.9272 169.84 -21.9342 157.834L-21.8666 157.771C-8.88023 145.771 10.6336 115.272 25.6336 95.2716C41.4669 72.2716 82.4339 34.7716 119.634 68.7716C166.134 111.272 127.885 165.456 94.1338 152.271C62.1338 139.771 80.1339 99.7716 109.634 119.272C117.134 117.105 128.034 107.772 111.634 87.7716C109.134 86.1049 101.734 83.2716 92.1338 85.2716C88.8005 85.6049 81.5337 85.1716 79.1337 80.7716C69.467 78.6049 50.9335 80.2716 54.1336 104.272C54.6336 106.938 53.8336 111.172 46.6336 106.772C37.6336 101.272 28.6336 120.272 37.6336 133.272C22.6336 137.272 -5.96645 155.171 -0.36644 194.771L14.1336 192.771C11.8002 179.605 15.0336 154.171 46.6336 157.771C51.9669 157.605 66.3337 160.571 81.1337 173.771C91.3004 176.605 114.734 179.271 127.134 167.271C132.634 174.771 146.034 186.571 155.634 173.771C161.467 182.605 175.934 195.471 187.134 176.271C194.301 178.271 208.734 179.271 209.134 167.271C269.218 191.671 297.035 171.105 303.5 157.771C314 144 336 115.272 351 95.2716C366.833 72.2716 407.8 34.7716 445 68.7716C491.5 111.272 453.252 165.456 419.5 152.271C387.5 139.771 405.5 99.7716 435 119.272C442.5 117.105 453.4 107.772 437 87.7716C434.5 86.1049 427.1 83.2716 417.5 85.2716C414.167 85.6049 406.9 85.1716 404.5 80.7716C394.833 78.6049 376.3 80.2716 379.5 104.272C380 106.938 379.2 111.172 372 106.772C363 101.272 354 120.272 363 133.272C348 137.272 319.4 155.171 325 194.771L339.5 192.771C337.166 179.605 340.4 154.171 372 157.771C377.333 157.605 391.7 160.571 406.5 173.771C416.666 176.605 440.1 179.271 452.5 167.271C458 174.771 471.4 186.571 481 173.771C486.833 182.605 501.3 195.471 512.5 176.271C519.667 178.271 534.1 179.271 534.5 167.271C594.584 191.671 622.467 171.167 628.932 157.834C638.5 143.5 661.5 115.272 676.5 95.2716C692.333 72.2716 733.3 34.7716 770.5 68.7716C817 111.272 778.751 165.456 745 152.271C713 139.771 731 99.7715 760.5 119.272C768 117.105 778.9 107.772 762.5 87.7716C760 86.1049 752.6 83.2716 743 85.2716C739.667 85.6049 732.4 85.1716 730 80.7716C720.333 78.6049 701.8 80.2716 705 104.272C705.5 106.938 704.7 111.172 697.5 106.772C688.5 101.272 679.5 120.272 688.5 133.272C673.5 137.272 644.9 155.171 650.5 194.771L665 192.771C662.666 179.605 665.9 154.171 697.5 157.771C702.833 157.605 717.2 160.571 732 173.771C742.166 176.605 765.6 179.271 778 167.271C783.5 174.771 796.9 186.571 806.5 173.771C812.333 182.605 826.8 195.471 838 176.271C845.167 178.271 859.6 179.271 860 167.271C920.084 191.671 948.035 171.105 954.5 157.771L931.083 141C893.883 175 852.916 137.5 837.083 114.5C822.083 94.5 809.583 74.0004 789.583 52.0002C783.118 38.6668 755.167 18.1 695.083 42.5C694.682 30.5 680.249 31.5001 673.083 33.5002C661.883 14.3003 647.416 27.1669 641.583 36.0002C631.983 23.2002 618.583 35.0001 613.083 42.5C600.682 30.5 577.249 33.1668 567.083 36.0002C552.283 49.2003 537.916 52.1669 532.583 52.0002C500.983 55.6003 497.749 30.1668 500.083 17L485.583 15C479.983 54.6 508.583 72.5 523.583 76.5C514.583 89.5 523.583 108.5 532.583 103C539.783 98.6 540.583 102.833 540.083 105.5C536.883 129.5 555.416 131.167 565.083 129C567.483 124.6 574.749 124.167 578.083 124.5C587.682 126.5 595.083 123.667 597.583 122C613.982 102 603.083 92.6667 595.583 90.5C566.083 110 548.083 70 580.083 57.5C613.834 44.3158 652.5 99 606 141.5C568.8 175.5 527.416 137.5 511.583 114.5C496.583 94.5 484.083 74.0004 464.083 52.0002C457.618 38.6668 429.667 18.1 369.583 42.5C369.183 30.5 354.749 31.5001 347.583 33.5002C336.383 14.3003 321.916 27.1669 316.083 36.0002C306.483 23.2002 293.083 35.0001 287.583 42.5C275.183 30.5 251.749 33.1668 241.583 36.0002C226.783 49.2003 212.416 52.1669 207.083 52.0002C175.483 55.6003 172.249 30.1668 174.583 17L160.083 15C154.483 54.6 183.083 72.5 198.083 76.5C189.083 89.5 198.083 108.5 207.083 103C214.283 98.6 215.083 102.833 214.583 105.5C211.383 129.5 229.916 131.167 239.583 129C241.983 124.6 249.249 124.167 252.583 124.5C262.183 126.5 269.583 123.667 272.083 122C288.483 102 277.583 92.6667 270.083 90.5C240.583 110 222.583 70 254.583 57.5C288.334 44.3158 326.583 98.5 280.083 141C242.883 175 201.916 137.5 186.083 114.5C171.083 94.5 158.716 74.0004 138.716 52.0002C132.252 38.6668 104.301 18.1 44.2165 42.5C43.8165 30.5 29.3832 31.5001 22.2165 33.5002C11.0165 14.3003 -3.45015 27.1669 -9.28349 36.0002C-18.8835 23.2002 -32.2835 35.0001 -37.7835 42.5C-50.1835 30.5 -73.6168 33.1668 -83.7835 36.0002C-98.5835 49.2003 -112.95 52.1669 -118.283 52.0002C-149.884 55.6003 -153.117 30.1668 -150.783 17L-165.283 15C-170.884 54.6 -142.283 72.5 -127.283 76.5C-136.283 89.5 -127.283 108.5 -118.283 103C-111.083 98.6 -110.283 102.833 -110.783 105.5C-113.984 129.5 -95.4502 131.167 -85.7835 129C-83.3835 124.6 -76.1168 124.167 -72.7835 124.5C-63.1835 126.5 -55.7835 123.667 -53.2835 122C-36.8835 102 -47.7835 92.6667 -55.2835 90.5C-84.7835 110 -102.784 70 -70.7835 57.5C-37.0318 44.3158 1.21649 98.5 -45.2835 141Z" fill="#FF2322"/>
<path d="M929.716 141C892.516 175 851.55 137.5 835.717 114.5L809.717 95.2716V133.272L858.68 165.27C918.66 189.627 940.073 169.84 953.066 157.834L953.133 157.771C966.12 145.771 985.634 115.272 1000.63 95.2716C1016.47 72.2716 1057.43 34.7716 1094.63 68.7716C1141.13 111.272 1102.89 165.456 1069.13 152.271C1037.13 139.771 1055.13 99.7716 1084.63 119.272C1092.13 117.105 1103.03 107.772 1086.63 87.7716C1084.13 86.1049 1076.73 83.2716 1067.13 85.2716C1063.8 85.6049 1056.53 85.1716 1054.13 80.7716C1044.47 78.6049 1025.93 80.2716 1029.13 104.272C1029.63 106.938 1028.83 111.172 1021.63 106.772C1012.63 101.272 1003.63 120.272 1012.63 133.272C997.634 137.272 969.034 155.171 974.634 194.771L989.134 192.771C986.8 179.605 990.034 154.171 1021.63 157.771C1026.97 157.605 1041.33 160.571 1056.13 173.771C1066.3 176.605 1089.73 179.271 1102.13 167.271C1107.63 174.771 1121.03 186.571 1130.63 173.771C1136.47 182.605 1150.93 195.471 1162.13 176.271C1169.3 178.271 1183.73 179.271 1184.13 167.271C1244.22 191.671 1272.03 171.105 1278.5 157.771C1289 144 1311 115.272 1326 95.2716C1341.83 72.2716 1382.8 34.7716 1420 68.7716C1466.5 111.272 1428.25 165.456 1394.5 152.271C1362.5 139.771 1380.5 99.7716 1410 119.272C1417.5 117.105 1428.4 107.772 1412 87.7716C1409.5 86.1049 1402.1 83.2716 1392.5 85.2716C1389.17 85.6049 1381.9 85.1716 1379.5 80.7716C1369.83 78.6049 1351.3 80.2716 1354.5 104.272C1355 106.938 1354.2 111.172 1347 106.772C1338 101.272 1329 120.272 1338 133.272C1323 137.272 1294.4 155.171 1300 194.771L1314.5 192.771C1312.17 179.605 1315.4 154.171 1347 157.771C1352.33 157.605 1366.7 160.571 1381.5 173.771C1391.67 176.605 1415.1 179.271 1427.5 167.271C1433 174.771 1446.4 186.571 1456 173.771C1461.83 182.605 1476.3 195.471 1487.5 176.271C1494.67 178.271 1509.1 179.271 1509.5 167.271C1569.58 191.671 1597.47 171.167 1603.93 157.834C1613.5 143.5 1636.5 115.272 1651.5 95.2716C1667.33 72.2716 1708.3 34.7716 1745.5 68.7716C1792 111.272 1753.75 165.456 1720 152.271C1688 139.771 1706 99.7715 1735.5 119.272C1743 117.105 1753.9 107.772 1737.5 87.7716C1735 86.1049 1727.6 83.2716 1718 85.2716C1714.67 85.6049 1707.4 85.1716 1705 80.7716C1695.33 78.6049 1676.8 80.2716 1680 104.272C1680.5 106.938 1679.7 111.172 1672.5 106.772C1663.5 101.272 1654.5 120.272 1663.5 133.272C1648.5 137.272 1619.9 155.171 1625.5 194.771L1640 192.771C1637.67 179.605 1640.9 154.171 1672.5 157.771C1677.83 157.605 1692.2 160.571 1707 173.771C1717.17 176.605 1740.6 179.271 1753 167.271C1758.5 174.771 1771.9 186.571 1781.5 173.771C1787.33 182.605 1801.8 195.471 1813 176.271C1820.17 178.271 1834.6 179.271 1835 167.271C1895.08 191.671 1923.04 171.105 1929.5 157.771L1906.08 141C1868.88 175 1827.92 137.5 1812.08 114.5C1797.08 94.5 1784.58 74.0004 1764.58 52.0002C1758.12 38.6668 1730.17 18.1 1670.08 42.5C1669.68 30.5 1655.25 31.5001 1648.08 33.5002C1636.88 14.3003 1622.42 27.1669 1616.58 36.0002C1606.98 23.2002 1593.58 35.0001 1588.08 42.5C1575.68 30.5 1552.25 33.1668 1542.08 36.0002C1527.28 49.2003 1512.92 52.1669 1507.58 52.0002C1475.98 55.6003 1472.75 30.1668 1475.08 17L1460.58 15C1454.98 54.6 1483.58 72.5 1498.58 76.5C1489.58 89.5 1498.58 108.5 1507.58 103C1514.78 98.6 1515.58 102.833 1515.08 105.5C1511.88 129.5 1530.42 131.167 1540.08 129C1542.48 124.6 1549.75 124.167 1553.08 124.5C1562.68 126.5 1570.08 123.667 1572.58 122C1588.98 102 1578.08 92.6667 1570.58 90.5C1541.08 110 1523.08 70 1555.08 57.5C1588.83 44.3158 1627.5 99 1581 141.5C1543.8 175.5 1502.42 137.5 1486.58 114.5C1471.58 94.5 1459.08 74.0004 1439.08 52.0002C1432.62 38.6668 1404.67 18.1 1344.58 42.5C1344.18 30.5 1329.75 31.5001 1322.58 33.5002C1311.38 14.3003 1296.92 27.1669 1291.08 36.0002C1281.48 23.2002 1268.08 35.0001 1262.58 42.5C1250.18 30.5 1226.75 33.1668 1216.58 36.0002C1201.78 49.2003 1187.42 52.1669 1182.08 52.0002C1150.48 55.6003 1147.25 30.1668 1149.58 17L1135.08 15C1129.48 54.6 1158.08 72.5 1173.08 76.5C1164.08 89.5 1173.08 108.5 1182.08 103C1189.28 98.6 1190.08 102.833 1189.58 105.5C1186.38 129.5 1204.92 131.167 1214.58 129C1216.98 124.6 1224.25 124.167 1227.58 124.5C1237.18 126.5 1244.58 123.667 1247.08 122C1263.48 102 1252.58 92.6667 1245.08 90.5C1215.58 110 1197.58 70 1229.58 57.5C1263.33 44.3158 1301.58 98.5 1255.08 141C1217.88 175 1176.92 137.5 1161.08 114.5C1146.08 94.5 1133.72 74.0004 1113.72 52.0002C1107.25 38.6668 1079.3 18.1 1019.22 42.5C1018.82 30.5 1004.38 31.5001 997.217 33.5002C986.016 14.3003 971.55 27.1669 965.717 36.0002C956.117 23.2002 942.717 35.0001 937.217 42.5C924.817 30.5 901.383 33.1668 891.216 36.0002C876.417 49.2003 862.05 52.1669 856.717 52.0002C825.116 55.6003 821.883 30.1668 824.217 17L809.717 15C804.116 54.6 832.717 72.5 847.717 76.5C838.717 89.5 847.717 108.5 856.717 103C863.917 98.6 864.717 102.833 864.217 105.5C861.016 129.5 879.55 131.167 889.216 129C891.616 124.6 898.883 124.167 902.216 124.5C911.817 126.5 919.216 123.667 921.716 122C938.116 102 927.216 92.6667 919.716 90.5C890.216 110 872.216 70 904.216 57.5C937.968 44.3158 976.216 98.5 929.716 141Z" fill="#FF2322"/>
<path d="M1904.72 141C1867.52 175 1826.55 137.5 1810.72 114.5L1784.72 95.2716V133.272L1833.68 165.27C1893.66 189.627 1915.07 169.84 1928.07 157.834L1928.13 157.771C1941.12 145.771 1960.63 115.272 1975.63 95.2716C1991.47 72.2716 2032.43 34.7716 2069.63 68.7716C2116.13 111.272 2077.89 165.456 2044.13 152.271C2012.13 139.771 2030.13 99.7716 2059.63 119.272C2067.13 117.105 2078.03 107.772 2061.63 87.7716C2059.13 86.1049 2051.73 83.2716 2042.13 85.2716C2038.8 85.6049 2031.53 85.1716 2029.13 80.7716C2019.47 78.6049 2000.93 80.2716 2004.13 104.272C2004.63 106.938 2003.83 111.172 1996.63 106.772C1987.63 101.272 1978.63 120.272 1987.63 133.272C1972.63 137.272 1944.03 155.171 1949.63 194.771L1964.13 192.771C1961.8 179.605 1965.03 154.171 1996.63 157.771C2001.97 157.605 2016.33 160.571 2031.13 173.771C2041.3 176.605 2064.73 179.271 2077.13 167.271C2082.63 174.771 2096.03 186.571 2105.63 173.771C2111.47 182.605 2125.93 195.471 2137.13 176.271C2144.3 178.271 2158.73 179.271 2159.13 167.271C2219.22 191.671 2247.03 171.105 2253.5 157.771C2264 144 2286 115.272 2301 95.2716C2316.83 72.2716 2357.8 34.7716 2395 68.7716C2441.5 111.272 2403.25 165.456 2369.5 152.271C2337.5 139.771 2355.5 99.7716 2385 119.272C2392.5 117.105 2403.4 107.772 2387 87.7716C2384.5 86.1049 2377.1 83.2716 2367.5 85.2716C2364.17 85.6049 2356.9 85.1716 2354.5 80.7716C2344.83 78.6049 2326.3 80.2716 2329.5 104.272C2330 106.938 2329.2 111.172 2322 106.772C2313 101.272 2304 120.272 2313 133.272C2298 137.272 2269.4 155.171 2275 194.771L2289.5 192.771C2287.17 179.605 2290.4 154.171 2322 157.771C2327.33 157.605 2341.7 160.571 2356.5 173.771C2366.67 176.605 2390.1 179.271 2402.5 167.271C2408 174.771 2421.4 186.571 2431 173.771C2436.83 182.605 2451.3 195.471 2462.5 176.271C2469.67 178.271 2484.1 179.271 2484.5 167.271C2544.58 191.671 2572.47 171.167 2578.93 157.834C2588.5 143.5 2611.5 115.272 2626.5 95.2716C2642.33 72.2716 2683.3 34.7716 2720.5 68.7716C2767 111.272 2728.75 165.456 2695 152.271C2663 139.771 2681 99.7715 2710.5 119.272C2718 117.105 2728.9 107.772 2712.5 87.7716C2710 86.1049 2702.6 83.2716 2693 85.2716C2689.67 85.6049 2682.4 85.1716 2680 80.7716C2670.33 78.6049 2651.8 80.2716 2655 104.272C2655.5 106.938 2654.7 111.172 2647.5 106.772C2638.5 101.272 2629.5 120.272 2638.5 133.272C2623.5 137.272 2594.9 155.171 2600.5 194.771L2615 192.771C2612.67 179.605 2615.9 154.171 2647.5 157.771C2652.83 157.605 2667.2 160.571 2682 173.771C2692.17 176.605 2715.6 179.271 2728 167.271C2733.5 174.771 2746.9 186.571 2756.5 173.771C2762.33 182.605 2776.8 195.471 2788 176.271C2795.17 178.271 2809.6 179.271 2810 167.271C2870.08 191.671 2898.04 171.105 2904.5 157.771L2881.08 141C2843.88 175 2802.92 137.5 2787.08 114.5C2772.08 94.5 2759.58 74.0004 2739.58 52.0002C2733.12 38.6668 2705.17 18.1 2645.08 42.5C2644.68 30.5 2630.25 31.5001 2623.08 33.5002C2611.88 14.3003 2597.42 27.1669 2591.58 36.0002C2581.98 23.2002 2568.58 35.0001 2563.08 42.5C2550.68 30.5 2527.25 33.1668 2517.08 36.0002C2502.28 49.2003 2487.92 52.1669 2482.58 52.0002C2450.98 55.6003 2447.75 30.1668 2450.08 17L2435.58 15C2429.98 54.6 2458.58 72.5 2473.58 76.5C2464.58 89.5 2473.58 108.5 2482.58 103C2489.78 98.6 2490.58 102.833 2490.08 105.5C2486.88 129.5 2505.42 131.167 2515.08 129C2517.48 124.6 2524.75 124.167 2528.08 124.5C2537.68 126.5 2545.08 123.667 2547.58 122C2563.98 102 2553.08 92.6667 2545.58 90.5C2516.08 110 2498.08 70 2530.08 57.5C2563.83 44.3158 2602.5 99 2556 141.5C2518.8 175.5 2477.42 137.5 2461.58 114.5C2446.58 94.5 2434.08 74.0004 2414.08 52.0002C2407.62 38.6668 2379.67 18.1 2319.58 42.5C2319.18 30.5 2304.75 31.5001 2297.58 33.5002C2286.38 14.3003 2271.92 27.1669 2266.08 36.0002C2256.48 23.2002 2243.08 35.0001 2237.58 42.5C2225.18 30.5 2201.75 33.1668 2191.58 36.0002C2176.78 49.2003 2162.42 52.1669 2157.08 52.0002C2125.48 55.6003 2122.25 30.1668 2124.58 17L2110.08 15C2104.48 54.6 2133.08 72.5 2148.08 76.5C2139.08 89.5 2148.08 108.5 2157.08 103C2164.28 98.6 2165.08 102.833 2164.58 105.5C2161.38 129.5 2179.92 131.167 2189.58 129C2191.98 124.6 2199.25 124.167 2202.58 124.5C2212.18 126.5 2219.58 123.667 2222.08 122C2238.48 102 2227.58 92.6667 2220.08 90.5C2190.58 110 2172.58 70 2204.58 57.5C2238.33 44.3158 2276.58 98.5 2230.08 141C2192.88 175 2151.92 137.5 2136.08 114.5C2121.08 94.5 2108.72 74.0004 2088.72 52.0002C2082.25 38.6668 2054.3 18.1 1994.22 42.5C1993.82 30.5 1979.38 31.5001 1972.22 33.5002C1961.02 14.3003 1946.55 27.1669 1940.72 36.0002C1931.12 23.2002 1917.72 35.0001 1912.22 42.5C1899.82 30.5 1876.38 33.1668 1866.22 36.0002C1851.42 49.2003 1837.05 52.1669 1831.72 52.0002C1800.12 55.6003 1796.88 30.1668 1799.22 17L1784.72 15C1779.12 54.6 1807.72 72.5 1822.72 76.5C1813.72 89.5 1822.72 108.5 1831.72 103C1838.92 98.6 1839.72 102.833 1839.22 105.5C1836.02 129.5 1854.55 131.167 1864.22 129C1866.62 124.6 1873.88 124.167 1877.22 124.5C1886.82 126.5 1894.22 123.667 1896.72 122C1913.12 102 1902.22 92.6667 1894.72 90.5C1865.22 110 1847.22 70 1879.22 57.5C1912.97 44.3158 1951.22 98.5 1904.72 141Z" fill="#FF2322"/>
</g>
</svg>
