<svg width="331" height="352" viewBox="0 0 331 352" fill="none" xmlns="http://www.w3.org/2000/svg">
<path d="M0.234375 194.317C14.4225 167.404 52.8035 116.122 92.8226 126.302C99.4048 130.105 111.516 132.972 112.569 119.281C113.885 102.168 95.4555 54.7768 161.715 1.24236C162.008 0.949822 163.12 0.364746 165.226 0.364746C167.332 0.364746 168.444 0.949822 168.736 1.24236C234.996 54.7768 216.566 102.168 217.883 119.281C218.936 132.972 231.047 130.105 237.629 126.302C277.648 116.122 316.029 167.404 330.217 194.317C330.217 196.804 327.584 203.532 317.931 206.165L317.682 206.28C305.996 211.671 269.637 228.445 266.151 275.497C261.763 295.536 238.858 338.597 182.339 350.533C178.667 350.83 172.18 351.29 167.511 351.445C166.948 351.489 166.164 351.504 165.226 351.496C164.288 351.504 163.504 351.489 162.94 351.445C158.272 351.29 151.785 350.83 148.112 350.533C91.594 338.597 68.6883 295.536 64.3002 275.497C60.8149 228.445 24.4557 211.671 12.7698 206.28L12.521 206.165C2.86722 203.532 0.234375 196.804 0.234375 194.317Z" fill="#32BD70"/>
</svg>
