<svg width="2560" height="1018" viewBox="0 0 2560 1018" fill="none" xmlns="http://www.w3.org/2000/svg">
<path d="M31.5941 29.8536C20.7117 25.9903 5.99703 11.2684 0 4.39034V1018H2560V4.39034C2554 11.2684 2539.29 25.9902 2528.41 29.8536C2514.8 34.6829 2481.45 66.7316 2470.04 103.609C2460.92 133.112 2464.93 159.512 2468.73 169.463C2467.12 175.17 2459.95 183.951 2441.52 169.463C2428.8 161.707 2393.69 149.97 2355.08 165.073C2306.81 183.951 2285.31 230.487 2290.13 275.267C2292.62 283.17 2297.68 299.589 2298.03 302.048C2298.47 305.121 2294.08 316.535 2273.02 306.438C2251.96 296.34 2202.81 299.853 2185.26 312.145C2177.61 314.412 2158.13 324.137 2139.69 345.143C2137.8 344.753 2135.78 344.03 2133.92 342.877C2114.96 320.399 2094.43 310.096 2086.53 307.755C2068.98 295.462 2019.83 291.95 1998.77 302.048C1977.7 312.145 1973.32 300.73 1973.75 297.657C1974.11 295.199 1979.17 278.779 1981.65 270.877C1986.48 226.097 1964.98 179.56 1916.71 160.682C1878.09 145.58 1842.99 157.316 1830.26 165.072C1811.83 179.56 1804.67 170.78 1803.06 165.072C1806.86 155.121 1810.87 128.721 1801.74 99.2191C1790.33 62.3412 1756.98 30.2926 1743.38 25.4633C1732.5 21.5999 1717.78 6.87802 1711.79 0C1705.79 6.87802 1691.08 21.5999 1680.19 25.4633C1666.59 30.2926 1633.24 62.3412 1621.83 99.2191C1612.7 128.721 1616.71 155.121 1620.51 165.072C1618.91 170.78 1611.74 179.56 1593.31 165.072C1580.58 157.316 1545.48 145.58 1506.86 160.682C1458.6 179.56 1437.09 226.097 1441.92 270.877C1444.41 278.779 1449.47 295.199 1449.82 297.657C1450.26 300.73 1445.87 312.145 1424.81 302.048C1403.74 291.95 1354.6 295.462 1337.05 307.755C1329.15 310.096 1308.61 320.399 1289.65 342.877C1286.58 344.779 1283.07 345.511 1280.44 345.511C1277.81 345.511 1274.3 344.779 1271.22 342.877C1252.27 320.399 1231.73 310.096 1223.83 307.755C1206.28 295.462 1157.13 291.95 1136.07 302.048C1115.01 312.145 1110.62 300.73 1111.06 297.657C1111.41 295.199 1116.47 278.779 1118.96 270.877C1123.78 226.097 1102.28 179.56 1054.01 160.682C1015.4 145.58 980.295 157.316 967.569 165.072C949.139 179.56 941.972 170.78 940.363 165.072C944.166 155.121 948.174 128.721 939.047 99.2191C927.638 62.3412 894.289 30.2926 880.686 25.4633C869.803 21.5999 855.089 6.87802 849.091 0C843.094 6.87802 828.38 21.5999 817.497 25.4633C803.894 30.2926 770.545 62.3412 759.136 99.2191C750.009 128.721 754.017 155.121 757.82 165.072C756.211 170.78 749.043 179.56 730.614 165.072C717.888 157.316 682.784 145.58 644.169 160.682C595.9 179.56 574.398 226.097 579.225 270.877C581.712 278.779 586.773 295.199 587.124 297.657C587.562 300.73 583.174 312.145 562.112 302.048C541.049 291.95 491.903 295.462 474.35 307.755C466.452 310.096 445.916 320.399 426.959 342.877C424.847 344.185 422.527 344.939 420.428 345.283C401.959 324.18 382.404 314.417 374.741 312.145C357.189 299.853 308.043 296.34 286.98 306.438C265.917 316.535 261.529 305.121 261.968 302.048C262.319 299.589 267.38 283.17 269.866 275.267C274.693 230.487 253.192 183.951 204.923 165.073C166.308 149.97 131.203 161.707 118.478 169.463C100.048 183.951 92.8808 175.17 91.2719 169.463C95.0748 159.512 99.0826 133.112 89.9554 103.609C78.5464 66.7316 45.1971 34.6829 31.5941 29.8536Z" fill="white"/>
<path d="M684.539 442.317C698.727 415.404 737.108 364.122 777.127 374.302C783.709 378.105 795.821 380.972 796.874 367.281C798.19 350.168 779.76 302.777 846.02 249.242C846.313 248.95 847.424 248.365 849.53 248.365C851.637 248.365 852.748 248.95 853.041 249.242C919.301 302.777 900.871 350.168 902.187 367.281C903.24 380.972 915.352 378.105 921.934 374.302C961.953 364.122 1000.33 415.404 1014.52 442.317C1014.52 444.804 1011.89 451.532 1002.24 454.165L1001.99 454.28C990.301 459.671 953.941 476.445 950.456 523.497C946.068 543.536 923.162 586.597 866.644 598.533C862.972 598.83 856.485 599.29 851.816 599.445C851.252 599.489 850.469 599.504 849.53 599.496C848.592 599.504 847.809 599.489 847.245 599.445C842.576 599.29 836.089 598.83 832.417 598.533C775.899 586.597 752.993 543.536 748.605 523.497C745.12 476.445 708.76 459.671 697.074 454.28L696.826 454.165C687.172 451.532 684.539 444.804 684.539 442.317Z" fill="#32BD70"/>
<path d="M1547.23 442.317C1561.42 415.404 1599.8 364.122 1639.82 374.302C1646.4 378.105 1658.52 380.972 1659.57 367.281C1660.89 350.168 1642.46 302.777 1708.72 249.242C1709.01 248.95 1710.12 248.365 1712.23 248.365C1714.33 248.365 1715.44 248.95 1715.74 249.242C1782 302.777 1763.57 350.168 1764.88 367.281C1765.94 380.972 1778.05 378.105 1784.63 374.302C1824.65 364.122 1863.03 415.404 1877.22 442.317C1877.22 444.804 1874.58 451.532 1864.93 454.165L1864.68 454.28C1853 459.671 1816.64 476.445 1813.15 523.497C1808.76 543.536 1785.86 586.597 1729.34 598.533C1725.67 598.83 1719.18 599.29 1714.51 599.445C1713.95 599.489 1713.16 599.504 1712.23 599.496C1711.29 599.504 1710.5 599.489 1709.94 599.445C1705.27 599.29 1698.78 598.83 1695.11 598.533C1638.59 586.597 1615.69 543.536 1611.3 523.497C1607.81 476.445 1571.46 459.671 1559.77 454.28L1559.52 454.165C1549.87 451.532 1547.23 444.804 1547.23 442.317Z" fill="#32BD70"/>
<path d="M308.75 866.205C342.802 796.347 292.807 755.772 263.553 744.217C259.019 742.608 252.32 736.845 261.798 726.664C273.646 713.939 280.667 687.611 319.282 669.619C324.986 666.84 339.994 662.95 354.387 669.619C372.378 677.957 368.867 648.118 367.551 644.169C366.234 640.219 361.846 586.685 422.402 540.171C482.957 586.685 478.569 640.219 477.253 644.169C475.936 648.118 472.426 677.957 490.417 669.619C504.81 662.95 519.817 666.84 525.521 669.619C564.136 687.611 571.157 713.939 583.005 726.664C592.483 736.845 585.784 742.608 581.25 744.217C551.996 755.772 502.001 796.347 536.053 866.205C559.017 896.044 619.075 938.345 675.593 868.838C690.659 843.972 706.222 785.728 647.949 751.676C646.193 750.799 642.595 747.376 642.244 740.706C641.805 732.369 640.928 694.193 614.599 666.987C588.271 639.781 572.035 627.494 530.348 624.861C527.569 624.861 522.099 622.141 522.45 611.258C522.888 597.655 529.471 577.909 496.999 533.151C490.124 523.058 471.285 501.469 450.924 495.852C444.635 491.171 430.739 479.704 425.473 471.279C425.181 470.986 424.157 470.401 422.402 470.401C420.646 470.401 419.623 470.986 419.33 471.279C414.064 479.704 400.169 491.171 393.879 495.852C373.519 501.469 354.679 523.058 347.804 533.151C315.333 577.909 321.915 597.655 322.354 611.258C322.705 622.141 317.234 624.861 314.455 624.861C272.768 627.494 256.533 639.781 230.204 666.987C203.876 694.193 202.998 732.369 202.559 740.706C202.208 747.376 198.61 750.799 196.855 751.676C138.581 785.728 154.144 843.972 169.21 868.838C225.728 938.345 285.786 896.044 308.75 866.205Z" fill="#32BD70"/>
<path d="M470.232 785.903C470.232 812.319 448.817 833.733 422.402 833.733C395.986 833.733 374.572 812.319 374.572 785.903C374.572 759.488 395.986 738.073 422.402 738.073C448.817 738.073 470.232 759.488 470.232 785.903Z" fill="#32BD70"/>
<path d="M1166.18 866.205C1200.23 796.347 1150.23 755.772 1120.98 744.217C1116.45 742.608 1109.75 736.845 1119.23 726.664C1131.07 713.939 1138.09 687.611 1176.71 669.619C1182.41 666.84 1197.42 662.95 1211.81 669.619C1229.81 677.957 1226.29 648.118 1224.98 644.169C1223.66 640.219 1219.27 586.685 1279.83 540.171C1340.38 586.685 1336 640.219 1334.68 644.169C1333.36 648.118 1329.85 677.957 1347.84 669.619C1362.24 662.95 1377.24 666.84 1382.95 669.619C1421.56 687.611 1428.58 713.939 1440.43 726.664C1449.91 736.845 1443.21 742.608 1438.68 744.217C1409.42 755.772 1359.43 796.347 1393.48 866.205C1416.44 896.044 1476.5 938.345 1533.02 868.838C1548.09 843.972 1563.65 785.728 1505.38 751.676C1503.62 750.799 1500.02 747.376 1499.67 740.706C1499.23 732.369 1498.36 694.193 1472.03 666.987C1445.7 639.781 1429.46 627.494 1387.78 624.861C1385 624.861 1379.53 622.141 1379.88 611.258C1380.32 597.655 1386.9 577.909 1354.43 533.151C1347.55 523.058 1328.71 501.469 1308.35 495.852C1302.06 491.171 1288.17 479.704 1282.9 471.279C1282.61 470.986 1281.58 470.401 1279.83 470.401C1278.07 470.401 1277.05 470.986 1276.76 471.279C1271.49 479.704 1257.6 491.171 1251.31 495.852C1230.95 501.469 1212.11 523.058 1205.23 533.151C1172.76 577.909 1179.34 597.655 1179.78 611.258C1180.13 622.141 1174.66 624.861 1171.88 624.861C1130.2 627.494 1113.96 639.781 1087.63 666.987C1061.3 694.193 1060.43 732.369 1059.99 740.706C1059.64 747.376 1056.04 750.799 1054.28 751.676C996.009 785.728 1011.57 843.972 1026.64 868.838C1083.16 938.345 1143.21 896.044 1166.18 866.205Z" fill="#32BD70"/>
<path d="M1327.66 785.903C1327.66 812.319 1306.25 833.733 1279.83 833.733C1253.41 833.733 1232 812.319 1232 785.903C1232 759.488 1253.41 738.073 1279.83 738.073C1306.25 738.073 1327.66 759.488 1327.66 785.903Z" fill="#32BD70"/>
<path d="M2029.75 866.205C2063.8 796.347 2013.81 755.772 1984.55 744.217C1980.02 742.608 1973.32 736.845 1982.8 726.664C1994.65 713.939 2001.67 687.611 2040.28 669.619C2045.99 666.84 2060.99 662.95 2075.39 669.619C2093.38 677.957 2089.87 648.118 2088.55 644.169C2087.23 640.219 2082.85 586.685 2143.4 540.171C2203.96 586.685 2199.57 640.219 2198.25 644.169C2196.94 648.118 2193.43 677.957 2211.42 669.619C2225.81 662.95 2240.82 666.84 2246.52 669.619C2285.14 687.611 2292.16 713.939 2304.01 726.664C2313.48 736.845 2306.78 742.608 2302.25 744.217C2273 755.772 2223 796.347 2257.05 866.205C2280.02 896.044 2340.08 938.345 2396.59 868.838C2411.66 843.972 2427.22 785.728 2368.95 751.676C2367.19 750.799 2363.6 747.376 2363.24 740.706C2362.81 732.369 2361.93 694.193 2335.6 666.987C2309.27 639.781 2293.03 627.494 2251.35 624.861C2248.57 624.861 2243.1 622.141 2243.45 611.258C2243.89 597.655 2250.47 577.909 2218 533.151C2211.12 523.058 2192.28 501.469 2171.92 495.852C2165.63 491.171 2151.74 479.704 2146.47 471.279C2146.18 470.986 2145.16 470.401 2143.4 470.401C2141.65 470.401 2140.62 470.986 2140.33 471.279C2135.06 479.704 2121.17 491.171 2114.88 495.852C2094.52 501.469 2075.68 523.058 2068.8 533.151C2036.33 577.909 2042.91 597.655 2043.35 611.258C2043.7 622.141 2038.23 624.861 2035.46 624.861C1993.77 627.494 1977.53 639.781 1951.2 666.987C1924.88 694.193 1924 732.369 1923.56 740.706C1923.21 747.376 1919.61 750.799 1917.85 751.676C1859.58 785.728 1875.14 843.972 1890.21 868.838C1946.73 938.345 2006.79 896.044 2029.75 866.205Z" fill="#32BD70"/>
<path d="M2191.23 785.903C2191.23 812.319 2169.82 833.733 2143.4 833.733C2116.99 833.733 2095.57 812.319 2095.57 785.903C2095.57 759.488 2116.99 738.073 2143.4 738.073C2169.82 738.073 2191.23 759.488 2191.23 785.903Z" fill="#32BD70"/>
</svg>
