<svg width="518" height="926" viewBox="0 0 518 926" fill="none" xmlns="http://www.w3.org/2000/svg">
<path d="M493 925.584H362.459C305.278 925.584 257.121 924.324 253.592 874.527C251.212 924.324 203.055 925.584 145.874 925.584H25C11.1929 925.584 0 914.391 0 900.584L0 25.584C0 11.7769 11.1929 0.583984 25 0.583984H145.874C203.055 0.583984 251.212 0.842712 253.592 50.6403C257.121 0.842712 305.278 0.583984 362.459 0.583984H493C506.807 0.583984 518 11.7769 518 25.584L518 900.584C518 914.391 506.807 925.584 493 925.584Z" fill="#2298FF"/>
</svg>
