<svg width="1198" height="622" viewBox="0 0 1198 622" fill="none" xmlns="http://www.w3.org/2000/svg">
<path d="M1173 622H838.274C787.514 622 739.829 621.875 699.875 619.828C672.685 618.434 500.811 618.582 473.618 619.929C434.221 621.879 387.281 622 337.369 622H25C11.1929 622 0 610.807 0 597L0 25C0 11.1929 11.1929 0 25 0H337.369C387.235 0 434.133 0.0247803 473.507 1.85089C500.704 3.11224 672.788 3.2533 699.982 1.94568C739.914 0.0256348 787.559 0 838.274 0H1173C1186.81 0 1198 11.1929 1198 25V597C1198 610.807 1186.81 622 1173 622Z" fill="#2298FF"/>
</svg>
