<svg width="44" height="37" viewBox="0 0 44 37" fill="none" xmlns="http://www.w3.org/2000/svg">
<path d="M2.42565 4.26923C2.42565 1.9114 4.30359 0 6.62015 0H14.349C17.0273 0 19.2728 1.59373 20.8127 3.36978C21.9587 4.69156 23.3386 5.69231 24.7963 5.69231H37.3818C39.6996 5.69231 41.5743 7.60499 41.5743 9.96154V11.7812C43.167 12.5364 44.2012 14.2766 43.967 16.1834L42.1759 30.7672C41.7386 34.3279 38.7647 37 35.2391 37H8.76093C5.23529 37 2.26138 34.3279 1.82407 30.7672L0.0330085 16.1834C-0.201168 14.2766 0.833009 12.5364 2.42565 11.7812V4.26923ZM5.22199 11.3846H38.778V9.96154C38.778 9.17431 38.1527 8.53846 37.3818 8.53846H24.7963C22.101 8.53846 20.0131 6.749 18.716 5.25301C17.4526 3.79583 15.9075 2.84615 14.349 2.84615H6.62015C5.84797 2.84615 5.22199 3.48329 5.22199 4.26923V11.3846ZM4.19512 14.2308C3.35413 14.2308 2.70344 14.981 2.80775 15.8304L4.59882 30.4141C4.8612 32.5506 6.64554 34.1538 8.76093 34.1538H35.2391C37.3545 34.1538 39.1388 32.5506 39.4012 30.4141L41.1922 15.8304C41.2966 14.981 40.6459 14.2308 39.8049 14.2308H4.19512Z" fill="white"/>
</svg>
