<svg width="518" height="446" viewBox="0 0 518 446" fill="none" xmlns="http://www.w3.org/2000/svg">
<path d="M492.983 445.584H362.679H361.782C304.239 445.586 257.076 445.587 254.676 396.102C252.276 445.587 205.114 445.586 147.57 445.584H146.674H25.0028C11.1957 445.584 0.00283254 434.391 0.00283254 420.584V319.578C0.00283254 269.793 -1.3731 228.865 56.5261 226.793C-1.3731 224.72 0.00283254 183.792 0.00283254 134.007V25.5843C0.00283254 11.7772 11.1957 0.58429 25.0028 0.58429H146.674C204.623 0.58429 252.264 1.34886 254.676 51.0904C257.089 1.34886 304.729 0.58429 362.679 0.58429H492.983C506.79 0.58429 517.983 11.7772 517.983 25.5843V134.007C517.983 183.792 520.555 224.72 462.656 226.793C520.555 228.865 517.983 269.793 517.983 319.578V420.584C517.983 434.391 506.79 445.584 492.983 445.584Z" fill="#57CA82"/>
</svg>
