<svg width="280" height="318" viewBox="0 0 280 318" fill="none" xmlns="http://www.w3.org/2000/svg">
<mask id="mask0_1633_8929" style="mask-type:alpha" maskUnits="userSpaceOnUse" x="0" y="0" width="280" height="318">
<rect width="280" height="318" rx="25" fill="#FF785A"/>
</mask>
<g mask="url(#mask0_1633_8929)">
<path fill-rule="evenodd" clip-rule="evenodd" d="M219.477 97.3895C220.861 97.7158 222.172 97.5118 223.414 96.7938C222.051 96.6281 220.778 97.1119 219.477 97.3895ZM230.48 83.8967C230.574 88.4351 229.214 91.7754 227.373 94.912C226.083 97.1106 223.975 98.2106 221.433 98.3409C219.268 98.452 217.136 98.2826 215.071 97.4938C213.514 96.8996 212.483 95.7515 211.621 94.4263C210.02 91.9621 208.14 89.589 208.076 86.4557C207.995 82.5433 208.797 78.8632 211.369 75.7741C212.458 74.4663 213.751 73.5884 215.628 73.8826C217.492 74.1746 218.244 76.4547 218.23 77.8207C218.223 78.4529 217.698 78.7713 217.388 79.1422C215.978 80.8321 215.69 82.9471 215.025 84.9193C214.887 85.3253 215.166 85.4371 215.476 85.5048C217.485 85.9433 219.31 85.8141 220.677 83.973C221.402 82.9974 222.186 82.0725 222.665 80.9352C222.893 80.3946 222.903 79.8989 222.703 79.3231C222.467 78.6407 221.988 77.8012 223.182 77.4277C223.426 77.3514 223.376 77.1426 223.262 76.9429C222.76 76.0693 223.05 75.2182 223.993 74.7576C225.904 73.8244 228.874 75.5298 229.059 77.6608C229.078 77.8848 229.092 78.1449 229.211 78.3186C230.537 80.2596 230.277 82.5234 230.48 83.8967Z" fill="#EB5757"/>
<path fill-rule="evenodd" clip-rule="evenodd" d="M256.738 84.3913C255.646 84.2202 254.584 84.298 253.58 84.7705C254.665 84.9073 255.745 85.0289 256.738 84.3913ZM250.72 62.5771C250.263 62.974 249.628 62.7776 249.359 63.346C249.715 63.6196 250.042 63.2389 250.353 63.3066C250.786 63.4014 251.674 63.248 250.972 64.1801C250.92 64.2492 250.799 64.3183 250.946 64.3911C252.162 64.9947 251.251 65.7708 251.06 66.4276C250.861 67.1141 250.556 67.7715 250.539 68.4992C250.517 69.5171 250.507 70.5354 250.521 71.5526C250.537 72.8014 250.73 72.9617 251.962 72.8441C254.088 72.6411 255.579 71.1021 255.528 68.9624C255.485 67.2081 255.832 65.5295 256.225 63.8552C256.428 62.9925 256.967 62.301 257.921 62.1363C259.045 61.942 260.674 62.6364 261.093 63.6384C261.797 65.3247 262.432 67.0674 262.682 68.8788C263.174 72.4551 263.073 76.0222 262.075 79.5279C261.685 80.8968 261.154 82.231 260.331 83.3607C259.248 84.8461 257.623 85.5145 255.81 85.7048C253.519 85.9451 251.312 85.8702 249.397 84.3001C248.977 83.956 248.713 83.5065 248.427 83.1096C246.546 80.4944 244.293 78.0378 243.847 74.6675C243.333 70.7862 243.928 67.0634 245.919 63.6442C246.609 62.4577 247.554 61.5668 249.083 61.7401C249.707 61.811 250.288 61.997 250.72 62.5771Z" fill="#EB5757"/>
<path fill-rule="evenodd" clip-rule="evenodd" d="M242.721 115.522C243.748 116.046 245.497 115.989 246.33 115.443C245.13 115.376 243.986 115.289 242.721 115.522ZM253.937 104.553C254.036 107.887 253.083 111.232 250.853 114.173C249.927 115.395 248.665 116.16 247.19 116.491C244.655 117.06 242.188 116.821 239.828 115.675C238.455 115.008 237.578 113.873 236.682 112.673C235.016 110.444 234.194 107.867 233.502 105.263C232.71 102.284 233.269 99.4119 234.636 96.6411C235.106 95.6887 235.427 94.7301 236.402 94.1599C237.144 93.7256 237.852 93.9138 238.564 94.1747C238.735 94.2373 239.001 94.4414 238.987 94.5492C238.788 96.0763 240.083 97.3518 239.689 98.9092C239.537 99.5125 239.454 100.134 239.358 100.751C239.092 102.463 240.019 103.726 241.769 103.917C243.474 104.103 244.969 103.58 246.02 102.179C246.886 101.025 247.508 99.7209 247.84 98.2977C248.115 97.1166 249.043 96.4812 250.241 96.6614C252.233 96.9606 252.728 97.4969 252.942 99.5819C252.955 99.7115 252.948 99.8732 253.022 99.9608C254.071 101.223 253.75 102.766 253.937 104.553Z" fill="#EB5757"/>
<path fill-rule="evenodd" clip-rule="evenodd" d="M281.359 69.1104C282.043 69.2794 282.725 69.5552 283.355 69.0438C282.682 68.9758 282.008 68.8029 281.359 69.1104ZM279.983 54.235C281.451 54.6942 280.287 55.5605 280.293 56.2194C280.295 56.5429 279.923 56.9088 280.275 57.2514C280.618 57.5851 281.051 57.5601 281.47 57.3911C283.342 56.6374 284.354 55.119 284.749 53.2544C285.039 51.8844 285.517 50.5752 285.807 49.2095C286.067 47.9843 287.311 47.3355 288.539 47.6145C290.004 47.9477 290.921 48.7514 291.124 50.3027C291.366 52.1467 291.884 53.9274 291.829 55.8424C291.701 60.2957 290.446 64.2953 287.695 67.8028C285.128 71.0744 280.207 71.2166 277.565 67.983C276.708 66.934 275.914 65.7305 275.759 64.2689C275.733 64.0279 275.573 63.7895 275.437 63.5731C273.18 59.9748 273.413 56.2632 275.086 52.5734C276.231 50.0483 278.2 50.1703 279.801 51.3731C280.001 51.5236 280.278 51.7031 280.232 51.9908C280.173 52.3602 279.805 52.1768 279.58 52.2535C279.367 52.3266 279.071 52.336 279.108 52.6407C279.146 52.9591 279.446 52.8643 279.662 52.8871C280.055 52.9283 280.468 52.9544 280.619 53.4197C280.782 53.9213 280.216 53.9227 279.983 54.235Z" fill="#EB5757"/>
<path fill-rule="evenodd" clip-rule="evenodd" d="M211.526 120.794C211.311 121.113 211.447 121.396 211.767 121.428C212.269 121.477 211.957 121.102 211.974 120.888C211.999 120.583 212.14 120.777 212.291 120.805C212.623 120.867 212.596 120.557 212.46 120.468C212.235 120.319 211.923 120.196 211.666 120.226C211.364 120.261 211.446 120.56 211.526 120.794ZM210.266 124.786C209.499 124.548 208.624 125.474 208.155 124.269C208.153 124.79 207.848 125.562 208.451 125.531C209.002 125.503 209.83 125.55 210.266 124.786ZM214.89 121.979C215.458 122.319 215.571 121.615 216.172 121.645C215.358 122.282 214.892 122.977 214.575 123.851C214.366 124.428 213.494 124.779 212.938 125.053C210.968 126.022 208.844 126.668 206.62 126.731C205.947 126.75 205.297 126.326 204.59 126.277C204.371 126.262 204.165 126.083 204.181 125.807C204.184 125.738 204.306 125.611 204.356 125.619C204.762 125.685 205.048 125.651 204.847 125.124C204.757 124.889 204.79 124.563 204.478 124.476C203.93 124.321 204.361 125.102 203.939 125.066C203.536 125.409 204.062 123.722 203.332 124.802C203.286 124.765 203.217 124.737 203.197 124.689C202.764 123.639 201.746 123.054 201.181 122.07C200.642 121.133 199.95 120.285 199.544 119.255C198.321 116.163 197.934 112.979 198.546 109.706C198.865 108.004 199.94 107.311 201.492 107.614C202.023 107.717 202.434 107.984 202.645 108.439C203.445 110.161 204.65 111.764 204.024 113.89C203.83 114.547 204.202 115.25 204.668 115.787C204.956 116.119 205.307 116.317 205.793 116.067C206.723 115.59 207.647 115.134 208.305 114.262C208.775 113.639 209.335 113.085 209.835 112.484C210.526 111.654 210.714 110.601 210.791 109.604C210.909 108.083 211.884 107.37 213.297 108.011C213.871 108.272 214.431 108.661 214.673 109.23C215.313 110.734 216.042 112.181 216.387 113.838C216.725 115.458 216.822 117.03 216.739 118.649C216.704 119.353 216.254 119.966 216.316 120.703C216.328 120.839 216.013 121.121 215.835 121.134C215.256 121.178 215.221 121.695 214.89 121.979Z" fill="#EB5757"/>
<path fill-rule="evenodd" clip-rule="evenodd" d="M272.47 92.2765C271.875 92.8927 271.699 92.952 271.499 92.5598C271.227 92.0286 270.453 91.8477 270.053 92.2327C269.808 92.4686 269.812 92.7762 270.025 92.9962C270.355 93.3385 272.288 92.7849 272.47 92.2765ZM274.016 99.6546C273.643 99.3004 273.027 99.549 272.835 99.3062C272.166 98.4598 271.716 99.5016 271.152 99.4361C271.053 99.4245 270.674 99.7921 270.783 100.048C270.894 100.308 271.376 100.51 271.516 100.389C272.236 99.769 273.214 100.136 274.016 99.6546ZM271.926 95.6579C271.528 95.6525 271.065 95.6652 271.001 96.2108C270.925 96.8531 271.514 96.5633 271.805 96.703C272.167 96.877 272.488 96.5336 272.788 96.6382C273.115 96.7518 273.313 96.6559 273.432 96.4138C273.604 96.0621 273.282 95.8085 273.138 95.5447C272.985 95.2664 272.731 95.4745 272.547 95.5725C272.358 95.6735 272.218 95.9199 271.926 95.6579ZM279.871 85.4681C280.382 85.6859 280.812 85.9537 280.891 86.4741C280.953 86.8783 280.483 86.6709 280.257 86.9347C281.339 86.96 281.125 87.9161 281.01 88.313C280.708 89.3588 281.091 90.3586 280.969 91.3805C280.889 92.0521 280.735 92.732 280.68 93.4112C280.623 94.1158 280.153 93.1449 279.788 93.1959C279.597 93.4054 279.611 93.6254 279.856 93.7503C280.108 93.8787 280.554 93.8527 280.519 94.2088C280.476 94.6412 280.351 95.3045 280.07 95.4275C279.314 95.759 279.49 96.5123 279.536 96.8612C279.636 97.6138 279.294 97.5216 278.896 97.4087C278.321 97.2447 277.975 97.4293 277.86 97.9902C277.712 98.7059 276.912 98.588 276.554 99.092C276.203 99.586 275.654 99.9352 275.702 100.674C274.713 100.555 275.17 99.68 274.778 99.1488C274.638 100.884 273.362 100.854 272.206 100.983C271.822 101.027 271.387 100.878 271.05 101.01C270.343 101.286 270.394 100.942 270.573 100.294C270.179 101.066 269.815 101.329 269.26 100.687C269.058 100.454 268.725 100.49 268.44 100.426C267.915 100.308 267.851 100.184 267.865 99.5053C267.869 99.3138 267.748 99.3334 267.631 99.2795C266.426 98.7251 265.903 97.7115 265.894 96.3839C265.89 95.7517 266.147 94.7439 264.905 94.8098C264.734 94.8185 264.7 94.6879 264.645 94.5703C263.504 92.1324 263.876 89.7883 265.158 87.5455C265.75 86.5106 267.266 85.9957 268.417 86.4024C268.794 86.5356 269.199 86.896 269.359 87.2564C269.518 87.6143 269.117 87.7572 268.752 87.8043C268.468 87.8408 268.556 88.0858 268.616 88.2736C268.718 88.588 268.929 88.6695 269.228 88.5584C269.956 88.2873 270.12 88.4086 270.034 89.2748C269.972 89.9095 270.872 90.1621 271.376 90.5059C271.717 90.7389 271.899 90.2396 272 89.9526C272.073 89.7456 272.186 89.5907 272.35 89.5064C273.944 88.6861 274.12 87.1156 274.367 85.6089C274.483 84.9022 274.5 84.1405 274.637 83.4721C274.774 82.7943 274.988 82.084 275.164 81.3853C275.447 80.2653 276.365 80.2295 277.245 80.2794C277.814 80.3116 278.377 80.5085 278.932 80.6684C279.066 80.7072 279.268 80.9026 279.255 81.0039C279.149 81.885 280.176 82.5143 279.755 83.5036C279.649 83.7533 279.989 84.2512 280.211 84.575C280.633 85.1895 280.649 85.209 279.871 85.4681Z" fill="#EB5757"/>
<path fill-rule="evenodd" clip-rule="evenodd" d="M237.171 67.1379C236.374 67.5001 235.813 67.9101 235.479 68.5813C236.025 68.1554 236.94 68.1554 237.171 67.1379ZM234.062 55.2351C234.803 55.0966 235.165 54.6536 235.581 54.3135C236.388 53.6535 237.047 53.8641 237.286 54.9261C237.389 55.3868 237.415 55.6433 238.038 55.7711C238.653 55.8973 238.791 56.7803 239.07 57.3545C239.931 59.1262 240.261 61.0299 240.15 62.9869C240.001 65.5973 238.708 67.5553 236.582 69.011C235.608 69.6783 234.607 70.0713 233.378 69.9262C232.794 69.8571 232.457 69.4822 232.006 69.2571C230.457 68.4842 228.857 67.8147 227.41 66.8309C225.854 65.7728 224.043 61.8101 224.802 59.7091C225.288 58.3627 226.108 57.551 227.47 57.2663C228.253 57.1023 228.612 57.4291 228.669 58.392C229.09 58.0945 229.294 57.749 229.411 57.2862C229.684 56.2024 230.085 55.1657 230.592 54.1633C231.194 52.9732 232.193 52.392 233.423 52.1007C233.906 51.9864 234.387 52.0468 234.681 52.4344C234.966 52.8107 234.942 53.2656 234.683 53.7208C234.443 54.1409 234.308 54.6204 234.062 55.2351Z" fill="#EB5757"/>
<path fill-rule="evenodd" clip-rule="evenodd" d="M256.582 46.6001C257.191 45.2135 257.467 43.7819 258.541 42.7709C258.706 42.616 258.849 42.4141 259.044 42.3197C259.506 42.095 260.094 41.7302 260.495 42.0772C260.842 42.3783 260.785 43.0144 260.608 43.5319C260.523 43.7805 260.207 44.1217 260.569 44.3052C260.876 44.4597 261.052 44.0606 261.248 43.8554C261.361 43.7367 261.445 43.5894 261.563 43.4784C261.785 43.271 261.892 42.8219 262.308 42.9877C262.64 43.1194 262.934 43.36 262.983 43.77C263.028 44.1503 263.025 44.5042 263.614 44.2466C263.913 44.1156 264.123 44.5064 264.286 44.7271C266.08 47.1653 266.452 49.6878 264.119 52.1727C263.406 52.9322 262.673 53.6729 261.95 54.4234C261.553 54.836 261.07 54.8305 260.588 54.6586C260.044 54.4647 260.631 54.0214 260.388 53.6664C259.835 54.5599 259.302 54.4412 258.595 53.7967C258.156 53.3976 257.63 52.8986 256.804 53.2326C256.5 53.3556 255.922 53.0162 255.567 52.7538C253.789 51.4392 252.719 49.699 252.676 47.4345C252.66 46.5364 252.953 45.74 253.857 45.3354C254.03 45.258 254.38 45.1689 254.393 45.199C254.808 46.1358 256.016 45.7617 256.582 46.6001Z" fill="#EB5757"/>
<path fill-rule="evenodd" clip-rule="evenodd" d="M96.3683 45.8687C96.3086 45.7633 96.2499 45.6572 96.1902 45.5518C94.036 46.7807 91.8823 48.0089 89.7276 49.2378C89.7986 49.362 89.8693 49.4868 89.9395 49.6122C92.0828 48.3644 94.2255 47.1163 96.3683 45.8687ZM31.2086 119.989C29.8336 119.592 28.2833 119.564 28.2029 117.731C28.1525 116.565 28.0515 115.35 28.3064 114.233C29.093 110.781 29.7396 107.25 30.9984 103.965C32.6701 99.6026 35.7518 96.2324 40.3492 94.8741C44.7355 93.5774 49.2426 92.6833 53.7106 91.6724C59.8475 90.2834 66.1052 89.2674 70.9938 84.7108C74.1304 81.787 76.6102 78.5704 77.5991 74.2335C78.7167 69.3294 79.9699 64.4342 81.5538 59.6646C83.7617 53.0165 87.9687 47.9841 94.5998 45.2681C95.2715 44.9931 96.0819 44.4737 96.6458 44.6501C97.5988 44.949 98.4991 45.6187 99.2238 46.3345C99.477 46.5841 99.3563 47.64 99.0381 47.9571C98.3576 48.6363 97.4 49.0259 96.6263 49.6254C96.0121 50.1007 95.5016 50.7112 94.9479 51.2645C94.8455 51.3665 94.7649 51.5618 94.6558 51.5772C92.2709 51.904 91.7332 54.2081 90.3756 55.6177C87.2388 58.8763 85.9158 63.0364 84.8374 67.286C83.8189 71.2996 82.9051 75.3399 81.8449 79.3418C81.5429 80.4831 81.0487 81.6425 80.3718 82.6033C78.4074 85.3946 76.3236 87.9592 73.4588 90.0874C67.9034 94.2143 61.4973 95.0647 55.0826 96.2915C51.11 97.0509 47.0939 97.8379 43.2914 99.1716C38.4648 100.864 35.8287 104.858 34.0904 109.524C33.6329 110.752 32.7367 111.815 32.2696 113.041C31.9604 113.853 32.0989 114.826 31.9626 115.716C31.7508 117.109 31.4767 118.492 31.2086 119.989Z" fill="#EB5757"/>
<path fill-rule="evenodd" clip-rule="evenodd" d="M22.1518 88.4129C22.2524 88.5204 22.3536 88.6282 22.4536 88.7357C23.4641 87.7888 24.4751 86.8418 25.486 85.8947C25.3725 85.7728 25.2589 85.6509 25.1453 85.529C24.1479 86.4904 23.1493 87.4516 22.1518 88.4129ZM56.5862 79.6696C56.6457 79.7769 56.7053 79.8841 56.7648 79.9913C58.0973 79.2403 59.4293 78.4899 60.7618 77.7389C60.7026 77.6333 60.6441 77.528 60.5855 77.4222C59.2526 78.1717 57.9197 78.9206 56.5862 79.6696ZM79.8835 42.1521C79.6764 42.4425 79.4693 42.7335 79.1492 43.1826L80.4538 42.8522C81.8111 44.3271 81.5379 45.7266 80.543 47.1483C79.676 48.3869 78.9247 49.7379 77.2725 50.1012C77.1021 50.1388 76.8375 50.2798 76.8188 50.404C76.5691 52.0495 75.4623 52.2636 74.1495 52.0272C74.2582 52.7497 74.5278 53.4448 74.4118 54.0679C74.2873 54.7387 73.8238 55.3553 73.4703 55.9736C71.4244 59.5482 71.2779 63.5398 70.7943 67.4938C70.3494 71.1296 69.3399 74.6464 66.6623 77.3858C66.312 77.7436 65.7869 77.9294 65.0602 78.3636C64.7601 79.3296 64.268 80.5556 62.688 81.1185C61.7691 81.4463 61.1094 82.4923 60.1926 82.8439C57.6682 83.8117 55.1219 84.9173 52.4848 85.3365C50.0393 85.725 47.4456 85.4767 44.9525 85.1928C39.5302 84.576 34.3947 85.5723 29.5971 87.9757C26.933 89.3107 24.6575 91.3235 23.3367 94.1947C22.937 95.0637 22.2807 95.8097 21.78 96.6353C19.3411 100.655 17.7109 104.98 16.9744 109.636C16.7477 111.073 16.5498 112.514 16.3255 113.952C16.219 114.629 16 115.006 15.1526 114.699C13.067 113.944 12.5994 113.223 12.5519 110.871C12.3603 101.43 16.1243 93.5725 22.185 86.6718C24.8703 83.6141 28.5636 82.1942 32.3864 81.3391C34.9653 80.7628 37.663 80.6007 40.3155 80.5189C42.789 80.4424 45.2715 80.7634 47.7517 80.8265C50.766 80.9027 53.4455 79.6661 56.1203 78.484C62.8674 75.5019 66.1737 70.1943 66.6286 62.894C67.1327 54.7991 70.5622 48.1666 76.8336 43.0612C77.6109 42.429 78.6473 42.1194 79.5637 41.6605C79.6706 41.8241 79.777 41.9879 79.8835 42.1521Z" fill="#EB5757"/>
<path fill-rule="evenodd" clip-rule="evenodd" d="M100.494 70.4867C100.098 71.2221 99.6911 71.952 99.3103 72.6947C99.1467 73.0137 98.8466 73.5903 98.9284 73.6573C100.041 74.5687 99.4022 75.7261 98.9055 76.3077C97.6315 77.8008 98.5308 79.2348 98.6646 80.6778C98.7437 81.5358 98.0387 83.0907 97.3187 83.4242C97.1626 83.0631 97.0101 82.7104 96.8583 82.3576C96.5675 82.6045 96.2022 82.8029 96.0023 83.1091C95.6585 83.6365 95.4169 84.2314 95.0473 84.9662C95.6166 84.9352 96.0054 84.914 96.4141 84.8911C96.6081 85.3459 96.7951 85.7836 96.9802 86.2163C95.6945 87.0998 94.33 87.7135 93.5501 89.2074C93.1262 90.02 92.3867 90.5373 93.1283 91.514C93.1915 91.5967 92.7585 92.2632 92.6548 92.2387C90.1571 91.6482 89.4703 94.0009 89.0672 95.2437C88.7344 96.2678 88.2065 96.9054 87.577 97.4235C87.094 97.8206 86.1759 97.6783 85.4545 97.7992C85.2747 97.8293 85.1098 97.9477 84.8493 98.065C84.9873 98.4788 85.1121 98.8533 85.233 99.219C84.1028 100.079 84.1028 100.079 81.0299 100.007C81.1737 101.662 80.0197 102.524 78.1351 102.081C78.1202 102.421 78.1065 102.745 78.1045 102.789C76.3708 103.188 74.1321 101.907 73.287 104.829C71.6197 103.717 70.4208 104.679 69.1291 105.809C68.5233 106.338 67.5705 106.521 66.7433 106.736C63.3649 107.616 60.0941 108.685 57.0491 110.502C55.5572 111.393 54.437 112.72 53.0278 113.551C49.9843 115.346 49.2095 118.647 47.4111 121.242C46.5674 122.459 46.4047 124.144 45.9036 125.607C45.5977 126.499 45.687 127.762 44.0619 127.411C42.804 127.141 42.2042 126.538 42.381 125.046C43.203 118.113 45.8653 112.215 51.5905 107.824C55.9016 104.519 60.9305 103.217 65.973 101.794C69.2321 100.874 72.4507 99.812 75.6947 98.8339C76.1964 98.6831 76.9455 98.0023 77.0175 99.2649L77.0174 99.2401L76.4436 99.6421C76.457 99.7176 76.471 99.793 76.4844 99.8685C76.8094 99.8171 77.1554 99.8189 77.4531 99.7005C77.8035 99.5615 78.0894 99.2115 78.4424 99.1359C81.2937 98.5238 83.3307 96.5505 85.3962 94.7588C87.5905 92.8549 89.5288 90.6461 91.5062 88.5036C92.1088 87.8516 92.4728 86.9785 92.946 86.2063L92.9133 86.2516C93.2847 85.7657 93.6549 85.2796 94.2602 84.4867C93.3927 84.6495 92.9522 84.7324 92.2554 84.8636C92.8997 83.4951 93.4033 82.2224 94.0844 81.0528C94.5353 80.2774 95.0221 80.4428 95.7313 81.4376C96.411 81.2142 97.0659 80.9992 97.8505 80.741C97.3369 80.3197 96.9037 79.9636 96.5979 79.7138C95.9791 79.8175 95.2569 80.1245 95.0767 79.929C94.7446 79.5694 94.6407 78.9202 94.6056 78.3805C94.5563 77.6192 94.5986 76.8387 94.7145 76.0836C94.7842 75.6299 95.0678 75.2093 95.3482 74.5583C94.7938 73.5017 94.9747 72.2235 96.3259 69.1468C96.6325 69.2132 96.9558 69.2826 97.3555 69.369C96.7405 67.6732 96.8475 67.3481 97.7173 67.2035L98.1647 68.987L98.1257 68.9544C98.5778 69.4911 99.0292 70.0275 99.5329 70.6268C99.6067 70.5849 99.8805 70.4284 100.155 70.2712C100.267 70.3431 100.381 70.4148 100.494 70.4867Z" fill="#EB5757"/>
<path fill-rule="evenodd" clip-rule="evenodd" d="M100.742 69.2859C100.631 69.2148 100.519 69.1438 100.408 69.0727C100.097 67.0449 99.9923 66.9775 98.4076 67.7698L98.4461 67.8021C98.9083 67.067 99.3704 66.3315 99.8894 65.5046C99.3896 65.3366 98.9117 65.1761 98.1813 64.9307C98.6396 64.4808 98.9643 64.1477 99.3077 63.8349C99.4213 63.7315 99.6594 63.7175 99.712 63.6028C101.778 59.1344 105.19 55.8868 109.203 53.255C111.059 52.0376 113.111 51.1206 115.082 50.0841C115.364 49.9358 115.696 49.8835 116.004 49.7868L116.247 50.1976C113.811 51.6404 111.373 53.0834 108.937 54.5261C109.003 54.6463 109.069 54.7664 109.136 54.8871C111.677 53.4374 114.218 51.9873 116.735 50.5514C118.214 52.4181 118.132 52.7143 116.389 54.053C114.103 55.8102 111.881 57.6539 109.617 59.4405C109.166 59.7957 108.775 60.2766 108.009 59.8038C107.698 59.6126 107.029 60.008 106.389 60.1699L106.15 59.2185C105.64 59.7584 105.202 60.2217 104.5 60.9646C105.262 60.8661 105.634 60.8177 105.992 60.7717C106.027 60.9112 106.09 61.012 106.063 61.0729C105.761 61.7465 105.169 62.1879 105.488 63.2193C105.706 63.926 104.758 64.1405 104.168 63.5724C103.895 64.0911 103.62 64.6128 103.209 65.3921C103.64 66.6768 102.891 67.682 101.006 67.6062C101.178 68.0163 101.433 68.3713 101.432 68.725C101.432 68.9127 100.987 69.099 100.742 69.2859Z" fill="#EB5757"/>
<path fill-rule="evenodd" clip-rule="evenodd" d="M87.6482 90.8915C85.9223 92.264 84.1951 93.6364 82.4686 95.009C82.3405 94.9012 82.2129 94.7932 82.0848 94.6854C82.3081 94.4442 82.5073 94.1818 82.7574 93.9651C83.942 92.939 85.1258 91.9117 86.3457 90.9186C86.6084 90.7052 87.0189 90.6341 87.3618 90.4973C87.4571 90.6286 87.553 90.7602 87.6482 90.8915Z" fill="#EB5757"/>
<path fill-rule="evenodd" clip-rule="evenodd" d="M76.5752 98.6845C77.0491 96.6097 78.8476 96.5185 80.1445 95.5988C80.3255 96.6087 79.248 97.4899 76.5768 98.647C76.5747 98.6573 76.5752 98.6845 76.5752 98.6845Z" fill="#EB5757"/>
<path fill-rule="evenodd" clip-rule="evenodd" d="M92.8658 85.7178C92.3471 85.9343 91.7743 86.0852 91.3257 86.3858C90.8853 86.6808 90.5714 87.1279 90.0869 87.626C89.9543 86.5299 90.9093 85.0801 91.7517 85.0391C92.1157 85.0209 92.4695 85.5049 92.8292 85.7604C92.8307 85.7595 92.8658 85.7178 92.8658 85.7178Z" fill="#EB5757"/>
<path fill-rule="evenodd" clip-rule="evenodd" d="M55.9696 156.883C53.5876 162.957 52.3274 163.836 46.2634 163.298C39.7863 162.724 33.3385 161.835 26.8754 161.107C25.8216 160.989 24.7251 161.119 23.7013 160.896C21.9023 160.506 20.145 159.932 18.3688 159.435C19.7996 157.812 20.9461 155.609 22.7377 154.716C24.8868 153.646 27.6513 153.105 30.0411 153.361C38.555 154.278 47.0216 155.631 55.9696 156.883Z" fill="#EB5757"/>
<path fill-rule="evenodd" clip-rule="evenodd" d="M48.1085 216.071C43.6045 218.185 39.0002 220.508 34.2418 222.452C33.223 222.868 31.6464 221.91 30.3272 221.586C30.6787 220.317 30.8054 218.917 31.4437 217.815C32.0804 216.708 33.0956 215.693 34.1741 214.994C39.0829 211.812 44.0645 208.741 49.045 205.67C49.9451 205.115 50.9243 204.602 51.9356 204.351C52.6279 204.179 53.8537 204.241 54.1016 204.65C54.4998 205.303 54.6446 206.566 54.265 207.166C52.4274 210.069 50.3768 212.837 48.1085 216.071Z" fill="#EB5757"/>
<path fill-rule="evenodd" clip-rule="evenodd" d="M44.2027 180.499C42.8269 181.971 41.7127 184.109 40.0221 184.787C35.3794 186.644 30.5223 187.993 25.6827 189.29C24.6524 189.566 23.3379 188.773 22.1541 188.47C22.6748 187.227 22.8673 185.307 23.7755 184.861C27.4172 183.073 31.2156 181.528 35.0879 180.318C37.7492 179.486 40.6271 179.356 43.4093 178.912C43.6737 179.441 43.9382 179.97 44.2027 180.499Z" fill="#EB5757"/>
<path fill-rule="evenodd" clip-rule="evenodd" d="M215.903 255.698C216.502 254.995 216.971 254.072 217.722 253.628C220.558 251.951 222.915 249.699 225.418 247.606C227.035 246.255 228.358 244.643 229.838 243.177C231.314 241.715 232.545 240.005 233.877 238.398C235.536 236.399 237.112 234.323 238.668 232.256C239.886 230.639 241.443 229.166 242.086 227.132C243.891 225.217 244.808 222.661 246.644 220.756C247.026 220.361 247.093 219.661 247.071 218.976C246.029 220.443 244.986 221.909 243.946 223.377C243.099 224.574 242.154 225.716 241.432 226.986C240.191 229.168 238.459 230.984 237.133 233.111C235.936 235.032 234.387 236.751 232.858 238.437C231.971 239.416 231.021 240.397 230.226 241.406C229.434 242.409 228.109 242.938 227.719 244.261C225.825 245.174 225.049 247.375 223.139 248.269C222.252 249.87 220.494 250.478 219.293 251.672C218.025 252.931 216.421 253.615 215.111 254.747C214.904 254.927 214.628 254.986 214.349 254.795C213.683 254.006 215.536 254.047 214.847 253.23C214.097 252.832 214.013 254.184 213.149 253.834C213.503 252.9 213.925 251.974 214.193 251.004C214.341 250.468 215.057 250.561 215.072 249.994C216.202 249.573 216.901 248.613 217.76 247.849C217.96 247.672 218.173 247.328 218.269 247.317C219.759 247.15 220.499 246.03 221.311 244.995C221.577 244.657 221.948 245.101 222.224 244.856C221.81 244.228 222.123 243.398 222.481 243.217C224.131 242.388 224.802 240.691 225.988 239.468C227.571 237.836 229.093 236.115 230.259 234.121C230.706 233.357 231.348 232.67 231.954 232.084C233.464 230.628 234.206 228.664 235.541 227.129C236.848 225.629 237.555 223.735 238.953 222.275C239.576 221.627 240.058 220.681 240.461 219.802C240.806 219.05 241.201 218.421 241.992 218.114C241.918 217.926 241.846 217.74 241.742 217.473C242.149 217.034 242.693 216.634 242.829 215.942C243.013 215.007 243.773 214.381 244.223 213.593C245.163 211.949 246.115 210.327 246.979 208.633C247.483 207.645 247.824 206.445 248.539 205.707C249.424 204.793 249.337 203.538 250.061 202.71C250.982 201.655 251.102 200.23 251.851 199.181C253.057 197.494 253.336 195.426 254.347 193.717C256.542 190.003 257.52 185.811 259.212 181.906C259.484 181.278 259.889 180.626 259.887 179.987C259.886 179.424 260.282 179.001 260.168 178.387C260.097 177.999 260.284 177.293 260.924 177.085C260.602 176.423 261.932 176.127 261.306 175.372C261.261 175.318 261.44 175.035 261.559 174.899C261.641 174.805 261.799 174.779 261.955 174.709C261.801 174.41 261.648 174.11 261.444 173.714C261.785 172.813 262.169 171.875 262.492 170.916C262.656 170.432 263.062 170.002 262.766 169.378C262.659 169.154 262.856 168.721 263.018 168.444C263.317 167.938 263.901 167.658 263.666 166.82C263.511 166.27 264.331 165.668 263.936 164.914C263.851 164.752 264.123 164.422 264.183 164.158C264.358 163.389 264.995 162.753 264.771 161.863C264.575 161.081 265.597 160.424 265.054 159.574C265.032 159.54 265.088 159.445 265.122 159.387C266.028 157.852 265.793 155.986 266.553 154.4C266.742 154.004 267.04 153.611 266.871 153.066C266.444 151.69 267.157 150.406 267.31 149.075C267.425 148.092 267.734 147.216 266.799 146.417C266.328 146.014 266.198 145.264 266.807 144.842C267.428 144.413 267.557 144.01 267.295 143.333C267.222 143.145 267.462 142.835 267.569 142.555C268.062 142.308 268.424 142.782 268.95 142.845C269.137 143.387 269.335 143.961 269.546 144.576C270.841 143.548 271.504 143.675 272.323 144.663C273.633 146.242 273.536 148.091 273.502 149.926C273.478 151.197 273.253 152.462 273.189 153.733C273.128 154.944 272.756 156.104 272.834 157.352C272.879 158.073 272.577 158.892 272.397 159.622C271.926 161.529 271.926 163.54 271.158 165.368C270.917 165.941 271.337 166.509 270.99 167.106C270.715 167.581 270.282 168.151 270.702 168.811C270.749 168.884 270.66 169.07 270.597 169.184C269.714 170.798 269.948 172.737 269.087 174.361C268.651 175.186 269.029 176.178 268.532 177.048C268.063 177.869 267.648 178.799 267.518 179.724C267.039 183.132 265.362 186.112 264.276 189.3C263.415 191.825 262.414 194.302 261.453 196.791C260.732 198.661 259.413 200.255 258.953 202.247C258.016 203.011 258.008 204.316 257.345 205.166C256.66 206.042 256.493 207.144 255.861 207.933C255.185 208.778 255.067 209.972 254.285 210.595C253.44 211.266 253.849 212.647 252.688 213.007C252.429 213.982 251.754 214.74 251.336 215.611C251.012 216.287 250.546 216.808 250.132 217.372C249.384 218.39 249.009 219.597 248.342 220.635C247.718 221.609 247.086 222.585 246.447 223.541C245.172 225.453 243.818 227.314 242.546 229.235C241.749 230.438 240.891 231.66 239.896 232.71C238.914 233.744 238.422 235.111 237.384 236.072C236.168 237.198 235.426 238.713 234.22 239.859C233.033 240.988 232.031 242.306 230.936 243.527C228.607 246.126 226.04 248.46 223.481 250.811C221.964 252.204 220.168 253.231 218.563 254.504C217.784 255.122 216.939 255.491 215.903 255.698Z" fill="#EB5757"/>
<path fill-rule="evenodd" clip-rule="evenodd" d="M224.896 171.93C224.73 172.434 224.612 172.764 224.172 172.977C223.589 173.259 224.36 173.817 224.052 174.24C223.896 174.453 223.889 174.937 223.744 174.968C222.912 175.149 223.366 175.996 223.064 176.256C222.541 176.71 222.523 177.317 222.245 177.833C221.878 178.519 221.854 179.355 221.064 179.856C220.42 180.263 221.061 181.282 220.325 181.852C219.957 182.137 219.813 182.822 219.737 183.351C219.638 184.035 218.834 184.104 218.717 184.765C218.623 185.295 218.276 185.778 218.174 186.308C218.05 186.961 217.225 187.058 217.18 187.726C217.134 188.394 216.335 188.502 216.179 189.142C216.026 189.762 215.894 190.48 215.154 190.762C214.752 192.033 214.288 193.255 213.065 194.003C212.928 194.087 212.882 194.367 212.844 194.566C212.682 195.389 212.17 196.018 211.53 196.441C211.121 196.712 211.067 197.067 210.885 197.408C210.704 197.747 210.537 198.063 210.263 198.379C209.147 199.669 208.009 200.946 206.927 202.255C205.428 204.065 203.833 205.76 202.15 207.38C201.906 207.615 201.561 207.699 201.75 208.239C202.291 207.889 202.901 207.807 203.338 207.218C203.743 206.67 204.611 206.391 204.846 205.816C205.125 205.13 206.16 205.478 206.187 204.465C206.2 203.981 207.085 203.531 207.558 203.05C208.222 202.375 209.061 201.785 209.478 200.977C210.053 199.864 210.929 199.016 211.669 198.072C212.416 197.118 213.022 196.07 213.754 195.109C214.483 194.152 215.404 193.263 215.87 192.178C216.37 191.011 217.164 190.036 217.712 188.903C218.095 188.109 218.433 187.152 219.021 186.534C219.519 186.01 219.828 185.472 219.987 184.859C220.167 184.164 220.947 184.008 221.098 183.26C221.287 182.333 221.705 181.445 222.091 180.571C222.442 179.776 222.409 178.656 223.174 178.237C224.175 177.687 223 176.288 224.244 176.008C224.022 175.166 224.202 174.482 224.989 174.012C225.044 173.978 225.045 173.744 224.992 173.648C224.656 173.048 225.093 172.575 225.3 172.127C226.748 168.988 227.299 165.557 228.508 162.343C228.526 162.298 228.458 162.221 228.377 162.039C227.413 163.272 227.568 165.022 226.413 165.979C226.475 166.589 226.533 167.157 226.583 167.634C226.235 168.054 225.859 167.575 225.587 167.853C225.654 168.104 225.976 168.429 225.72 168.59C224.873 169.122 225.484 169.877 225.346 170.522C225.039 170.653 224.728 170.787 224.309 170.966C224.528 171.325 224.74 171.672 224.896 171.93ZM226.048 149.338L226.985 149.697C227.281 149.631 227.168 149.469 227.125 149.277C227.002 148.716 227.508 148.032 226.705 147.588C226.457 147.452 226.441 147.034 226.59 146.661C226.856 145.989 226.48 145.538 225.865 145.261L226.809 142.77C227.21 142.617 227.526 142.332 227.983 142.585C228.251 142.734 228.586 143.013 228.92 142.767C229.747 142.156 230.76 142.49 231.125 143.006C231.639 143.732 232.357 144.355 232.478 145.489C232.686 147.425 232.559 149.31 232.305 151.194C232.072 152.931 231.665 154.65 231.321 156.371C231.098 157.482 230.616 158.532 230.515 159.614C230.408 160.777 229.841 161.779 229.707 162.866C229.483 164.681 229.033 166.331 227.908 167.806C227.729 168.04 227.841 168.628 227.782 169.064C227.552 170.751 226.536 173.977 225.538 175.497C225.24 175.951 225.656 176.524 225.225 176.847C224.779 177.181 224.262 177.414 224.76 178.079C223.539 179.045 224.385 180.972 222.933 181.925C222.433 182.253 222.467 183.221 221.812 183.725C221.511 183.957 222.088 184.732 221.588 185.244C221.287 185.391 220.929 185.564 220.563 185.742C220.764 186.049 220.843 186.361 220.636 186.692C220.045 187.632 219.59 188.676 218.974 189.567C218.108 190.825 217.277 192.118 216.401 193.371C214.466 196.138 212.579 198.923 210.379 201.502C208.691 203.484 206.948 205.376 205.044 207.153C203.279 208.801 201.461 210.212 199.036 210.626C198.874 210.398 199.051 210.227 199.099 210.04C199.147 209.852 199.31 209.675 199.064 209.368C198.589 209.659 198.084 209.969 197.457 210.354C197.086 209.455 196.412 209.2 195.748 209.008C195.57 207.45 196.787 206.922 197.694 206.264C198.328 205.804 198.883 205.349 199.391 204.729C201.233 202.479 203.174 200.314 205.078 198.116C205.552 198.319 204.894 198.724 205.28 198.939C205.336 198.912 205.477 198.89 205.532 198.81C205.967 198.169 205.422 197.37 205.889 196.708C206.481 195.87 207.023 194.995 207.572 194.126C208.844 192.11 210.514 190.362 211.401 188.077C211.716 187.262 212.347 186.545 212.798 185.756C213.094 185.236 212.959 184.44 213.705 184.189C214.099 182.314 215.688 180.986 216.041 179.112C216.204 178.244 217.151 177.723 216.962 176.746C217.75 176.23 217.918 175.349 218.228 174.554C218.575 173.661 218.909 172.762 219.248 171.867C219.563 171.034 219.915 170.213 220.182 169.366C220.377 168.743 220.769 168.207 220.703 167.452C220.661 166.96 221.708 166.63 221.204 165.856C222.538 164.865 221.818 163.184 222.533 161.934C223.881 159.576 223.876 156.731 225.033 154.283C224.71 153.482 225.843 153.091 225.652 152.503C225.373 151.643 225.868 151.066 226.093 150.397C226.212 150.044 225.987 149.791 226.048 149.338Z" fill="#EB5757"/>
<path fill-rule="evenodd" clip-rule="evenodd" d="M236.479 196.863C237.473 194.239 238.435 191.602 239.481 189C239.791 188.227 239.735 187.208 240.721 186.783C240.84 186.731 240.88 186.45 240.775 186.227C240.537 185.724 240.715 185.336 241.16 185.031C241.313 184.927 241.543 184.754 241.534 184.624C241.469 183.534 241.674 182.568 242.597 181.869C242.151 180.61 243.04 179.659 243.426 178.631C244.204 176.555 244.271 174.27 245.348 172.296C244.979 170.7 246.53 169.487 246.216 167.903C247.357 167.318 247.002 166.136 246.895 165.359C246.748 164.292 247.785 163.593 247.387 162.462C247.202 161.935 247.83 161.118 247.984 160.367C247.562 160.854 247.029 161.064 246.504 161.284C246.619 162.104 246.837 162.911 246.419 163.728C246.187 164.182 245.893 164.68 246.247 165.225C245.388 165.419 245.941 166.127 245.958 166.456C245.981 166.886 245.896 166.969 245.589 167.138C245.451 167.214 245.327 167.512 245.36 167.677C245.721 169.484 243.955 170.843 244.34 172.646C243.818 173.292 243.484 173.976 243.911 174.812C242.877 175.041 243.758 176.242 243.331 176.343C242.412 176.56 243.547 177.818 242.473 177.757C242.213 178.381 241.729 179.007 241.735 179.628C241.757 181.906 240.366 183.693 239.79 185.754C239.658 186.226 238.628 186.377 239.27 187.164C238.253 187.319 238.902 188.1 238.736 188.577C238.296 189.848 237.538 190.956 236.801 192.058C236.637 192.305 236.395 192.534 236.251 192.832C236 193.349 236.263 193.976 235.685 194.479C235.277 194.834 235.155 195.573 235.004 196.166C234.481 198.208 232.882 199.747 232.419 201.811C232.346 202.133 232.061 202.172 231.838 202.309C231.729 202.376 231.057 204.182 230.975 204.45C230.896 204.711 230.861 205.074 230.676 205.201C229.39 206.088 229.158 207.723 228.109 208.777C227.889 208.998 227.794 209.365 227.692 209.68C227.415 210.531 226.977 211.232 226.105 211.571C226.177 211.758 226.249 211.942 226.283 212.03C225.438 213.773 223.972 215.029 223.243 216.779C223.119 217.076 223.091 217.42 222.708 217.584C222.496 217.676 222.356 217.936 222.175 218.129C221.857 217.973 221.857 217.621 221.711 217.361C221.732 216.807 222.829 216.836 222.37 215.93C222.035 215.269 223.27 215.307 223.269 214.529C223.268 213.975 223.558 213.195 223.98 212.918C224.622 212.497 224.463 211.872 224.761 211.359C224.11 211.844 223.844 212.793 222.648 212.871C222.872 212.221 223.627 212.007 223.395 211.248C223.247 211.01 223.054 211.522 222.836 211.388C222.589 210.645 223.295 210.427 223.621 209.983C223.934 209.555 223.82 208.88 224.325 208.565C224.934 208.185 224.144 207.418 224.875 207.042C225.031 207.045 225.282 207.049 225.599 207.055C225.542 206.871 225.491 206.707 225.4 206.417C225.751 206.33 226.13 206.236 226.521 206.139C226.201 205.537 226.095 205.153 226.741 204.862C226.853 204.811 226.831 204.208 227.124 203.958C226.447 203.209 228.154 203.61 227.616 202.929C227.505 202.679 227.393 202.43 227.279 202.174C226.68 202.213 226.998 203.048 226.446 203.133C226.194 202.622 226.546 202.196 226.762 201.84C226.893 201.626 227.239 201.056 227.802 201.74C228.077 202.075 228.734 201.487 228.79 200.925C228.831 200.516 228.717 200.16 229.189 199.88C229.584 199.645 229.905 199.273 229.674 198.679C229.458 198.122 230.489 198.163 230.316 197.445C230.263 197.227 230.76 196.577 231.067 196.275C231.483 195.866 231.356 195.162 231.944 194.927C231.418 194.422 232.301 194.113 232.111 193.521C231.928 192.951 232.688 193.326 233.07 193.145C232.282 192.264 233.584 192.207 233.65 191.623C233.501 191.125 233.05 191.183 232.64 191.079C231.794 192.451 231.757 194.243 230.678 195.456C229.614 196.656 229.928 198.642 228.252 199.402C228.039 199.004 228.291 198.529 228.518 198.328C229.489 197.467 229.501 196.14 230.15 195.167C231.672 192.888 232.35 190.263 233.327 187.764C233.572 187.136 234.333 187.112 234.447 186.434C234.358 187.414 234.313 188.383 233.301 188.98C233.347 189.436 233.395 189.925 233.443 190.409C234.147 190.372 234.327 189.61 234.86 189.445C234.635 188.327 234.487 187.242 235.43 186.347C235.798 185.999 235.15 185.099 236.117 185.082C235.883 183.285 237.043 181.895 237.523 180.309C237.999 178.742 238.663 177.234 239.238 175.714C239.113 175.203 238.502 175.405 238.229 174.898C239.457 172.272 239.486 169.13 241.313 166.596L240.328 169.197C240.805 169.409 241.032 169.101 241.316 169.041C241.247 168.859 241.179 168.678 241.131 168.55C242.091 167.855 241.351 166.716 242.217 165.796C241.544 166.048 241.253 166.335 240.818 165.824C241.085 165.55 241.541 165.493 241.867 165.264C241.341 164.675 240.944 164 241.356 163.231C242.197 161.665 242.247 159.885 242.716 158.223C242.995 157.232 243.252 156.199 243.478 155.178C243.69 154.221 243.705 153.22 244.161 152.318C243.63 151.169 245.065 150.233 244.512 149.081C245.204 148.102 244.726 146.846 245.29 145.821C245.535 145.375 244.959 144.741 245.454 144.318C245.862 143.97 244.986 143.204 245.9 143.084C245.827 142.59 245.203 142.196 245.617 141.622C245.959 141.408 245.89 141.768 246.111 141.95C247.032 141.594 248.153 141.646 249.057 140.99C249.322 141.245 249.068 141.501 249.115 141.744C249.288 142.103 249.702 142.028 250.008 142.256C250.002 142.477 249.994 142.729 249.987 142.987C250.173 143.238 250.305 142.929 250.533 142.949C250.824 143.255 251.02 143.629 250.773 144.095C250.44 144.724 250.536 145.404 250.728 145.99C251.071 147.042 251.056 148.071 250.617 149.02C250.399 149.494 250.988 150.22 250.105 150.459C250.317 150.64 250.508 150.804 250.789 151.044C250.234 152.003 250.364 153.124 250.215 154.204C250.015 155.665 249.655 157.093 249.612 158.592C249.593 159.2 249.361 159.832 249.341 160.499C249.322 161.125 248.924 161.673 249.031 162.416C249.117 163.011 248.408 163.716 248.484 164.318C248.575 165.04 248.567 165.475 247.88 165.797C247.819 165.826 248.061 166.322 247.964 166.479C247.519 167.205 247.933 168.05 247.566 168.789C247.215 169.495 246.954 170.235 247.111 171.076C247.242 171.775 246.046 172.031 246.444 172.867C245.977 174.674 245.652 176.519 244.868 178.238C244.634 178.752 244.203 179.278 244.595 179.96C244.716 180.171 244.317 180.34 244.155 180.529C243.631 181.14 243.267 181.907 243.357 182.702C243.408 183.157 243.366 183.567 243.111 183.801C242.859 184.032 242.66 184.065 242.811 184.507C242.923 184.838 242.717 185.242 242.312 185.492C241.831 185.79 241.529 186.43 241.732 186.85C242.07 187.551 240.907 187.461 241.264 188.097C241.613 188.718 241.152 189.321 240.858 189.779C240.634 190.129 240.539 190.569 240.252 190.846C239.625 191.452 239.563 192.296 239.264 193.032C238.964 193.772 238.139 194.14 238.022 195.019C237.974 195.377 237.985 195.659 238.131 195.96C237.51 196.143 237.295 197.056 236.479 196.863Z" fill="#EB5757"/>
<path fill-rule="evenodd" clip-rule="evenodd" d="M236.482 196.863C235.982 197.51 236.652 197.996 236.703 198.505C236.681 198.996 236.156 198.932 236.032 199.225C235.593 200.256 235.038 201.227 234.534 202.215C233.699 203.85 232.866 205.445 231.846 206.986C231.173 208.002 230.758 209.188 229.758 209.982C229.989 210.975 229.172 211.608 228.796 212.318C228.285 213.282 227.894 214.518 226.613 214.886C226.899 215.444 226.858 215.897 226.295 216.275C225.57 216.763 225.08 217.436 224.849 218.299C224.765 218.609 224.666 218.9 224.308 219.094C223.439 219.564 223.11 220.446 222.832 221.38C222.573 221.372 222.322 221.364 222.071 221.356C221.351 221.698 222.422 222.511 221.787 222.717C221.168 222.918 221.327 223.668 220.779 223.831C220.664 223.571 220.552 223.321 220.438 223.064C221.152 222.873 221.182 222.424 220.881 221.856C220.941 221.733 220.971 221.54 221.061 221.506C222.188 221.076 222.577 219.917 223.164 219.073C223.89 218.029 224.499 216.863 225.229 215.795C225.912 214.796 226.747 213.831 227.267 212.808C227.862 211.633 228.623 210.545 229.195 209.349C229.737 208.218 230.303 207.045 231.182 206.045C231.8 205.34 232.127 204.332 232.565 203.475C233.165 202.303 234.243 201.363 234.415 199.98C234.499 199.315 235.325 199.259 235.429 198.562C235.516 197.98 235.859 197.432 236.115 196.881C236.139 196.83 236.353 196.867 236.482 196.863Z" fill="#EB5757"/>
<path fill-rule="evenodd" clip-rule="evenodd" d="M162.555 157.562C162.513 157.526 162.47 157.489 162.428 157.453C161.71 158.019 161.03 158.643 160.264 159.134C159.502 159.622 158.769 160.129 158.048 160.764C158.524 160.873 158.879 160.866 159.204 160.596C159.697 160.185 160.308 159.92 160.695 159.378C161.213 159.328 161.235 158.727 161.665 158.518C162.03 158.339 162.263 157.891 162.555 157.562ZM148.999 206.547C149.116 206.147 149.13 205.928 149.236 205.771C149.555 205.302 149.88 204.85 150.13 204.324C150.381 203.797 150.614 203.257 150.877 202.742C151.272 201.969 151.449 201.071 152.092 200.429C152.105 200.417 152.055 200.342 152.022 200.272C151.311 200.913 151.021 201.804 150.548 202.577C150.235 203.089 149.939 203.608 149.702 204.164C149.64 204.309 149.43 204.39 149.246 204.533C149.258 204.615 149.308 204.778 149.294 204.935C149.29 204.992 149.066 205.028 149.059 205.086C149.042 205.245 149.139 205.428 149.092 205.567C149.053 205.678 148.87 205.74 148.701 205.859C148.757 205.988 148.835 206.167 148.999 206.547ZM100.046 180.036C99.8317 180.582 99.5622 181.066 99.4608 181.583C99.356 182.116 99.1624 182.656 99.3338 183.166C99.1119 183.287 98.9617 183.368 98.6517 183.536C99.2706 183.549 99.4982 183.767 99.4969 184.214C99.4961 184.406 99.6115 184.645 99.5338 184.783C99.2999 185.199 99.68 185.17 99.8867 185.371C99.771 184.41 100.032 183.558 100.191 182.706C100.348 181.856 100.236 181.028 100.238 180.191C100.238 180.152 100.143 180.112 100.046 180.036ZM147.545 171.777C147.918 171.488 148.065 170.954 148.574 170.833C149.023 170.133 149.907 169.901 150.341 169.185C150.784 169.14 150.862 168.638 151.189 168.481C151.87 168.156 152.268 167.484 152.914 167.121C152.979 167.084 152.967 166.91 152.991 166.8C152.884 166.802 152.766 166.774 152.674 166.811C151.968 167.102 151.383 167.591 150.745 167.993C150.176 168.35 149.589 168.708 149.14 169.178C148.449 169.901 147.892 170.751 147.268 171.561L147.545 171.777ZM184.815 164.753C185.094 164.392 185.319 163.961 185.666 163.687C186.016 163.412 185.79 162.751 186.391 162.705C186.292 162.189 186.785 161.997 186.971 161.637C187.156 161.277 187.342 160.916 187.548 160.568C187.87 160.023 188.329 159.525 188.505 158.939C188.646 158.469 189.047 158.204 189.156 157.797C189.288 157.302 189.592 156.955 189.877 156.579C190.052 156.35 190.126 156.086 190.236 155.83C190.372 155.511 190.401 155.191 190.474 154.87C191.029 155.002 190.605 154.061 191.182 154.217C191.216 154.072 191.27 153.928 191.278 153.782C191.286 153.637 191.184 153.452 191.46 153.478C191.47 153.338 191.479 153.197 191.489 153.067C191.185 153.039 190.908 153.014 190.594 152.986C190.666 153.276 190.669 153.562 190.802 153.762C191 154.062 190.753 153.966 190.643 154.005C190.778 154.37 190.388 154.389 190.277 154.585C190.169 154.774 189.986 154.896 189.9 155.087C189.757 155.403 189.409 155.697 189.76 156.098C189.61 156.065 189.47 156.034 189.321 156.001C189.445 156.445 189.116 156.539 188.828 156.686C188.961 156.826 189.087 156.959 189.251 157.131C189.071 157.265 188.921 157.364 188.784 157.481C188.7 157.552 188.587 157.641 188.571 157.735C188.465 158.376 188.219 159.044 187.913 159.444C187.733 159.679 187.448 159.89 187.393 160.151C187.256 160.796 186.85 161.201 186.38 161.586C186.33 161.628 186.264 161.722 186.279 161.764C186.404 162.101 186.2 162.317 186.019 162.547C185.676 162.987 185.331 163.425 185.001 163.875C184.907 164.003 184.895 164.268 184.792 164.3C184.428 164.414 184.786 164.619 184.815 164.753ZM142.882 135.237C142.844 135.213 142.805 135.19 142.767 135.166C142.612 135.367 142.476 135.585 142.298 135.762C142.117 135.944 141.895 136.084 141.583 136.327C141.83 136.313 141.919 136.308 142.096 136.298C141.838 136.792 141.573 137.239 141.363 137.711C141.026 138.47 140.703 139.234 140.312 139.969C140.107 140.353 140.012 140.798 139.688 141.117C139.828 141.624 139.233 141.814 139.202 142.313C139.176 142.733 138.76 143.121 138.555 143.542C138.334 143.996 138.163 144.476 137.794 144.841C137.881 145.265 137.375 145.458 137.371 145.754C137.364 146.23 136.981 146.406 136.827 146.745C136.764 146.882 136.728 147.032 136.673 147.174C136.562 147.458 136.498 147.778 136.324 148.017C135.934 148.554 135.803 149.205 135.501 149.78C135.378 150.014 135.437 150.345 135.401 150.764C135.572 150.59 135.675 150.534 135.694 150.457C135.882 149.705 136.25 149.008 136.62 148.365C137.227 147.309 137.503 146.082 138.31 145.139C138.254 144.589 138.795 144.307 138.894 143.788C138.983 143.323 139.472 142.94 139.583 142.472C139.686 142.037 140.01 141.779 140.143 141.399C140.671 139.889 141.45 138.491 142.08 137.026C142.339 136.426 142.615 135.833 142.882 135.237ZM168.217 143.844C167.805 143.567 167.615 143.802 167.444 144.094C167.263 144.403 166.795 144.981 166.527 145.113C166.36 145.196 166.272 145.249 166.282 145.447C166.307 146.007 165.943 145.589 165.749 145.651C165.817 145.783 165.883 145.912 165.967 146.076C165.54 146.322 165.099 146.519 164.732 146.875C164.484 147.116 164.512 147.492 164.206 147.649C164.16 147.672 164.1 147.669 164.054 147.677C164.032 147.584 164.013 147.501 163.987 147.385C163.527 147.588 163.981 147.811 163.959 147.906L163.4 148.63C163.255 148.58 163.155 148.545 163.061 148.512C163.063 148.779 163.064 148.995 163.065 149.254C162.815 149.256 162.621 149.257 162.458 149.258C162.422 149.804 162.115 150.109 161.753 150.381C161.698 150.421 161.605 150.509 161.615 150.527C161.858 150.963 161.342 151.192 161.287 151.619C162.124 151.369 162.303 150.566 162.927 150.034C162.993 150.037 163.18 150.044 163.347 150.051C163.492 149.486 163.468 149.435 163.748 149.295C164.062 149.137 163.958 148.766 164.218 148.589C164.496 148.399 164.741 148.156 164.984 147.919C165.035 147.869 165 147.738 165.027 147.652C165.054 147.567 165.089 147.463 165.155 147.418C165.429 147.229 165.717 147.059 165.999 146.882C165.93 146.389 166.392 146.34 166.632 146.101C166.708 146.026 166.706 145.874 166.746 145.759C166.777 145.673 166.821 145.517 166.854 145.518C167.227 145.533 167.277 145.067 167.511 145.026C167.936 144.951 167.855 144.523 168.038 144.398C168.791 143.884 169.128 143.042 169.731 142.42C169.915 142.231 170.111 142.055 170.317 141.858C170.258 141.816 170.174 141.711 170.115 141.723C169.798 141.788 169.785 142.301 169.368 142.258C169.352 142.256 169.335 142.491 169.279 142.594C169.228 142.689 169.125 142.824 169.044 142.825C168.4 142.829 168.315 143.319 168.217 143.844ZM137.754 213.234C138.89 213.092 139.889 212.989 140.832 212.569C142.147 211.983 143.275 211.164 144.193 210.048C144.338 209.872 144.655 209.763 144.687 209.586C144.75 209.244 144.878 209.072 145.213 209.031C145.255 209.025 145.328 208.919 145.316 208.88C145.209 208.518 145.492 208.327 145.676 208.133C146.213 207.568 146.399 206.811 146.819 206.182C146.577 206.333 146.314 206.47 146.167 206.687C146.027 206.894 145.813 206.988 145.666 207.164C145.479 207.391 145.311 207.635 145.123 207.861C144.961 208.056 144.811 208.287 144.601 208.408C144.388 208.53 144.345 208.766 144.114 208.895C143.712 209.12 143.625 209.682 143.122 209.903C142.692 210.093 142.599 210.833 141.93 210.734C141.979 210.937 141.924 211.11 141.77 211.247C141.528 211.462 139.92 212.037 139.523 212.02C139.226 212.007 138.986 212.366 138.666 212.136C138.497 212.327 138.325 212.516 138.16 212.71C138.056 212.833 137.962 212.965 137.754 213.234ZM120.531 148.607C120.321 148.85 120.139 148.972 120.091 149.133C119.917 149.714 119.784 150.308 119.647 150.899C119.612 151.048 119.641 151.212 119.599 151.358C119.491 151.737 119.197 152.076 119.292 152.497C119.38 152.886 118.657 153.143 119.138 153.575C118.745 154.378 118.737 155.301 118.395 156.104C118.182 156.603 118.274 157.157 118.008 157.604C117.561 158.355 117.755 159.325 117.161 160.02C117.133 160.053 117.189 160.149 117.178 160.21C117.1 160.661 117.121 161.172 116.904 161.542C116.642 161.987 116.81 162.558 116.409 162.928C116.398 162.938 116.449 163.014 116.47 163.059C116.684 162.939 116.889 162.824 117.109 162.7C117.02 162.556 116.956 162.454 116.885 162.341C117.042 162.106 117.23 161.882 117.352 161.626C117.474 161.367 117.453 160.926 117.632 160.833C117.954 160.667 117.753 160.336 117.995 160.146C118.154 160.02 118.203 159.606 118.136 159.368C118.021 158.963 118.608 158.875 118.479 158.708C118.143 158.274 118.695 158.241 118.721 157.99C118.749 157.717 118.794 157.445 118.85 157.177C118.911 156.879 118.995 156.587 119.065 156.292C119.128 156.026 119.17 155.754 119.248 155.493C119.335 155.202 119.471 154.925 119.55 154.632C119.622 154.368 119.648 154.092 119.693 153.821C119.738 153.551 119.774 153.278 119.825 153.008C119.882 152.71 119.941 152.411 120.017 152.117C120.085 151.853 120.205 151.6 120.251 151.332C120.297 151.059 120.264 150.772 120.297 150.495C120.332 150.193 120.415 149.896 120.455 149.595C120.492 149.318 120.499 149.037 120.531 148.607ZM99.1063 153.548C99.3805 153.001 99.4856 152.618 99.7235 152.359C100.021 152.036 100.173 151.644 100.261 151.27C100.403 150.666 100.657 150.116 100.876 149.55C101.228 148.637 101.606 147.735 101.974 146.828C102.298 146.029 102.457 145.155 103.042 144.476C103.096 143.852 103.732 143.449 103.654 142.745C103.625 142.484 103.924 142.2 104.011 141.908C104.059 141.75 104.546 141.969 104.251 141.624C103.962 141.286 104.47 141.476 104.427 141.312C104.274 140.744 104.551 140.27 104.803 139.813C105.118 139.243 105.199 138.595 105.488 138.007C105.718 137.537 105.999 137.042 106.073 136.473C106.118 136.123 106.322 135.775 106.517 135.467C107.068 134.599 107.383 133.621 107.794 132.694C108.244 131.678 108.785 130.709 109.221 129.689C109.543 129.587 109.284 129.046 109.717 129.028C109.782 128.734 109.821 128.431 109.921 128.149C110.025 127.857 110.278 127.67 110.389 127.334C110.675 126.463 111.113 125.642 111.498 124.803C111.755 124.243 112.045 123.697 112.283 123.129C112.543 122.511 112.673 121.822 113.014 121.258C113.63 120.241 114.091 119.143 114.694 118.133C115.249 117.203 115.738 116.212 116.494 115.401C116.917 114.947 117.272 114.427 117.64 113.923C117.784 113.726 117.9 113.516 117.995 113.271C118.162 112.839 118.495 112.434 118.848 112.118C119.449 111.581 120.452 110.395 120.841 109.597C120.649 109.691 120.372 109.734 120.283 109.887C119.885 110.569 119.208 110.972 118.711 111.555C117.211 113.316 116.096 115.353 114.659 117.156C114.578 117.257 114.471 117.356 114.437 117.473C114.171 118.412 113.579 119.187 113.163 120.05C113.08 120.223 112.943 120.349 112.998 120.576C113.066 120.857 112.486 120.631 112.641 120.975C112.862 121.464 112.19 121.656 112.296 122.126C112.32 122.233 112.001 122.414 111.847 122.568C111.804 122.612 111.759 122.681 111.761 122.737C111.779 123.153 111.783 123.153 111.392 123.329C111.384 123.566 111.612 123.893 111.154 123.958C111.144 124.427 110.613 124.751 110.79 125.28C110.811 125.343 110.716 125.519 110.688 125.516C110.384 125.482 110.468 125.701 110.417 125.865C110.352 126.07 110.166 126.238 110.114 126.444C109.938 127.144 109.713 127.822 109.232 128.369C109.045 128.581 109.016 128.814 108.964 129.056C108.912 129.3 108.915 129.559 108.69 129.738C108.446 129.933 108.518 130.381 108.127 130.465C108.186 131.042 107.724 131.433 107.598 131.925C107.306 133.071 106.439 133.964 106.257 135.146C105.854 135.637 105.728 136.267 105.436 136.802C105.162 137.304 105.099 137.916 104.622 138.333C104.422 138.508 104.345 138.881 104.309 139.176C104.27 139.501 103.906 139.632 103.947 140.036C103.977 140.324 103.502 140.706 103.578 140.937C103.733 141.404 103.058 141.289 103.208 141.647C102.719 142.544 102.81 143.624 102.31 144.518C102.526 144.954 102.143 145.227 102.025 145.573C101.897 145.949 101.856 146.356 101.595 146.685C101.498 146.807 101.472 146.985 101.379 147.112C101.275 147.256 101.083 147.349 101.018 147.503C100.898 147.782 101.164 148.227 100.648 148.335C100.61 148.653 100.591 148.975 100.527 149.288C100.479 149.524 100.3 149.751 100.306 149.978C100.319 150.453 99.8105 150.67 99.7968 151.066C99.7794 151.553 99.2427 151.696 99.2694 152.145C99.4247 152.559 99.042 152.912 99.1063 153.548ZM92.3895 184.429C92.3141 184.132 91.8217 184.1 92.1329 183.728C92.1578 183.698 91.8817 183.468 91.8241 183.303C91.6407 182.78 91.4244 182.281 91.1234 181.813C91.027 181.662 91.0088 181.445 91.0003 181.256C90.9626 180.416 90.8978 179.582 90.5395 178.806C90.4893 178.697 90.9608 178.447 90.4423 178.464C90.3735 178.466 90.3177 178.224 90.2199 178.134C89.95 177.887 89.8052 177.582 89.7933 177.226C89.7869 177.048 89.8383 176.861 89.8945 176.689C90.0276 176.284 90.2269 175.895 90.3139 175.481C90.5777 174.226 91.0518 173.037 91.4165 171.814C91.547 171.377 91.732 170.956 91.8756 170.522C92.019 170.09 92.0997 169.632 92.2828 169.218C92.5568 168.599 92.7299 167.957 92.9084 167.309C93.0778 166.694 93.334 166.103 93.5451 165.499C93.9774 164.263 94.4684 163.043 94.809 161.782C94.9973 161.083 95.4415 160.562 95.726 159.94C95.7431 159.902 95.8079 159.887 95.8506 159.861C95.4043 159.566 95.8504 159.279 95.912 159.044C96.1557 158.103 96.5192 157.196 96.797 156.262C96.8796 155.984 96.8885 155.987 97.297 155.797C97.2363 155.661 97.0856 155.467 97.1294 155.397C97.5759 154.684 97.5381 153.763 98.1168 153.107C98.1836 153.031 98.1522 152.87 98.172 152.748C98.1966 152.598 98.1759 152.402 98.2626 152.306C98.8831 151.626 98.8619 150.698 99.2053 149.912C99.4115 149.439 99.722 149.01 99.7541 148.452C99.7654 148.26 100.057 148.083 100.324 147.785C100.185 147.25 100.363 146.621 100.819 146.07C100.861 146.02 100.93 145.969 100.935 145.914C101.025 144.692 101.933 143.746 102.075 142.538C102.086 142.446 102.31 142.378 102.456 142.287C102.281 141.705 102.502 141.172 102.77 140.616C103.073 139.986 103.297 139.316 103.526 138.653C103.836 137.754 104.161 136.865 104.589 136.014C104.724 135.743 104.793 135.439 104.911 135.159C105.01 134.921 105.255 134.733 105.232 134.46C105.19 133.968 105.839 133.779 105.718 133.268C106.1 132.864 106.05 132.268 106.339 131.835C106.639 131.387 106.721 130.833 106.994 130.415C107.446 129.726 107.688 128.948 108.062 128.231C108.397 127.59 108.851 126.972 108.958 126.218C109.673 125.191 109.884 123.934 110.495 122.855C110.78 122.351 110.947 121.779 111.205 121.25C111.339 120.976 111.457 120.687 111.637 120.432C111.694 120.351 111.814 120.271 111.808 120.198C111.766 119.566 112.121 119.123 112.485 118.679C112.362 118.319 112.699 118.169 112.823 117.921C112.947 117.674 113.006 117.383 113.169 117.169C114.09 115.961 114.806 114.615 115.763 113.424C116.565 112.424 117.08 111.188 117.996 110.276C119.028 109.25 119.905 108.05 121.226 107.328C121.848 106.988 122.453 106.664 123.146 106.465C123.802 106.277 124.46 106.18 125.125 106.103C125.846 106.019 126.534 106.14 127.177 106.514C127.437 106.666 127.734 106.762 128.025 106.848C128.504 106.989 128.929 107.231 129.374 107.443C129.961 107.724 130.447 108.117 130.972 108.471C131.589 108.885 131.875 109.578 132.374 110.089C132.436 110.152 132.34 110.372 132.331 110.43C132.496 110.541 132.685 110.6 132.752 110.725C132.911 111.02 133.017 111.344 133.135 111.661C133.231 111.922 133.35 112.182 133.393 112.454C133.439 112.754 133.368 113.074 133.425 113.371C133.476 113.634 133.703 113.871 133.726 114.13C133.765 114.554 133.516 114.966 133.626 115.416C133.668 115.583 133.543 115.787 133.575 115.959C133.665 116.438 133.506 116.893 133.494 117.351C133.484 117.767 133.126 118.067 133.281 118.547C133.403 118.924 133.23 119.39 133.219 119.817C133.207 120.26 133.292 120.713 133.231 121.146C133.082 122.193 133.28 123.261 133.011 124.298C132.981 124.416 132.939 124.589 132.997 124.662C133.408 125.179 133.058 125.775 133.192 126.315C132.961 126.529 133.137 126.638 133.295 126.769C133.355 126.82 133.416 126.936 133.4 127.002C133.25 127.588 133.463 128.109 133.612 128.661C133.724 129.076 133.637 129.543 133.665 129.986C133.689 130.346 133.706 130.718 133.81 131.059C133.909 131.383 133.607 131.739 133.919 132.025C133.525 132.388 134.003 132.778 133.888 133.134C133.762 133.525 134.121 133.84 133.956 134.274C133.833 134.6 134.021 135.044 134.07 135.436C134.124 135.86 134.177 136.284 134.232 136.718C134.323 136.711 134.414 136.705 134.505 136.699C134.404 136.824 134.78 137.049 134.4 137.15C134.303 137.175 134.193 137.444 134.215 137.581C134.295 138.097 134.166 138.649 134.408 139.128C134.58 139.468 134.416 139.747 134.406 140.056C134.387 140.631 134.551 141.213 134.647 141.79C134.656 141.844 134.759 141.909 134.747 141.935C134.285 142.941 135.04 143.848 134.975 144.818C134.945 145.281 134.894 145.743 134.851 146.217C135.199 146.111 135.337 146.268 135.361 146.577C135.421 146.547 135.5 146.535 135.525 146.491C135.725 146.138 136.059 145.784 136.071 145.421C136.088 144.915 136.544 144.704 136.616 144.236C136.682 143.799 137.014 143.403 137.235 142.992C137.443 142.607 137.724 142.247 137.858 141.839C138.196 140.81 138.88 139.947 139.178 138.894C139.319 138.395 139.708 137.97 139.969 137.503C140.119 137.234 140.323 136.954 140.346 136.667C140.372 136.339 140.661 136.146 140.674 135.908C140.692 135.606 140.864 135.449 140.975 135.227C141.266 134.649 141.559 134.068 141.797 133.468C142.206 132.435 142.57 131.385 143.178 130.445L143.418 129.628C143.364 129.083 143.811 128.737 143.967 128.268C144.104 127.855 144.11 127.318 144.625 127.098C144.682 127.073 144.742 126.999 144.754 126.938C144.949 125.934 145.46 124.559 145.916 123.843C145.94 123.805 146.034 123.78 146.031 123.761C145.909 123.101 146.593 122.73 146.612 122.122C147.296 121.358 147.427 120.27 148.121 119.509C148.198 119.425 148.217 119.287 148.255 119.171C148.423 118.663 148.581 118.153 148.976 117.761C149.181 117.556 149.274 117.301 149.329 117.007C149.379 116.739 149.691 116.611 149.733 116.264C149.787 115.807 150.201 115.487 150.382 115.033C150.74 114.137 151.3 113.322 151.782 112.477C152.191 111.759 152.545 110.999 152.88 110.235C153.092 109.754 153.424 109.326 153.631 108.832C153.845 108.322 154.198 107.875 154.323 107.32C154.343 107.232 154.423 107.157 154.48 107.08C154.742 106.725 154.993 106.382 155.14 105.939C155.274 105.538 155.752 105.283 155.753 104.782C156.314 104.054 156.879 103.329 157.436 102.597C157.857 102.043 158.325 101.575 158.928 101.181C159.479 100.82 159.968 100.322 160.498 99.8974C161.285 99.2668 162.088 98.659 162.973 98.1823C163.334 97.9881 163.602 97.6722 163.942 97.4997C164.873 97.0283 165.851 96.7945 166.889 97.2195C167.271 97.3758 167.636 97.5281 167.956 97.8014C168.405 98.1843 168.866 98.558 169.354 98.8875C169.997 99.3217 170.451 99.9563 170.798 100.583C171.681 102.171 172.38 103.853 172.185 105.754C172.541 106.126 172.162 106.498 172.18 106.872C172.198 107.246 172.17 107.623 172.158 107.998C172.148 108.293 171.945 108.443 171.698 108.576C171.889 108.875 171.865 109.181 171.854 109.53C171.837 110.084 171.399 110.454 171.414 111.035C171.425 111.518 171.106 112.012 171.083 112.539C170.607 112.707 171.07 113.299 170.656 113.494C170.803 113.963 170.126 114.152 170.242 114.496C170.367 114.869 170.308 115.221 170.285 115.555C170.247 116.122 169.846 116.638 169.98 117.251C169.798 117.247 169.693 117.288 169.729 117.519C169.735 117.554 169.434 117.607 169.51 117.863C169.649 118.331 169.59 118.798 169.411 119.249C169.241 119.674 169.248 120.138 168.985 120.562C168.825 120.821 168.562 121.162 168.599 121.474C168.642 121.827 168.451 122.074 168.403 122.376C168.35 122.711 168.326 123.056 168.061 123.327C167.993 123.396 167.991 123.572 168.02 123.684C168.075 123.903 167.994 124.052 167.865 124.214C167.701 124.42 167.4 124.612 167.735 124.935C167.763 124.962 167.565 125.185 167.525 125.331C167.333 126.036 167.213 126.762 166.879 127.423C166.852 127.476 166.82 127.543 166.831 127.596C166.934 128.131 166.662 128.549 166.48 129.018C166.372 129.297 166.094 129.603 166.275 130.009C166.391 130.269 166.072 130.25 165.91 130.307C166.197 130.851 165.454 131.217 165.661 131.759C165.691 131.839 165.571 131.979 165.515 132.089C165.459 132.201 165.324 132.331 165.35 132.415C165.435 132.697 165.265 132.852 165.157 133.068C165.063 133.256 165.229 133.672 165.123 133.739C164.856 133.908 164.981 134.157 164.879 134.342C164.76 134.562 164.637 134.78 164.516 134.999C164.485 135.053 164.424 135.111 164.428 135.162C164.491 135.889 163.93 136.497 164.122 137.278C163.802 137.251 163.569 137.232 163.322 137.211C163.319 137.285 163.299 137.346 163.32 137.386C163.429 137.603 163.569 137.807 163.657 138.031C163.698 138.134 163.678 138.366 163.631 138.383C163.087 138.576 163.368 138.863 163.553 139.162L163.028 139.844C163.292 140.09 163.274 140.385 163.007 140.475C162.59 140.616 162.615 140.946 162.733 141.149C162.918 141.47 162.861 141.678 162.661 141.929C162.588 142.019 162.503 142.174 162.532 142.262C162.692 142.744 162.415 143.107 162.291 143.527C162.217 143.778 161.943 143.976 162.062 144.325C162.147 144.572 162.057 144.879 162.048 145.16C162.038 145.473 162.01 145.788 162.033 146.099C162.053 146.372 161.908 146.403 161.703 146.465C161.631 146.487 161.649 146.739 161.578 146.857C161.464 147.049 161.31 147.217 161.158 147.415C161.365 147.477 161.52 147.524 161.741 147.591C161.518 147.772 161.178 147.766 161.295 148.125C161.345 148.278 161.441 148.524 161.097 148.493C161.127 148.566 161.141 148.688 161.191 148.705C161.481 148.809 161.778 148.672 161.89 148.383C161.921 148.301 161.866 148.19 161.881 148.097C161.889 148.044 161.96 148.001 162.015 147.941C162.124 147.976 162.239 148.013 162.378 148.058C162.39 147.943 162.38 147.744 162.415 147.736C162.733 147.659 162.709 147.209 162.859 147.179C163.253 147.102 163.359 146.786 163.554 146.549C163.777 146.28 164.009 146.049 164.318 145.866C164.539 145.735 164.708 145.508 164.858 145.247C165.101 144.824 165.342 144.321 165.897 144.168C165.897 143.737 166.329 143.644 166.535 143.373C166.819 143.001 166.986 142.516 167.495 142.318C167.904 142.158 167.946 141.524 168.474 141.469C168.774 140.968 169.299 140.673 169.643 140.236C170.295 139.407 171.108 138.747 171.885 138.079C172.774 137.315 173.739 136.617 174.783 136.023C176.197 135.218 177.641 134.497 179.191 134.047C180.19 133.757 181.141 133.127 182.268 133.4C182.331 133.415 182.416 133.298 182.5 133.27C183.212 133.033 183.942 133.083 184.634 133.287C184.873 133.358 185.083 133.44 185.345 133.454C185.639 133.469 185.945 133.511 186.215 133.718C186.455 133.901 186.765 133.989 187.039 134.128C187.313 134.268 187.474 134.64 187.874 134.531C187.912 134.521 187.973 134.61 188.028 134.645C188.667 135.061 189.302 135.484 189.95 135.885C190.21 136.046 190.541 136.108 190.771 136.298C191.156 136.617 191.469 137.022 191.843 137.355C192.209 137.682 192.651 137.928 192.993 138.277C193.354 138.646 193.692 139.062 193.938 139.514C194.202 139.997 194.668 140.361 194.79 140.913C194.905 141.435 195.281 141.875 195.344 142.367C195.407 142.866 195.866 143.382 195.421 143.918C195.384 143.961 195.413 144.089 195.448 144.159C195.804 144.872 195.498 145.563 195.339 146.239C195.249 146.62 195.021 146.997 194.767 147.302C194.533 147.581 194.988 147.672 194.841 147.881C194.731 148.039 194.587 148.187 194.529 148.363C194.362 148.865 194.19 149.359 193.87 149.789C193.816 149.861 193.764 149.954 193.758 150.04C193.702 150.787 193.216 151.345 192.919 151.985C192.789 152.264 192.725 152.67 192.507 152.791C192.193 152.963 192.147 153.242 192.034 153.478C191.674 154.227 191.11 154.874 190.956 155.733C190.909 155.994 190.552 156.21 190.533 156.461C190.512 156.743 190.258 156.81 190.195 157.069C190.107 157.434 190.002 157.857 189.668 158.16C189.394 158.409 189.433 158.853 189.157 159.155C188.914 159.421 188.811 159.811 188.622 160.132C188.431 160.454 188.079 160.687 188.103 161.127C188.106 161.176 188.026 161.229 187.989 161.283C187.336 162.237 186.597 163.146 186.047 164.157C184.994 166.092 183.454 167.651 182.202 169.429C182.023 169.683 182.011 169.674 182.013 170.251C182.307 169.912 182.546 169.635 182.851 169.283C182.923 169.423 183.057 169.586 183.024 169.634C182.765 170.013 182.491 170.386 182.185 170.726C182.079 170.843 181.867 170.862 181.71 170.923C181.558 170.652 182.244 170.438 181.695 170.193C181.628 170.572 181.346 170.858 181.43 171.314C181.501 171.688 180.872 171.756 180.778 172.146C180.775 172.158 180.707 172.144 180.686 172.161C180.376 172.414 179.952 172.528 179.683 172.77C179.429 173 179.414 173.493 179.278 173.864C179.249 173.944 179.156 174 179.067 174.095C179.011 173.973 178.97 173.881 178.892 173.709C178.538 174.483 178.291 175.317 177.288 175.447C177.351 176.24 176.576 176.369 176.169 176.798C176.077 176.894 175.776 176.789 175.514 176.773C175.668 176.936 175.794 177.069 175.922 177.205C175.487 177.461 175.288 177.673 174.976 178.157C174.911 178.258 174.807 178.343 174.703 178.407C174.392 178.6 174.174 178.835 173.946 179.167C173.843 179.316 173.675 179.419 173.537 179.544C173.399 179.669 173.278 179.823 173.121 179.915C172.887 180.053 173.089 180.548 172.686 180.485C172.335 180.43 172.315 180.838 172.054 180.852C171.974 180.857 171.889 180.78 171.619 180.65C171.801 180.889 171.897 181.016 172.004 181.156C171.883 181.164 171.973 181.158 172.065 181.152C172.045 181.64 171.5 181.638 171.339 181.945C171.131 182.339 170.72 182.222 170.364 182.421C170.456 182.582 170.526 182.704 170.616 182.862C170.234 183.292 169.978 183.846 169.325 184.038C168.968 184.143 168.723 184.626 168.465 185.415C168.401 185.189 168.394 185.089 168.346 185.016C168.299 184.945 168.211 184.904 168.105 184.821C168.08 185.205 168.058 185.533 168.037 185.861C167.701 185.956 167.369 186.041 167.308 186.483C167.296 186.569 167.135 186.665 167.026 186.7C166.777 186.78 166.658 186.924 166.661 187.189C166.662 187.275 166.601 187.438 166.578 187.437C165.947 187.386 166.337 188.119 165.954 188.252C165.729 188.329 165.509 188.42 165.362 188.476C165.37 188.675 165.385 188.836 165.382 188.997C165.375 189.337 164.866 189.219 164.842 189.645C164.827 189.916 164.504 190.192 164.276 190.424C163.475 191.241 163.145 192.377 162.38 193.215C162.262 193.848 161.778 194.254 161.449 194.758C161.246 195.068 161.096 195.414 160.928 195.747C160.774 196.053 160.472 196.237 160.406 196.647C160.35 196.99 159.92 197.256 159.77 197.606C159.673 197.833 159.761 198.134 159.369 198.096C159.476 198.404 159.237 198.57 159.091 198.772C158.722 199.28 158.482 199.851 158.25 200.431C158.157 200.664 158.007 200.924 157.806 201.052C157.587 201.191 157.869 201.631 157.444 201.577C157.333 201.939 157.178 202.272 156.922 202.56C156.692 202.819 156.566 203.129 156.442 203.463C156.203 204.109 155.858 204.718 155.523 205.323C155.342 205.651 155.108 205.926 154.982 206.309C154.852 206.703 154.515 207.063 154.06 207.216C153.924 207.262 153.793 207.323 153.678 207.509C153.869 207.505 154.06 207.501 154.252 207.498C154.212 208.016 153.782 207.927 153.414 208.014C153.435 208.285 153.164 208.536 153.419 208.854C153.466 208.912 153.288 209.181 153.183 209.331C152.934 209.688 152.622 209.907 152.117 209.638C152.364 210.009 152.392 210.268 152 210.434C151.958 210.452 151.968 210.729 152.054 210.868C151.526 210.97 151.366 211.68 150.682 211.653C150.821 211.722 150.96 211.792 151.153 211.888C150.817 212.249 150.52 212.772 150.074 212.991C149.577 213.235 149.433 213.888 148.768 213.919C148.612 213.817 148.406 213.681 148.2 213.547C148.179 213.572 148.159 213.597 148.138 213.622C148.258 213.757 148.377 213.892 148.539 214.074C148.281 214.42 147.902 214.601 147.532 214.807C146.474 215.394 145.352 215.785 144.184 216.1C143.59 216.259 142.995 216.331 142.401 216.445C141.839 216.552 141.285 216.711 140.72 216.791C139.281 216.995 137.837 217.154 136.394 216.798C135.479 216.984 134.622 216.652 133.752 216.481C132.354 216.205 131.004 215.746 129.654 215.296C128.934 215.056 128.213 214.818 127.508 214.54C126.8 214.26 126.158 213.818 125.387 213.684C125.272 213.664 125.165 213.56 125.07 213.476C124.66 213.117 124.205 212.862 123.658 212.781C123.541 212.764 123.435 212.677 123.326 212.621C122.994 212.452 122.807 212.087 122.338 212.07C122.044 212.06 121.842 211.579 121.427 211.637C121.381 211.644 121.322 211.565 121.272 211.523C120.236 210.645 118.952 210.128 117.946 209.2C117.63 208.909 117.307 208.608 116.817 208.52C116.571 208.476 116.216 208.25 116.207 207.849C115.869 207.93 115.685 207.668 115.466 207.502C114.84 207.025 114.236 206.518 113.595 206.062C113.268 205.829 113.046 205.416 112.534 205.461C112.266 205.485 112.502 204.885 112.072 204.981C111.709 204.585 111.167 204.466 110.765 204.113C110.175 203.594 109.592 202.99 108.892 202.694C108.179 202.393 107.671 201.878 107.073 201.462C106.427 201.013 105.835 200.49 105.198 200.027C104.98 199.868 104.708 199.77 104.447 199.689C104.189 199.609 104.279 199.113 103.879 199.238C103.727 198.987 103.63 198.664 103.23 198.734C103.233 198.336 102.822 198.476 102.659 198.292C102.496 198.107 102.272 198.016 102.154 197.737C102.041 197.471 101.71 197.279 101.444 197.102C100.48 196.462 99.7356 195.575 99.0513 194.686C98.3858 193.822 97.6891 192.964 97.1138 192.025C97.0339 191.894 96.8913 191.79 96.7582 191.706C95.7765 191.085 95.2076 190.045 94.3387 189.309C94.2573 189.241 94.2635 189.076 94.2043 188.97C94.101 188.784 93.9792 188.609 93.8641 188.43C93.7491 188.251 93.6558 188.05 93.5094 187.901C93.3793 187.769 93.901 187.603 93.4563 187.504C93.3039 187.47 93.1672 187.246 93.0758 187.08C92.9443 186.84 92.8571 186.575 92.7575 186.317C92.5462 185.773 92.3373 185.228 92.1306 184.683C92.0417 184.448 92.1929 184.424 92.3895 184.429Z" fill="#EB5757"/>
<path fill-rule="evenodd" clip-rule="evenodd" d="M250.302 326.515C245.146 320.754 239.487 315.549 233.188 311.076C238.893 316.223 244.598 321.369 250.302 326.515ZM251.982 337.06C248.524 332.143 225.016 312.773 219.223 309.94C230.161 319.154 241.768 327.254 251.982 337.06ZM231.568 299.836C238.208 305.397 244.75 310.959 250.422 317.457C252.567 319.916 254.615 322.456 256.742 324.928C257.224 325.489 257.777 326.545 258.574 326.005C259.531 325.357 258.428 324.672 258.128 324.029C258.046 323.854 257.895 323.711 257.772 323.556C250.324 314.188 241.349 306.513 231.568 299.836ZM147.65 276.109C144.765 276.241 142.389 274.613 139.848 273.681C131.676 270.685 123.402 268.091 114.879 266.331C112.238 265.785 109.707 265.149 107.9 262.853C107.462 262.296 106.206 260.761 106.187 263.26C106.178 264.31 105.432 263.901 104.909 263.827C99.9869 263.134 94.9681 262.812 90.1943 261.551C88.1608 261.015 86.4153 261.574 84.6087 261.306C79.1348 260.493 73.6741 261.353 68.2094 261.2C64.9077 261.108 61.5812 261.907 58.1381 262.323C58.0746 261.311 59.4733 261.686 59.3023 260.914C59.1508 260.235 58.3499 259.874 57.9172 260.086C56.1755 260.94 53.7123 260.292 52.6691 262.637C52.2108 263.67 50.9749 263.732 50.4613 263.21C49.597 262.33 49.1714 261.482 48.6808 263.36C48.6393 263.525 48.4262 263.643 48.2914 263.783C45.5834 260.912 44.556 264.862 42.6393 265.182C37.6183 266.021 32.874 267.915 27.8258 268.837C24.1917 269.501 20.4307 271.206 16.9005 273.044C14.4247 274.333 11.6783 275.577 8.85346 276.116C7.26852 276.418 5.73202 276.731 4.41949 277.595C2.63908 278.765 1.48899 277.624 0.172563 276.772C-1.45908 275.716 0.00925158 274.988 0.405625 274.152C1.1242 272.634 -0.290218 271.554 -0.654162 270.387C-2.21301 265.389 0.795862 262.367 3.66085 259.551C8.28914 255.001 14.1157 252.114 19.8567 249.216C38.0824 240.017 57.4923 235.465 77.8014 234.992C96.8123 234.548 115.411 237.576 133.641 242.91C141.269 245.142 148.603 248.219 156.054 250.955C162.137 253.188 168.167 255.46 174.033 258.194C183.587 262.647 192.996 267.369 202.115 272.684C217.26 281.509 232.063 290.833 245.374 302.337C252.375 308.388 258.412 315.342 263.522 323.084C264.397 324.408 265.142 325.814 265.532 327.379C265.816 328.52 266.484 329.846 265.407 330.723C264.408 331.536 263.047 331.685 261.523 330.487C262.961 333.199 264.376 335.666 260.197 336.516C259.573 336.642 259.671 337.124 259.545 337.614C258.886 340.148 257.317 340.827 254.819 339.758C254.863 340.472 256.167 341.05 255.182 341.806C254.508 342.325 253.856 341.676 253.367 341.225C248.057 336.328 242.437 331.805 236.847 327.241C226.798 319.031 216.41 311.34 205.502 304.288C195.476 297.808 185.189 291.831 174.702 286.182C170.578 283.96 166.212 282.192 161.757 280.551C194.998 296.517 225.168 316.97 252.203 342.065C250.553 342.359 249.748 341.083 248.798 340.292C225.535 320.926 201.232 303.11 174.368 289.003C166.427 284.833 158.219 281.295 150.044 277.661C149.124 277.251 148.278 276.788 147.536 276.114C148.125 274.086 149.369 275.896 149.769 276.036C153.296 277.265 156.722 278.784 160.746 280.452C157.9 277.543 136.237 269.224 133.457 269.887C136.306 270.252 138.886 271.437 141.474 272.518C143.659 273.429 146.37 273.577 147.65 276.109Z" fill="#EB5757"/>
<path fill-rule="evenodd" clip-rule="evenodd" d="M140.477 300.546C141.65 303.529 145.184 302.904 146.733 305.172C146.987 305.546 147.712 305.427 148.012 304.965C148.36 304.427 148.326 303.558 147.739 303.453C145.15 302.995 143.395 300.501 140.477 300.546ZM152.34 315.458C159.574 320.456 167.024 325.118 173.867 330.658C167.685 324.166 160.478 319.135 152.34 315.458ZM180.884 346.338C169.596 332.885 155.33 323.549 139.618 316.211C155.055 323.928 168.493 334.408 180.884 346.338ZM151.265 306.818C153.762 308.447 156.411 309.885 158.715 311.752C161.342 313.881 164.35 315.409 166.942 317.72C168.919 319.482 171.601 321.15 173.895 322.87C181.783 328.781 188.193 336.272 194.753 343.572C195.857 344.8 196.732 346.259 197.561 347.7C197.821 348.153 197.589 348.923 198.368 349.04C198.598 349.076 198.963 348.915 199.098 348.724C199.611 348.003 199.118 347.402 198.726 346.851C197.032 344.471 194.697 342.333 193.744 339.688C192.212 335.44 188.298 333.704 185.771 330.579C183.959 328.339 180.885 327.124 179.65 324.723C177.793 321.113 174.434 319.778 171.626 317.534C168.937 315.385 165.276 314.704 162.959 312.57C159.516 309.4 155.791 307.52 151.265 306.818ZM201.349 352.479C201.97 353.979 202.519 355.204 202.983 356.46C203.28 357.263 203.827 358.133 202.915 358.914C202.108 359.608 201.45 358.964 200.756 358.643C200.29 358.426 199.821 358.35 199.359 358.659C201.171 361.243 200.962 361.594 198.104 362.917C197.41 363.239 195.576 362.753 195.93 364.955C196.099 366.008 194.779 365.207 194.236 364.83C190.967 362.564 188.42 359.521 185.99 356.458C182.593 352.176 178.864 348.196 175.148 344.229C166.651 335.158 156.426 328.334 145.723 322.153C139.138 318.35 132.225 315.424 124.878 313.377C133.867 317.928 143.534 321.196 152.071 327.779C150.065 328.18 149.14 327.121 148.179 326.527C138.453 320.523 128.125 315.89 117.206 312.565C116.727 312.419 115.802 312.634 116.062 311.686C116.734 309.238 114.379 309.398 113.442 309.16C112.065 308.812 110.043 307.639 109.013 310.488C108.021 305.889 104.023 308.408 101.944 306.426C101.489 308.182 103.361 307.809 103.504 309.129C101.026 308.755 98.615 308.257 96.1802 308.07C94.6449 307.952 96.8291 306.082 94.834 305.979C92.0936 305.837 89.4133 304.63 86.6699 304.439C85.3965 304.35 85.2977 303.096 84.034 303.06C84.6638 305.298 83.9704 305.687 81.7914 305.081C78.3721 304.132 74.8454 303.972 71.2832 304.747C68.8765 305.272 66.3335 304.63 63.8975 305.304C63.1868 305.501 62.9399 304.835 62.5701 304.366C60.9718 302.341 59.6367 302.339 57.9477 304.304C56.3748 306.134 54.7874 307.799 52.014 307.666C51.2364 307.629 50.8948 307.509 50.3455 307.013C48.9708 305.773 46.258 307.083 45.6462 308.944C44.848 311.377 42.4174 312.829 40.4926 313.357C37.3061 314.233 36.1035 316.866 34.0653 318.712C33.0162 319.661 32.3576 319.621 31.257 319.113C29.0077 318.073 30.7404 316.469 30.8666 315.31C30.976 314.313 32.054 313.592 30.4491 312.807C29.6601 312.42 29.9155 311.421 30.2413 310.647C31.0892 308.624 31.2365 306.011 34.2906 305.81C34.3367 305.807 36.165 305.472 34.852 304.215C34.4277 303.808 34.991 302.491 35.7405 301.935C39.2044 299.361 41.7857 295.72 45.729 293.702C46.6394 293.237 47.2578 292.272 47.97 293.796C48.133 294.144 48.3737 294.677 48.7863 294.374C49.1301 294.121 49.5202 293.291 49.3895 293.131C48.0163 291.455 49.5699 290.882 50.5087 290.864C53.1341 290.813 54.774 288.572 57.1299 288.147C60.8651 287.473 64.384 285.848 68.4876 286.698C69.9708 287.004 72.1395 285.464 74.2063 285.136C79.8397 284.241 85.4841 284.69 91.1085 284.676C95.4968 284.666 99.8978 285.341 104.289 285.796C114.487 286.854 124.286 289.433 133.935 292.705C145.924 296.771 157.078 302.709 167.647 309.529C179.094 316.916 189.552 325.673 197.927 336.631C201.189 340.897 204.081 345.402 205.361 350.732C205.599 351.724 206.511 352.968 205.342 353.739C204.314 354.417 203.315 353.554 202.467 352.829C202.279 352.666 201.96 352.66 201.349 352.479Z" fill="#EB5757"/>
<path fill-rule="evenodd" clip-rule="evenodd" d="M175.056 375.423C174.124 375.675 173.514 375.373 172.886 375.106C172.14 374.789 171.376 373.576 170.597 374.58C169.792 375.623 171.15 376.016 171.698 376.61C171.898 376.827 172.187 376.967 172.367 377.197C173.163 378.215 173.262 379.008 171.641 379.076C171.299 379.089 170.515 378.93 170.762 379.262C172.964 382.21 169.47 381.595 168.723 382.652C167.17 384.857 165.521 382.892 163.937 382.678C159.523 382.083 155.639 379.425 151.006 379.463C149.19 379.478 148.569 377.78 148.768 375.995C145.058 377.566 142.009 375.245 138.839 374.123C132.462 371.867 126.36 368.13 119.834 367.192C113.215 366.24 107.69 363.057 101.559 361.27L96.6272 357.757C95.8023 357.445 94.9967 357.056 94.1492 356.834C89.5433 355.628 85.0037 354.258 80.9217 351.7C80.0732 351.168 78.4582 351.098 80.4978 349.498C81.2889 348.878 80.5002 346.055 80.2026 344.275C80.062 343.435 79.7435 342.512 80.5798 342.175C83.4628 341.012 85.7514 338.53 89.4571 339.218C98.9795 340.985 108.291 343.358 117.447 346.578C124.7 349.13 131.815 351.989 138.928 354.878C144.653 357.202 150.215 359.831 155.678 362.775C161.12 365.708 166.903 368.006 172.197 371.285C173.77 372.26 174.687 373.45 175.056 375.423Z" fill="#EB5757"/>
<path fill-rule="evenodd" clip-rule="evenodd" d="M217.822 42.7187L195.984 51.6224C204.721 51.3685 211.824 48.3314 217.822 42.7187ZM53.5977 10.3892C63.9527 9.87945 74.3096 9.37054 84.6665 8.86164C74.1535 6.82653 63.7965 7.3625 53.5977 10.3892ZM1.80497 42.9852C-2.28217 37.9219 -4.2862 32.9722 0.573132 27.6556C2.69476 25.335 7.99537 24.2513 11.1544 25.5329C9.47692 22.9227 9.46902 21.1175 12.5179 19.4009C15.0311 17.987 16.7286 15.1608 19.1865 13.5866C29.0982 7.2335 39.2969 1.28934 51.2903 0.0703236C54.3657 -0.241239 57.8165 2.29116 60.1906 -1.64037C68.4569 -2.8177 76.7308 -4.03143 85.0911 -2.73634C87.0892 -2.42592 89.0251 -1.69765 90.9818 -1.13355C99.2517 1.25352 107.525 3.62963 115.771 6.09804C116.325 6.2645 116.601 7.22942 117.114 7.70699C117.559 8.12446 118.157 8.37957 118.687 8.70858C120.623 5.37533 122.828 8.30116 124.09 9.03719C127.891 11.2569 131.278 14.1919 134.821 16.8551C135.233 17.1636 135.589 17.7609 136.017 17.8071C140.707 18.3214 144.351 20.1775 146.941 24.4784C147.856 25.9949 150.512 26.4515 151.948 28.1147C152.928 28.0379 154.08 27.5809 154.86 27.9415C163.004 31.7005 171.088 35.5901 179.311 39.5013C182.48 37.8483 191.008 39.3137 193.475 42.3646C193.659 41.3856 193.793 40.6795 193.796 40.6573C195.921 40.3601 197.964 40.4805 199.663 39.7687C208.33 36.1447 216.818 32.4009 223.803 25.5823C230.96 18.5964 239.109 12.6469 246.492 5.8775C249.107 3.47951 250.863 0.0779946 252.779 -3.01044C253.908 -4.83113 254.822 -5.6232 256.82 -4.1239C262.148 -0.126052 263.538 3.83142 259.523 9.39016C254.098 16.9014 248.366 24.514 241.425 30.5157C232.858 37.9224 223.156 44.117 213.496 50.1022C203.125 56.5281 191.793 55.245 180.631 52.1667C168.42 48.8025 157.226 43.301 146.826 35.9873C134.242 27.1373 120.231 21.3018 105.54 16.8891C90.1503 12.2675 74.5605 10.7307 58.7227 13.3296C46.6224 15.3136 35.0324 18.898 25.0046 26.4791C17.7251 31.9832 10.3009 37.2935 2.92687 42.6692C2.63482 42.8821 2.18902 42.8827 1.80497 42.9852Z" fill="#EB5757"/>
<path fill-rule="evenodd" clip-rule="evenodd" d="M209.542 -20.5258C213.647 -19.1626 214.724 -17.0038 213.8 -13.9813C212.559 -9.92041 211.33 -5.82811 209.654 -1.94275C209.116 -0.698404 207.178 -0.0641632 205.881 0.849038C204.852 -1.1369 202.553 -3.51786 203.023 -5.03639C204.651 -10.3034 207.241 -15.2701 209.542 -20.5258Z" fill="#EB5757"/>
<path fill-rule="evenodd" clip-rule="evenodd" d="M145.149 -11.4971C146.693 -11.4516 147.426 -11.6516 147.887 -11.3821C152.708 -8.55497 157.595 -5.81842 162.202 -2.66868C163.509 -1.77457 163.962 0.381327 164.243 2.31497C157.111 -1.07966 149.73 -3.72903 145.149 -11.4971Z" fill="#EB5757"/>
</g>
</svg>
