<svg width="280" height="318" viewBox="0 0 280 318" fill="none" xmlns="http://www.w3.org/2000/svg">
<mask id="mask0_1623_6497" style="mask-type:alpha" maskUnits="userSpaceOnUse" x="0" y="-1" width="280" height="319">
<rect y="-0.000488281" width="280" height="317.585" rx="21.8781" fill="#4AABFF"/>
</mask>
<g mask="url(#mask0_1623_6497)">
<path fill-rule="evenodd" clip-rule="evenodd" d="M96.3749 232.371C97.3733 231.905 97.1942 230.415 98.4467 230.436C99.9714 230.459 100.664 229.137 101.794 228.532C103.026 227.87 104.163 227.036 105.357 226.298C109.2 223.923 113.901 223.265 117.424 220.227C117.701 219.987 118.197 220.007 118.588 219.896C122.127 218.877 125.102 216.412 128.829 215.875C132.354 213.261 136.867 212.93 140.604 210.732C142.022 209.898 143.805 209.8 145.339 208.835C146.84 207.895 148.825 208.025 150.469 206.827C152.117 205.623 154.482 206.069 156.428 204.682C158.133 203.467 160.612 203.325 162.703 202.366C165.205 201.221 168.078 201.064 170.64 199.696C172.694 198.599 175.223 198.667 177.384 197.33C178.934 196.371 181.06 196.153 182.96 196.008C184.954 195.856 186.13 194.054 188.073 193.907C189.158 193.826 190.221 193.449 191.295 193.206C192.503 192.932 193.699 192.539 194.921 192.419C195.985 192.316 197.109 191.072 197.5 191.335C199.22 192.484 199.395 190.287 200.569 190.167C202.88 189.931 205.15 188.766 207.419 188.818C209.86 188.875 211.141 185.945 213.669 186.878C215.619 185.799 217.804 185.517 219.924 185.014C221.397 184.662 222.879 184.354 224.35 184.001C225.832 183.647 227.302 183.23 228.85 183.536C229.712 181.992 231.734 183 232.745 181.776C232.361 181.175 231.134 181.079 231.805 179.905C232.551 178.6 232.094 177.619 230.807 176.936C230.345 176.691 229.796 176.473 229.778 175.823C229.418 174.824 232.551 174.787 230.452 173.297C229.986 174.312 228.94 174.626 228.249 175.338C228.103 175.11 227.98 174.882 227.825 174.681C225.866 172.154 224.885 169.916 224.334 166.692C222.054 165.227 222.054 165.227 219.987 165.249C219.342 164.481 219.684 163.133 218.488 162.689C218.565 162.575 218.641 162.463 218.722 162.342L220.535 161.93C218.295 161.548 218.981 160.064 218.167 159.212C217.532 159.279 216.881 159.348 216.228 159.416C215.699 158.845 215.301 158.194 214.732 157.64C213.743 156.676 213.015 155.435 212.238 154.269C211.929 153.806 213.319 153.292 212.237 152.692C211.563 152.32 211.353 151.484 210.687 150.969C209.17 149.793 208.247 148 206.989 146.609C205.833 145.332 206.062 143.6 204.849 142.478C201.814 139.676 200.219 135.889 197.919 132.572C198.612 132.135 199.043 131.863 199.463 131.598C198.557 130.332 196.892 130.887 195.92 129.918C195.184 127.707 194.521 126.633 192.93 124.926C192.819 124.805 192.97 124.436 192.999 124.182C193.697 123.337 194.363 124.394 195.118 124.201C195.228 123.663 195.212 123.17 194.63 122.86C193.71 123.019 192.797 123.178 191.748 123.358L190.794 119.124C189.942 118.301 188.72 118.281 188.582 116.94C188.471 116.585 189.46 116.352 188.924 115.765C188.504 115.752 188.004 115.891 187.759 115.699C187.219 115.278 182.023 106.282 181.915 105.803C181.896 105.71 181.951 105.597 181.972 105.491C182.402 105.222 182.831 104.951 183.283 104.668C182.458 103.735 181.418 105.14 180.655 104.289C181.227 103.493 182.533 103.326 182.556 102.05C181.939 101.844 181.561 101.045 180.597 101.353C180.35 101.608 180.01 101.958 179.662 102.32C178.554 101.169 179.372 99.6141 178.906 98.4491C178.357 97.0755 177.55 95.6921 176.53 94.8196C175.688 94.5559 175.086 95.3216 174.39 94.8224C174.343 94.1853 175.205 93.7232 174.386 92.5591C174.368 92.5491 173.892 92.2538 173.373 92.1083C172.828 91.9549 172.633 93.2106 172.416 92.7864C171.781 91.5398 170.818 92.0044 169.907 91.7424C168.752 91.4097 167.734 91.3494 166.822 91.7931C165.833 92.2744 164.842 91.1679 163.735 92.3068C162.931 93.1354 161.17 93.1722 159.812 93.2951C155.845 93.6548 152.391 95.6596 148.712 96.8711C146.745 97.52 144.796 98.445 142.728 98.8753C140.399 99.3617 140.5 99.4944 138.625 100.565C137.88 100.991 137.65 102.328 136.397 101.938C134.664 101.4 133.481 103.241 131.815 103.075C128.252 106.315 123.393 106.994 119.45 109.396C117.662 110.484 115.507 110.397 114.011 111.594C111.511 113.596 108.324 114.115 105.8 115.855C104.052 117.06 101.831 116.901 100.327 118.021C96.9589 120.528 92.6315 121.056 89.4121 123.74C87.0598 123.825 85.3416 125.567 83.1108 126.129C80.9183 126.682 79.0154 128.327 76.8375 129.035C75.7457 129.39 75.4188 130.604 74.1666 130.647C73.118 130.684 71.7126 130.86 71.1324 131.543C70.267 132.564 69.2303 132.578 68.2328 132.746C67.0986 132.933 66.7748 134.251 65.5375 134.284C62.9333 134.353 61.0781 136.761 58.404 136.72C57.078 138.363 54.8252 137.864 53.3416 138.822C51.5688 139.97 49.628 140.194 47.7755 140.871C45.6248 141.658 43.421 142.54 42.6108 145.088C43.7065 145.39 43.7589 146.325 43.8054 147.096C44.0275 150.691 46.0354 153.705 47.0682 157.034C47.5093 158.454 48.6375 159.838 48.6936 161.409C48.7626 163.305 50.3474 164.394 50.7108 166.13C51.2169 168.561 52.476 170.725 53.6944 172.888C54.6567 174.595 54.2906 176.862 55.9204 178.35C56.2234 178.627 55.1535 179.058 55.6041 179.632C56.1437 179.691 56.6481 179.747 57.1716 179.804C56.9453 180.232 56.5423 180.826 56.6103 180.887C58.2464 182.341 58.7403 184.401 59.6613 186.25C59.9979 186.924 60.808 187.206 60.2477 188.211C59.766 189.069 60.8919 189.499 61.2194 189.974C63.4921 193.282 65.5077 196.722 66.8096 200.508C67.2477 201.784 68.2814 201.998 69.0544 202.687C68.9839 202.801 68.8871 202.909 68.8409 203.034C68.7307 203.33 68.2306 203.556 68.8332 203.95C69.9306 204.667 69.7943 206.348 71.2818 206.929C72.5851 207.437 71.5627 209.691 73.2454 210.181C75.0305 214.513 78.1753 217.937 80.9767 221.559C84.2721 225.816 87.4374 230.226 90.7229 232.931C93.5294 234.351 94.3519 231.287 96.3749 232.371ZM107.917 240.103C106.108 241.504 104.96 243.675 102.345 242.479C101.837 242.249 101.875 242.936 101.606 243.137C99.1563 244.961 96.1852 245.261 93.3667 246.039C91.9477 246.43 90.8269 245.706 89.5881 245.436C88.6616 245.237 88.7816 244.619 89.3128 244.022C88.4322 243.71 88.5347 242.388 87.5882 242.244C86.831 242.259 86.6317 242.807 86.3439 243.259C85.4513 243.285 85.8194 242.219 85.1665 241.939C84.0873 241.475 84.585 240.199 84.0964 239.436C82.9738 237.685 82.6757 235.103 79.7717 235.047C79.3723 235.038 78.7226 234.682 78.6398 233.936C78.3039 232.873 79.5986 233.287 79.861 232.709C80.0273 232.483 79.9312 232.201 79.5627 232.206C76.7265 232.237 76.7266 232.251 75.6617 229.028C75.1589 228.966 74.6542 228.903 74.2411 228.853C73.3391 227.909 74.7022 227.326 74.4375 226.537C70.5031 222.736 68.8434 221.928 67.355 215.393C67.1042 215.734 66.8807 216.037 66.6576 216.341C66.1849 215.835 64.5246 215.919 65.7491 214.527C65.039 213.801 64.2475 213.133 63.635 212.33C62.2439 210.503 61.1587 208.56 62.3918 206.243C61.3658 205.409 59.7937 205.975 59.3225 204.538C59.0334 203.889 59.6829 203.569 59.8394 202.803C59.1926 202.054 58.8006 200.818 57.2912 200.656C56.3768 200.558 56.5656 199.64 56.4036 199.039C56.2268 198.378 57.2351 197.928 56.774 197.136C54.9385 195.603 52.7117 194.22 53.3084 191.435C52.4053 190.864 51.4454 190.255 50.4844 189.648C50.0949 187.844 50.5551 186.229 49.1474 185.086C48.135 184.265 49.0338 182.055 47.305 181.278C47.3322 178.878 45.3022 177.24 45.0074 174.933C44.6166 171.864 43.4572 169.075 41.6087 166.582C41.4572 166.378 41.3283 166.116 41.3019 165.869C40.8913 161.919 38.454 158.618 37.852 154.687C37.4329 151.946 37.0616 149.122 35.3527 146.663C34.6245 145.615 34.0066 143.617 34.5189 142.764C35.4274 141.252 32.5421 140.246 34.4015 139.055C34.1316 137.713 33.4891 136.302 33.726 135.06C33.876 134.272 33.5811 133.012 34.5229 132.501C35.9464 131.731 35.8331 130.106 36.686 129.022C37.3939 129.188 38.0191 129.545 38.8721 129.301C40.9846 128.696 43.6359 128.884 45.1678 127.638C46.7996 126.311 49.2191 127.006 50.3551 124.995C50.5379 124.67 51.3743 124.649 51.9157 124.613C55.349 124.387 58.0593 121.889 61.4609 121.584C66.18 118.827 71.7112 117.862 76.3026 114.82C80.4399 114.254 83.742 111.517 87.7035 110.371C89.2432 109.923 91.1282 109.452 92.3789 108.494C93.8666 107.354 95.9976 107.671 96.9767 106.458C98.2305 104.908 100.665 106.126 101.402 104.062C103.709 103.853 105.736 102.781 107.682 101.703C110.862 99.9424 114.756 99.8282 117.564 97.168C118.257 96.5094 119.592 96.3793 120.651 96.3072C121.858 96.2232 122.198 95.0234 123.332 94.727C127.144 93.7282 130.48 91.378 134.394 90.5959C135.92 88.521 138.731 89.4763 140.5 87.9971C142.29 86.4978 144.591 86.6733 146.661 86.1896C148.028 85.8701 148.73 84.5647 150.151 84.4369C151.373 84.3279 152.607 84.0323 153.764 83.6156C154.686 83.2816 155.837 84.0763 156.232 83.6394C156.879 82.9274 157.588 82.8366 158.339 82.6116C159.09 79.0152 161.431 77.0545 164.829 76.0187C167.873 75.0912 171.054 74.9503 173.57 76.6934C177.083 79.1275 180.936 81.2307 183.658 84.7273C187.419 89.5626 190.901 94.5654 194.124 99.7967C196.726 104.02 199.516 108.15 202.129 112.379C206.956 120.199 211.73 128.052 216.548 135.879C219.894 141.31 223.295 146.708 226.631 152.146C227.701 153.891 228.593 155.748 229.656 157.498C231.507 160.552 233.506 163.52 235.301 166.606C237.747 170.813 240.117 175.068 242.39 179.372C243.022 180.568 243.73 181.535 244.788 182.374C246.373 183.632 246.312 183.708 245.221 186.049C244.881 185.857 244.543 185.665 244.155 185.444C243.7 186.814 244.219 187.222 245.417 186.884C246.258 187.337 245.949 188.17 246.238 188.73C246.096 189.407 245.421 189.331 245.046 189.603C244.626 190.631 245.418 191.475 245.268 192.457C244.302 192.865 243.787 193.653 243.856 194.839L234.158 197.04C233.529 196.666 232.841 196.257 232.153 195.847C230.739 198.243 228.971 199.929 225.915 199.18C225.57 200.315 224.223 199.067 223.619 200.224C223.33 200.779 221.846 200.905 220.915 200.875C219.687 200.834 219.492 202.545 218.248 202.279C217.574 201.692 218.636 201.447 218.419 200.973C216.404 200.108 217.407 202.191 216.804 202.696C216.46 202.501 216.122 202.308 215.805 202.126C215.565 202.447 215.342 202.744 215.123 203.035C214.485 202.632 213.904 202.264 213.317 201.894C211.667 203.109 210.084 204.6 207.93 204.675C205.917 204.744 204.728 206.453 202.828 206.807C201.063 207.135 198.972 206.887 197.652 208.709C197.41 209.044 196.611 208.952 196.087 209.111C194.851 209.487 193.549 209.028 192.269 209.875C191.195 210.585 189.652 210.749 188.297 210.826C186.574 210.922 185.68 212.517 184 212.788C182.515 213.027 180.592 212.683 179.658 214.521C179.618 214.6 179.404 214.606 179.27 214.617C175.3 214.913 171.986 217.352 168.122 218.046C166.609 218.318 165.046 218.419 163.712 219.739C162.812 220.628 160.97 219.774 159.574 220.676C158.844 221.147 158.136 221.8 157.319 222.1C156.601 222.366 155.692 222.924 154.99 222.404C153.732 221.471 153.786 223.779 152.771 223.18C151.63 224.626 149.631 223.874 148.288 225.003C146.978 226.107 145.125 226.322 143.654 227.062C139.915 228.947 135.682 229.598 132.145 231.907C129.984 231.33 128.515 233.224 126.511 233.504C124.515 233.784 122.296 234.605 120.84 235.928C119.782 236.887 118.719 235.799 118.296 236.504C117.701 237.492 116.469 236.903 115.936 237.864C115.32 238.979 113.985 238.592 113.012 238.992C112.412 239.237 111.714 239.128 111.254 239.827C110.357 241.191 109.145 240.285 107.917 240.103Z" fill="#3D24D7"/>
<path fill-rule="evenodd" clip-rule="evenodd" d="M24.4815 295.816C24.1678 295.425 23.3682 295.667 23.4889 294.942C23.6358 294.055 24.3897 293.854 25.1003 293.781C26.3007 293.658 27.5117 293.627 28.7197 293.591C30.2555 293.545 31.7931 293.543 33.3296 293.504C34.5405 293.473 34.5307 293.463 34.2952 292.22C33.7927 289.567 33.5075 286.894 33.6109 284.189C33.6559 283.006 33.7877 281.832 34.0989 280.686C34.2804 280.017 34.5401 279.38 34.9205 278.798C35.9722 277.189 37.3876 277.048 38.9018 278.224C39.6449 278.8 40.2363 279.384 40.5676 280.274C40.8046 280.912 40.5914 281.331 40.063 281.563C39.3495 281.876 39.1741 282.447 39.0751 283.127C38.7124 285.622 38.9775 288.106 39.1802 290.591C39.2253 291.144 39.3445 291.695 39.3477 292.247C39.3535 293.06 39.7814 293.216 40.4801 293.161C42.205 293.026 43.9414 293.001 45.6259 292.532C45.8039 292.482 46.0052 292.388 46.1568 292.602C46.2253 292.967 45.7606 292.986 45.68 293.252C45.936 293.472 46.1475 293.28 46.3603 293.278C46.6881 293.275 47.3821 292.646 47.1174 293.705C47.6796 293.791 47.9217 294.136 48.0106 294.687C48.0935 295.198 48.0794 295.613 47.5168 295.805C45.3684 296.539 43.126 296.829 40.8965 297.149C40.2294 297.245 40.1444 297.471 40.2849 298.021C40.7571 299.867 41.1547 301.746 42.8292 302.975C43.1386 303.202 43.14 303.614 43.2949 303.935C43.5308 304.422 43.1238 304.656 42.8918 304.945C42.6534 305.242 42.3746 305.058 42.0894 304.976C39.0866 304.108 37.3884 301.95 36.2711 299.168C35.6919 297.727 35.6527 297.807 34.0441 297.996C32.4587 298.183 30.8566 298.217 29.2628 298.337C27.9028 298.439 26.693 298.036 25.579 297.289C25.3085 297.108 25.0538 296.867 24.7142 296.887C24.3079 296.912 24.0972 296.706 23.9859 296.369C23.857 295.977 24.3158 295.986 24.4815 295.816Z" fill="#3D24D7"/>
<path fill-rule="evenodd" clip-rule="evenodd" d="M174.853 41.9026C173.717 41.9304 172.596 41.6402 171.455 41.7429C171.275 41.7588 170.953 41.6984 170.919 41.5972C170.579 40.5937 169.445 40.714 168.808 40.0646C168.245 39.4896 168.195 39.0346 168.466 38.4543C169.515 36.2064 170.438 33.908 171.295 31.5815C171.521 30.9693 171.742 30.352 171.907 29.7214C172.066 29.1172 172.583 28.9238 173.034 28.7569C173.524 28.5758 173.582 29.1707 173.842 29.4251C175.064 30.6187 175.1 32.2352 175.456 33.7396C175.917 35.6796 176.331 37.6321 176.854 39.5554C177.288 41.1571 176.778 42.1592 174.853 41.9026Z" fill="#3D24D7"/>
<path fill-rule="evenodd" clip-rule="evenodd" d="M162.42 10.44C162.455 11.2651 161.928 11.84 161.006 11.9484C159.723 12.0991 158.44 12.274 157.152 12.3622C155.975 12.4428 155.358 11.479 154.772 10.7255C154.368 10.2066 154.643 9.46247 155.059 8.8427C156.451 6.76835 157.485 4.50392 158.431 2.19829C158.596 1.79643 158.769 1.42637 159.287 1.35951C159.847 1.28688 159.959 1.71186 160.219 2.04759C160.993 3.05043 161.16 4.25962 161.458 5.4269C161.879 7.07842 162.278 8.73465 162.42 10.44Z" fill="#3D24D7"/>
<path fill-rule="evenodd" clip-rule="evenodd" d="M159.727 28.9023C159.725 29.9449 160.008 30.7624 159.032 31.2333C158.8 31.3449 158.595 31.4964 158.353 31.4541C157.262 31.2633 156.197 31.3243 155.201 31.8202C154.421 32.2083 153.984 31.9051 153.405 31.3341C152.295 30.2373 152.268 29.796 152.967 28.4383C154.085 26.2686 155.352 24.1577 156.047 21.786C156.147 21.4416 156.259 21.0917 156.427 20.7777C156.775 20.1279 157.406 20.116 157.888 20.666C158.903 21.8257 159.018 23.2846 159.233 24.6962C159.461 26.1855 159.588 27.6899 159.727 28.9023Z" fill="#3D24D7"/>
<path fill-rule="evenodd" clip-rule="evenodd" d="M160.474 67.3621C159.371 67.2367 158.487 66.6328 157.714 65.905C157.434 65.6415 157.464 65.1049 157.668 64.6915C158.353 63.303 158.62 61.7617 159.334 60.3592C159.671 59.6968 159.813 58.7745 160.06 57.9784C160.234 57.4179 160.514 56.7988 161.186 56.7472C161.855 56.6958 162.208 57.3113 162.491 57.7897C163.213 59.0141 163.454 60.4221 163.74 61.7899C164.052 63.286 164.253 64.8075 164.472 66.3224C164.56 66.9277 164.155 67.3104 164.214 67.859C164.246 68.1514 163.876 68.1936 163.525 68.0946C162.519 67.8113 161.493 67.6013 160.474 67.3621Z" fill="#3D24D7"/>
<path fill-rule="evenodd" clip-rule="evenodd" d="M145.252 18.7781C145.254 19.7552 144.746 20.2113 143.68 20.0176C142.807 19.859 141.938 19.9479 141.086 19.954C140.034 19.962 139.341 19.4976 138.627 18.8713C137.968 18.2938 137.936 17.6242 138.312 16.9393C139.515 14.7555 140.501 12.4842 141.274 10.1124C141.575 9.18873 142.199 9.13272 142.848 9.8638C143.294 10.3643 143.62 10.9259 143.82 11.5489C144.584 13.9218 145.013 16.3644 145.252 18.7781Z" fill="#3D24D7"/>
<path fill-rule="evenodd" clip-rule="evenodd" d="M127.865 27.5439C127.113 27.5077 126.467 27.532 125.814 27.421C124.259 27.1572 123.766 26.6932 124.02 25.1566C124.345 23.1925 124.572 21.2005 125.193 19.2942C125.323 18.8923 125.464 18.4717 125.702 18.1316C126.12 17.5343 126.646 17.355 127.251 17.9495C127.768 18.4576 128.233 18.9975 128.548 19.6578C129.437 21.52 130.129 23.4545 130.751 25.4211C131.081 26.4666 130.349 27.4286 129.328 27.4662C128.806 27.485 128.285 27.5211 127.865 27.5439Z" fill="#3D24D7"/>
<path fill-rule="evenodd" clip-rule="evenodd" d="M143.991 58.7914C143.316 58.9338 142.678 59.1376 141.966 58.9967C140.917 58.7892 139.741 57.2172 140.073 56.2379C140.81 54.0638 141.254 51.8116 141.923 49.6213C142.076 49.1218 142.183 48.5631 142.842 48.4826C143.505 48.4016 143.771 48.9184 143.999 49.3763C145.139 51.6718 145.889 54.1173 146.639 56.5573C146.861 57.2783 146.608 57.8489 145.875 58.2634C145.261 58.6111 144.542 58.3686 143.991 58.7914Z" fill="#3D24D7"/>
<path fill-rule="evenodd" clip-rule="evenodd" d="M130.098 7.47306C130.205 9.37431 129.36 10.234 127.458 10.6041C126.46 10.7982 125.75 10.367 124.981 10.04C124.086 9.65835 123.75 8.97751 124.012 7.90275C124.35 6.52045 124.947 5.252 125.445 3.94125C125.852 2.86939 126.247 1.79716 126.599 0.70578C126.879 -0.161542 127.232 -0.130824 127.947 0.266698C129.184 0.954051 129.432 2.10036 129.617 3.28606C129.834 4.6727 129.942 6.07667 130.098 7.47306Z" fill="#3D24D7"/>
<path fill-rule="evenodd" clip-rule="evenodd" d="M120.893 49.8171C120.887 49.1059 121.118 48.4507 121.461 47.8541C122.33 46.3431 122.951 44.7234 123.6 43.1152C124.126 41.8095 124.242 41.9118 125.334 42.6104C126.47 43.3375 126.756 44.4169 127.128 45.5007C127.533 46.677 127.88 47.8783 128.168 49.0885C128.432 50.1911 128.209 50.4177 127.156 50.7809C126.185 51.1159 125.29 51.6489 124.22 51.7191C123.709 51.7523 123.478 51.5908 123.325 51.1477C123.187 50.7477 122.885 50.7758 122.561 50.911C121.684 51.2764 120.891 50.7552 120.893 49.8171Z" fill="#3D24D7"/>
<path fill-rule="evenodd" clip-rule="evenodd" d="M127.906 70.8217C126.702 70.6905 125.657 70.6323 124.633 70.4527C122.948 70.1575 122.232 68.9071 122.593 67.205C122.953 65.5086 123.291 63.8134 123.959 62.2034C124.502 60.8956 125.14 60.7257 126.083 61.7372C126.497 62.1821 126.848 62.7307 127.08 63.2937C127.875 65.225 128.715 67.1446 129.124 69.2121C129.346 70.3328 128.906 70.8495 127.906 70.8217Z" fill="#3D24D7"/>
<path fill-rule="evenodd" clip-rule="evenodd" d="M112.202 22.6751C111.921 22.412 112.333 21.7224 111.699 21.5468C111.478 21.4854 111.339 21.8547 111.42 22.0694C111.572 22.4676 111.432 23.0549 111.978 23.211C112.244 23.2872 112.202 22.9768 112.202 22.6751ZM114.672 24.4226C114.705 25.8981 114.354 26.1554 113.097 26.1312C112.382 26.1179 111.661 26.3542 110.944 26.4789C109.823 26.6737 108.126 25.6885 107.828 24.7334C107.73 24.4175 107.74 24.1812 107.864 23.8979C108.733 21.916 109.581 19.9255 110.457 17.9473C110.84 17.084 111.283 17.0149 111.998 17.6607C113.606 19.1142 113.94 21.1618 114.488 23.1025C114.629 23.6012 114.635 24.1385 114.672 24.4226Z" fill="#3D24D7"/>
<path fill-rule="evenodd" clip-rule="evenodd" d="M103.479 42.4111C103.706 40.1431 104.432 38.0076 105.207 35.8961C105.539 34.994 105.979 34.9778 106.747 35.5799C107.433 36.1172 107.812 36.8422 107.939 37.6589C108.241 39.5974 108.488 41.5452 108.719 43.4942C108.817 44.3163 108.301 44.737 107.478 44.9072C106.164 45.1786 105.119 44.6567 104.098 43.9842C103.537 43.6145 103.547 42.9922 103.479 42.4111Z" fill="#3D24D7"/>
<path fill-rule="evenodd" clip-rule="evenodd" d="M141.387 41.5208C141.032 41.4916 140.623 41.3333 140.469 41.4681C139.928 41.9426 139.27 41.617 138.675 41.8342C138.04 42.0662 137.072 40.4974 137.149 39.7143C137.262 38.5535 138.262 37.8192 138.424 36.6541C138.584 35.5038 139.042 34.394 139.389 33.2722C139.49 32.9448 139.705 32.707 140.092 32.6868C140.506 32.6648 140.724 32.852 140.913 33.2267C141.957 35.3047 142.512 37.5622 143.309 39.7302C143.749 40.9275 142.653 41.3492 141.387 41.5208Z" fill="#3D24D7"/>
<path fill-rule="evenodd" clip-rule="evenodd" d="M159.934 46.5107C160.207 47.7286 158.869 48.391 157.985 48.1666C157.573 48.0618 157.24 47.9244 156.741 48.1608C156.129 48.4513 155.202 48.8058 155.043 47.5103C155.031 47.4077 154.765 47.3545 154.652 47.2432C153.951 46.5519 153.929 45.5599 154.572 44.7739C154.715 44.5982 154.861 44.4031 154.932 44.1921C155.417 42.7519 156.483 41.5417 156.59 39.9498C156.617 39.5374 156.77 39.1533 157.239 39.0788C157.709 39.004 157.937 39.3423 158.129 39.7073C158.22 39.8811 158.373 40.0325 158.425 40.215C159.027 42.2901 159.564 44.3811 159.934 46.5107Z" fill="#3D24D7"/>
<path fill-rule="evenodd" clip-rule="evenodd" d="M190.037 -4.3979C191.108 -3.86967 190.987 -1.56733 193.048 -2.46855C193.193 -2.53048 193.671 -2.32102 193.726 -2.16929C194.405 -0.298307 196.369 -0.206854 197.792 0.558848C200.585 2.05931 203.514 3.30627 206.323 4.7818C209.159 6.27255 212.163 7.36275 214.717 9.52621C216.552 11.0809 219.086 12.0113 221.427 12.8654C223.933 13.7782 225.536 15.9725 227.94 16.8736C231.262 18.1165 233.585 20.9667 236.945 22.1026C237.069 22.1439 237.215 22.19 237.298 22.2791C239.948 25.1078 243.575 26.7216 246.533 29.1704C247.644 30.089 248.422 31.56 250.198 31.4919C251.066 30.7986 250.525 29.7539 250.74 28.9189C251.392 26.382 251.481 23.6823 252.605 21.2823C251.482 19.889 253.231 18.974 253.009 17.5607C252.824 16.3697 253.217 14.8098 253.771 13.6125C254.327 12.4136 253.558 10.9398 254.589 9.93211C253.738 8.05296 255.411 6.73705 255.425 4.92013C255.45 1.67066 256.248 -1.53653 256.554 -4.80388C256.73 -6.69797 256.295 -8.22988 255.785 -9.53505C253.907 -10.9575 252.078 -10.9729 250.442 -10.8999C245.961 -10.701 241.445 -10.4855 237.078 -9.76266C230.245 -8.63039 223.335 -7.90881 216.432 -7.13934C210.785 -6.50911 205.11 -6.01602 199.441 -5.49015C196.291 -5.1967 193.04 -5.39842 190.037 -4.3979ZM269.569 -0.98304C270.016 0.13214 270.392 1.07402 270.768 2.0147C270.655 2.05394 270.54 2.09192 270.427 2.13116C270.206 2.21221 269.782 2.33673 269.793 2.37022C270.778 5.62602 267.589 8.17511 268.775 11.4864C268.289 11.7149 267.35 11.7949 267.535 12.4595C267.877 13.6944 267.826 14.5857 266.47 15.0029C266.221 15.079 266.139 15.3207 266.415 15.529C267.917 16.6619 267.085 17.544 266.584 18.7003C266.12 19.7738 266.384 21.1514 266.204 22.3719C265.723 25.6394 264.216 28.6611 264.225 32.0365C264.228 33.1235 262.36 32.8874 262.895 34.4521C263.144 35.1776 263.303 36.4981 262.508 37.4602C261.875 38.2286 262.319 39.4306 261.994 40.4637C261.399 42.3466 261.892 44.3551 263.612 45.958C263.37 46.0288 263.129 46.0996 262.889 46.1699C262.742 47.6731 263.317 48.3601 264.956 47.8436C265.143 48.3151 265.332 48.7855 265.522 49.2601C265.186 49.3791 264.85 49.4981 264.528 49.6133C264.56 51.0138 266.758 51.747 266.249 53.0939C265.828 54.2089 265.687 55.3024 265.736 56.3503C264.727 57.1503 263.999 55.6341 263.138 56.1351C263.227 56.6958 263.855 57.2877 262.85 57.9044C261.918 57.5645 260.629 57.4059 260.151 55.9622C258.719 56.6351 257.876 57.7504 257.192 59.1228C256.475 60.5661 255.397 61.7421 253.271 61.42C251.665 61.1764 250.77 63.1292 248.816 62.2311C248.734 62.0955 248.486 61.6839 248.212 61.2837C247.158 59.7492 246.52 58.2596 246.944 56.249C247.607 53.0986 247.071 49.6211 247.881 46.535C248.562 43.9325 246.83 42.8404 245.388 41.5715C244.397 40.6977 243.2 39.8577 242.079 39.1755C238.611 37.065 235.699 34.1599 231.932 32.5086C230.161 29.9954 226.841 29.7508 224.662 27.7326C222.548 25.7703 219.348 25.3503 217.145 23.6018C213.083 20.3746 208.246 18.7437 203.765 16.3999C199.309 14.0694 194.736 11.9633 190.215 9.75905C185.575 7.49669 181.085 4.74461 176.253 3.10724C171.396 1.46259 167.014 -1.01323 162.437 -2.95041C161.83 -4.46758 161.265 -5.8786 160.778 -7.09746C161.795 -7.39574 162.823 -7.69734 163.921 -8.02061C162.952 -9.61139 163.616 -10.7284 164.354 -11.2967C167.391 -13.6374 170.679 -15.3636 175.04 -15.3937C181.7 -15.4375 188.322 -15.9447 194.951 -16.3291C200.037 -16.6218 205.104 -17.1256 210.095 -17.7093C216.524 -18.4624 223.048 -18.9462 229.351 -20.3503C231.823 -20.9008 234.627 -20.5414 236.897 -21.597C238.031 -22.1227 239.007 -20.0205 239.935 -21.6466C240.531 -22.6894 242.055 -21.7634 243.041 -22.1814C244.177 -22.663 245.513 -22.47 246.632 -22.774C247.747 -23.0763 248.895 -22.5635 249.938 -23.0627C250.914 -23.5311 252.096 -23.391 253.172 -23.541C255.69 -23.8893 258.233 -24.0034 260.784 -24.0116C263.839 -24.0203 266.313 -22.6563 268.178 -20.2383C268.4 -19.9506 268.725 -19.5991 268.806 -19.3785C269.232 -18.2276 270.984 -18.0513 271.104 -17.0806C271.405 -14.6711 272.497 -12.2381 272.031 -9.88456C271.796 -8.70844 271.866 -7.60933 272.001 -6.48133C272.135 -5.37264 270.985 -4.73871 271.344 -3.45447C271.593 -2.56124 271.16 -1.30467 269.569 -0.98304Z" fill="#3D24D7"/>
<path fill-rule="evenodd" clip-rule="evenodd" d="M136.79 346.272C136.442 345.559 136.097 344.843 135.749 344.126C124.772 348.064 113.799 352.002 102.822 355.937C103.031 356.488 103.239 357.038 103.445 357.586C114.561 353.814 125.677 350.045 136.79 346.272ZM190.879 327.294C191.082 327.849 191.285 328.405 191.489 328.96C244.277 315.819 297.068 302.675 349.859 289.534C349.732 289.011 349.603 288.489 349.476 287.966C296.611 301.075 243.744 314.185 190.879 327.294ZM146.019 306.562C145.755 306.031 145.491 305.501 145.224 304.974C109.371 317.192 73.7674 329.995 40.1094 350.568C76.2111 335.566 111.116 321.064 146.019 306.562ZM149.887 440.398C147.959 441.988 146.031 443.576 144.329 444.978C140.02 444.198 135.895 443.454 131.77 442.707C131.719 442.134 131.666 441.558 131.612 440.982C130.004 442.429 128.396 443.879 126.494 445.592C120.179 439.972 114.395 434.763 117.179 424.529C122.633 404.481 127.266 384.213 132.212 364.029C133.299 359.6 134.274 355.147 135.641 349.239C127.395 352.025 120.209 354.033 113.381 356.906C108.71 358.873 104.554 362.064 100.136 364.654C98.9678 365.339 97.7281 365.959 96.4479 366.387C84.5088 370.376 72.5849 374.398 60.5976 378.229C55.8042 379.76 50.8685 380.838 45.9989 382.126C46.1742 381.274 46.3495 380.423 46.5247 379.572C42.9354 376.929 39.5975 373.804 35.7034 371.737C26.1648 366.67 23.5839 353.396 32.2105 346.703C41.9828 339.12 52.3698 331.734 63.5875 326.754C89.6807 315.165 116.371 304.913 142.975 294.517C147.796 292.634 150.184 290.37 151.589 285.199C154.789 273.406 158.577 261.704 163.175 250.393C164.925 246.091 169.446 242.861 172.937 239.38C173.76 238.559 175.789 238.062 176.803 238.495C180.895 240.246 184.815 242.408 188.788 244.439C198.705 249.521 201.657 258.052 200.742 268.571C200.529 271.01 200.712 273.485 200.712 276.732C217.447 272.774 233.178 268.385 249.166 265.39C296.524 256.52 343.937 247.944 391.429 239.839C403.193 237.833 415.325 237.924 427.303 237.328C430.087 237.19 432.929 238.192 435.744 238.669C435.894 239.566 436.046 240.466 436.196 241.363C430.305 243.083 424.491 245.938 418.511 246.34C380.689 248.887 343.643 256.286 306.713 264.146C272.887 271.349 239.31 279.719 205.637 287.62C203.305 288.168 201.067 289.104 198.784 289.861C198.921 290.475 199.055 291.092 199.193 291.708C200.958 291.438 202.744 291.265 204.486 290.885C254.493 279.92 304.35 268.204 354.558 258.258C380.509 253.12 407.07 251.061 433.379 247.801C435.843 247.498 438.477 248.581 441.033 249.019C439.798 251.076 438.563 253.135 437.156 255.483C449.865 253.036 441.584 263.397 443.405 268.14C441.8 268.976 439.272 270.291 436.023 271.984C438.099 272.483 439.348 272.784 440.601 273.087C440.652 273.441 440.702 273.796 440.756 274.153C430.341 276.176 419.923 278.197 409.508 280.219C409.351 279.686 409.193 279.153 409.036 278.62C412.409 277.802 415.783 276.984 419.154 276.166C419.019 275.677 418.884 275.185 418.75 274.695L371.984 283.593C372.027 284.123 372.073 284.651 372.116 285.178C376.523 284.595 380.928 284.009 385.335 283.425C385.455 283.919 385.574 284.414 385.691 284.908C380.852 286.055 375.998 287.156 371.171 288.354C312.047 303.025 252.929 317.726 193.795 332.364C189.377 333.457 186.232 335.216 185.783 340.43C185.653 341.921 183.392 343.214 182.145 344.633C181.566 345.293 180.466 346.405 180.636 346.68C186.54 356.429 177.291 363.882 176.745 372.629C176.618 374.648 176.082 377.061 174.824 378.478C173.376 380.115 175.657 386.224 169.888 383.099C168.89 386.117 167.892 389.14 166.894 392.16C162.199 403.754 157.317 415.28 152.912 426.984C151.314 431.232 150.862 435.915 149.887 440.398Z" fill="#3D24D7"/>
<path fill-rule="evenodd" clip-rule="evenodd" d="M256.042 51.8799C255.869 51.8498 255.697 51.819 255.524 51.7886C255.508 53.7595 255.493 55.7301 255.477 57.7007C255.605 57.7323 255.734 57.764 255.861 57.7958C255.921 55.8236 255.982 53.8517 256.042 51.8799ZM256.207 42.2144C256.336 42.2474 256.465 42.2803 256.594 42.3133C257.857 33.475 259.12 24.636 260.382 15.7974C260.266 15.7574 260.149 15.7178 260.033 15.6779C258.757 24.5232 257.482 33.3691 256.207 42.2144ZM248.595 46.2007C248.467 46.1791 248.339 46.1575 248.211 46.1365C248.028 52.5031 247.983 58.8994 249.677 65.8819C249.308 59.173 248.952 52.6866 248.595 46.2007ZM276.31 60.4453C276.492 60.8908 276.673 61.336 276.832 61.729C276.35 62.2457 275.888 62.7407 275.426 63.2355C275.305 63.1792 275.183 63.1231 275.061 63.0669C275.237 63.4518 275.413 63.837 275.622 64.2925C273.997 64.5552 272.496 64.7891 270.608 63.269C266.908 60.291 263.102 57.4037 259.337 54.4819C258.511 53.8404 257.671 53.212 256.563 52.3681C256.516 53.8296 256.389 55.0571 256.466 56.3298C256.519 57.2009 256.862 58.1349 257.061 59.0391C257.114 59.2784 257.148 59.5202 257.14 59.7467C257.063 61.8579 256.994 63.9707 256.88 66.0713C256.835 66.9112 256.686 67.721 256.585 68.5445C256.424 68.426 256.262 68.3074 256.101 68.1888C255.29 68.3991 254.4 68.5209 253.685 68.8375C251.932 69.6124 249.018 68.5072 248.293 66.5607C247.472 64.3556 246.736 62.0862 246.556 59.9664C246.137 55.0349 246.036 50.1678 245.899 45.2967C245.875 44.4139 245.59 43.8298 244.635 43.0619C242.459 41.3113 240.345 39.4886 238.371 37.5956C237.621 36.8755 237.298 35.886 236.846 35.013C236.74 34.8072 236.79 34.4683 236.955 34.3743C237.62 33.9951 238.357 33.6854 239.071 33.3539C240.855 32.5277 242.824 33.0571 244.911 34.3471C245.395 34.6464 245.916 34.8942 246.581 35.2529C247.024 32.474 247.304 29.7878 247.888 27.2198C249.619 19.6134 251.415 12.0315 253.312 4.49065C253.783 2.62298 254.711 0.935501 255.486 -0.806318C255.666 -1.21109 256.085 -1.49818 256.393 -1.83936C256.588 -1.76122 256.784 -1.68315 256.979 -1.60501C256.89 -0.590669 257.04 0.538301 256.674 1.41951C254.362 6.99304 253.102 12.9943 251.945 19.0301C250.887 24.5589 250.086 30.1819 249.182 35.7666C249.119 36.1534 249.143 36.5699 249.127 36.9731C249.263 37.0217 249.4 37.071 249.536 37.12C249.613 36.8431 249.712 36.5741 249.764 36.2883C251.265 28.0797 252.6 19.8089 254.324 11.6849C255.216 7.48597 256.784 3.54191 258.087 -0.499583C258.21 -0.87787 258.629 -1.12681 258.911 -1.43595C259.24 -1.03598 259.569 -0.635724 259.945 -0.179485C260.396 -2.22809 261.898 0.0752375 263.006 0.344378C263.057 0.661378 263.138 1.16034 263.241 1.80192C263.499 1.5667 263.654 1.42505 263.81 1.28332C263.886 1.31535 263.963 1.34738 264.04 1.37933C263.674 3.06023 263.308 4.7412 262.942 6.42182C262.821 6.38501 262.7 6.3482 262.579 6.31139C262.664 5.74897 262.749 5.18656 262.834 4.62449C262.724 4.58927 262.613 4.55376 262.502 4.51854L260.821 12.0453C260.933 12.0978 261.045 12.1497 261.156 12.2019C261.367 11.5207 261.577 10.8396 261.787 10.1585C261.898 10.1964 262.008 10.2343 262.118 10.2726C261.99 11.0764 261.852 11.8773 261.736 12.685C260.312 22.5787 258.894 32.4751 257.463 42.3666C257.356 43.1055 257.481 43.7398 258.515 44.3788C258.811 44.5617 258.907 45.0208 259.104 45.3521C259.196 45.5061 259.341 45.7828 259.41 45.7894C261.85 46.0403 262.685 48.1578 264.436 49.2006C264.84 49.4413 265.295 49.783 265.491 50.1155C265.718 50.4989 267.14 50.8546 266.068 51.3166C266.611 51.7897 267.156 52.2633 267.7 52.7366C269.724 54.6744 271.72 56.6308 273.788 58.5401C274.539 59.233 275.465 59.8135 276.31 60.4453Z" fill="#3D24D7"/>
<path fill-rule="evenodd" clip-rule="evenodd" d="M32.7973 88.5336C32.3743 88.2481 31.9494 87.961 31.5262 87.6738C29.4323 91.6767 27.3384 95.6796 25.2445 99.6825C25.5548 99.8457 25.8651 100.011 26.1754 100.174L32.7973 88.5336ZM210.271 -148.113C210.656 -147.797 211.04 -147.483 211.424 -147.167C217.047 -153.745 222.669 -160.322 228.289 -166.899C227.858 -167.268 227.426 -167.636 226.994 -168.003C221.419 -161.373 215.846 -154.743 210.271 -148.113ZM106.473 -22.2319C112.305 -28.9772 118.137 -35.7242 123.969 -42.4678L122.851 -43.4068C120.673 -40.9267 118.464 -38.4757 116.33 -35.9593C114.088 -33.3143 111.801 -30.692 109.762 -27.8941C108.481 -26.1399 107.618 -24.0779 106.568 -22.1533C103.031 -17.5667 99.4926 -12.9782 95.9539 -8.39145C94.7428 -7.36088 93.2919 -6.50824 92.3567 -5.26775C85.3407 4.03269 78.2468 13.2832 71.5308 22.7997C64.8803 32.2266 58.4981 41.8524 52.2921 51.5796C49.2299 56.3768 46.8305 61.6005 44.1316 66.6315C44.5058 66.8376 44.8783 67.0439 45.2525 67.25C50.1965 59.2183 54.8432 50.982 60.1519 43.2008C70.0562 28.6897 80.3662 14.4574 90.4535 0.0690024C92.3847 -2.68562 94.0662 -5.61728 95.862 -8.46702C99.3989 -13.0553 102.936 -17.6436 106.473 -22.2319ZM21.6346 36.1822C15.0366 44.8115 8.39757 53.411 1.8482 62.0796C-5.91741 72.3592 -13.6292 82.6808 -21.3034 93.0293C-22.3697 94.4676 -23.3218 96.08 -23.9326 97.7557C-26.3072 104.288 -31.9939 104.212 -37.3243 104.44C-40.4513 104.575 -42.7586 99.8876 -40.9805 96.8585C-36.0754 88.5034 -31.3395 79.9926 -25.7368 72.118C-8.35407 47.685 9.4053 23.5233 26.9988 -0.755982C28.5088 -2.83919 29.7878 -5.09445 31.3503 -7.13209C32.9544 -9.2271 34.129 -12.7854 37.7254 -8.81549C38.6963 -7.74439 41.4562 -8.5301 43.146 -7.84533C49.0319 -5.46034 50.4448 -3.29077 49.1936 2.85741C47.5267 11.051 45.3258 19.1382 43.3014 27.2566C41.8232 33.1821 40.39 39.1236 38.7045 44.9907C36.5726 52.4096 33.9458 59.692 32.0443 67.1657C30.9237 71.574 30.7946 76.2353 30.2193 80.7825C30.6092 81.1263 31.0008 81.4716 31.3906 81.8155C31.634 80.8918 31.6684 79.8344 32.1579 79.0664C38.4872 69.1471 44.9261 59.295 51.2498 49.3694C57.0328 40.2936 62.2381 30.8086 68.5254 22.1049C82.1202 3.28513 95.5982 -15.6818 110.29 -33.6262C138.545 -68.1398 167.676 -101.929 196.313 -136.13C211.336 -154.072 226.079 -172.251 240.968 -190.307C241.685 -191.177 242.589 -191.894 243.938 -193.197C244.01 -191.26 244.053 -190.124 244.095 -188.99C244.388 -188.852 244.801 -188.556 244.886 -188.63C246.817 -190.354 249.014 -189.435 249.643 -187.872C250.381 -186.043 250.504 -183.219 249.57 -181.59C246.517 -176.256 242.98 -171.181 239.402 -166.172C236.27 -161.784 232.964 -157.507 229.502 -153.379C220.694 -142.884 212.961 -131.526 203.663 -121.412C201.119 -118.646 199.541 -114.985 197.505 -111.745C196.941 -110.849 196.392 -109.932 195.715 -109.127C180.964 -91.5476 166.238 -73.9471 151.411 -56.4314C144.699 -48.5025 137.705 -40.8148 130.975 -32.8994C126.302 -27.4046 121.998 -21.5909 117.239 -16.179C115.811 -14.5539 115.334 -10.5655 111.424 -12.5227C111.332 -12.568 110.499 -11.4574 110.25 -10.7948C109.433 -8.60445 108.583 -6.40781 108.004 -4.14836C106.875 0.25573 103.39 2.59829 100.374 5.50564C97.9323 7.86017 96.3544 11.0926 94.2 13.7801C92.0188 16.5035 88.094 18.8018 87.6496 21.7062C87.0438 25.6677 83.8866 27.1311 82.4784 30.0935C79.8032 35.7275 76.7532 41.2041 73.5308 46.5469C69.2894 53.5769 65.708 61.4143 60.0106 67.0278C55.2271 71.7431 53.2984 77.6923 49.5931 82.7533C44.701 89.436 40.8463 96.9241 36.9481 104.28C34.0962 109.657 32.8947 116.25 29.0823 120.67C26.0646 124.168 25.9779 128.367 23.6788 131.531C18.9542 138.031 16.7018 145.578 13.8869 152.812C11.6939 158.458 8.25713 161.114 2.68557 160.681C0.562619 160.516 -2.3469 163.709 -4.29688 158.344C-5.68719 154.516 -7.74679 155.231 -6.6638 150.982C2.84739 113.713 12.3825 76.4511 21.904 39.1852C22.1197 38.3445 22.2567 37.4824 22.4297 36.6304C22.1658 36.4815 21.9001 36.331 21.6346 36.1822Z" fill="#3D24D7"/>
<path fill-rule="evenodd" clip-rule="evenodd" d="M243.726 200.71C244.981 199.731 245.998 200.079 247.313 201.897C248.685 203.794 248.969 206.124 249.68 208.28C250.085 209.504 250.369 210.776 250.616 212.044C250.798 212.979 251.134 213.086 251.959 212.691C254.954 211.256 257.978 209.89 260.998 208.512C261.601 208.236 262.219 207.973 262.854 207.797C263.688 207.566 264.592 207.373 263.827 208.875C266 208.255 267.896 209.859 267.823 211.924C267.794 212.732 267.305 212.852 266.867 213.107C262.633 215.582 258.39 218.043 254.142 220.492C252.309 221.549 252.439 221.807 253.24 223.778C254.033 225.728 254.404 227.89 254.744 229.995C255.393 234 256.288 237.914 257.977 241.611C258.298 242.315 258.686 243.213 257.989 243.749C257.434 244.176 256.55 244.718 255.819 243.768C255.734 243.656 255.561 243.562 255.422 243.553C252.154 243.341 251.145 240.778 250.168 238.234C248.705 234.429 247.679 230.476 246.606 226.546C246.27 225.314 245.984 225.072 244.81 225.717C241.267 227.657 237.76 229.667 234.205 231.587C231.657 232.963 229.291 232.004 226.899 231.566C226.232 231.444 225.573 230.207 225.275 229.35C224.978 228.496 225.885 227.999 226.505 227.576C231.926 223.878 237.339 220.163 243.146 217.11C244.022 216.649 244.229 216.265 243.961 215.202C242.923 211.089 242.046 206.934 241.147 202.785C240.951 201.883 240.709 200.927 241.28 200.053C241.714 199.389 242.205 198.781 243.125 198.956C244.249 199.17 243.322 200.102 243.726 200.71Z" fill="#3D24D7"/>
</g>
</svg>
