<svg width="288" height="326" viewBox="0 0 288 326" fill="none" xmlns="http://www.w3.org/2000/svg">
<mask id="mask0_1633_8799" style="mask-type:alpha" maskUnits="userSpaceOnUse" x="4" y="0" width="280" height="318">
<rect x="4" width="280" height="318" rx="25" fill="#3751FF"/>
</mask>
<g mask="url(#mask0_1633_8799)">
<path fill-rule="evenodd" clip-rule="evenodd" d="M86.2327 196.008C86.1605 195.796 86.0702 195.648 86.0648 195.496C86.0405 194.845 86.0659 194.189 85.8143 193.567C86.1243 193.233 85.7872 192.897 85.783 192.565C85.7606 190.806 85.818 189.045 85.7671 187.198C85.5602 187.382 85.4165 187.51 85.2736 187.638C85.265 188.026 85.586 188.325 85.5224 188.748C85.4643 189.135 85.3562 189.519 85.3835 189.925C85.3948 190.097 85.1391 190.313 85.1839 190.451C85.4491 191.27 85.0821 192.107 85.3102 192.932C85.4376 193.395 85.2877 193.92 85.474 194.395C85.6724 194.9 85.4808 195.487 85.8041 195.964C85.8372 196.013 85.8914 196.048 85.9362 196.089C85.9978 196.072 86.0594 196.055 86.2327 196.008ZM95.009 138.715C95.0295 138.565 95.0372 138.411 95.0729 138.265C95.1172 138.086 95.1687 137.901 95.2145 137.732C95.3555 137.212 95.2169 136.692 95.3126 136.184C95.4716 135.341 95.4267 134.49 95.4587 133.64C95.5081 132.335 95.3421 131.032 95.4864 129.722C95.5239 129.382 95.6892 128.91 95.2903 128.572C95.1778 129.14 95.1108 129.692 94.9538 130.216C94.7666 130.843 94.9263 131.501 94.7248 132.118C95.0165 132.895 94.8274 133.711 94.8528 134.499C94.8786 135.306 94.8852 136.133 94.811 136.955C94.7614 137.508 94.7068 138.111 95.009 138.715ZM90.2602 138.975C90.4129 137.949 90.6757 137.023 90.6589 136.102C90.6321 134.63 90.9144 133.195 90.9921 131.738C91.0245 131.132 91.092 130.499 91.3021 129.939C91.5368 129.312 91.2801 128.614 91.6703 128.037C91.8463 126.723 92.1328 125.434 92.5102 124.165C92.5888 123.901 92.5388 123.734 92.3473 123.578C92.0462 123.609 92.01 123.848 91.9786 124.065C91.8954 124.639 91.7993 125.223 91.6712 125.773C91.5231 126.406 91.4701 127.047 91.34 127.677C91.2092 128.308 91.0742 128.938 90.9489 129.57C90.6634 131.008 90.6311 132.471 90.4977 133.923C90.3841 135.162 90.2757 136.407 90.1248 137.645C90.0749 138.054 89.9718 138.491 90.2602 138.975ZM85.9279 137.457C85.7962 137.171 85.8299 136.855 85.8719 136.564C85.9365 136.113 85.8904 135.599 86.0751 135.223C86.2988 134.769 86.0031 134.24 86.3865 133.861C86.4712 132.894 86.5261 131.924 86.649 130.962C86.8301 129.544 86.9668 128.11 87.2934 126.723C87.6603 125.164 88.1149 123.625 88.425 122.051C88.4821 121.761 88.5792 121.478 88.4552 121.027C88.2056 121.541 87.9479 121.894 87.8587 122.286C87.4719 123.983 87.0984 125.685 86.8824 127.417C86.724 128.686 86.4784 129.947 86.2418 131.199C86.078 132.069 85.889 132.952 85.823 133.821C85.7336 135.001 85.5687 136.174 85.5074 137.355C85.505 137.406 85.5666 137.461 85.5843 137.49C85.7012 137.592 85.7785 137.5 85.9279 137.457ZM78.8208 187.635C78.2211 188.185 78.5353 189.053 78.1009 189.666C78.209 190.221 77.9943 190.755 77.9901 191.295C77.9844 191.993 78.0435 192.696 78.0972 193.39C78.1408 193.951 78.4436 194.492 78.6498 195.095C79.0483 194.383 78.8198 193.671 78.9529 192.999C79.0867 192.323 79.0864 191.614 79.0828 190.919C79.079 190.216 79.2893 189.543 79.2892 188.838C79.2893 188.151 79.2329 187.461 79.3912 186.692C79.098 186.829 79.0976 187.039 79.0043 187.179C78.8919 187.347 78.6108 187.246 78.5457 187.48C78.6267 187.526 78.7074 187.571 78.8208 187.635ZM108.104 200.144C109.252 199.831 110.099 198.961 111.118 198.382C111.912 197.931 112.601 197.316 113.391 196.846C114.2 196.363 114.957 195.785 115.754 195.285C116.532 194.797 117.235 194.201 118.052 193.76C118.574 193.479 119.056 193.08 119.676 192.712C119.017 192.68 118.716 193.151 118.283 193.269C117.804 193.401 117.523 193.841 117.04 193.933C116.62 194.014 116.475 194.633 115.883 194.538C115.834 194.678 115.771 194.863 115.71 195.039C115.433 195.134 115.132 195.156 114.955 195.315C114.475 195.746 113.889 196.018 113.377 196.399C112.898 196.755 112.364 197.133 111.817 197.359C111.227 197.603 110.77 198.101 110.119 198.195C109.971 198.216 109.939 198.359 109.85 198.439C109.673 198.601 109.456 198.754 109.268 198.863C109.085 198.968 108.942 199.364 108.607 199.145C108.466 199.602 107.881 199.4 107.695 199.738C107.436 200.212 106.973 200.315 106.55 200.469C106.36 201.063 105.781 201.231 105.356 201.604C105.967 201.734 106.216 201.132 106.663 201.074C107.119 201.014 107.346 200.41 107.878 200.609C107.95 200.461 108.022 200.314 108.104 200.144ZM82.7285 125.419C82.2858 126.383 82.2165 127.437 82.0765 128.465C81.936 129.498 81.5975 130.515 81.668 131.698C82.0631 131.398 82.2246 131.142 82.2172 130.753C82.2075 130.267 82.1863 129.767 82.2895 129.301C82.3715 128.93 82.4518 128.599 82.4009 128.205C82.3539 127.844 82.7745 127.547 82.7086 127.131C82.6998 127.078 82.7819 127.012 82.7774 126.955C82.7064 126.053 83.059 125.21 83.1748 124.335C83.2283 123.93 83.3305 123.463 83.5863 123.076C83.834 122.701 83.7264 122.151 84.154 121.853C84.3507 120.806 85.0284 119.903 85.0543 118.806C85.4993 117.991 85.4663 116.998 86.0044 116.218C85.9223 115.828 86.3616 115.499 86.0919 115.061C85.9683 115.181 85.968 115.352 85.8921 115.479C85.5714 116.016 85.4983 116.714 84.8448 117.044C84.7048 117.114 84.5554 117.417 84.5982 117.553C84.7353 117.99 84.6031 118.282 84.2639 118.528C84.0971 119.729 83.3894 120.787 83.3717 122.033C83.3666 122.394 83.1546 122.75 83.1363 123.113C83.1282 123.273 82.4671 123.21 83.0115 123.536C83.1384 123.612 82.7835 123.918 82.868 124.212C82.9724 124.575 82.8028 124.884 82.4767 125.093C82.4437 125.115 82.4427 125.188 82.4304 125.228C82.5158 125.282 82.5944 125.333 82.7285 125.419ZM142.332 134.584C142.018 135.064 141.556 134.596 141.245 134.859C140.337 134.574 139.344 134.733 138.453 134.291C138.199 134.165 137.8 134.041 137.419 134.409C137.862 134.521 138.256 134.62 138.65 134.722C139.921 135.051 141.238 135.05 142.526 135.261C143.065 135.35 143.63 135.186 144.155 135.493C144.359 135.613 144.636 135.407 144.875 135.368C145.354 135.287 145.751 135.622 146.251 135.472C146.66 135.349 147.147 135.434 147.604 135.476C148.024 135.514 148.47 135.55 148.867 135.528C149.3 135.503 149.72 135.543 150.144 135.56C150.899 135.59 151.654 135.651 152.409 135.679C153.499 135.72 154.574 135.917 155.663 135.991C156.401 136.041 157.171 136.189 157.912 136.368C158.327 136.469 158.324 136.483 158.907 136.18C158.261 136.042 157.664 135.914 157.055 135.783C157.105 135.674 157.156 135.56 157.213 135.435C158.261 135.626 159.307 135.819 160.328 136.144C161.031 136.368 162.842 136.355 163.594 136.117C163.859 136.034 164.11 136.251 164.325 136.084C164.622 135.855 164.944 136.154 165.249 135.991C165.506 135.854 165.824 135.828 166.076 135.685C166.383 135.509 166.697 135.751 167.001 135.595C167.26 135.461 167.552 135.388 167.833 135.3C168.589 135.063 169.289 134.725 169.886 134.191C169.931 134.151 169.999 134.126 170.06 134.115C170.863 133.968 171.447 133.299 172.243 133.167C172.604 133.106 172.689 132.729 173.027 132.661C173.377 132.591 173.741 132.487 174.041 132.302C174.258 132.168 174.502 132.086 174.713 131.927C174.938 131.758 175.241 131.659 175.523 131.615C175.904 131.555 176.05 130.856 176.575 131.239C176.779 130.821 177.121 130.777 177.519 130.89C177.673 130.455 178.003 130.585 178.311 130.641C178.573 130.688 178.617 130.243 178.903 130.367C179.082 130.444 179.056 130.053 179.322 130.226C179.447 130.307 179.739 130.138 179.953 130.073C180.141 130.016 180.325 129.946 180.511 129.882C180.697 129.818 180.887 129.764 181.067 129.688C181.989 129.3 183.022 129.349 183.943 128.928C184.191 128.815 184.543 128.896 184.842 128.937C185.146 128.979 185.337 128.887 185.44 128.6C185.832 128.819 186.212 128.708 186.624 128.626C187.298 128.49 187.953 128.211 188.672 128.307C188.846 128.33 189.041 128.192 189.227 128.128C190.001 127.861 190.778 127.601 191.548 127.323C191.835 127.22 192.189 127.213 192.337 126.863C192.676 127.073 192.955 126.814 193.252 126.734C193.568 126.649 193.873 126.526 194.183 126.419C194.492 126.312 194.797 126.185 195.113 126.104C195.38 126.036 195.62 125.797 195.941 125.981C196.058 126.049 196.14 125.905 196.235 125.815C196.622 125.449 197.058 125.34 197.526 125.692C197.604 125.353 197.972 125.225 198.121 125.293C198.474 125.453 198.644 125.153 198.899 125.103C199.202 125.044 199.411 124.642 199.77 124.776C200.133 124.911 200.379 124.616 200.79 124.606C200.876 124.614 200.808 124.912 201.045 124.891C201.388 124.61 201.711 124.269 202.267 124.423C202.59 124.512 202.899 124.063 203.272 124.31C203.721 124.083 204.213 124.358 204.629 124.241C205.064 124.118 205.521 124.246 205.923 124.035C206.142 123.92 206.355 124.05 206.561 124.054C208.133 124.081 209.706 124.083 211.28 124.178C213.301 124.299 215.258 124.715 217.22 125.148C217.619 125.236 218.013 125.394 218.366 125.547C219.58 126.075 220.871 126.443 222.003 127.147C223.764 128.241 225.436 129.452 226.867 130.978C227.365 131.509 227.894 132.036 228.313 132.609C228.851 133.345 229.556 133.989 229.857 134.892C229.878 134.953 229.887 135.036 229.931 135.069C230.651 135.607 230.756 136.466 231.077 137.219C231.468 138.133 231.971 139 232.217 139.974C232.669 140.178 232.423 140.622 232.542 140.941C232.782 141.588 232.994 142.246 233.217 142.899L233.663 144.206C233.338 144.638 233.999 145.054 233.685 145.486C233.989 146.176 233.749 146.9 233.822 147.588C233.9 148.309 233.785 148.994 233.795 149.693C233.817 151.245 233.319 152.707 233.111 154.217C233.077 154.465 232.768 154.712 232.802 154.924C232.877 155.397 232.391 155.685 232.532 156.203C232.636 156.582 232.233 156.966 232.057 157.347C231.92 157.644 232.198 157.963 231.942 158.264C231.757 158.482 231.709 158.814 231.537 159.048C230.798 160.048 230.135 161.101 229.372 162.086C228.806 162.818 228.063 163.403 227.628 164.239C227.086 164.514 226.842 165.084 226.425 165.486C226.009 165.887 225.543 166.225 225.135 166.639C224.694 167.088 224.218 167.517 223.699 167.897C223.086 168.345 222.544 168.876 221.882 169.28C221.485 169.523 221.134 169.891 220.729 170.162C220.451 170.348 220.214 170.64 219.912 170.732C219.626 170.819 219.473 171.154 219.14 171.095C219.11 171.09 219.057 171.057 219.057 171.059C218.718 171.701 217.947 171.816 217.512 172.332C217.305 172.577 217.098 172.602 216.838 172.452C216.751 172.616 216.664 172.781 216.584 172.932C216.486 172.906 216.403 172.884 216.319 172.862C216.217 173.477 215.556 173.454 215.214 173.812C215.025 174.01 214.694 174.156 214.432 174.28C214.112 174.431 213.928 174.81 213.566 174.814C213.25 174.818 213.138 175.261 212.79 175.124C212.449 175.816 211.636 175.783 211.117 176.217C210.624 176.627 210.036 176.936 209.479 177.23C208.986 177.492 208.566 177.939 207.97 178.011C207.674 178.047 207.616 178.433 207.277 178.475C207.019 178.507 206.67 178.534 206.577 178.902C206.262 178.629 206.209 179.083 205.992 179.121C205.719 179.169 205.507 179.367 205.275 179.528C204.873 179.807 204.303 179.814 203.949 180.23C203.149 180.384 202.574 181.045 201.768 181.196C201.329 181.278 201.08 181.731 200.61 181.813C200.196 181.886 199.739 181.99 199.413 182.233C198.554 182.872 197.473 182.93 196.576 183.415C194.732 184.411 192.704 184.889 190.761 185.603C188.825 186.316 186.865 186.962 184.91 187.626C184.613 187.727 184.334 187.906 183.989 187.86C183.706 187.823 183.6 188.197 183.301 188.191C182.446 188.172 181.702 188.662 180.894 188.77C180.216 188.861 179.605 189.1 178.959 189.254C178.634 189.332 178.287 189.253 177.947 189.391C177.667 189.504 177.402 189.662 177.029 189.597C176.716 189.542 176.358 189.835 176.015 189.853C174.265 189.942 172.569 190.527 170.8 190.412C170.18 190.665 169.521 190.601 168.876 190.669C167.934 190.768 166.989 190.795 166.047 190.864C165.59 190.898 165.114 191.048 164.681 190.931C164.209 190.802 163.758 190.934 163.315 190.944C162.432 190.962 161.562 190.764 160.68 190.848C160.351 190.879 160.008 190.791 159.684 190.84C159.031 190.938 158.435 190.632 157.782 190.647C156.881 190.667 155.955 190.589 155.077 190.389C153.763 190.091 152.422 189.954 151.118 189.595C150.153 189.329 149.14 189.245 148.16 189.023C147.894 188.962 147.617 188.97 147.343 188.831C146.748 188.529 146.08 188.808 145.448 188.723C145.419 188.719 145.36 188.741 145.359 188.754C145.34 189.074 145.018 188.844 144.922 188.994C144.741 189.278 144.424 189.272 144.161 189.363C143.934 189.442 143.827 189.784 143.476 189.623C143.267 189.528 143.161 189.954 142.982 189.908C142.745 189.846 142.684 189.967 142.518 190.067C141.821 190.488 141.013 190.653 140.248 190.917C139.946 190.696 139.664 190.899 139.433 191.024C139.141 191.181 138.865 190.936 138.601 191.083C138.17 191.324 137.646 191.079 137.221 191.35C136.754 191.068 136.321 191.693 135.854 191.405C135.164 191.805 134.374 191.487 133.643 191.72C133.238 191.848 132.743 191.714 132.293 191.666C131.413 191.573 130.535 191.687 129.656 191.674C129.471 191.671 129.286 191.839 129.098 191.844C128.898 191.85 128.976 192.245 128.687 192.082C128.472 191.961 128.557 192.303 128.374 192.331C128.2 192.357 128.024 192.427 127.86 192.559C127.502 192.844 127.107 193.095 126.697 193.3C126.306 193.496 125.851 193.55 125.534 193.911C125.427 194.033 125.232 194.007 125.089 193.855C125.108 194.256 124.833 194.452 124.591 194.649C124.533 194.696 124.362 194.604 124.176 194.559C123.872 195.206 123.099 195.284 122.625 195.765C122.296 196.098 121.795 196.174 121.5 196.555C121.474 196.589 121.327 196.531 121.195 196.508C120.999 196.937 120.573 197.165 120.183 197.443C119.766 197.74 119.332 197.987 118.84 198.1C118.7 198.36 118.61 198.601 118.287 198.737C117.755 198.961 117.394 199.486 116.83 199.686C116.758 200.069 116.387 199.585 116.243 199.902C116.15 200.11 115.932 200.275 115.741 200.422C115.543 200.574 115.207 200.493 115.075 200.763C114.955 201.009 114.561 200.917 114.526 201.244C113.844 201.424 113.342 201.903 112.771 202.275C111.873 202.86 110.909 203.341 110.071 204.025C109.928 204.142 109.716 204.175 109.533 204.239C109.205 204.352 108.852 204.419 108.714 204.779C108.564 204.715 108.477 204.677 108.388 204.639C108.213 205.054 107.867 205.241 107.462 205.376C106.868 205.576 106.223 205.682 105.856 206.31C105.78 206.441 105.504 206.448 105.327 206.527C104.87 206.733 104.305 206.721 103.981 207.198C103.541 206.957 103.311 207.382 103.028 207.543C102.125 208.059 101.255 208.648 100.232 208.889C99.9328 208.96 99.8791 209.235 99.638 209.333C99.4069 209.427 99.0599 209.327 98.9756 209.439C98.7856 209.691 98.5262 209.693 98.2976 209.772C98.0449 209.859 98.0097 210.164 97.7025 210.218C97.2568 210.296 96.833 210.5 96.399 210.648C95.5511 210.936 94.8261 211.491 93.9421 211.72C93.0892 211.941 92.2752 212.313 91.4258 212.553C91.1514 212.63 91.1 213.183 90.6467 212.866C90.3686 212.672 90.2996 213.291 89.9693 213.139C89.5175 213.69 88.8259 213.451 88.2686 213.657C87.6542 213.885 87.0254 214.074 86.4144 214.308C86.1359 214.415 85.8705 214.198 85.5803 214.361C85.3778 214.475 85.1378 214.631 84.8512 214.516C84.6299 214.426 84.663 214.841 84.444 214.767C84.2918 214.716 84.1693 214.655 83.9888 214.712C83.1263 214.984 82.2444 215.054 81.3362 215.037C80.9571 215.029 80.5393 215.04 80.1335 215.188C79.748 215.328 79.2902 215.297 78.8645 215.292C77.0786 215.275 75.2928 215.214 73.5207 214.982C72.8586 214.895 72.2278 214.635 71.542 214.614C71.2154 214.604 70.922 214.369 70.6979 214.096C70.664 214.165 70.6354 214.224 70.6023 214.292C70.1351 214.195 69.6715 214.056 69.2107 213.94C68.6681 213.803 68.1168 213.623 67.598 213.356C67.0051 213.051 66.4394 212.685 65.7482 212.554C65.377 212.484 65.0843 212.102 64.7162 211.904C63.9438 211.489 63.1928 211.034 62.4562 210.547C61.7486 210.08 61.09 209.544 60.4603 209.011C59.2598 207.997 58.0543 206.946 57.1437 205.641C56.8646 205.241 56.4574 204.925 56.2973 204.444C56.1452 203.986 55.7578 203.696 55.5207 203.313C55.2436 202.866 55.0705 202.346 54.8328 201.864C54.568 201.329 54.1556 200.868 54.0185 200.253C53.8897 199.679 53.6523 199.129 53.4571 198.571C52.9873 197.225 53.0238 195.833 53.0408 194.435C53.0524 193.461 53.1745 192.494 53.1383 191.516C53.1167 190.937 53.404 190.392 53.4622 189.803C53.6001 188.407 54.0533 187.083 54.4729 185.751C54.61 185.316 54.9484 184.93 54.8594 184.424C54.8497 184.37 54.8892 184.303 54.916 184.246C55.0434 183.979 55.1455 183.694 55.3111 183.453C55.4835 183.204 55.6896 182.989 55.5341 182.656C55.8955 182.547 55.7381 182.184 55.8678 181.96C56.0146 181.704 56.1486 181.438 56.2569 181.163C57.0731 179.098 58.0661 177.116 59.0491 175.13C59.3585 174.504 59.7542 173.921 60.0793 173.303C60.4308 172.634 60.6834 171.906 61.0904 171.276C61.7329 170.281 62.2195 169.195 62.8834 168.222C63.4674 167.365 64.0279 166.488 64.561 165.608C65.0722 164.764 65.6391 163.956 66.1558 163.118C66.6283 162.352 67.0979 161.572 67.6653 160.859C67.9762 160.468 68.185 159.987 68.4468 159.552C68.8426 158.894 69.2241 158.213 69.6317 157.569C70.5085 156.186 71.1601 154.696 71.8442 153.225C72.7368 151.307 73.3866 149.293 73.9397 147.245C74.4451 145.372 74.7149 143.454 75.1308 141.567C75.738 138.814 75.9489 136.009 76.429 133.243C76.6804 131.796 76.7715 130.321 77.1839 128.899C77.2637 128.625 77.2436 128.298 77.3086 127.996C77.3319 127.888 77.3595 127.739 77.3443 127.638C77.2676 127.12 77.8939 126.735 77.5976 126.189C77.773 125.756 77.8362 125.287 77.9776 124.852C78.0457 124.641 78.127 124.483 78.1489 124.231C78.187 123.784 78.1591 123.289 78.4321 122.876C78.5001 122.773 78.5806 122.628 78.5587 122.523C78.3982 121.752 78.7819 121.072 78.9029 120.351C79.0205 119.65 79.1858 118.959 79.4078 118.273C79.609 117.652 79.7552 117.012 79.9974 116.396C80.3659 115.461 80.5329 114.454 81.1781 113.619C81.4191 113.307 81.5164 112.875 81.7469 112.506C82.6467 111.061 83.7529 109.278 85.5042 107.977C86.0363 107.139 87.0475 106.753 87.4993 105.839C88.0921 105.516 88.4776 104.941 89.1013 104.622C90.0539 104.136 90.963 103.58 91.9845 103.221C92.8709 102.909 93.053 102.854 93.8608 102.876C94.6484 102.899 95.4405 102.858 96.2291 102.84C97.47 102.811 98.7094 102.799 99.9382 103.205C101.444 103.703 102.192 104.436 103.682 105.476C104.307 105.913 104.887 106.426 105.434 106.96C105.932 107.445 106.346 108.015 106.817 108.529C107.33 109.09 107.85 109.634 108.304 110.255C108.537 110.573 108.574 111.076 108.987 111.217C109.423 111.366 109.229 111.975 109.684 112.067C109.877 113.06 110.75 113.701 111.01 114.672C111.09 114.973 111.401 115.207 111.592 115.482C112.137 116.262 112.68 117.042 113.138 117.884C113.547 118.64 114.011 119.372 114.512 120.069C114.755 120.407 115.043 120.758 115.444 120.941C116.319 121.339 116.909 122.054 117.492 122.774C117.682 123.009 118.044 122.924 118.194 123.204C119.115 123.33 119.074 123.406 119.721 123.766C120.796 124.364 121.475 125.399 122.45 126.098C123.053 126.53 123.63 126.999 124.233 127.433C125.067 128.033 125.94 128.584 126.747 129.221C127.145 129.535 127.6 129.747 128.011 130.028C128.857 130.605 129.712 131.249 130.707 131.524C131.9 131.854 132.891 132.72 134.171 132.783C135.354 133.379 136.658 133.486 137.931 133.717C138.329 134.087 138.99 133.732 139.339 134.234C139.585 133.811 139.863 134.344 140.094 134.215C140.423 134.031 140.637 134.316 140.908 134.358C141.207 134.404 141.514 134.48 141.808 134.45C142.035 134.428 142.133 134.583 142.332 134.584Z" fill="#4527FD"/>
<path fill-rule="evenodd" clip-rule="evenodd" d="M106.244 304.817C106.501 304.981 106.756 305.144 107.013 305.309C111.281 298.928 115.549 292.548 119.817 286.167C119.495 285.961 119.175 285.757 118.855 285.551C114.652 291.973 110.447 298.394 106.244 304.817ZM90.7042 236.843C95.4726 234.72 99.0164 235.056 102.666 236.906C122.924 247.195 136.374 273.446 116.931 297.812C107.703 309.378 104.163 321.805 110.436 336.416C112.62 341.503 114.207 346.916 115.329 352.316C115.839 354.775 115.218 358.051 113.804 359.986C113.129 360.909 108.938 360.293 107.176 359.104C104.249 357.128 100.916 354.549 99.657 351.484C95.9493 342.456 92.5081 333.209 90.233 323.774C88.126 315.038 90.4208 306.952 94.5626 298.692C98.7168 290.412 106.012 284.616 109.338 275.692C112.433 267.388 107.502 250.428 100.052 244.785C97.0393 242.504 94.2712 239.893 90.7042 236.843Z" fill="#4527FD"/>
<path fill-rule="evenodd" clip-rule="evenodd" d="M56.2802 237.276C58.7084 239.052 61.7816 240.353 63.4588 242.685C71.5798 253.969 67.2285 275.047 54.495 280.802C37.1534 288.641 33.8418 302.381 34.4566 319.035C34.6645 324.675 33.9854 330.447 32.9273 336.019C32.6294 337.591 29.1688 340.053 27.8422 339.691C24.9547 338.906 20.3818 336.763 20.2318 334.827C19.3513 323.391 18.2107 311.695 19.7314 300.397C21.3705 288.204 27.3768 277.609 39.9909 272.452C45.601 270.158 51.2883 267.877 54.3392 261.642C57.6304 254.916 58.0611 248.324 55.6325 241.443C55.3232 240.571 55.1845 239.636 54.9653 238.729C55.404 238.244 55.8427 237.759 56.2802 237.276Z" fill="#4527FD"/>
<path fill-rule="evenodd" clip-rule="evenodd" d="M-40.7979 262.458C-40.483 262.654 -40.168 262.849 -39.8533 263.042L-17.2276 236.332C-17.5014 236.091 -17.7777 235.85 -18.0528 235.608L-40.7979 262.458ZM24.322 208.916C26.9148 211.343 28.7392 213.05 30.5636 214.758C23.6035 213.902 25.1601 220.226 23.0935 223.004L26.7007 218.745C29.482 219.393 23.813 224.4 30.2479 222.56C26.5986 228.717 24.1795 235.055 16.8151 235.481C13.6182 235.664 9.61961 238.289 5.48091 234.407C5.24074 234.462 3.51265 235.367 1.95229 235.139C-10.6184 233.287 -18.1003 240.767 -24.9138 249.613C-28.6216 254.428 -31.9134 259.683 -36.2303 263.869C-39.5118 267.049 -43.9524 269.199 -48.17 271.174C-52.2211 273.07 -55.818 270.44 -58.7244 268.079C-59.5847 267.379 -59.0794 263.243 -57.8646 261.996C-49.954 253.867 -41.6755 246.101 -33.7404 237.909C-35.2378 239.937 -36.7342 241.96 -38.2316 243.988C-38.0472 244.184 -37.8591 244.378 -37.676 244.573C-36.8041 243.814 -36.024 242.899 -35.0447 242.333C-33.2946 241.317 -31.4831 240.366 -29.5958 239.661C-27.5171 238.883 -25.3244 238.416 -23.6164 236.883C-25.4617 236.418 -27.3072 235.95 -28.3062 235.699C-27.3136 233.519 -26.9092 232.189 -26.156 231.11C-25.4062 230.038 -24.42 228.603 -23.3323 228.389C-18.5027 227.437 -14.2021 225.006 -8.59259 226.378C-1.58896 228.093 5.93933 227.7 13.2488 228.084C14.2655 228.139 15.751 227.76 16.2989 227.032C19.318 223.024 22.2667 218.936 24.8763 214.654C25.478 213.667 24.6538 211.804 24.322 208.916Z" fill="#4527FD"/>
<path d="M182.439 67.7687C181.35 63.5568 178.133 54.1407 177.518 52.532C176.904 50.9233 177.704 50.0229 178.268 49.5961L182.787 46.1817C183.541 45.6126 184.389 45.86 184.909 46.9481C192.757 67.3763 193.238 74.7131 194.088 75.8481C196.212 78.6856 203.189 81.706 206.014 79.572C207.708 78.2916 205.491 76.117 207.374 74.6943L210.951 71.9912C211.516 71.5645 212.506 71.7052 213.214 72.651C213.922 73.5968 218.397 81.7657 211.242 87.1719C204.087 92.578 194.911 85.9065 194.911 85.9065C195.386 88.5096 194.967 99.469 188.189 104.591C176.138 113.696 164.249 102.539 158.585 94.9727C152.921 87.406 147.578 72.7854 157.745 65.1031C167.913 57.4206 182.439 67.7687 182.439 67.7687ZM164.374 89.7104C167.631 94.0613 174.24 103.284 182.313 97.4799C186.95 94.2725 186.844 85.4675 185.411 79.4426C175.612 72.0382 169.481 67.7858 163.456 72.3383C155.501 78.645 164.374 89.7104 164.374 89.7104Z" fill="#4527FD"/>
<path fill-rule="evenodd" clip-rule="evenodd" d="M38.2612 -20.5279C45.9845 -10.8352 44.4227 3.32881 34.7751 11.0882C25.1275 18.8476 11.0293 17.2785 3.30597 7.58584C-4.41735 -2.10686 -2.85558 -16.2709 6.79205 -24.0302C16.4397 -31.7896 30.5378 -30.2206 38.2612 -20.5279ZM11.5621 -7.81109C11.604 -3.25389 15.1772 3.26517 9.94204 2.24962C7.39395 1.75532 4.73266 -5.4066 5.28871 -8.97994C5.8008 -12.2708 7.98878 -19.0387 11.1334 -19.1943C16.9053 -19.4799 11.5161 -12.8186 11.5621 -7.81109Z" fill="#4527FD" stroke="#4527FD" stroke-width="5"/>
<path fill-rule="evenodd" clip-rule="evenodd" d="M138.198 -77.178C142.85 -108.037 118.842 -145.223 -10.0122 -41.588C-74.783 10.5058 -113.228 68.1137 -98.4788 86.6235C-86.2582 101.96 -44.039 99.8984 47.4614 26.3066C98.8529 -15.0265 111.328 -32.3129 115.152 -36.477C117.895 -39.4641 140.321 -53.4085 130.871 -63.1272C124.663 -69.5124 117.412 -55.4232 113.854 -47.6233C108.03 -34.8584 91.868 -16.9185 43.8146 21.7299C-114.633 149.166 -147.083 75.4342 -6.72007 -37.4564C146.847 -160.967 139.295 -75.8008 138.198 -77.178Z" fill="#4527FD" stroke="#4527FD" stroke-width="5"/>
<path fill-rule="evenodd" clip-rule="evenodd" d="M89.1482 112.758C119.864 117.431 156.877 93.3115 53.7237 -36.1447C1.87204 -101.218 -55.4681 -139.842 -73.8918 -125.024C-89.1573 -112.747 -87.105 -70.3304 -13.8553 21.5973C27.2857 73.2289 44.4917 85.7626 48.6364 89.6042C51.6097 92.3601 65.4893 114.89 75.1627 105.396C81.5183 99.159 67.4945 91.8751 59.731 88.2997C47.0254 82.4484 29.1689 66.2113 -9.29981 17.9334C-136.143 -141.254 -62.7545 -173.855 49.6113 -32.8372C172.548 121.447 87.7774 113.86 89.1482 112.758Z" fill="#4527FD" stroke="#4527FD" stroke-width="5"/>
<path fill-rule="evenodd" clip-rule="evenodd" d="M-117.228 -1.69969C-137.596 -25.2657 -137.126 -69.5865 26.9282 -51.3281C109.393 -42.1501 172.556 -14.1588 169.958 9.40734C167.805 28.9337 131.043 49.8932 14.5468 36.9277C-50.8836 29.6456 -70.6306 21.7514 -76.0788 20.2899C-79.9873 19.2416 -106.359 19.5204 -103.554 6.22978C-101.711 -2.50228 -88.081 5.50097 -80.9198 10.1761C-69.1999 17.8274 -45.9911 24.2917 15.1893 31.1007C216.92 53.5524 205.054 -26.1787 26.3482 -46.0678C-169.169 -67.828 -117.421 0.0537173 -117.228 -1.69969Z" fill="#4527FD" stroke="#4527FD" stroke-width="5"/>
<path fill-rule="evenodd" clip-rule="evenodd" d="M15.2208 -145.299C38.6773 -165.762 82.792 -165.29 64.6185 -0.469442C55.4832 82.3803 27.622 145.839 4.16541 143.228C-15.2702 141.065 -36.1322 104.131 -23.227 -12.9086C-15.9788 -78.6446 -8.12123 -98.4838 -6.66659 -103.958C-5.62308 -107.884 -5.9006 -134.379 7.32821 -131.561C16.0197 -129.709 8.05363 -116.016 3.40019 -108.821C-4.21552 -97.0465 -10.6497 -73.7293 -17.4271 -12.2631C-39.7745 190.41 39.586 178.488 59.3827 -1.05216C81.0417 -197.483 13.4756 -145.493 15.2208 -145.299Z" fill="#4527FD" stroke="#4527FD" stroke-width="5"/>
<path fill-rule="evenodd" clip-rule="evenodd" d="M305.494 112.801C304.489 111.995 303.772 111.305 302.95 110.778C299.544 108.6 296.52 105.938 293.401 103.388C290.547 101.052 287.895 98.521 285.211 95.9987C282.749 93.6852 280.195 91.4518 277.923 88.9511C276.311 87.1776 274.54 85.5548 273.029 83.6754C271.95 82.3305 270.318 81.3795 269.442 79.9388C267.425 76.6216 264.628 73.9536 262.336 70.869C259.189 66.6367 255.84 62.5436 252.893 58.1608C249.829 53.6032 246.559 49.1818 243.742 44.0807C243.722 45.3982 243.493 46.4176 243.73 47.3138C244.425 49.9204 243.919 52.6792 244.824 55.2424C244.194 56.72 245.447 57.9993 245.323 59.3406C245.054 62.2318 245.956 64.9765 246.066 67.803C246.129 69.4202 246.256 71.0009 246.88 72.5076C246.212 73.3003 246.811 74.0509 246.923 74.8314C247.034 75.5909 246.903 76.3881 247.022 77.1464C247.297 78.9217 247.886 80.6763 247.934 82.4505C248.014 85.4979 248.527 88.4854 248.756 91.5025C248.854 92.8012 249.283 94.0883 249.234 95.3031C249.132 97.86 250.085 100.293 249.781 102.875C249.653 103.974 250.419 105.082 250.216 106.391C250.028 107.604 250.383 108.945 250.688 110.182C250.979 111.352 251.085 112.495 251.141 113.699C251.251 116.049 251.838 118.382 251.892 120.728C251.935 122.572 252.043 124.183 253.379 125.656C253.818 126.139 253.488 127.327 253.509 128.107C253.086 128.413 252.783 128.63 252.547 128.802C253.015 129.279 253.414 129.689 253.818 130.104C254.82 129.931 255.588 129.409 256.392 128.757C257.064 128.21 258.126 128.15 259.015 127.874L261.981 126.954C262.111 125.496 263.322 126.404 263.969 126.055C264.842 125.583 265.757 125.15 266.7 124.853C272.325 123.074 277.964 121.342 283.599 119.594L305.494 112.801ZM316.075 102.437C316.402 101.881 316.503 101.709 316.731 101.32C317.675 102.386 318.567 103.392 319.477 104.416C319.553 104.3 319.703 104.071 319.958 103.68C321.261 104.416 322.547 105.281 323.942 105.892C325.27 106.473 326.283 107.546 327.704 108.005C328.314 108.202 328.803 109.073 329.147 109.74C329.521 110.466 329.663 111.311 330.02 112.472C329.517 112.318 329.233 112.231 328.915 112.135C328.799 112.333 328.649 112.587 328.434 112.955C327.842 112.877 327.19 112.792 326.575 112.713C326.042 114.085 327.249 114.547 327.836 115.427C327.215 115.758 326.707 116.025 326.317 116.234C326.117 116.979 325.94 117.639 325.778 118.244C324.81 118.501 323.992 119.166 323.077 118.459C322.566 119.566 321.617 119.645 320.56 119.619C318.735 119.577 316.898 119.492 315.086 119.66C313.312 119.824 311.568 120.518 309.803 120.553C307.095 120.608 304.702 122.047 302.145 122.22C299.008 122.434 296.288 123.892 293.308 124.389C286.191 125.574 279.481 128.175 272.617 130.232C271.792 130.48 270.655 129.731 270.128 130.957C269.015 130.639 267.973 130.927 266.925 131.29C265.947 131.631 264.949 131.912 263.96 132.219C262.97 132.526 261.992 132.877 260.986 133.115C260.648 133.193 260.243 132.981 259.932 132.915C258.292 134.762 255.954 134.339 253.896 134.645C253.895 135.543 253.894 136.3 253.893 137.037C252.858 137.708 252.003 138.158 250.618 137.475C250.981 138.129 251.224 138.565 251.586 139.217C251.525 139.365 251.357 139.775 251.189 140.186C250.779 139.967 250.595 139.87 250.427 139.781C250.069 140.741 249.706 141.711 249.385 142.575C248.575 142.419 247.908 142.292 247.186 142.153C246.932 142.396 246.61 142.704 246.203 143.091C245.558 142.66 244.959 142.262 243.944 141.585C243.616 140.095 243.175 138.122 242.758 136.145C242.7 135.87 242.819 135.557 242.76 135.282C242.235 132.815 241.654 130.36 241.164 127.888C240.955 126.834 240.959 125.741 240.799 124.675C240.641 123.607 239.786 122.615 240.471 121.457C239.526 119.805 240.132 117.853 239.474 116.161C239.058 115.095 239.12 114.036 239.126 112.937C239.131 111.862 238.065 110.921 238.726 109.697C238.868 109.435 238.553 108.924 238.448 108.53C238.144 107.377 237.7 106.314 237.947 105.001C238.157 103.892 237.19 102.875 237.457 101.474C237.691 100.253 236.876 98.8597 236.886 97.3889C236.896 95.5237 236.227 93.6599 235.917 91.7853C235.756 90.8256 235.747 89.8418 235.653 88.8699C235.551 87.7965 235.438 86.7239 235.314 85.6536C235.202 84.6827 234.792 83.8531 234.939 82.718C235.146 81.1151 234.575 79.3715 234.152 77.7368C233.797 76.373 234.449 74.8872 233.569 73.619C234.012 70.8559 232.483 68.2289 233.012 65.4604C231.826 62.5356 232.175 59.3596 231.644 56.3203C231.219 53.8909 230.91 51.3324 231 48.773C231.057 47.1173 230.432 45.4506 230.273 43.7733C230.116 42.1229 229.691 40.4958 229.836 38.8153C229.945 37.5349 228.813 36.357 229.508 35.022C228.473 31.9688 228.907 28.667 227.914 25.6069C228.39 23.9601 227.045 22.4221 227.414 20.9416C227.81 19.3412 226.033 18.0794 227.065 16.5417C227.137 16.4343 226.935 16.1617 226.902 15.9576C226.634 14.2985 225.366 12.8371 225.938 11.0134C224.485 10.1471 225.108 8.18993 224.148 7.27607C223.058 6.23953 223.025 4.93639 222.503 3.76562C221.773 2.12302 220.969 0.506984 220.358 -1.17745C219.681 -3.03998 219.796 -4.90179 221.071 -6.80463C221.952 -5.99818 222.81 -5.21545 223.733 -4.37262C223.789 -5.44252 223.134 -6.47369 222.942 -7.58859C223.881 -9.05817 223.886 -9.04901 225.507 -8.68995C225.749 -9.15028 225.991 -9.60988 226.346 -10.2852C227.434 -10.5185 228.674 -10.7835 230.066 -11.0813C231.138 -10.8822 232.448 -10.6372 233.824 -10.3803C234.036 -7.91478 235.952 -6.24493 236.442 -3.90529C236.91 -1.67616 237.378 0.691951 238.503 2.60972C240.039 5.23077 240.595 8.37994 242.807 10.6104C243.54 13.4448 245.386 15.7434 246.613 18.3406C247.925 21.1184 249.614 23.7772 251.207 26.4488C252.453 28.5397 253.862 30.5224 254.894 32.7707C255.765 34.6712 257.23 36.2955 258.389 38.0707C259.394 39.6113 260.118 41.4068 261.369 42.6949C262.622 43.9862 263.37 45.5728 264.287 46.997C266.953 51.1404 270.12 54.8897 272.938 58.9044C275.756 62.918 279.099 66.5027 282.172 70.3103C285.801 74.8085 289.92 78.8505 293.956 82.9518C297.007 86.0526 300.276 88.9671 303.666 91.735C306.861 94.3406 309.864 97.1725 313.382 99.3704C313.995 99.7536 314.343 100.553 314.842 101.136C315.218 101.577 315.638 101.98 316.075 102.437Z" fill="#4527FD"/>
<path fill-rule="evenodd" clip-rule="evenodd" d="M316.571 388.841C313.879 386.664 314.383 384.304 314.786 382.417L314.826 382.228C316.351 372.846 317.877 363.464 319.829 354.058C321.603 345.453 323.434 336.873 325.265 328.293L325.265 328.292C328.012 315.422 330.758 302.552 333.315 289.6C336.256 274.974 335.683 260.29 331.693 245.801C329.025 236.486 325.175 227.497 319.089 219.841C305.137 201.875 286.847 193.539 264.093 195.613C248.671 197.096 234.973 203.3 222.375 212.282C209.298 221.893 198.326 233.88 187.905 246.524C173.909 264.106 161.869 282.953 153.365 303.749C153.215 304.099 153.071 304.465 152.926 304.834C152.486 305.951 152.036 307.094 151.373 307.908C150.568 308.815 148.909 309.77 147.955 309.566C146.825 309.286 145.372 307.82 145.048 306.634C144.624 305.195 144.854 303.202 145.108 301.639C146.63 293.72 149.457 286.157 153.087 279.151C166.674 252.814 184.297 229.689 206.484 210.005C218.961 198.879 233.14 190.581 249.521 186.376C275.776 179.54 298.967 185.187 319.323 202.787C329.776 211.915 336.282 223.937 340.876 237.014C347.543 256.428 347.881 276.031 343.598 295.726C340.268 311.464 336.141 327.248 332.055 342.874L331.625 344.519C329.056 354.733 325.924 364.898 322.841 374.901L322.841 374.902L322.523 375.936C321.663 378.911 320.452 381.734 319.241 384.557L319.241 384.558C318.74 385.727 317.997 386.792 317.127 388.04C316.947 388.298 316.761 388.565 316.571 388.841ZM281.345 373.382C281.37 372.873 281.36 372.351 281.351 371.822C281.329 370.644 281.308 369.434 281.657 368.286C284.138 357.645 286.62 347.003 289.278 336.438C290.308 332.525 291.376 328.606 292.447 324.678C295.85 312.201 299.275 299.636 301.554 286.939C304.959 266.864 301.505 248.213 289.609 231.766C287.005 228.127 283.998 224.943 280.664 222.035C275.349 217.433 268.948 216.335 262.19 218.012C254.753 219.814 248.168 223.03 241.807 227.18C230.568 234.449 221.885 244.497 214.631 255.584C206.823 267.476 198.939 279.545 191.658 291.665C189.013 296.012 186.961 300.615 184.908 305.218C184.224 306.753 183.54 308.287 182.834 309.812C182.38 310.871 181.969 311.948 181.559 313.026L181.559 313.026C181.149 314.104 180.739 315.182 180.285 316.24C179.225 318.711 177.39 319.59 175.231 319.283C173.148 318.799 171.343 317.181 171.373 314.684C171.379 311.757 171.812 308.806 172.771 306.083C175.956 295.746 181.072 286.245 186.991 277.301C189.247 273.865 191.48 270.401 193.714 266.936L193.714 266.936C199.212 258.408 204.717 249.868 210.59 241.7C218.598 230.313 228.686 220.872 241.079 214.312C245.402 212 250.253 209.915 254.876 208.36C269.828 203.117 282.803 206.852 293.226 218.477C306.306 233.136 313.78 250.18 314.143 270.212C314.271 281.565 312.843 292.663 309.507 303.353C304.174 321.128 298.665 338.828 292.729 356.552C291.259 360.785 289.131 364.877 286.992 368.99L286.99 368.993C286.556 369.827 286.122 370.662 285.693 371.498C285.581 371.646 285.473 371.797 285.365 371.949C284.549 373.094 283.738 374.233 281.345 373.382ZM230.11 250.569C218.757 264.901 210.162 281.056 202.797 297.742C201.653 300.408 200.353 303.006 198.981 305.749C198.9 305.911 198.819 306.073 198.737 306.236C197.475 309.665 196.212 313.093 195.301 316.674C194.39 320.254 195.366 322.35 197.649 323.339C200.008 324.151 202.094 323.171 203.883 319.971C204.967 317.929 205.951 315.635 206.934 313.342L206.934 313.342C213.997 297.361 222.038 282.013 231.583 267.525C237.578 258.404 244.55 249.916 253.528 243.551C256.243 241.589 259.41 240.031 262.426 238.826C266.371 237.396 270.035 238.564 272.464 242.126C274.042 244.273 275.644 246.85 275.965 249.499C276.735 254.017 277.153 258.382 276.717 262.796C276.076 269.632 274.908 276.239 273.137 282.795C269.901 294.226 266.508 305.589 263.115 316.952C261.419 322.633 259.722 328.314 258.045 334.004C257.54 335.668 257.134 337.585 256.98 339.401C256.953 340.435 257.552 341.95 258.431 342.331C259.233 342.887 261.016 342.613 261.746 341.883C263.381 340.499 264.74 338.786 265.749 336.921C266.318 335.804 266.907 334.687 267.499 333.565C269.633 329.519 271.798 325.415 273.162 321.092C277.533 307.503 281.729 293.837 285.322 280.12C287.574 271.471 288.872 262.619 288.111 253.711C287.571 247.201 285.851 241.017 281.868 235.736C276.208 228.056 268.002 225.34 259.082 228.173C255.464 229.326 251.719 231.261 248.5 233.425C241.309 238.052 235.472 243.894 230.11 250.569Z" fill="#4527FD"/>
</g>
</svg>
