<svg width="289" height="327" viewBox="0 0 289 327" fill="none" xmlns="http://www.w3.org/2000/svg">
<mask id="mask0_1623_6450" style="mask-type:alpha" maskUnits="userSpaceOnUse" x="4" y="0" width="281" height="319">
<rect x="4.5" y="0.583984" width="280" height="318" rx="21.8781" fill="#741747"/>
</mask>
<g mask="url(#mask0_1623_6450)">
<path fill-rule="evenodd" clip-rule="evenodd" d="M186.586 27.67C187.015 26.8837 187.443 26.0973 187.871 25.3109C187.154 25.9307 186.758 26.7275 186.586 27.67M218.784 -1.63503C218.529 -0.887323 218.33 -0.300174 218.129 0.285902C218.097 0.380857 217.717 0.373253 218.037 0.560982C218.119 0.608911 218.378 0.538349 218.38 0.510693C218.423 -0.169786 219.245 -0.667836 218.784 -1.63503M216.004 0.251873C216.41 -0.298019 217.491 -0.447543 216.541 -1.42116C216.257 -0.924396 215.786 -0.539163 216.004 0.251873M215.524 0.56199C214.921 1.20768 214.601 1.8539 214.009 2.25214C213.831 2.37221 213.585 2.57639 213.778 2.79831C213.932 2.97645 214.185 2.83202 214.394 2.71976C215.177 2.2999 215.507 1.62947 215.524 0.56199M185.354 21.9952C185.286 21.9383 185.218 21.8811 185.151 21.8237C183.957 22.5419 183.231 23.6561 182.759 24.9859C183.624 23.9887 184.488 22.9923 185.354 21.9952M219.784 -4.38359C219.807 -4.9921 219.785 -5.32928 219.043 -5.32532C218.651 -5.32325 218.071 -5.01715 217.729 -5.59718C217.67 -5.69564 217.517 -5.50398 217.474 -5.38773C217.442 -5.2991 217.246 -5.1936 217.48 -5.09568C218.248 -4.77489 218.175 -4.18753 217.922 -3.50687C218.261 -3.85323 218.934 -3.56628 219.016 -4.31103C219.037 -4.51112 218.583 -4.79469 219.033 -4.90101C219.36 -4.97875 219.591 -4.7505 219.784 -4.38359M217.492 -1.4444C216.99 -2.11208 217.464 -2.97344 216.546 -3.32124C216.17 -3.46367 216.608 -3.89606 216.666 -4.18888C217.006 -5.90232 217.576 -7.55539 218.269 -9.1459C218.562 -9.818 219.38 -10.0853 220.138 -10.1862C220.315 -10.2096 220.558 -10.175 220.609 -9.92599C220.675 -9.60138 220.355 -9.71693 220.222 -9.61764C220.038 -9.48035 219.836 -9.36388 219.802 -9.04849C220.479 -8.94899 221.124 -8.73674 221.816 -9.12006C222.305 -9.39054 222.506 -8.76868 222.662 -8.55215C223.033 -8.03574 223.498 -8.09455 223.995 -7.98979C224.471 -7.88912 224.846 -7.58839 225.274 -8.14735C225.435 -8.3572 225.911 -8.45483 226.258 -8.20119C226.147 -7.75629 225.738 -7.88803 225.441 -7.80218C225.756 -6.97205 226.267 -7.38504 226.727 -7.50836C226.964 -7.57231 227.217 -7.78602 227.442 -7.49792C227.691 -7.1785 227.148 -7.11442 227.227 -6.77969C227.936 -6.99486 228.369 -6.77487 227.9 -6.04838C227.58 -5.55256 228.293 -5.27964 227.904 -4.84797C227.732 -5.16016 227.386 -5.28055 227.068 -5.4646C226.777 -5.02345 227.387 -4.99407 227.422 -4.69648C227.015 -4.40085 226.52 -4.94139 226.174 -4.37746C226.078 -4.81405 226.704 -5.69607 225.654 -5.06342C225.311 -4.8569 224.716 -5.38386 224.475 -4.67011C224.413 -4.48676 224.194 -4.75653 224.137 -4.84038C223.688 -5.51005 222.938 -5.52127 222.46 -5.21163C221.882 -4.83661 220.831 -4.6593 221.122 -3.49579C221.194 -3.2105 221.034 -2.85363 220.94 -2.5425C220.798 -2.07759 220.477 -1.70159 221.027 -1.17943C221.295 -0.92443 221.268 -0.16698 220.559 0.0427408C219.86 0.249654 219.632 0.707139 220.059 1.30951C220.326 1.68515 220.026 1.59107 219.905 1.77235C219.437 2.47475 218.203 2.34668 218.163 3.50397C218.144 4.07339 218.062 4.39031 218.79 3.98005C218.098 4.76768 217.389 5.54086 216.72 6.34792C216.294 6.86215 215.793 6.83089 215.265 6.62934C215.008 6.53117 214.866 6.32219 214.537 6.6369C214.213 6.94516 213.666 6.75985 213.363 6.48696C212.82 5.99955 212.149 5.88033 211.518 5.62473C210.768 5.31992 210.297 5.66289 210.217 6.31892C210.019 7.94247 209.22 9.41699 209.116 11.0485C209.072 11.7277 208.147 12.1653 208.626 12.9646C208.404 13.0848 208.145 13.1654 207.968 13.3325C207.565 13.7127 207.193 14.128 206.825 14.5433C206.489 14.9212 206.162 15.1275 205.703 14.4956C206.088 15.3482 205.71 15.5923 205.05 15.7453C204.811 15.8003 204.543 16.0739 204.392 15.7968C204.318 15.661 204.347 15.1704 204.754 15.1228C205.072 15.0855 205.333 14.9961 205.104 14.6561C204.848 14.2778 204.61 14.7085 204.48 14.8204C203.422 15.731 202.32 15.8592 201.079 15.206C200.56 14.9328 200.021 15.1719 199.715 15.6012C198.707 17.0179 197.669 18.5618 197.515 20.2376C197.413 21.3364 196.918 22.2367 196.772 23.2689C196.644 24.1699 196.09 24.9504 196.058 25.9334C196.03 26.7899 194.163 27.8517 193.293 27.5186C191.73 26.9205 189.936 26.9234 188.595 25.7397C188.225 25.4138 188.009 25.6632 187.837 25.9887C187.532 26.5689 187.233 27.153 186.921 27.7301C186.76 28.0288 186.715 28.3947 186.226 28.4464C185.732 28.499 185.868 28.9964 185.825 29.3239C185.802 29.4991 186.112 29.7794 185.958 29.849C185.065 30.2527 185.668 31.1027 185.368 31.675C185.17 32.0528 185.186 32.0417 184.62 32.3485C184.455 32.4382 184.365 32.7182 184.299 32.9292C183.803 34.5369 183.057 35.9795 181.918 37.2551C181.424 37.8078 180.984 37.8638 180.481 37.582C179.464 37.0124 178.317 36.9883 177.24 36.6788C176.865 36.5705 176.647 36.6048 176.613 37.0899C176.504 38.6651 176.121 40.1719 175.438 41.6057C175.295 41.9052 175.692 42.3369 175.415 42.6192C174.792 43.2559 174.123 43.8502 173.446 44.4318C173.271 44.5824 173.075 44.4917 173.042 44.2192C173.007 43.9291 172.859 43.8266 172.566 43.9093C171.488 44.2157 170.816 43.5975 170.965 42.4157C171.181 40.6985 171.427 38.9848 171.645 37.2684C171.863 35.5559 172.077 33.8422 172.263 32.1259C172.328 31.5307 172.417 30.9407 172.681 30.4127C172.98 29.8181 173.584 29.28 174.168 29.6213C175.221 30.237 176.533 30.3234 177.415 31.2415C177.965 31.8149 178.102 31.438 178.293 30.9379C179.475 27.8329 180.77 24.7839 182.879 22.164C182.92 22.1129 182.955 22.0559 182.997 22.0057C185.548 18.9813 186.394 19.475 189.27 21.31C190.673 22.2052 190.45 22.5844 191.133 20.6485C191.833 18.6674 192.286 16.5992 193.182 14.6877C193.908 13.1414 194.615 11.5779 196.341 10.8334C197.61 10.2858 198.881 10.5231 200.106 10.8538C202.133 11.4014 203.157 10.3528 203.809 8.57994C204.517 6.65522 205.05 4.66674 205.701 2.71958C206.457 0.454359 207.494 0.0500606 209.853 1.06483C210.363 1.28464 210.841 1.59397 211.365 1.76979C212.598 2.1837 213.524 1.75159 214.16 0.627721C214.761 -0.432909 215.478 -1.42695 215.937 -2.56869C216.006 -2.74199 215.964 -3.1164 216.337 -2.97274C216.587 -2.87587 216.584 -2.60599 216.591 -2.37685C216.613 -1.75154 216.609 -1.75154 217.492 -1.4444" fill="#EA552B"/>
<path fill-rule="evenodd" clip-rule="evenodd" d="M221.153 14.4482C221.216 14.52 221.279 14.5913 221.343 14.6629C222.118 14.1874 222.708 13.5376 223.028 12.6319C222.403 13.2375 221.778 13.8428 221.153 14.4482M200.98 35.5851C200.281 36.1728 199.615 36.8165 199.23 37.6987C200.016 37.1815 200.592 36.4794 200.98 35.5851M210.564 28.3495C211.553 27.9437 212.536 26.7943 212.902 25.7678C212.1 26.6528 211.332 27.5013 210.564 28.3495M212.397 20.9363C212.637 20.237 213.301 19.6951 213.284 18.8788C212.934 19.5389 211.913 19.8925 212.397 20.9363M185.33 49.283C186.311 48.8322 186.843 48.3485 186.806 47.2314C186.273 47.9529 185.674 48.3694 185.33 49.283M216.155 15.9871C215.317 15.8158 214.074 17.1922 214.02 18.3634C214.491 17.3752 215.433 16.8141 216.155 15.9871M211.552 21.284C210.304 23.1879 208.891 24.9283 207.198 26.5516C208.54 26.543 211.458 22.9755 211.552 21.284M200.476 30.4681C198.575 31.6964 197.829 33.9654 196.095 35.3467C195.91 35.4938 195.797 35.7889 195.984 35.9568C196.219 36.1676 196.477 35.9687 196.657 35.7748C197.42 34.9573 198.084 34.0363 198.856 33.2499C199.666 32.4249 199.983 31.4263 200.445 30.4607C201.55 29.8193 202.171 28.7451 202.95 27.7543C201.88 27.5663 200.769 28.8326 200.476 30.4681M225.583 16.9459C224.225 18.4592 222.575 19.0073 220.591 18.4643C220.098 18.3292 219.547 18.2809 219.204 18.6899C218.311 19.7529 217.051 20.41 216.269 21.6195C215.068 23.4778 214.13 25.5087 212.676 27.2022C212.126 27.8434 211.563 28.4729 210.994 29.1194C211.151 29.518 211.423 28.9905 211.627 29.1711C211.563 29.2562 211.521 29.3754 211.445 29.4038C210.152 29.8898 208.909 30.82 207.45 30.2425C206.901 30.0249 206.371 30.2171 205.836 30.0258C205.647 29.9587 205.159 30.4895 204.927 30.829C203.62 32.7386 202.376 34.6915 201.052 36.5896C200.592 37.2492 199.977 37.8047 199.409 38.3837C199.167 38.6299 198.939 38.7948 198.477 38.6232C198.123 38.4926 197.403 38.1961 197.235 39.0393C196.619 38.8434 196.16 39.7061 195.413 39.1863C194.566 38.5972 194.007 39.1333 193.392 39.9104C192.543 40.984 192.712 42.3914 191.904 43.42C191.738 43.6319 191.738 43.9056 191.787 44.1781C191.821 44.3695 191.889 44.6793 191.798 44.7485C190.939 45.405 191.619 46.3138 191.384 47.0581C191.009 48.2431 190.675 49.4507 189.794 50.397C189.52 50.6915 189.538 50.6954 189.634 51.2344C189.651 51.3276 189.537 51.4632 189.454 51.5523C188.886 52.1645 188.49 52.183 187.272 51.8702C187.039 51.8102 186.715 52.1175 186.429 52.2475C185.439 52.6969 184.61 51.8655 183.67 51.8961C183.497 51.9019 183.144 51.7308 183.192 51.9567C183.396 52.9041 182.346 53.5279 182.616 54.4797C182.701 54.7819 182.642 55.1316 182.615 55.4567C182.586 55.8133 182.55 56.2493 182.21 56.3933C181.921 56.516 181.676 56.1789 181.527 55.9336C181.229 55.4406 180.562 55.9896 180.22 55.3378C179.827 54.5909 179.688 53.8131 179.713 53.0631C179.776 51.2191 179.231 49.5022 178.824 47.7553C178.708 47.2537 178.654 46.8838 179.127 46.5544C179.57 46.2456 179.897 46.2837 180.44 46.4765C181.508 46.8553 182.352 47.5097 183.213 48.1694C183.693 48.537 184.152 48.4986 184.552 48.1324C185.51 47.258 186.342 46.3057 186.409 44.8974C186.532 42.3091 187.706 40.0708 188.758 37.782C189.006 37.2421 189.141 36.6077 189.325 36.0165C189.537 35.3352 189.964 34.8083 190.542 34.4271C191.154 34.0234 191.726 34.1483 192.359 34.5429C194.092 35.6216 194.916 35.4138 196.154 33.768C197.48 32.0044 198.748 30.1886 200.194 28.5279C200.862 27.7613 201.332 26.8154 202.238 26.2251C203.005 25.7255 203.763 25.3895 204.614 25.7947C205.537 26.233 206.187 25.8772 206.808 25.259C208.488 23.5872 209.962 21.7493 211.214 19.7379C212.167 18.2046 213.186 16.713 214.389 15.3734C215.293 14.3661 216.44 13.6786 217.886 14.0009C219.094 14.2705 219.971 13.8009 220.791 12.9838C222.849 10.9302 224.462 8.53262 226.084 6.14503C227.977 3.35873 229.617 0.403174 231.668 -2.27952C232.154 -2.91573 232.598 -3.60868 233.518 -3.75832C233.614 -3.05082 233.143 -2.72082 232.807 -2.35387C232.077 -1.55489 231.453 -0.685684 230.936 0.260893C230.87 0.381186 230.723 0.591824 230.929 0.684698C231.157 0.787147 231.162 0.569508 231.273 0.407451C232.027 -0.694863 232.521 -2.0164 233.776 -2.71554C234.087 -2.88882 234.415 -3.34185 234.619 -2.59541C234.692 -2.32704 234.954 -2.5427 235.126 -2.52921C235.294 -2.51574 235.569 -2.476 235.523 -2.35415C235.34 -1.87886 235.711 -1.31397 235.465 -0.971849C234.493 0.381698 233.659 1.84738 233.018 3.34002C232.302 5.01117 230.982 6.43477 230.848 8.35301C229.791 8.92854 230.34 10.416 229.223 11.0675C228.497 11.4901 228.476 12.5975 228.199 13.3727C227.66 14.8813 226.617 15.8979 225.569 16.9592C225.812 16.015 226.726 15.4949 227.041 14.592C226.284 15.596 225.337 16.4171 224.488 17.3618C224.988 17.4779 225.059 16.656 225.583 16.9459" fill="#EA552B"/>
<path fill-rule="evenodd" clip-rule="evenodd" d="M213.979 48.0555C213.014 47.8265 213.014 47.8265 212.777 49.0149C213.208 48.6713 213.564 48.3865 213.979 48.0555M204.73 46.1194C204.622 46.4982 204.486 46.8041 204.822 47.0365C205.163 47.2717 205.532 47.2353 206.146 46.9116C205.364 46.9434 205.175 46.4372 204.73 46.1194M241.948 17.4425C241.223 17.9072 240.82 18.6308 240.336 19.2845C240.813 18.6195 242.135 18.7838 241.948 17.4425M238.924 23.7653C238.957 23.8055 238.991 23.8452 239.024 23.8852C239.779 23.2683 240.536 22.6542 241.283 22.0293C241.33 21.9904 241.344 21.8296 241.305 21.7874C241.18 21.6494 240.985 21.6513 240.868 21.7673C240.211 22.424 239.571 23.0974 238.924 23.7653M242.958 22.8837C241.965 23.8569 240.838 24.6794 239.803 25.6063C241.175 25.0594 242.06 23.9639 242.958 22.8837M211.821 44.4725C211.35 44.8592 210.866 45.2309 210.42 45.6439C210.299 45.756 209.872 45.6962 210.1 46.0827C210.268 46.3675 210.482 46.3273 210.762 46.2602C211.658 46.0447 211.646 45.2197 211.821 44.4725M229.379 24.3261C230.357 24.5079 230.858 23.6797 231.553 23.2522C231.715 23.1523 231.725 22.9849 231.64 22.827C231.573 22.7023 231.407 22.6205 231.328 22.7302C230.817 23.4445 229.622 23.3061 229.379 24.3261M239.28 20.531C238.999 20.6128 236.519 22.2397 236.333 22.461C236.247 22.5618 236.139 22.6752 236.259 22.794C236.342 22.8767 236.482 22.9529 236.594 22.9488C237.385 22.9182 239.044 21.4127 239.28 20.531M225.581 37.8968C226.013 37.8435 226.255 37.301 226.797 37.5531C226.558 38.1054 226.135 38.4384 225.633 38.6628C225.361 38.7849 225.105 38.8923 224.909 39.1327C224.443 39.7039 223.999 39.9861 223.469 39.1446C223.227 38.7604 221.37 38.9146 220.968 39.286C220.468 39.7478 219.746 40.1624 219.483 40.6466C218.776 41.9458 217.603 43.043 217.49 44.636C217.469 44.944 217.226 45.0536 217.077 45.2551C216.524 45.9982 215.533 46.4583 215.652 47.6504C215.698 48.1168 215.164 47.443 214.898 47.8656C214.597 48.341 214.061 48.6797 213.593 49.033C212.448 49.8971 211.572 50.0046 210.644 48.993C210.04 48.3339 209.912 48.7948 209.583 49.1386C209.506 48.6802 209.635 48.1035 208.887 48.5001C208.399 48.7591 208.046 48.236 207.637 48.0896C207.35 47.987 207.746 47.8783 207.837 47.7591C207.995 47.5524 208.182 47.3151 208.052 47.0089C207.775 47.1386 207.53 46.5583 207.201 47.0102C206.994 47.2945 206.592 47.3172 206.167 47.2776C206.822 47.7784 206.542 48.5422 206.837 49.145C207.056 49.5937 207.148 50.1269 207.538 50.4863C207.804 50.7314 207.666 51.011 207.471 50.9034C206.895 50.5847 206.151 50.9166 205.653 50.3527C205.458 50.1315 205.571 50.0092 205.665 49.8493C205.762 49.6852 206.264 49.5532 205.962 49.41C205.377 49.133 205.22 48.5873 204.873 48.165C204.643 49.0403 204.229 48.0563 203.886 48.2351C203.806 48.2771 203.379 47.7784 203.738 47.5576C204.667 46.9855 204.125 46.3093 203.781 45.8661C203.244 45.1745 203.397 44.5959 203.709 43.9345C204.115 43.903 204.035 44.743 204.6 44.436C205.058 44.187 204.737 43.782 204.807 43.4566C204.845 43.2794 204.907 43.0403 204.664 42.9408C204.425 42.8432 204.305 43.0747 204.189 43.2027C203.567 43.8855 203.18 43.1221 203.226 42.8652C203.374 42.0424 203.126 41.1857 203.464 40.3948C203.823 39.5563 204.372 39.4621 204.975 40.1235C205.037 40.1917 205.135 40.2486 205.226 40.2671C207.181 40.6734 207.87 42.3357 208.691 43.8292C209.393 45.1054 209.468 45.1294 210.503 44.068C211.709 42.8317 212.528 41.3294 213.443 39.8956C214.496 38.2441 215.479 36.5431 216.822 35.1033C217.888 33.961 219.178 33.4387 220.727 34.0148C221.537 34.3156 222.062 34.0761 222.566 33.3961C224.244 31.1311 225.493 28.619 226.803 26.144C227.448 24.926 228.246 23.799 229.068 22.729C230.031 21.4758 231.532 20.9734 233.104 21.4177C234.568 21.832 235.692 21.4393 236.796 20.5028C239.889 17.878 242.433 14.7521 244.956 11.6102C247.56 8.36893 250.009 5.00996 252.394 1.60436C252.525 1.41805 252.677 1.23387 252.857 1.09869C253.146 0.880703 253.532 0.623639 253.832 0.885488C254.071 1.09418 253.711 1.40619 253.628 1.67589C253.548 1.93274 253.116 2.20104 253.447 2.43536C253.798 2.68402 253.968 2.19934 254.217 2.0268C254.557 1.7924 255.08 0.832931 255.113 2.208C255.115 2.27401 255.209 2.37079 255.281 2.39817C256.646 2.91555 256.8 4.01679 255.888 5.2543C255.255 6.11281 254.691 7.06667 254.213 8.0184C253.278 9.87965 252.073 11.5655 250.987 13.3228C249.091 16.3936 247.029 19.3633 244.718 22.1463C243.369 23.7708 241.819 25.1672 239.991 26.235C239.699 26.4061 239.429 26.5697 239.327 26.9374C239.684 27.025 240.016 26.9607 240.343 26.8352C239.813 27.0406 239.315 27.3792 238.688 27.1359C238.425 27.0344 238.227 27.1829 237.983 27.2859C237.652 27.4248 237.089 27.7239 236.999 26.9455C236.992 26.8875 236.954 26.8326 236.93 26.7762C236.352 27.3867 236.059 26.3858 235.587 26.5318C234.988 26.7178 234.412 26.696 233.813 26.5433C233.365 26.4297 232.989 26.6807 232.678 26.9495C232.404 27.1858 232.316 27.8875 231.796 27.1881C231.787 27.1766 231.564 27.2805 231.491 27.3707C231.355 27.5357 231.462 27.7083 231.603 27.7833C232.005 27.9969 232.139 28.3523 231.86 28.6582C231.418 29.1442 231.456 29.9305 230.836 30.2621C230.514 30.4349 230.416 29.9199 230.052 29.9C230.13 30.454 229.43 30.9954 230.132 31.5293C230.158 31.5489 230.141 31.695 230.108 31.7117C229.538 31.9997 229.649 32.3163 229.823 32.8788C230.008 33.4778 229.317 33.9476 228.965 34.4497C228.91 34.5278 228.807 34.6535 228.832 34.6957C229.499 35.8426 228.107 35.6923 227.843 36.2541C227.763 36.4254 227.55 36.3499 227.34 36.2516C226.493 35.8555 226.107 36.0891 225.969 36.943C225.917 37.2652 225.721 37.5639 225.581 37.8968" fill="#EA552B"/>
<path fill-rule="evenodd" clip-rule="evenodd" d="M244.065 23.6928C243.65 24.5183 243.022 25.1216 242.102 25.6723C242.544 24.6373 243.562 24.4198 244.065 23.6928" fill="#EA552B"/>
<path fill-rule="evenodd" clip-rule="evenodd" d="M72.1396 282.76C74.8877 277.616 77.5598 272.602 80.2468 267.594C81.2495 265.726 82.1723 263.8 83.338 262.037C84.8437 259.759 86.823 259.767 88.8161 260.872C94.1882 263.852 95.4284 268.907 96.2513 274.307C96.4594 275.674 96.8112 277.021 97.1264 278.371C97.5721 280.282 97.75 280.336 99.3629 279.075C102.189 276.865 103.96 273.796 105.938 270.903C108.664 266.913 111.052 262.692 114.035 258.878C115.254 257.319 117.608 256.503 118.762 257.283C119.954 258.088 121.062 259.042 122.108 260.037C124.981 262.771 126.085 266.404 126.951 270.108C128.531 276.874 130.344 283.593 131.263 290.499C131.385 291.414 131.767 292.395 131.301 293.228C130.844 294.047 130.235 295.509 129.151 293.638C128.98 293.344 128.787 293.098 128.393 293.112C125.742 293.211 125.297 291.168 124.717 289.28C123.022 283.766 121.346 278.244 119.644 272.731C119.479 272.197 119.509 271.357 118.767 271.346C118.236 271.338 118.122 272.111 117.801 272.519C115.472 275.481 114.172 279.059 112.048 282.143C110.879 283.839 109.672 285.497 108.131 286.883C107.141 287.771 106.182 288.661 104.681 288.533C104.255 288.496 103.692 288.661 103.379 288.942C101.507 290.622 99.8104 289.358 98.0798 288.7C93.3137 286.887 90.2542 283.46 88.6376 278.667C88.5811 278.5 88.388 278.378 88.1415 278.105C87.4031 279.27 86.5205 280.139 85.9356 281.45C83.8429 286.148 81.8447 290.91 78.8291 295.154C77.639 296.828 76.0147 297.587 74.2131 297.776C72.6617 297.938 71.5592 296.352 69.9473 296.068C66.8165 295.519 65.5801 292.934 64.5559 290.299C64.0789 289.07 63.7469 287.785 63.3448 286.511C60.9317 287.864 60.3691 290.489 59.1842 292.564C57.4173 295.658 55.3703 298.516 53.2768 301.362C51.9342 303.188 51.0122 305.291 49.1151 306.76C47.5467 307.974 46.2616 306.838 45.1034 306.44C44.3032 306.165 43.8096 304.722 44.7125 303.394C51.0178 294.119 55.4409 283.917 59.2364 273.413C59.9723 271.377 61.6864 270.005 62.9613 270.554C64.1959 271.085 65.3521 271.855 66.4425 272.657C69.156 274.651 70.3628 277.58 71.2279 280.703C71.4002 281.323 71.3262 282.043 72.1396 282.76" fill="#EA552B"/>
<path fill-rule="evenodd" clip-rule="evenodd" d="M123.752 226.938C123.839 227.14 123.926 227.341 124.014 227.543C125.071 227.014 126.127 226.486 127.184 225.957C127.12 225.811 127.057 225.665 126.993 225.519C125.913 225.991 124.832 226.465 123.752 226.938M227.893 73.4615C227.874 73.2929 227.855 73.1244 227.837 72.9566C221.773 73.6143 215.709 74.2714 209.646 74.9282C209.668 75.1311 209.691 75.3338 209.714 75.5366C215.774 74.8446 221.833 74.1534 227.893 73.4615M146.365 193.611C171.508 185.13 195.956 175.028 218.593 160.696C195.327 173.559 171.207 184.428 146.365 193.611M136.514 185.913C136.583 186.084 136.651 186.255 136.72 186.427C142.456 184.323 148.216 182.288 153.922 180.101C168.989 174.327 183.98 168.351 198.504 161.226C204.382 158.342 210.169 155.258 215.959 152.185C218.897 150.626 221.746 148.886 224.637 147.233C225.749 146.598 226.867 145.975 227.982 145.346C227.876 145.139 227.769 144.932 227.664 144.724C198.522 161.359 167.902 174.533 136.514 185.913M219.621 172.061C219.476 171.891 219.33 171.72 219.185 171.549C217.033 173.261 214.952 175.08 212.716 176.666C207.549 180.333 202.383 184.01 197.078 187.455C190.775 191.548 184.353 195.45 177.916 199.315C176.918 199.915 175.896 201.38 174.358 200.193C174.321 200.165 173.96 200.596 173.751 200.812C173.086 201.503 172.537 202.435 171.737 202.848C159.491 209.184 147.212 215.456 134.936 221.73C133.143 222.646 131.32 223.499 129.511 224.381C130.644 224.361 131.639 224.018 132.575 223.548C145.657 216.979 158.738 210.405 171.798 203.789C173.09 203.134 173.713 203.139 173.79 204.864C173.814 205.434 174.283 205.988 174.548 206.55C174.763 205.971 175.031 205.408 175.182 204.811C175.525 203.457 175.016 201.966 176.746 200.969C183.297 197.197 189.779 193.285 196.174 189.236C200.404 186.558 204.452 183.569 208.565 180.694C211.242 178.822 213.924 176.954 216.535 174.985C217.655 174.14 218.598 173.044 219.621 172.061M35.4905 188.651C35.5948 188.786 35.6997 188.921 35.8031 189.056C38.1494 186.865 40.4439 184.612 42.8506 182.496C51.366 175.009 60.3467 168.158 70.0391 162.414C78.5645 157.361 87.0965 152.226 96.0164 148.004C107.22 142.701 118.766 138.142 130.279 133.568C135.112 131.647 140.236 130.494 145.236 129.025C148.159 128.166 151.098 127.362 154.034 126.551C156.993 125.734 159.957 124.939 162.919 124.133C160.539 124.235 158.176 124.375 155.955 125.02C149.175 126.988 142.427 129.081 135.706 131.252C118.12 136.928 100.958 143.735 84.7914 152.885C75.2127 158.306 65.8859 164.23 56.6434 170.253C48.8063 175.361 41.6745 181.451 35.4905 188.651M174.187 80.1637C146.87 84.1552 104.76 97.6497 59.4323 131.967C47.9266 140.679 37.2506 150.48 27.7912 161.611C69.0546 119.355 117.817 91.5861 174.187 80.1637M248.054 78.6558C247.792 79.0249 247.541 79.7089 247.265 79.7162C244.558 79.79 241.847 79.7389 239.136 79.7558C238.627 79.7588 238.119 79.9053 237.611 79.985C238.009 80.3204 238.362 80.7609 238.812 80.9732C241.409 82.2002 244.079 83.2655 246.631 84.5843C255.246 89.0379 261.216 95.9834 264.126 105.551C264.917 108.146 265.052 110.951 265.574 114.194C270.466 108.967 274.295 103.735 275.925 97.1703C276.72 93.9722 276.411 90.5664 273.865 88.0336C268.718 82.9144 262.012 81.865 255.469 80.4322C252.961 79.8824 250.143 80.7814 248.054 78.6558M143.534 135.311C143.818 134.805 144.102 134.296 144.452 133.672C143.929 133.684 143.492 133.576 143.172 133.727C142.454 134.064 141.795 134.531 141.112 134.946C141.941 135.042 142.769 135.138 143.598 135.234C143.166 135.699 142.806 136.422 142.287 136.573C141.299 136.861 140.136 136.6 139.198 136.971C137.843 137.506 136.692 138.581 135.337 139.113C124.899 143.21 114.378 147.088 104.004 151.348C99.916 153.027 96.0715 155.385 92.2357 157.65C85.7161 161.499 78.5925 164.201 72.466 168.793C71.9506 169.179 71.2038 169.222 70.6679 169.587C68.6498 170.958 66.6416 172.349 64.6948 173.825C62.8975 175.187 61.2481 176.766 59.4145 178.069C57.6436 179.327 55.6851 180.297 53.8709 181.494C48.9977 184.711 45.3875 189.361 41.5294 193.684C39.3974 196.075 37.7381 198.95 36.0403 201.724C35.1486 203.18 34.5668 204.862 33.9672 206.494C33.3196 208.256 34.2345 208.981 35.8145 208.915C40.4653 208.722 45.1809 208.894 49.749 208.159C71.1959 204.706 91.8683 198.123 112.477 191.396C124.004 187.634 135.405 183.457 146.787 179.251C165.617 172.294 184.184 164.656 202.26 155.798C214.981 149.565 227.481 142.91 239.482 135.279C241.008 134.309 240.734 133.692 239.588 132.733C235.773 129.539 231.183 127.865 226.625 126.961C220.767 125.8 214.709 125.821 208.742 125.273C208.316 125.233 207.949 124.648 207.513 124.398C206.993 124.099 206.427 123.887 205.881 123.639C205.726 123.918 205.57 124.197 205.415 124.475C205.96 124.492 206.507 124.508 207.052 124.525C206.955 124.717 206.857 124.909 206.76 125.102C205.709 125.08 204.576 124.786 203.625 125.087C200.635 126.033 197.533 125.481 194.499 125.963C189.336 126.784 184.099 127.142 178.892 127.678C177.525 127.819 176.139 127.823 174.785 128.033C173.57 128.22 172.386 128.6 171.19 128.901C170.3 129.125 169.408 129.348 168.523 129.592C167.695 129.82 166.705 130.51 166.083 130.239C164.242 129.435 162.827 130.35 161.361 131.032C160.09 131.623 158.958 132.426 157.854 130.714C157.677 130.439 157.055 130.45 156.632 130.39C156.578 130.382 156.359 130.849 156.422 130.936C157.498 132.438 155.999 131.909 155.546 132.121C154.937 132.405 154.282 132.59 153.641 132.798C152.545 133.156 151.448 133.509 150.346 133.843C149.009 134.249 147.399 134.285 146.399 135.119C145.287 136.048 144.515 135.672 143.534 135.311M57.054 150.13C54.9314 151.577 52.699 152.882 50.7018 154.498C41.5621 161.894 33.4715 170.414 26.6354 180.133C24.2644 183.504 22.6809 187.479 20.6869 191.146C18.2623 195.602 17.2838 200.412 17.8587 205.493C18.026 206.976 18.655 208.815 19.6908 209.713C22.0573 211.768 25.0107 212.693 28.3551 213.019C25.496 209.202 23.9051 205.202 25.544 200.801C26.6833 197.743 28.2336 194.749 30.1104 192.126C35.8294 184.134 43.2545 177.968 50.8731 172.08C62.8262 162.842 75.6937 155.148 89.0198 148.257C106.29 139.326 124.194 132.055 142.872 126.873C149.338 125.079 155.856 123.454 162.389 121.928C175.68 118.824 189.178 117.282 202.832 117.233C210.256 117.206 217.632 117.61 224.977 119.345C232.449 121.112 239.363 123.537 243.993 130.47C244.556 131.313 245.087 131.546 245.955 130.874C248.03 129.268 250.211 127.809 252.25 126.16C253.912 124.816 255.875 123.569 256.925 121.776C259.272 117.775 260.429 113.28 259.93 108.459C259.541 104.693 258.355 101.046 255.813 98.4425C252.767 95.3211 249.582 91.9824 245.328 90.7365C243.273 90.1354 242.087 87.5497 239.587 88.2211C239.384 88.2764 239.015 87.6243 238.7 87.3259C237.725 86.4035 236.068 87.0685 235.282 85.6997C235.175 85.7767 235.078 85.8849 234.959 85.925C234.434 86.0998 233.866 86.4771 233.379 86.3849C227.53 85.2749 221.71 84.0039 215.746 83.7188C210.28 83.4581 204.919 83.6569 199.536 84.8963C196.19 85.6663 192.947 87.4017 189.263 86.652C188.555 86.508 187.695 87.7327 186.81 87.995C180.992 89.7238 175.184 91.5131 169.301 92.9862C163.572 94.422 158.359 97.6357 152.255 97.8768C150.856 97.9319 149.017 98.218 147.98 100.126C147.515 100.98 145.692 100.245 144.44 101.198C143.104 102.215 141.079 102.258 139.355 102.73C139.296 102.746 139.256 102.827 139.198 102.852C135.494 104.431 132.008 106.514 128.412 108.248C114.794 114.815 101.254 121.501 88.2598 129.317C85.3316 131.078 82.5057 133.051 79.4706 134.582C75.4154 136.629 71.1702 138.215 67.8678 141.651C66.6333 142.935 64.8106 143.594 63.3 144.609C62.7152 145.002 62.2522 145.589 61.7336 146.089C60.1739 147.436 58.6143 148.783 57.054 150.13M193.447 183.261C192.975 183.691 192.571 184.287 192.021 184.524C182.582 188.584 173.244 192.938 163.639 196.539C151.403 201.127 138.964 205.145 126.577 209.299C123.438 210.352 120.148 210.925 116.963 211.841C114.951 212.421 113.036 213.355 111.019 213.909C105.762 215.351 100.478 216.703 95.1861 218.01C94.2639 218.238 93.2247 217.946 92.283 218.126C91.7069 218.237 91.2535 218.999 90.6768 219.11C85.6694 220.085 80.6659 221.107 75.6232 221.863C68.7662 222.891 61.9023 224.047 54.9948 224.518C44.4583 225.235 33.8835 225.188 23.9958 220.184C17.5207 216.908 11.7086 212.892 9.44965 205.055C7.81683 199.39 8.44418 193.988 10.6017 188.801C12.2307 184.883 14.3918 181.215 16.2257 177.388C16.7338 176.328 16.8221 175.053 17.2801 173.959C17.9899 172.264 18.6346 170.47 19.684 169.015C25.5983 160.813 32.4741 153.52 39.8497 146.769C45.3097 141.772 50.8754 136.863 56.692 132.327C75.2874 117.822 95.0035 105.237 116.521 95.8345C130.9 89.5519 145.603 84.1695 160.864 80.708C170.077 78.6174 179.514 77.5299 188.862 76.0655C196.432 74.8798 204.019 73.8106 211.598 72.6786C225.492 70.6037 239.437 69.9439 253.428 72.0378C260.425 73.0845 267.143 75.1177 272.972 79.6671C279.676 84.8975 283.26 95.5416 280.808 103.815C278.812 110.544 275.33 116.374 270.451 121.263C267.893 123.826 265.205 126.28 262.892 129.068C260.919 131.445 259.57 134.379 257.636 136.798C254.614 140.579 251.263 144.071 248.199 147.817C247.217 149.016 246.789 150.691 245.956 152.046C243.693 155.727 241.723 159.703 238.952 162.919C234.701 167.851 229.944 172.318 225.274 176.838C222.779 179.252 220.016 181.366 217.373 183.614C215.268 184.087 213.582 185.151 212.624 187.24C209.471 189.404 206.324 191.576 203.161 193.724C202.48 194.186 201.743 194.558 201.038 194.963C198.477 196.545 195.909 198.137 193.34 199.727C192.534 200.513 191.837 201.494 190.904 202.052C172.132 213.275 152.741 223.22 132.69 231.776C120.058 237.165 107.519 242.816 94.7018 247.699C83.4585 251.982 71.8962 255.387 60.4525 259.107C58.6239 259.702 56.6684 259.878 54.7876 260.32C52.621 260.828 50.634 260.448 48.7759 259.161C48.5616 259.011 48.3099 258.907 48.0628 258.822C47.4102 258.595 46.7499 258.39 46.0927 258.177C46.5577 257.686 47.024 257.193 47.5455 256.642C47.3786 256.538 47.2384 256.411 47.0764 256.355C46.4412 256.14 45.7992 255.948 45.1595 255.746C45.7649 255.213 46.2959 254.355 46.9849 254.194C70.221 248.724 91.8101 238.646 113.544 229.032C138.964 217.787 163.832 205.344 187.688 190.847C193.181 187.509 198.576 183.983 203.891 180.348C207.772 177.694 211.449 174.721 214.985 171.486C213.037 172.549 211.104 173.646 209.135 174.668C204.987 176.821 200.809 178.915 196.67 181.087C196.114 181.378 195.71 181.981 195.237 182.439C194.64 182.713 194.044 182.987 193.447 183.261" fill="#EA552B"/>
<path d="M85.6317 32.8833C77.098 26.5794 73.4712 17.7257 71.3378 8.09292C70.1289 2.70987 69.5599 -2.74401 70.2711 -8.26871C70.5555 -10.6061 70.9822 -12.8726 71.9778 -14.9975C72.6178 -16.2725 73.329 -17.4766 74.3246 -18.539C76.1736 -20.5222 78.7337 -20.8764 81.2227 -19.7431C82.7872 -19.0348 84.0672 -17.8307 85.1339 -16.5558C86.9829 -14.2892 88.3341 -11.7394 89.4008 -9.04784C92.2454 -1.96488 93.1698 5.47222 93.0276 13.1218C92.8854 18.2215 92.3165 23.3213 91.2497 28.2793C91.1786 28.6335 91.1786 28.9168 91.1075 29.3418C93.0987 30.3334 95.2321 30.5459 97.4367 30.6167C106.61 31.0417 115.571 29.6959 124.247 26.7211C127.091 25.7295 129.865 24.5962 132.567 23.2504C137.83 20.7714 142.31 17.1591 145.865 12.626C146.505 11.8469 147.145 11.0678 147.857 10.2886C147.928 10.2178 148.07 10.2178 148.426 10.2178C148.283 10.7136 148.212 11.0678 148.07 11.4219C145.297 17.3008 141.243 22.0463 135.838 25.7295C129.082 30.2626 121.615 33.0957 113.722 34.654C107.25 35.9289 100.779 36.4956 94.2365 35.7164C92.8143 35.5748 91.3209 35.2206 89.7564 34.9373C89.6141 35.2915 89.4719 35.7164 89.3297 36.1414C87.4096 42.5869 85.1339 48.8199 81.8627 54.6988C79.2315 59.4443 76.1736 63.8358 72.2623 67.6606C70.1289 69.7146 67.7821 71.5562 65.1509 72.902C58.395 76.3018 52.2081 75.2393 47.0879 69.7146C46.8034 69.4313 46.519 69.148 46.0923 68.723C45.8078 69.5021 45.5945 70.0688 45.31 70.7062C43.4611 75.806 41.3987 80.8349 38.7675 85.6513C36.4919 89.7594 33.8606 93.655 30.4472 96.984C28.8115 98.6131 27.0337 99.9588 24.9714 101.021C19.9934 103.5 15.2287 103.146 10.6774 99.888C9.82406 99.3214 9.11292 98.6131 8.18844 97.9048C7.90398 98.6839 7.69064 99.2506 7.4773 99.888C5.55721 105.554 3.21045 111.15 0.294768 116.391C-0.416373 117.737 -1.26974 119.012 -2.19423 120.216C-2.62091 120.854 -3.33205 121.279 -3.97208 121.774C-4.54099 122.128 -5.18102 122.128 -5.67882 121.562C-6.17662 120.995 -5.96328 120.429 -5.53659 119.862C-4.68322 118.658 -3.90097 117.383 -3.18982 116.108C0.365882 109.662 3.06822 102.863 5.27276 95.9216C5.4861 95.2841 5.62833 94.6466 5.13053 94.0092C0.508111 87.4928 -1.90977 80.1266 -3.40317 72.3353C-5.53659 61.4984 -5.96328 50.5198 -4.68322 39.5412C-4.25654 35.7873 -3.5454 32.175 -1.98088 28.7043C-1.41197 27.4294 -0.70083 26.1544 0.15254 25.092C2.28596 22.4713 5.20164 22.3297 7.76175 24.5962C9.32626 26.0128 10.393 27.7127 11.2463 29.6251C13.0242 33.3082 14.0198 37.2747 14.6598 41.312C15.9399 49.0324 15.9399 56.7528 15.1576 64.5441C14.2331 74.0352 12.3842 83.3847 9.82406 92.5217C9.53961 93.5842 9.53961 94.3633 10.4641 95.0716C11.6019 95.9924 12.6686 97.0548 13.8776 97.834C16.5799 99.5339 19.4245 99.6755 22.3402 98.4006C24.3313 97.5506 25.967 96.2757 27.4604 94.7883C30.0916 92.3093 32.1539 89.4052 34.074 86.3596C38.0564 79.8433 40.9721 72.8311 43.3899 65.6065C43.6033 64.969 43.6744 64.4732 43.3188 63.8358C40.1187 57.3903 38.6964 50.449 37.9853 43.366C37.203 35.7164 37.2741 28.0668 38.5542 20.4881C39.052 17.5841 39.692 14.6801 40.9009 11.9885C41.3987 10.8553 42.0388 9.72199 42.821 8.80121C44.7411 6.53466 47.4434 6.6055 49.2213 8.94287C50.0747 10.0761 50.7147 11.3511 51.2125 12.6968C52.5637 16.4508 52.9903 20.4173 53.2748 24.3837C53.9859 37.0622 51.8525 49.4574 48.2968 61.5692C48.1546 61.9942 48.0835 62.4192 47.8701 62.8442C47.5857 63.5525 47.7279 64.1899 48.1546 64.7566C49.1502 66.0315 50.0747 67.4481 51.2836 68.5105C54.0571 71.1312 57.3994 71.7687 60.9551 70.3521C62.8041 69.6438 64.582 68.5105 66.2176 67.3064C69.0621 65.1815 71.3378 62.49 73.4001 59.6568C77.7381 53.7071 80.796 47.0492 83.2139 40.1079C84.0672 37.9122 84.7784 35.4331 85.6317 32.8833ZM6.83727 90.326C7.05061 89.9011 7.12172 89.7594 7.19284 89.5469C7.33507 89.1928 7.40618 88.7678 7.54841 88.4136C10.1796 79.135 11.9575 69.6438 12.5264 60.011C12.9531 52.9989 12.8109 45.9867 11.2463 39.0454C10.5352 35.9289 9.75295 32.8833 8.18844 30.0501C7.4773 28.846 6.62393 27.7127 5.62833 26.7211C4.70384 25.8003 3.63713 25.8711 2.85488 27.0044C2.14374 27.996 1.50371 29.1293 1.07702 30.2626C-0.487488 34.1582 -1.0564 38.2663 -1.41197 42.4452C-2.12311 51.5823 -1.62531 60.6484 -0.0608025 69.7146C1.07702 76.1601 2.71265 82.4639 5.69944 88.3428C6.05501 88.8386 6.33947 89.4761 6.83727 90.326ZM86.9118 26.8627C87.1251 26.0128 87.2674 25.4462 87.3385 24.9503C87.6229 22.9671 87.9785 21.0547 88.1918 19.0715C88.9741 11.9177 88.7608 4.83476 86.9829 -2.17737C86.0584 -5.78968 84.7784 -9.1895 82.7161 -12.306C81.9338 -13.4393 81.0093 -14.4309 80.0137 -15.3517C78.6626 -16.4849 77.7381 -16.2016 76.8136 -14.7142C76.458 -14.1476 76.1736 -13.5101 76.0313 -12.8726C75.6758 -11.2436 75.2491 -9.54364 75.1068 -7.84373C74.609 -1.68156 75.4624 4.33895 77.1692 10.2886C78.6626 15.3884 80.8671 20.1339 84.3517 24.2421C85.0628 25.092 85.9162 25.8711 86.9118 26.8627ZM46.3056 11.1386C46.1634 11.1386 45.95 11.1386 45.8078 11.2094C45.4523 11.8469 44.9544 12.4135 44.67 13.051C44.1722 14.3967 43.6033 15.8133 43.2477 17.2299C41.541 24.0296 41.2565 30.9709 41.6121 37.983C41.8965 44.3576 42.7499 50.7323 44.5989 56.8945C44.7411 57.3903 44.9545 57.8861 45.1678 58.3819C45.5945 57.8153 45.8789 57.2486 45.95 56.682C46.8034 52.503 47.8701 48.3949 48.5102 44.216C49.7902 36.6372 50.2169 28.9876 49.2924 21.4089C49.008 18.859 48.2968 16.3091 47.5857 13.8301C47.4434 12.8385 46.8034 11.9885 46.3056 11.1386Z" fill="#EA552B" stroke="#EA552B" stroke-width="1.75025"/>
<path d="M255.241 258.807C253.027 271.494 256.558 280.132 261.839 287.538C264.778 291.695 268.276 295.186 272.843 297.309C274.762 298.225 276.742 298.947 279.073 298.971C280.505 298.938 281.942 298.789 283.503 298.254C286.408 297.266 288.699 294.64 289.856 291.31C290.586 289.219 290.731 287.18 290.655 285.338C290.483 282.116 289.709 279.292 288.607 276.706C285.737 269.858 281.085 264.934 275.432 261.07C271.625 258.546 267.479 256.49 263.04 255.056C262.727 254.948 262.522 254.799 262.158 254.654C263.022 251.946 264.563 249.49 266.263 247.032C273.245 236.731 281.34 227.596 290.388 219.63C293.367 217.026 296.391 214.576 299.513 212.315C305.49 207.837 311.667 204.814 317.775 203.291C318.848 202.998 319.921 202.704 321.051 202.332C321.158 202.292 321.271 202.135 321.554 201.745C321.082 201.64 320.769 201.532 320.399 201.502C313.937 201.459 307.279 203.417 300.317 207.418C291.665 212.457 283.68 219.17 276.279 227.021C270.214 233.46 264.661 240.27 260.027 247.866C258.999 249.503 258.069 251.33 257.031 253.197C256.662 253.167 256.241 253.1 255.82 253.033C249.626 251.754 243.303 250.978 236.445 251.482C230.917 251.878 225.307 252.929 219.429 255.215C216.246 256.479 213.047 258.088 209.982 260.271C202.151 265.905 198.004 273.26 197.937 281.788C197.917 282.249 197.896 282.71 197.865 283.402C197.074 283.305 196.494 283.242 195.807 283.219C190.644 282.57 185.362 282.192 179.783 282.551C174.999 282.892 170.087 283.734 164.963 285.734C162.484 286.675 160.096 287.92 157.688 289.627C151.937 293.792 148.408 299.212 147.151 305.924C146.883 307.159 146.831 308.312 146.61 309.7C145.819 309.603 145.239 309.54 144.608 309.439C138.978 308.57 133.061 308.207 126.948 308.655C125.408 308.729 123.806 308.996 122.199 309.378C121.399 309.512 120.526 310.07 119.658 310.512C118.95 310.951 118.441 311.654 118.456 312.499C118.471 313.343 119.051 313.407 119.8 313.236C121.35 312.931 122.895 312.742 124.384 312.631C131.878 312.113 138.95 312.719 145.729 313.945C146.361 314.046 146.935 314.225 147.002 315.107C148.048 323.609 151.463 330.136 155.919 335.872C162.073 343.911 169.686 350.15 178.655 354.514C181.713 356.018 184.895 357.135 188.652 357.241C190.027 357.286 191.516 357.175 192.963 356.796C196.557 355.83 198.976 352.702 199.369 348.698C199.586 346.235 199.202 344.17 198.495 342.228C197.24 338.339 195.158 335.161 192.743 332.336C188.168 326.872 182.576 322.814 176.311 319.579C168.702 315.606 160.461 312.723 151.808 310.733C150.813 310.487 150.249 310.077 150.47 308.69C150.707 306.956 150.785 305.226 151.182 303.488C152.098 299.626 154.255 296.427 157.496 293.895C159.693 292.154 161.916 291.028 164.18 290.169C168.067 288.582 171.809 287.843 175.541 287.334C183.425 286.385 190.821 286.868 197.975 288.009C198.606 288.109 199.022 288.292 199.201 289.018C201.326 295.92 205.224 301.131 209.789 305.635C214.708 310.514 220.305 314.457 226.812 317.034C229.311 318.013 231.923 318.837 234.833 318.923C236.049 318.972 237.379 318.865 238.667 318.489C241.835 317.572 243.931 314.566 243.65 311.385C243.507 309.852 243.093 308.479 242.513 307.224C240.868 303.767 238.334 301.214 235.687 298.817C227.069 291.372 216.396 287.201 204.798 284.741C204.377 284.674 204.013 284.528 203.535 284.539C202.796 284.48 202.448 283.988 202.376 283.222C202.244 281.458 201.952 279.698 202.143 277.812C202.449 273.388 204.643 269.381 208.495 266.22C210.477 264.562 212.71 263.204 214.882 262.041C218.681 260.033 222.439 258.948 226.13 258.171C233.886 256.533 241.139 256.674 248.087 257.666C250.356 257.883 252.717 258.405 255.241 258.807ZM151.025 315.168C151.503 315.157 151.662 315.153 151.872 315.187C152.242 315.216 152.606 315.362 152.976 315.392C161.787 317.378 170.074 320.414 177.504 324.851C182.922 328.068 187.887 331.91 191.672 337.277C193.364 339.696 194.949 342.156 195.758 345.363C196.065 346.777 196.207 348.31 196.135 349.925C196.067 351.425 195.168 352.559 193.726 352.823C192.442 353.083 191.113 353.19 189.953 353.063C185.888 352.734 182.461 351.2 179.151 349.394C171.968 345.373 165.797 340.061 160.473 333.578C156.709 328.94 153.443 323.83 151.558 317.46C151.481 316.809 151.246 316.161 151.025 315.168ZM260.619 260.566C261.404 260.778 261.928 260.92 262.344 261.102C264.006 261.832 265.674 262.446 267.28 263.254C273.083 266.155 278.044 270.112 281.71 275.75C283.592 278.664 285.037 281.857 285.656 285.761C285.855 287.216 285.839 288.752 285.714 290.33C285.462 292.41 284.522 293.276 282.71 293.51C282.017 293.603 281.329 293.58 280.754 293.401C279.292 292.936 277.722 292.511 276.377 291.774C271.519 289.082 267.836 284.98 264.883 279.978C262.376 275.658 260.69 270.742 260.483 264.755C260.433 263.527 260.546 262.18 260.619 260.566ZM239.743 313.433C239.63 313.59 239.461 313.824 239.296 313.943C238.552 313.998 237.746 314.247 237.058 314.225C235.688 314.064 234.21 313.945 232.901 313.591C226.62 311.892 221.366 308.556 216.57 304.48C212.179 300.817 208.24 296.529 205.245 291.26C204.999 290.843 204.81 290.348 204.62 289.853C205.37 289.682 206.006 289.668 206.473 289.887C210.178 291.146 214.001 292.134 217.536 293.627C224.043 296.204 229.923 299.756 234.677 304.755C236.298 306.407 237.58 308.529 238.811 310.613C239.416 311.29 239.523 312.44 239.743 313.433Z" fill="#EA552B" stroke="#EA552B" stroke-width="1.75025"/>
</g>
</svg>
