<svg width="280" height="318" viewBox="0 0 280 318" fill="none" xmlns="http://www.w3.org/2000/svg">
<mask id="mask0_1633_8838" style="mask-type:alpha" maskUnits="userSpaceOnUse" x="0" y="0" width="280" height="318">
<rect width="280" height="318" rx="25" fill="#741747"/>
</mask>
<g mask="url(#mask0_1633_8838)">
<path fill-rule="evenodd" clip-rule="evenodd" d="M154.367 254.413C154.45 254.608 154.534 254.806 154.611 255.012C154.725 254.973 154.823 254.952 154.911 254.932C155.024 254.907 155.122 254.886 155.219 254.837C155.239 254.768 155.258 254.7 155.278 254.633C155.43 254.106 155.567 253.632 155.567 253.09C155.567 248.634 155.567 244.179 155.48 239.723C155.48 239.286 155.48 238.762 155.219 238.5C154.785 238.063 154.263 237.626 153.741 237.626C153.393 237.626 152.785 238.151 152.611 238.675C152.35 239.199 152.35 239.898 152.437 240.509C152.828 244.283 153.29 247.985 153.758 251.744C153.81 252.163 153.863 252.582 153.915 253.002C153.976 253.496 154.168 253.945 154.367 254.413ZM180.849 257.5C181.401 257.328 181.956 257.155 182.524 257.021C182.524 256.934 182.437 256.759 182.35 256.584L182.35 256.584H163.045C162.698 256.584 162.263 256.584 162.002 256.759C161.962 256.791 161.921 256.824 161.879 256.857L161.879 256.857C161.46 257.189 160.951 257.593 160.872 258.069C160.785 258.856 161.393 259.292 162.176 259.467C162.698 259.555 163.132 259.555 163.654 259.555L163.654 259.555C168.524 259.118 173.393 258.681 178.176 258.157C179.087 258.049 179.964 257.776 180.849 257.5ZM157.527 282.094C157.662 282.356 157.797 282.618 157.913 282.88C158.087 282.88 158.261 282.793 158.435 282.705L158.435 282.705C158.435 282.618 158.478 282.53 158.522 282.443C158.565 282.356 158.609 282.268 158.609 282.181V268.116C158.609 267.504 158.522 266.893 158.435 266.281C158.261 265.407 157.652 264.796 156.696 264.796C155.652 264.796 155.217 265.582 155.13 266.456C155.073 266.802 155.091 267.11 155.111 267.43C155.12 267.595 155.13 267.763 155.13 267.941L155.13 267.941C155.217 269.251 155.304 270.562 155.478 271.872L155.478 271.872C155.913 274.755 156.348 277.638 156.87 280.521C156.986 281.045 157.256 281.569 157.527 282.094ZM153.685 259.691L153.685 259.691L153.685 259.691C153.216 259.875 152.756 260.055 152.261 260.166C148.303 260.789 144.276 261.344 140.303 261.89L140.303 261.89L138.87 262.088C138.174 262.175 137.391 262.262 136.783 262C136.348 261.738 135.652 261.214 135.652 260.777C135.652 260.34 136.174 259.816 136.609 259.379C136.783 259.205 137.218 259.117 137.565 259.117L137.566 259.117C142.348 258.943 147.131 258.768 151.913 258.68C152.696 258.68 153.565 258.768 154.348 258.855C154.391 258.943 154.413 259.03 154.435 259.117C154.457 259.205 154.478 259.292 154.522 259.379C154.234 259.476 153.958 259.584 153.685 259.691Z" fill="#AB296C"/>
<path fill-rule="evenodd" clip-rule="evenodd" d="M118.588 35.3479C118.442 35.9212 118.373 36.1929 118.278 36.5648L117.891 36.7938C117.659 37.5522 117.444 38.287 117.209 39.0151C117.012 39.6295 116.756 40.2279 116.592 40.8502C116.41 41.5436 116.149 42.2094 115.997 42.9202C115.86 43.5616 115.897 44.2885 115.532 44.8525C115.106 45.5074 115.308 46.2739 115.023 46.9505C114.76 47.5753 114.613 48.2491 114.416 48.8998C114.43 48.9036 114.53 48.9291 114.653 48.9615C114.318 50.9773 113.932 52.9943 114.202 55.1698C114.167 55.2139 114.048 55.3634 113.902 55.547C114.037 55.5989 114.161 55.6464 114.288 55.695C114.342 56.8751 114.472 58.0733 114.491 59.25C114.514 60.6989 114.874 62.1248 114.676 63.5934C114.577 64.331 114.713 65.1465 114.942 65.8623C115.083 66.3007 114.788 66.3715 114.671 66.6347C114.825 66.7164 114.979 66.799 115.185 66.9086C115.228 67.844 115.273 68.8069 115.319 69.7989C115.08 69.7483 114.935 69.7173 114.707 69.669C114.515 70.0946 113.981 70.3942 114.33 71.3031C113.951 70.9806 113.716 70.7811 113.428 70.5355C113.299 71.1278 113.248 71.3603 113.184 71.6537C113.364 71.7505 113.532 71.8407 113.718 71.9403C113.722 72.2177 113.728 72.5358 113.733 72.8426C113.614 72.8899 113.486 72.9832 113.437 72.9529C113.073 72.7228 112.725 72.468 112.375 72.223C111.675 72.4798 112.096 73.0679 111.987 73.4948C111.886 73.4687 111.787 73.4423 111.648 73.4065C111.537 73.579 111.419 73.7625 111.295 73.9556C110.881 73.7643 110.49 73.5842 109.936 73.3282C109.203 72.2676 108.456 70.9767 107.491 69.8794C106.993 69.3122 106.679 68.5434 106.112 68.157C105.409 67.6766 105.318 66.8332 104.748 66.3879C104.12 65.8963 103.894 65.1279 103.361 64.6515C102.775 64.1286 102.518 63.3799 101.987 62.9023C100.722 61.7657 99.8969 60.2091 98.4547 59.258C98.267 58.5662 97.4004 58.2763 97.4075 57.4694C96.6579 57.0812 96.1466 56.433 95.5981 55.8201C94.824 54.9547 93.7824 54.3592 93.1608 53.3269C92.9848 53.0352 92.5853 52.8795 92.1019 52.5252C92.4758 53.9964 92.7961 55.259 93.1885 56.8034C93.1398 56.9327 92.977 57.3625 92.8125 57.7959C93.1539 58.1202 93.3941 58.3482 93.6502 58.592C93.8932 60.0737 94.71 61.561 94.3316 63.2108C95.0687 63.3245 95.0298 64.1323 95.4224 64.4867C95.5337 66.3453 96.3524 67.9203 96.8983 69.7875C96.8893 69.816 96.8136 70.0625 96.7415 70.2971C96.8606 71.0056 97.5158 71.443 97.4883 72.2533C97.4677 72.8413 97.7897 73.5252 98.1554 74.0205C98.6016 74.625 98.7948 75.3533 98.8277 75.9685C98.8686 76.7325 99.3838 77.1467 99.5767 77.8374C99.5253 78.0061 99.4499 78.2532 99.3454 78.5955C100.246 79.8519 100.775 81.3493 101.485 82.8046C101.391 83.0363 101.296 83.2676 101.175 83.5663L101.98 84.941C101.681 84.8878 101.543 84.8628 101.256 84.8108C101.725 85.4596 101.591 86.0681 101.295 86.7358C101.129 86.7379 100.938 86.7406 100.776 86.7432C100.481 87.8253 100.178 88.9365 99.9026 89.9505C99.4887 90.0582 99.1746 90.1392 98.7692 90.2445C98.666 90.1751 98.4724 90.0447 98.2791 89.9147L97.9663 90.0995C98.0014 90.2674 98.0399 90.4524 98.0987 90.734C97.3451 91.2581 96.5483 91.0977 95.7573 90.8491C95.2873 90.2884 95.2873 90.2884 94.2657 90.321C94.5964 90.5147 94.7218 90.5882 94.9166 90.7027C94.8144 90.8048 94.6989 90.9214 94.5375 91.0822C94.3166 90.8085 94.1354 90.5833 93.9103 90.3047C93.8398 90.488 93.7923 90.6094 93.7574 90.6995C92.7973 90.6077 91.8352 90.5159 90.757 90.4125L90.4076 89.8156C90.3295 90.0411 90.2834 90.1729 90.2215 90.3518C90.0771 90.2267 89.9413 90.1084 89.7618 89.9524L89.1965 90.2865C88.9214 90.2148 88.7221 90.1625 88.5216 90.1102C88.5927 89.6758 88.3632 89.1748 88.8059 88.8172C87.9606 88.7403 88.0259 89.4436 87.8027 90.048C87.6243 89.7961 87.485 89.5998 87.3392 89.3935C86.5954 89.3843 85.8632 89.2194 85.0962 89.643C84.4562 89.9967 83.7786 89.5527 83.1545 89.0751C83.0768 89.2587 83.0299 89.3698 82.9371 89.5914C82.7496 89.3793 82.5838 89.1907 82.3726 88.9502C82.3146 88.9964 82.2289 89.0649 81.9734 89.2675C81.4765 89.2243 80.7655 89.027 80.1044 89.1365C79.1629 89.2925 78.4131 88.6014 77.4516 88.7772C76.6084 88.9313 75.7115 88.8181 74.8185 88.6305C73.6009 88.3746 72.3232 88.4097 70.9805 88.3137L71.4112 89.0492C71.5735 89.034 71.8072 89.0124 72.1262 88.9834C72.1185 89.256 72.1112 89.4945 72.1036 89.7796C72.5013 90.0032 72.9018 90.2833 73.3436 90.4597C73.7135 90.6077 74.0179 91.0724 74.5108 90.7791C74.675 91.3657 75.2099 91.4175 75.6746 91.544C75.6374 91.6864 75.6116 91.7863 75.5915 91.8644C77.2917 92.3327 78.7501 93.2563 80.1525 94.2937C80.7039 94.4232 81.2548 94.5529 81.8005 94.6818L82.0607 95.1262C82.8287 95.4692 83.4966 95.7673 84.2569 96.1062C84.0764 96.4213 83.9486 96.6451 83.7837 96.9338C84.2263 97.1891 84.6426 97.4288 85.0282 97.6509C85.3251 97.3603 85.5817 97.1101 85.8354 96.8616C86.8331 97.3473 87.7488 97.7929 88.9197 98.3629C88.3331 98.5501 88.0388 98.3614 87.6945 98.31C87.6808 99.0302 88.3211 98.812 88.6489 99.0074C88.6313 99.1945 88.6124 99.3804 88.573 99.7789C88.8606 99.6963 89.1297 99.6193 89.3988 99.5423C89.3728 99.6497 89.3467 99.7571 89.3211 99.8642C89.4329 99.6624 89.5447 99.4607 89.6683 99.2387C90.0529 99.4906 90.3704 99.6987 90.6831 99.9043C90.6465 100.099 90.6186 100.248 90.5882 100.407C90.7205 100.447 90.8606 100.491 91.042 100.547C91.3651 100.264 91.7092 99.9637 92.0222 99.6894C93.2853 100.394 94.4865 101.065 95.6882 101.736C95.6728 101.794 95.6582 101.853 95.643 101.91C95.496 101.896 95.3493 101.883 94.9859 101.85C95.5061 102.454 95.9354 102.952 96.4342 103.53C96.0113 103.985 95.6201 104.405 95.0519 105.014C95.048 105.042 95.0069 105.347 94.9545 105.735C93.2951 104.901 91.5839 104.485 89.932 103.958C87.6457 103.227 85.558 102.086 83.3433 101.22C81.0374 100.318 78.8496 99.1078 76.607 98.0395C75.3304 97.4307 74.034 96.8613 72.7692 96.2277C70.994 95.3378 69.2011 94.4729 67.497 93.4602C66.7462 93.0138 65.8776 92.8667 65.1762 92.2561C64.5741 91.7317 63.7013 91.519 62.9443 91.1768C61.0116 90.3025 59.1067 89.3721 57.077 88.718C55.755 88.2928 54.4878 87.6923 53.0073 87.0942L52.0697 85.4928C52.4491 85.2521 52.7772 84.855 53.4504 85.0316C53.2831 84.656 53.1265 84.3052 52.9785 83.9737C53.6964 82.6865 54.8091 81.88 56.282 81.2399C56.4452 81.3129 56.7717 81.4587 57.3703 81.7251C57.438 81.7777 57.7746 82.0387 58.1784 82.3527C58.5081 81.954 58.7558 81.6547 58.9891 81.3726C59.6767 81.4454 60.3709 81.4712 61.0437 81.6044C61.6171 81.7175 62.3103 81.2781 62.7092 82.172C62.791 81.8583 62.8165 81.7578 62.8651 81.5709C63.4668 82.0518 64.3509 81.3196 64.8606 82.1632C65.111 82.053 65.3356 81.954 65.6015 81.8366C65.6917 81.9322 65.7907 82.0371 65.9004 82.1536C67.8419 81.8222 69.7654 82.2274 71.7311 82.4978C71.829 82.44 71.9636 82.2929 72.096 82.2941C72.6308 82.2997 73.3127 82.1581 73.6661 82.4297C74.2397 82.8716 75.0848 82.3305 75.4761 83.1316C75.81 82.9594 76.1196 82.7996 76.4513 82.6281C76.5928 82.745 76.7398 82.8666 76.9196 83.0151C77.0806 82.9312 77.2571 82.8388 77.53 82.6974C78.0167 82.838 78.5826 83.0012 79.2523 83.1944C79.036 83.5135 78.9082 83.7015 78.7307 83.9619C79.1978 83.989 79.6191 84.0133 80.0409 84.0373C80.1254 83.8756 80.2088 83.7144 80.3418 83.4565C80.5934 83.595 80.8102 83.7773 81.0544 83.8288C81.268 83.874 81.5125 83.7719 81.7396 83.7356C81.8068 83.5906 81.8878 83.4151 82.0261 83.1169C82.2872 83.2624 82.51 83.3875 82.8856 83.597C82.9107 83.694 82.994 84.0128 83.0883 84.3753L83.629 84.0557C84.1392 84.369 84.4931 84.592 85.1532 84.3706C86.2752 83.9941 87.5157 84.1035 88.7073 84.0405C88.8899 84.0306 89.0852 84.2686 89.2722 84.391C89.328 84.2356 89.3745 84.1068 89.3695 84.1197C90.0265 84.2371 90.6556 84.2597 91.2122 84.4734C91.7784 84.6901 92.2734 85.0957 92.9321 85.5006C93.2937 85.4477 93.2048 85.1204 92.632 84.4808C93.281 84.7286 93.4989 84.8116 93.7631 84.9129C93.7778 85.1305 93.793 85.3544 93.822 85.7807C94.1068 85.4178 94.2982 85.1744 94.5139 84.8993C94.6396 84.9137 94.785 84.9291 95.0216 84.9553C95.0647 84.7611 95.2306 84.4493 95.1423 84.3334C94.7104 83.7667 94.7319 83.1339 94.7089 82.5446C93.8779 81.7148 93.9135 80.5357 93.4819 79.5645C93.0057 78.4959 92.5766 77.3849 92.3183 76.2484C92.0698 75.1603 91.8457 74.0407 91.3857 73.0592C90.8968 72.0172 90.7218 70.9037 90.3164 69.8501C89.903 68.7762 89.6389 67.6332 89.4191 66.4984C89.2082 65.4047 88.743 64.3952 88.5459 63.2867C88.3455 62.1603 88.051 61.0115 87.6626 59.9353C87.2777 58.8684 87.2202 57.7588 86.9046 56.6932C86.59 55.6317 86.3255 54.5531 86.0932 53.4701C85.852 52.346 85.685 51.2058 85.4681 50.076C85.2598 48.99 85.0294 47.9079 84.7898 46.7325C84.8867 46.3569 85.0144 45.8606 85.1407 45.371C85.2705 45.3969 85.4183 45.4254 85.5511 45.4521C86.1464 45.1559 85.8523 44.6659 85.8455 44.3099C86.3568 43.8648 86.8352 43.4477 87.3526 42.9971C87.4283 43.0139 87.5771 43.0464 87.7148 43.0768C88.0459 42.0381 88.9202 42.1633 89.6747 42.2515C90.4366 42.3412 91.1762 42.6189 91.9776 42.8276C92.9139 44.0127 94.6125 44.5177 95.0808 46.2243C95.3019 46.1486 95.4385 46.1016 95.667 46.0228C96.2607 46.7387 96.8881 47.4963 97.5983 48.3539C97.6346 48.345 97.813 48.301 97.9455 48.2685C98.5868 48.8914 99.2252 49.481 99.8243 50.1083C100.06 50.355 100.363 50.6858 100.364 50.9793C100.366 51.7253 100.64 52.187 101.284 52.5506C101.58 52.7178 101.739 53.1283 102.136 53.31L101.52 52.2583C101.725 52.2397 101.862 52.205 101.873 52.23C102.221 52.9697 102.866 53.4602 103.444 53.9667C103.932 54.3933 104.375 54.9349 104.385 55.4484C104.398 56.1144 104.862 56.4214 105.027 57.2111C105.185 56.8503 105.231 56.7456 105.278 56.6394C106.252 57.1339 106.587 57.3822 106.646 58.1879C106.693 58.8326 107.128 59.1355 107.513 59.5354C107.345 59.1557 107.176 58.776 106.887 58.1231C107.578 58.882 108.064 59.4151 108.748 60.1672C108.459 57.4854 108.855 55.1121 108.99 52.7247C109.128 50.2929 109.389 49.0451 110.121 47.1645C110.254 46.8228 110.168 46.4001 110.277 46.0434C110.466 45.426 110.781 44.8442 110.945 44.2214C111.095 43.6497 111.028 43.0147 111.209 42.4568C111.687 40.9806 112.408 39.5909 112.792 38.0745C112.829 37.9259 113.105 37.8373 113.289 37.7081C113.295 37.4492 113.214 37.1269 113.322 36.8912C113.848 35.7391 114.351 34.566 115.007 33.4884C115.528 32.632 115.979 31.734 116.578 30.9042C117.169 30.0841 117.957 29.5443 118.615 28.8524C119.297 28.1369 120.307 27.8421 121.394 27.7365C121.136 29.1622 122.686 29.446 123.188 30.4343C122.96 29.9644 122.731 29.494 122.503 29.0236C122.576 28.9861 122.65 28.9488 122.724 28.9113L123.244 29.7988C123.401 30.0672 123.553 30.3382 123.716 30.603C123.898 30.8994 124.004 31.2839 124.456 31.2872C124.16 31.6859 124.811 31.7359 124.735 32.0068C124.598 32.493 125.344 32.2447 125.262 32.7183C125.217 32.9799 125.34 33.2925 125.454 33.5533C125.594 33.8756 125.801 34.1676 125.964 34.4444C125.787 34.6539 125.664 34.7999 125.47 35.0305C125.753 34.973 125.932 34.9367 126.182 34.8854C126.277 35.0203 126.39 35.1792 126.574 35.4397C126.469 35.8486 126.344 36.3332 126.232 36.7686C126.384 36.9986 126.494 37.1647 126.594 37.3166C126.823 37.2743 127.01 37.24 127.268 37.1919C127.107 37.4339 126.982 37.6191 126.859 37.8047L127.031 38.0988C127.25 38.0787 127.483 38.0575 127.741 38.0335C127.944 38.9524 128.007 39.8823 128.521 40.7131C128.753 41.0895 128.703 41.6419 128.789 42.166C128.78 42.162 128.865 42.1963 128.996 42.249C129.211 43.0302 129.435 43.8397 129.71 44.8372C129.304 44.6858 129.034 44.5844 128.782 44.4904C128.972 44.9534 129.171 45.2173 129.597 45.5581C129.591 45.6071 129.591 45.657 129.58 45.7055C129.557 45.8065 129.529 45.9064 129.498 46.0238C129.599 46.0453 129.699 46.0643 129.797 46.0887C129.845 46.1008 129.891 46.1227 129.941 46.142C130.033 46.5627 130.126 46.9864 130.248 47.5432L129.074 48.2367C129.08 48.3145 129.087 48.392 129.094 48.4701C129.326 48.481 129.558 48.4912 129.889 48.5069C129.954 48.3968 130.069 48.2017 130.289 47.831C130.5 48.5417 130.672 49.1216 130.838 49.685C130.698 49.8163 130.592 49.9146 130.482 50.0172C131.334 50.4237 131.256 51.1389 131.163 51.8742C131.134 52.1086 131.154 52.3609 131.207 52.5915C131.326 53.1087 131.48 53.6177 131.65 54.2348C131.637 54.2485 131.539 54.3534 131.337 54.5708C131.499 54.8097 131.694 55.0963 132.004 55.5517C132.023 55.4379 131.961 55.5779 131.985 55.7C132.179 56.6893 132.489 57.6539 132.602 58.6608C132.613 58.7557 132.698 58.8391 132.726 58.9343C132.907 59.555 132.357 60.2071 132.783 60.8097C133.159 61.3419 132.923 61.9528 133.049 62.5171C133.186 63.124 133.266 63.7436 133.361 64.359C133.39 64.5487 133.349 64.7543 133.406 64.9317C133.467 65.1244 133.605 65.2924 133.758 65.5524C133.666 65.7745 133.55 66.0596 133.463 66.2704L133.996 67.1799C133.749 68.049 133.486 68.9242 134.07 69.7765C134.122 69.8522 134.174 69.9744 134.15 70.0497C133.735 71.3246 134.44 72.5297 134.361 73.8048C134.285 75.0346 134.615 76.2845 134.644 77.5282C134.682 79.1758 134.603 80.8256 134.565 82.4745C134.562 82.6258 134.526 82.7958 134.449 82.9233C133.731 84.1161 133.001 85.3014 132.344 86.3773C131.613 86.6373 131.012 86.8508 130.24 87.1254C129.982 86.9878 129.559 86.7614 129.148 86.5418C129.003 85.6609 128.821 84.8142 128.738 83.9575C128.654 83.0965 128.605 82.2212 128.653 81.3591C128.757 79.4714 128.437 77.6089 128.404 75.7332C128.384 74.623 128.034 73.5169 128.347 72.4021C127.839 70.5809 127.849 68.6984 127.64 66.8408C127.55 66.0377 127.579 65.2119 127.357 64.4124C127.152 63.676 127.063 62.9077 126.919 62.1541C126.472 59.7976 126.036 57.4401 125.571 55.0874C125.33 53.8623 125.06 52.6409 124.762 51.4282C124.461 50.2069 124.027 48.9963 123.787 47.7878C123.365 45.6699 122.384 43.7598 121.888 41.6777C121.627 40.5783 120.982 39.5619 120.445 38.5421C119.923 37.5482 119.32 36.5972 118.588 35.3479" fill="#AB296C"/>
<path fill-rule="evenodd" clip-rule="evenodd" d="M109.692 292.693C97.8239 284.144 84.9826 277.507 71.1358 272.847C57.2617 268.178 43.0898 265.451 28.3763 266.354C58.2075 266.729 84.8324 276.946 109.692 292.693M28.7159 274.552C30.9019 275.219 33.1044 275.185 35.3175 274.7C35.6701 275.431 36.364 275.121 36.9064 275.181C40.0417 275.53 43.2021 275.648 46.3101 276.247C46.5954 276.301 46.9793 276.525 47.2682 275.942C43.247 275.379 39.3231 274.576 35.2876 274.765C33.0962 274.433 30.8984 274.34 28.6867 274.608C26.5936 274.427 24.5175 274.583 22.4501 274.911C24.5352 274.741 26.6665 275.377 28.7159 274.552M15.0044 278.154C33.8354 275.299 52.0555 278.304 69.9649 284.362C69.4476 284.142 68.9395 283.897 68.4122 283.706C52.0547 277.772 35.2526 275.034 17.8296 276.636C12.3123 277.142 6.80849 277.841 1.26093 277.975C0.206911 278 -0.993469 278.524 -0.673591 276.43C-0.520105 275.426 -1.74454 274.409 -2.21213 273.302C-2.59241 272.403 -2.89854 272.447 -2.08162 272.03C-1.46888 271.717 -1.43508 270.88 -0.65758 270.788C-1.0328 270.327 -1.85522 270.84 -1.89829 270.218C-1.94579 269.533 -1.34105 269.252 -0.720085 269.011C4.52381 266.976 9.91872 265.51 15.4383 264.451C26.8502 262.26 38.2923 262.123 49.7471 263.906C64.7383 266.241 78.9056 271.108 92.4638 277.883C108.583 285.939 122.378 296.995 134.488 310.252C138.857 315.033 143.008 319.99 145.816 325.914C146.104 326.522 146.393 327.133 146.638 327.76C146.836 328.265 147.183 328.906 146.106 328.772C145.74 328.726 145.383 328.941 145.631 329.258C146.671 330.591 145.639 331.798 145.549 333.07C145.443 334.561 144.254 335.216 143.385 335.835C142.341 336.58 141.249 336.038 140.337 334.847C131.732 323.607 120.951 314.72 109.467 306.653C92.7049 294.879 74.4947 286.161 54.5949 281.126C43.4347 278.302 32.0999 277.238 20.6016 277.902C18.7371 278.009 16.8705 278.071 15.0044 278.154" fill="#AB296C"/>
<path fill-rule="evenodd" clip-rule="evenodd" d="M27.8602 299.033C26.0267 298.517 24.1623 298.638 22.3249 299.182C24.17 299.132 26.0152 299.083 27.8602 299.033M21.728 303.158C24.1901 303.118 26.6451 303.71 29.0686 303.063C26.6086 302.84 24.1519 302.671 21.728 303.158M16.541 304.849C24.0062 305.54 31.5147 305.609 38.945 306.809C31.5984 304.556 24.0597 304.81 16.541 304.849M54.3563 298.739C43.0295 293.148 27.7069 292.313 19.5445 294.862C31.5993 293.849 32.4494 293.946 54.3563 298.739M77.8775 324.208C78.5844 324.614 79.1363 324.932 80.1642 325.523C78.4719 325.61 77.4493 325.156 76.4324 324.7C71.6637 322.559 67.0228 320.158 62.4364 317.639C54.522 313.291 46.3471 309.628 37.479 307.786C31.8402 306.615 26.12 306.421 20.4082 306.085C18.7884 305.989 17.0923 305.962 15.5954 305.425C14.7646 305.127 14.1499 304.011 13.0838 303.815C13.2402 302.97 14.1418 303.473 14.3487 302.89C13.439 301.99 11.7291 301.528 12.6802 299.603C12.8109 299.339 12.1295 299.315 11.8252 299.191C11.1324 298.909 10.7315 298.433 10.7576 297.664C10.7838 296.887 11.0432 296.333 11.8402 295.957C12.944 295.435 14.174 295.676 15.4963 295.232C14.6463 294.473 13.8742 295.016 13.1881 294.902C12.7084 294.821 11.9881 295.18 11.7935 294.416C11.6138 293.713 12.0915 293.259 12.6488 292.962C13.1251 292.708 13.6323 292.489 14.1503 292.341C27.7971 288.443 41.3034 288.891 54.6603 293.979C61.5416 296.6 68.2011 299.662 74.2057 304.051C77.1497 306.204 79.4743 308.937 81.4868 311.961C82.1373 312.939 82.6864 313.962 82.0807 315.216C81.9436 315.499 82.0175 315.942 82.1101 316.279C82.8805 319.072 81.7627 321.532 80.6777 323.912C80.2253 324.906 79.0144 323.733 77.8775 324.208" fill="#AB296C"/>
<path fill-rule="evenodd" clip-rule="evenodd" d="M0.982415 278.347C4.78671 278.444 8.48772 277.541 12.4461 277.858C11.0669 278.621 3.16064 279 0.982415 278.347" fill="#AB296C"/>
<path fill-rule="evenodd" clip-rule="evenodd" d="M243.953 28.6748C244.135 28.8588 244.318 29.0428 244.499 29.2268C245.981 27.7085 247.463 26.191 248.943 24.6726C248.816 24.5437 248.688 24.4147 248.56 24.2858C247.024 25.7491 245.488 27.2123 243.953 28.6748M258.572 14.3496C258.691 14.5407 258.811 14.7325 258.929 14.9228C261.25 13.0845 263.571 11.2462 265.892 9.40704C265.754 9.22777 265.617 9.04692 265.481 8.86765C263.177 10.695 260.876 12.5223 258.572 14.3496M271.771 42.4016C271.231 43.283 269.694 42.5313 269.455 44.0787C269.245 45.4343 268.601 46.723 268.131 48.0943C270.643 47.102 270.938 44.5851 271.771 42.4016M271.05 55.3471C270.551 54.3799 270.35 53.9868 270.217 53.7281C268.699 53.9499 270.709 57.1013 268.337 56.3802C267.365 57.5605 266.602 58.7108 265.622 59.6276C263.481 61.631 261.288 63.5897 258.992 65.4107C258.093 66.1247 256.856 66.4038 255.788 66.9141C255.409 67.0949 254.902 67.2931 254.748 67.6217C252.643 72.1397 248.79 74.8548 244.884 77.6036C240.831 80.4562 237.151 83.8892 232.937 86.454C229.381 88.6179 225.618 91.0435 220.91 88.485C218.533 87.1939 217.322 83.7822 219.131 81.7214C219.73 81.0389 220.225 80.2086 220.569 79.3649C223.718 71.6451 226.89 63.9341 229.924 56.1687C232.558 49.424 234.888 42.5558 237.61 35.8488C239.37 31.5148 242.446 28.0206 245.906 24.9045C248.025 22.9947 250.187 21.1335 252.647 19.5853C252.18 20.326 251.712 21.0667 251.246 21.8082C251.354 21.9261 251.463 22.0448 251.572 22.1636C252.986 20.8426 254.4 19.5209 255.815 18.1999C255.72 18.0379 255.626 17.8767 255.53 17.7148C254.902 17.9184 254.273 18.1221 253.644 18.3265C253.536 18.2141 253.428 18.1024 253.321 17.99C253.981 17.2556 254.545 16.3938 255.315 15.8049C262.646 10.2034 270.009 4.64517 277.368 -0.917781C278.34 -1.65217 279.412 -2.26783 280.314 -3.07691C282.007 -4.59601 285.392 -5.82812 286.539 -4.9467C288.441 -3.485 289.868 -1.58927 289.358 1.03299C288.781 4.01615 288.365 7.08816 287.31 9.90698C285.701 14.2001 285.158 18.777 283.46 23.019C283.187 23.6992 282.632 24.2653 282.357 24.9454C282.087 25.6122 281.964 26.3513 281.854 27.0708C281.627 28.5702 281.563 30.1042 281.227 31.5762C280.802 33.4334 280.257 35.274 279.613 37.066C278.268 40.8016 276.846 44.5097 275.389 48.2029C275.235 48.5937 274.625 48.7887 274.264 49.1166C273.919 49.4295 273.286 49.9131 273.357 50.1238C274.199 52.61 271.068 52.864 271.05 55.3471" fill="#AB296C"/>
<path fill-rule="evenodd" clip-rule="evenodd" d="M12.4353 15.557C12.6567 15.3218 12.8791 15.0861 13.1004 14.8516C10.8717 12.8791 8.64217 10.9064 6.41191 8.93354C6.25681 9.10403 6.10018 9.2741 5.94355 9.44417C8.10746 11.4818 10.2714 13.5194 12.4353 15.557M-19.0466 -26.3945C-14.9161 -26.755 -9.20591 -24.3871 -8.25468 -21.855C-8.05801 -22.4636 -7.8851 -22.9984 -7.69716 -23.5804C-7.47552 -23.5892 -7.26465 -23.6497 -7.08802 -23.5972C-0.707097 -21.692 5.69291 -19.8461 12.0431 -17.841C17.2244 -16.205 22.3489 -14.387 27.4942 -12.6344C35.395 -9.94263 41.1754 -4.54646 46.0311 2.06826C52.9115 11.4421 59.8211 20.789 65.3206 31.1009C66.5406 33.389 68.0213 35.5342 69.3123 37.7861C69.9999 38.9845 69.9388 39.8145 68.4744 40.7375C66.0634 42.2554 63.8047 41.8464 61.4983 40.9628C52.6029 37.5582 43.7484 34.0465 34.8478 30.6553C29.4475 28.5979 23.965 26.757 18.5756 24.6711C17.0939 24.0972 15.8544 22.9162 14.43 22.1553C12.9535 21.3656 11.3444 20.8309 9.86794 20.0411C3.02157 16.3747 -1.60724 10.4891 -5.70589 4.07902C-9.00531 -1.082 -12.4151 -6.1728 -15.6176 -11.3936C-17.2799 -14.103 -18.8778 -16.9256 -19.9461 -19.9021C-20.4291 -21.2477 -19.5458 -23.0935 -19.2864 -24.7133C-19.2066 -25.2178 -19.142 -25.724 -19.0466 -26.3945" fill="#AB296C"/>
<path fill-rule="evenodd" clip-rule="evenodd" d="M259.694 244.192C259.157 247.396 258.398 251.345 257.855 255.325C257.194 260.161 256.562 265.012 256.217 269.877C256.021 272.649 255.001 274.906 253.255 276.844C249.977 280.482 246.351 283.819 243.289 287.628C239.871 291.881 235.432 294.788 231.32 298.141C226.841 301.795 222.384 305.477 217.855 309.065C216.241 310.345 214.438 311.381 212.731 312.544C209.747 314.575 206.503 313.882 203.35 313.29C202.69 313.166 201.851 311.917 201.779 311.124C201.648 309.653 201.845 308.089 202.215 306.645C204.713 296.889 207.356 287.171 209.818 277.406C211.08 272.401 213.259 267.962 216.747 264.208C223.02 257.453 229.191 250.594 235.642 244.017C239.903 239.674 245.008 236.364 250.263 233.338C254.376 230.969 258.799 233.195 259.357 237.99C259.564 239.769 259.56 241.574 259.694 244.192" fill="#AB296C"/>
<path fill-rule="evenodd" clip-rule="evenodd" d="M107.343 213.803C107.372 213.986 107.401 214.169 107.431 214.352C108.439 214.154 109.446 213.956 110.454 213.758C110.432 213.626 110.411 213.493 110.389 213.361C109.374 213.508 108.358 213.655 107.343 213.803M228.934 112.002C228.956 111.861 228.977 111.72 228.998 111.58C223.737 110.786 218.476 109.991 213.217 109.196C213.191 109.366 213.166 109.536 213.141 109.705C218.405 110.471 223.67 111.237 228.934 112.002M133.744 191.697C156.821 190.318 179.667 187.471 201.916 180.793C179.46 186.14 156.721 189.682 133.744 191.697M127.125 183.289C127.145 183.443 127.166 183.597 127.186 183.751C132.488 183.3 137.795 182.909 143.09 182.383C157.071 180.995 171.032 179.426 184.852 176.823C190.445 175.768 196.006 174.532 201.566 173.305C204.387 172.683 207.174 171.895 209.976 171.185C211.054 170.913 212.134 170.652 213.213 170.386C213.169 170.194 213.125 170.003 213.081 169.812C184.838 176.935 156.108 180.924 127.125 183.289M200.288 190.245C200.202 190.075 200.117 189.905 200.032 189.734C197.84 190.653 195.684 191.674 193.45 192.472C188.284 194.317 183.117 196.171 177.885 197.806C171.667 199.749 165.392 201.51 159.111 203.239C158.137 203.507 156.953 204.473 155.916 203.172C155.891 203.141 155.492 203.412 155.268 203.542C154.555 203.957 153.887 204.594 153.121 204.754C141.396 207.216 129.658 209.619 117.922 212.024C116.208 212.375 114.482 212.668 112.763 212.988C113.722 213.22 114.638 213.16 115.531 212.983C128.012 210.515 140.493 208.043 152.966 205.531C154.2 205.282 154.725 205.423 154.41 206.84C154.306 207.308 154.579 207.86 154.679 208.375C154.988 207.952 155.338 207.554 155.597 207.102C156.184 206.078 156.082 204.756 157.76 204.326C164.117 202.698 170.445 200.941 176.73 199.054C180.888 197.806 184.96 196.266 189.062 194.833C191.732 193.899 194.406 192.97 197.041 191.943C198.171 191.502 199.208 190.819 200.288 190.245M41.287 163.385C41.3452 163.518 41.4042 163.65 41.4618 163.782C43.9228 162.517 46.3539 161.19 48.8493 160C57.6793 155.786 66.7619 152.19 76.2019 149.65C84.5052 147.415 92.8324 145.114 101.286 143.639C111.904 141.788 122.648 140.615 133.367 139.423C137.866 138.922 142.443 139.108 146.984 139.011C149.639 138.954 152.295 138.945 154.951 138.929C157.627 138.914 160.303 138.918 162.979 138.912C160.948 138.474 158.924 138.07 156.908 138.107C150.755 138.22 144.602 138.441 138.454 138.731C122.37 139.488 106.394 141.256 90.7426 145.144C81.4696 147.448 72.2986 150.215 63.177 153.08C55.4423 155.511 48.0867 158.894 41.287 163.385M182.15 105.681C158.225 102.939 119.731 104.672 73.946 122.607C62.3241 127.16 51.1627 132.78 40.7356 139.745C84.836 114.475 132.08 102.609 182.15 105.681M244.803 120.635C244.501 120.878 244.138 121.378 243.904 121.324C241.604 120.791 239.327 120.155 237.037 119.575C236.606 119.466 236.146 119.474 235.699 119.427C235.962 119.787 236.163 120.222 236.496 120.493C238.417 122.058 240.436 123.507 242.299 125.137C248.589 130.64 252.1 137.587 252.453 145.992C252.549 148.272 252.047 150.579 251.775 153.327C257.051 150.154 261.431 146.745 264.249 141.772C265.622 139.349 266.111 136.517 264.519 133.902C261.301 128.619 255.873 126.298 250.668 123.702C248.673 122.706 246.098 122.819 244.803 120.635M144.167 143.743C144.518 143.394 144.87 143.043 145.302 142.613C144.858 142.509 144.514 142.325 144.211 142.377C143.531 142.494 142.872 142.729 142.204 142.916C142.882 143.175 143.56 143.435 144.238 143.695C143.772 143.978 143.31 144.485 142.838 144.495C141.941 144.512 141.018 144.045 140.144 144.141C138.884 144.278 137.676 144.899 136.416 145.035C126.709 146.075 116.98 146.919 107.291 148.106C103.473 148.574 99.7112 149.646 95.9772 150.645C89.6306 152.342 83.0266 152.975 76.8484 155.362C76.3288 155.563 75.6892 155.434 75.157 155.612C73.153 156.284 71.153 156.973 69.1859 157.745C67.3702 158.458 65.6316 159.378 63.7983 160.034C62.0277 160.668 60.1621 161.027 58.3684 161.601C53.5498 163.146 49.4821 166.13 45.2768 168.796C42.9527 170.269 40.9209 172.24 38.8788 174.121C37.8065 175.108 36.946 176.346 36.0816 177.539C35.1478 178.829 35.7605 179.617 37.1081 179.91C41.0746 180.772 45.0154 181.944 49.0311 182.348C67.885 184.242 86.7734 183.425 105.639 182.477C116.192 181.948 126.729 181.052 137.256 180.131C154.673 178.607 172.017 176.472 189.214 173.24C201.317 170.965 213.325 168.3 225.128 164.732C226.628 164.279 226.533 163.718 225.777 162.688C223.26 159.259 219.755 156.895 216.108 155.163C211.42 152.937 206.305 151.627 201.391 149.875C201.04 149.75 200.859 149.194 200.546 148.895C200.173 148.539 199.742 148.243 199.336 147.922C199.144 148.114 198.951 148.307 198.759 148.499C199.215 148.632 199.673 148.764 200.13 148.898C200.005 149.033 199.88 149.167 199.756 149.302C198.874 149.054 197.983 148.567 197.114 148.603C194.384 148.717 191.888 147.589 189.222 147.316C184.685 146.851 180.188 145.995 175.677 145.29C174.493 145.105 173.322 144.805 172.134 144.678C171.068 144.564 169.985 144.613 168.91 144.596C168.109 144.583 167.309 144.568 166.508 144.572C165.76 144.577 164.772 144.92 164.307 144.563C162.93 143.508 161.535 143.941 160.149 144.173C158.946 144.375 157.815 144.779 157.26 143.147C157.171 142.885 156.644 142.757 156.3 142.616C156.256 142.598 155.969 142.929 156.003 143.014C156.58 144.469 155.432 143.711 155.003 143.784C154.427 143.881 153.834 143.887 153.248 143.917C152.244 143.967 151.241 144.013 150.237 144.043C149.021 144.08 147.654 143.757 146.627 144.215C145.484 144.725 144.916 144.251 144.167 143.743M67.9465 136.832C65.8377 137.543 63.6675 138.113 61.6272 138.987C52.2907 142.99 43.5922 148.136 35.6886 154.53C32.9473 156.748 30.738 159.628 28.2497 162.168C25.2247 165.256 23.3423 168.946 22.7107 173.198C22.526 174.438 22.6526 176.069 23.3291 177.025C24.8743 179.212 27.1628 180.61 29.913 181.607C28.3394 177.882 27.8763 174.285 30.2262 171.071C31.8594 168.838 33.8252 166.747 35.9851 165.028C42.5666 159.792 50.1863 156.412 57.9082 153.3C70.0232 148.417 82.5706 144.989 95.3284 142.313C111.862 138.844 128.566 136.862 145.464 136.746C151.314 136.705 157.169 136.813 163.017 137.005C174.913 137.396 186.64 139.101 198.172 142.052C204.441 143.656 210.576 145.599 216.392 148.617C222.308 151.689 227.608 155.171 229.991 161.814C230.28 162.623 230.677 162.928 231.558 162.572C233.661 161.723 235.822 161.016 237.905 160.124C239.602 159.396 241.533 158.814 242.813 157.589C245.672 154.854 247.636 151.457 248.275 147.434C248.773 144.291 248.574 141.07 247.001 138.4C245.117 135.198 243.164 131.79 239.849 129.847C238.247 128.908 237.815 126.549 235.558 126.547C235.374 126.547 235.206 125.937 235.006 125.626C234.386 124.663 232.842 124.84 232.479 123.557C232.373 123.596 232.266 123.662 232.157 123.669C231.676 123.696 231.114 123.878 230.724 123.696C226.032 121.514 221.401 119.207 216.432 117.67C211.877 116.261 207.311 115.248 202.497 115.075C199.504 114.968 196.386 115.666 193.443 114.251C192.877 113.979 191.883 114.785 191.079 114.804C185.79 114.933 180.496 115.114 175.209 115.021C170.059 114.932 164.955 116.4 159.752 115.259C158.56 114.997 156.945 114.826 155.651 116.149C155.071 116.74 153.694 115.744 152.429 116.243C151.078 116.777 149.36 116.367 147.801 116.373C147.749 116.373 147.697 116.43 147.642 116.438C144.17 116.909 140.772 117.837 137.356 118.457C124.423 120.806 111.53 123.269 98.8491 126.769C95.9914 127.558 93.1738 128.54 90.2765 129.119C86.4053 129.892 82.4749 130.25 78.9337 132.316C77.6099 133.089 75.9271 133.225 74.4297 133.718C73.8498 133.909 73.3302 134.284 72.7828 134.576C71.1709 135.328 69.559 136.08 67.9465 136.832M175.743 193.606C175.25 193.851 174.779 194.247 174.263 194.319C165.406 195.548 156.571 197.037 147.676 197.858C136.344 198.902 124.966 199.44 113.602 200.1C110.722 200.267 107.821 200.012 104.932 200.059C103.107 200.088 101.286 200.428 99.4628 200.435C94.7098 200.455 89.955 200.396 85.2028 200.297C84.3746 200.28 83.5619 199.816 82.7278 199.756C82.2174 199.72 81.6674 200.239 81.1564 200.203C76.7173 199.898 72.2711 199.632 67.8504 199.141C61.8391 198.474 55.7938 197.909 49.8625 196.778C40.815 195.053 31.9032 192.698 24.6604 186.47C19.9172 182.392 15.8958 177.859 15.712 171.001C15.5792 166.044 17.2958 161.795 20.256 158.056C22.4912 155.232 25.1208 152.727 27.509 150.021C28.1705 149.273 28.5253 148.256 29.1521 147.468C30.1234 146.248 31.0617 144.932 32.2668 143.981C39.0591 138.617 46.463 134.202 54.1694 130.336C59.8743 127.474 65.6489 124.708 71.5534 122.299C90.4301 114.595 109.83 108.696 130.052 105.774C143.564 103.823 157.152 102.673 170.789 103.205C179.021 103.525 187.222 104.709 195.431 105.568C202.078 106.263 208.715 107.057 215.358 107.798C227.537 109.156 239.448 111.675 250.791 116.439C256.465 118.822 261.686 121.944 265.605 126.915C270.112 132.629 270.797 142.056 266.909 148.237C263.747 153.263 259.528 157.234 254.337 160.135C251.616 161.655 248.809 163.059 246.244 164.816C244.058 166.314 242.274 168.401 240.111 169.941C236.731 172.349 233.136 174.45 229.728 176.82C228.635 177.579 227.906 178.845 226.906 179.763C224.188 182.255 221.652 185.052 218.607 187.057C213.937 190.13 208.941 192.714 204.008 195.362C201.373 196.776 198.576 197.886 195.853 199.133C193.973 199.056 192.317 199.55 191.049 201.037C187.913 202.103 184.78 203.177 181.64 204.228C180.964 204.454 180.26 204.595 179.577 204.769C177.068 205.493 174.551 206.223 172.035 206.952C171.182 207.413 170.378 208.056 169.468 208.305C151.164 213.306 132.618 217.134 113.82 219.688C101.978 221.297 90.1568 223.139 78.2699 224.296C67.8426 225.311 57.3391 225.543 46.8662 226.057C45.1926 226.14 43.5041 225.854 41.8202 225.801C39.8805 225.739 38.2875 224.995 37.0027 223.543C36.8547 223.375 36.6653 223.235 36.4755 223.112C35.9747 222.785 35.4626 222.474 34.9549 222.157C35.4553 221.86 35.9569 221.562 36.518 221.229C36.4001 221.108 36.3098 220.974 36.1853 220.893C35.6966 220.58 35.1973 220.282 34.7019 219.979C35.3299 219.678 35.9662 219.098 36.5831 219.118C57.3898 219.767 77.8195 216.313 98.2692 213.267C122.188 209.705 145.904 205.049 169.218 198.503C174.586 196.996 179.912 195.315 185.196 193.528C189.053 192.224 192.809 190.615 196.503 188.763C194.625 189.199 192.754 189.666 190.868 190.065C186.895 190.904 182.91 191.69 178.941 192.546C178.407 192.661 177.934 193.062 177.434 193.33C176.871 193.422 176.307 193.514 175.743 193.606" fill="#AB296C"/>
</g>
</svg>
