<svg width="280" height="319" viewBox="0 0 280 319" fill="none" xmlns="http://www.w3.org/2000/svg">
<mask id="mask0_1623_6871" style="mask-type:alpha" maskUnits="userSpaceOnUse" x="0" y="0" width="280" height="319">
<rect y="0.583984" width="280" height="318" rx="21.8781" fill="#27E17A"/>
</mask>
<g mask="url(#mask0_1623_6871)">
<path d="M261.913 17.6287C262.435 19.9002 262.956 21.7348 263.391 23.6568C263.478 24.0936 263.652 24.6178 263.739 25.0546C263.913 25.8408 263.739 26.6271 262.956 27.0639C262.174 27.5007 261.478 27.1513 260.956 26.5397C259.391 24.7051 257.826 22.7831 256.261 20.9485C255.913 20.5117 255.565 20.1623 254.956 19.5507C254.435 21.3853 253.913 22.9579 253.391 24.5304C252.956 25.8408 252.608 27.2386 252 28.4617C251.826 28.9859 251.13 29.5101 250.695 29.5974C249.826 29.6848 249.565 28.8985 249.478 28.1996C249.304 26.2776 249.217 24.2683 249.043 22.3463C248.956 21.1233 248.869 19.9002 248.695 18.3277C247.826 18.6771 247.217 18.8518 246.608 19.1139C244.782 19.8128 242.956 20.5991 241.217 21.298C240.608 21.5601 240 21.7348 239.391 21.8222C238.435 21.9969 237.391 21.9969 236.782 21.0359C236.261 20.2496 236.521 19.2013 237.565 18.2403C239.304 16.6678 241.043 15.27 242.869 13.7848C243.391 13.348 243.913 12.9112 244.521 12.387C242.695 11.5134 240.869 10.6397 239.217 9.76611C237.478 8.89249 236.956 8.01886 237.304 6.97051C237.652 5.92216 238.608 5.39798 240.435 5.57271C242.435 5.74743 244.435 6.00952 246.435 6.18424C247.304 6.27161 248.174 6.18424 249.304 6.18424C249.13 4.8738 249.13 3.82545 248.956 2.7771C248.608 1.02985 248.174 -0.630041 247.826 -2.37729C247.739 -2.98883 247.652 -3.60037 247.652 -4.21191C247.739 -5.08554 248.087 -5.8718 249.043 -6.13389C249.913 -6.39597 250.608 -6.04652 251.043 -5.34762C252.348 -3.68773 253.391 -2.02784 254.521 -0.455315C254.956 0.243586 255.391 0.942487 256.261 1.55403C256.608 -0.367952 256.869 -2.20257 257.217 -4.12455C257.391 -4.91081 257.478 -5.78444 257.739 -6.5707C258.087 -7.70641 258.782 -8.23059 259.652 -8.14323C260.608 -7.9685 261.043 -7.2696 261.217 -6.39597C261.478 -4.21191 261.652 -2.11521 261.826 0.0688601C261.913 0.593036 261.913 1.20457 261.913 1.99084C262.608 1.72875 263.13 1.46666 263.652 1.20457C264.956 0.505673 266.261 -0.193228 267.565 -0.804766C269.13 -1.59103 270 -1.59103 270.608 -0.717403C271.13 0.0688601 270.956 0.942487 269.826 2.25293C268.782 3.476 267.739 4.69908 266.695 5.92216C265.913 6.79578 265.217 7.75677 264.348 8.80512C264.695 9.24194 265.043 9.67875 265.478 10.0282C267.391 12.1249 269.391 14.2216 271.304 16.3183C271.913 17.0172 272.261 17.7161 271.739 18.5897C271.217 19.4634 270.435 19.4634 269.565 19.2886C267.13 18.7645 264.695 18.2403 261.913 17.6287Z" fill="#23B965"/>
<path d="M286.458 129.659C284.621 129.825 282.783 129.909 280.988 130.158C278.315 130.575 276.269 131.99 275.017 134.405C274.181 136.028 273.43 137.693 272.804 139.442C271.133 143.979 270.131 148.725 268.878 153.345C268.711 153.97 268.67 154.678 268.544 155.302C268.503 155.552 268.461 155.843 268.336 156.051C268.043 156.676 267.5 157.009 266.874 156.925C266.248 156.842 265.747 156.343 265.705 155.635C265.663 155.26 265.663 154.844 265.747 154.428C265.997 152.846 265.914 151.306 265.747 149.765C265.413 146.727 264.953 143.688 263.993 140.774C262.782 137.319 260.945 134.28 258.063 131.907C256.602 130.7 255.099 129.534 253.595 128.327C251.299 126.495 248.668 125.288 245.954 124.206C245.536 124.039 245.035 123.997 244.534 123.831C244.2 123.748 243.824 123.664 243.49 123.498C242.78 123.165 242.488 122.457 242.655 121.749C242.822 121.083 243.449 120.667 244.2 120.75C244.743 120.792 245.328 120.917 245.87 121.083C248.96 122.041 252.134 121.833 255.307 121.541C256.477 121.458 257.646 121.333 258.773 121.083C261.404 120.459 263.45 119.002 264.661 116.546C265.621 114.631 266.289 112.633 266.749 110.51C267.5 107.221 268.544 103.974 268.962 100.602C269.171 98.8955 269.421 97.1887 269.63 95.4403C269.714 94.9824 269.755 94.5245 269.881 94.0666C270.131 93.6087 270.507 93.234 271.05 93.1924C271.593 93.1508 272.094 93.4422 272.261 94.025C272.469 94.6494 272.636 95.3154 272.678 95.9815C272.887 99.062 273.096 102.142 273.305 105.265C273.513 108.095 273.639 110.926 273.931 113.715C274.181 116.005 274.975 118.169 276.269 120.126C277.439 121.916 279.067 123.04 280.988 123.831C282.241 124.33 283.451 124.872 284.704 125.288C285.372 125.538 286.124 125.621 286.834 125.787C288.212 126.12 289.631 126.412 291.009 126.787C291.636 126.953 292.053 127.411 292.095 128.077C292.179 128.701 291.803 129.326 291.135 129.576C290.675 129.742 290.174 129.867 289.673 129.867C288.588 129.909 287.46 129.867 286.374 129.867C286.458 129.784 286.458 129.701 286.458 129.659Z" fill="#23B965"/>
<path fill-rule="evenodd" clip-rule="evenodd" d="M92.8516 311.304C93.5054 311.304 94.0802 311.404 94.6032 311.282C95.5715 311.057 96.8744 309.075 96.8001 308.068C96.7891 307.914 96.7387 307.69 96.6328 307.628C96.1472 307.348 95.6348 307.114 95.1324 306.863C94.8342 307.379 93.911 306.8 93.7849 307.655C93.7331 308.007 92.9326 307.782 93.1459 308.406C92.6287 309.33 93.0074 310.313 92.8516 311.304ZM90.2949 307.301C90.4522 307.031 90.6564 306.781 90.7537 306.494C91.1065 305.456 92.0226 305.057 92.9022 304.807C93.5134 304.634 94.1639 304.427 94.8666 304.476C96.4629 304.589 97.5842 305.342 98.3828 306.702C98.7553 307.336 99.1052 307.977 99.2624 308.69C99.3684 309.173 99.4983 309.733 99.3569 310.174C98.808 311.885 97.8718 313.321 96.1 314.001C95.6121 314.188 95.1044 314.325 94.603 314.477C94.5234 314.501 94.4165 314.51 94.346 314.476C93.0613 313.849 91.8198 313.135 91.0739 311.863C90.7537 311.317 90.4569 310.686 90.5356 310C90.6305 309.168 90.2767 308.292 90.7714 307.499C90.6233 307.438 90.4747 307.376 90.2949 307.301Z" fill="#23B965"/>
<path fill-rule="evenodd" clip-rule="evenodd" d="M111.148 295.663C112.187 296.658 113.923 297.214 115.349 297.159C116.033 297.134 116.549 296.892 117.002 296.422C117.264 296.15 117.533 295.885 117.806 295.611C117.651 295.397 117.512 295.278 117.468 295.131C117.266 294.455 116.898 294.03 116.137 293.972C115.792 293.946 115.465 293.72 115.12 293.616C114.895 293.548 114.499 293.434 114.443 293.517C114.128 293.992 113.957 293.248 113.544 293.609C113.307 293.833 112.909 294.208 112.509 294.586C112.186 294.33 111.932 294.129 111.706 293.951C110.888 294.362 111.302 295.056 111.148 295.663ZM119.265 296.522C119.515 296.609 119.666 296.662 119.827 296.718C119.697 297.129 119.576 297.514 119.454 297.902C119.249 297.925 119.043 297.95 118.755 297.983C118.85 298.112 118.91 298.193 119.003 298.319C118.56 298.867 118.051 299.287 117.266 299.252C117.07 299.244 116.864 299.323 116.672 299.386C116.137 299.563 115.616 299.6 115.084 299.359C114.901 299.277 114.556 299.184 114.498 299.259C114.008 299.895 113.605 299.077 113.124 299.187C112.923 299.234 112.731 298.704 112.3 298.689C112.069 298.681 111.865 298.34 111.62 298.201C111.333 298.039 111.221 297.605 110.796 297.668C110.597 297.02 109.952 296.721 109.628 296.184C108.908 294.987 108.907 293.268 109.499 292.111C110.023 291.085 111.011 290.785 111.919 291.475C112.359 291.81 112.693 292.076 113.195 291.672C113.367 291.947 113.528 291.836 113.654 291.639C113.853 291.326 114.158 291.307 114.455 291.37C115.489 291.588 116.538 291.882 117.37 292.508C118.101 293.059 118.625 293.888 119.241 294.594C119.191 295.22 119.983 295.812 119.265 296.522Z" fill="#23B965"/>
<path fill-rule="evenodd" clip-rule="evenodd" d="M142.032 285.18C141.97 285.118 141.881 285.068 141.852 284.993C141.638 284.448 141.065 284.539 140.666 284.393C140.453 284.314 140.075 284.67 139.779 284.841C139.646 284.917 139.383 285.352 139.207 285.668C139.071 285.913 138.922 286.313 138.738 286.337C138.325 286.391 138.41 286.622 138.372 286.869C138.346 287.04 138.233 287.197 138.168 287.34C139.084 288.275 139.945 287.883 140.888 287.443C141.918 286.963 142.097 286.161 142.032 285.18ZM139.617 289.787C139.419 290.077 139.245 290.33 139.066 290.593C138.949 290.484 138.845 290.315 138.768 290.326C137.836 290.466 137.529 289.566 136.902 289.206C136.831 289.166 136.783 288.91 136.826 288.873C137.477 288.314 136.783 287.901 136.697 287.418C136.593 287.511 136.501 287.594 136.409 287.677C136.378 287.646 136.319 287.613 136.321 287.584C136.351 287.011 136.041 286.388 136.614 285.892C136.744 285.779 136.72 285.503 136.816 285.33C137.064 284.887 137.13 284.302 137.584 284.024C138.05 283.738 137.868 283.156 138.332 282.82C139.119 282.25 140.35 281.961 141.273 282.307C142.613 282.81 143.466 283.835 143.966 285.073C144.367 286.07 144.557 287.2 144.371 288.294C144.261 288.931 143.704 289.369 143.209 289.752C143.061 289.867 142.689 289.69 142.341 289.635C142.364 289.725 142.367 289.921 142.458 290.061C142.596 290.276 142.652 290.477 142.385 290.564C142.113 290.652 142.014 290.463 142.03 290.194C142.033 290.15 141.911 290.098 141.775 289.997C141.571 290.168 141.35 290.354 141.084 290.577C141.042 290.432 141.001 290.29 140.924 290.021C140.58 290.341 140.271 290.629 139.818 291.05C139.732 290.513 139.678 290.169 139.617 289.787Z" fill="#23B965"/>
<path fill-rule="evenodd" clip-rule="evenodd" d="M73.7624 303.334C73.9786 303.517 74.0745 303.599 74.192 303.698C74.2744 303.531 74.3362 303.237 74.446 303.218C74.725 303.169 75.098 303.14 75.3036 303.286C75.9206 303.727 76.5691 304.181 77.0269 304.77C77.4603 305.329 77.7484 306.043 77.9435 306.733C78.0561 307.133 77.9924 307.591 77.7599 308.074C77.2824 309.063 76.804 309.95 75.8079 310.532C75.3674 310.789 74.8722 310.8 74.4551 311.06C74.2902 311.163 74.0899 311.208 73.8976 311.282C73.8262 311.155 73.7342 310.991 73.6421 310.827C73.4945 311.039 73.3953 311.014 73.1695 310.857C72.7639 310.576 71.9754 309.855 71.6336 309.574C70.5334 308.672 71.1672 307.549 71.2151 306.52C71.2266 306.262 71.6369 306.022 71.8795 305.757C72.7783 306.243 73.2428 307.018 73.5573 307.875C74.4388 307.764 74.5817 306.938 75.0658 306.478C75.1727 306.376 75.1004 306.083 75.1205 305.665C74.6977 306.089 74.4173 306.371 74.1819 306.607C73.5189 306.559 73.599 305.757 73.0405 305.708C73.0314 305.188 72.9427 304.651 73.0434 304.153C73.1009 303.871 73.4696 303.652 73.7624 303.334Z" fill="#23B965"/>
<path fill-rule="evenodd" clip-rule="evenodd" d="M123.713 269.191C124.087 268.815 124.365 268.536 124.688 268.211H126.309C126.477 267.501 125.955 267.788 125.618 267.694C125.654 267.603 125.664 267.494 125.723 267.442C126.136 267.086 125.525 266.947 125.583 266.585C125.86 265.925 126.631 265.804 127.21 265.444C127.374 265.342 127.694 265.399 127.903 265.481C128.963 265.902 129.348 266.859 129.775 267.823C130.05 268.443 129.794 269.175 130.275 269.717C130.085 270.426 130.011 271.198 129.67 271.825C129.309 272.491 128.537 272.854 127.811 272.927C127.409 272.967 127.058 273.441 126.663 273.134C126.328 272.873 125.857 273.02 125.552 272.607C125.335 272.313 124.852 272.293 124.721 271.778C124.657 271.525 124.174 271.484 123.956 271.081C123.604 270.431 123.865 269.81 123.713 269.191Z" fill="#23B965"/>
<path fill-rule="evenodd" clip-rule="evenodd" d="M119.117 310.337C119.28 310.988 119.423 311.535 119.55 312.086C119.578 312.21 119.609 312.407 119.545 312.467C118.97 313.002 119.505 313.443 119.644 313.915C120.651 313.932 120.623 313.868 121.139 313.13C121.753 312.251 121.648 311.295 121.631 310.338C121.628 310.164 121.462 309.955 121.315 309.83C121.02 309.579 120.534 309.966 120.266 309.549L119.992 309.969C119.484 309.628 119.355 310.175 119.117 310.337ZM117.922 311.179C117.765 310.873 117.599 310.549 117.463 310.284C117.611 309.499 118.5 309.716 118.789 309.106C119.073 308.508 119.94 308.763 120.405 308.159C120.221 308.035 120.042 307.915 119.861 307.792C119.887 307.759 119.923 307.666 119.973 307.657C120.854 307.495 121.496 307.968 122.095 308.506C122.595 308.953 122.88 309.564 123.255 310.105C123.466 310.409 123.099 310.689 123.417 310.882C123.702 311.056 123.79 311.339 123.736 311.663C123.677 312.019 124.012 312.402 123.952 312.587C123.81 313.022 123.799 313.478 123.654 313.9C123.383 314.689 122.985 315.407 122.37 315.985C122.017 316.317 121.521 316.429 120.899 316.319C119.399 316.056 119.381 316.072 118.704 315.325C118.174 314.74 117.831 314.071 117.688 313.253C117.607 312.789 117.333 312.379 117.658 311.92C117.222 311.499 117.881 311.509 117.922 311.179Z" fill="#23B965"/>
<path fill-rule="evenodd" clip-rule="evenodd" d="M82.873 275.554C84.0628 276.227 84.337 276.789 83.6832 277.815C83.3462 278.344 83.7632 278.94 83.2872 279.375C83.2167 279.439 83.4022 279.789 83.4727 280.006C83.6678 280.602 83.8605 280.655 84.5057 280.484C85.7377 280.159 86.3211 279.283 86.6178 278.096C86.1586 277.965 85.6965 277.84 85.2382 277.701C84.6788 277.532 84.8821 276.901 84.6529 276.611C84.9166 276.346 85.2061 276.055 85.4961 275.764C86.2928 275.317 86.7875 276.192 87.5138 276.39C88.0468 277.254 88.7908 278.004 88.7141 279.162C88.6163 280.624 87.9893 281.843 86.3992 282.428C85.0724 282.918 84.0225 282.713 82.8841 281.696C82.1904 281.077 81.6248 280.438 81.6003 279.338C81.5668 277.886 81.8434 276.61 82.873 275.554Z" fill="#23B965"/>
<path fill-rule="evenodd" clip-rule="evenodd" d="M142.7 305.539C142.183 305.14 141.88 304.419 141.075 304.449C140.874 304.098 140.554 303.767 140.494 303.392C140.347 302.486 140.558 301.676 141.491 301.232C141.601 301.18 141.677 301.053 141.797 300.932C141.634 300.877 141.489 300.827 141.474 300.823C141.702 300.594 141.981 300.313 142.261 300.032C142.201 299.961 142.14 299.889 142.08 299.818C142.2 299.801 142.325 299.755 142.438 299.775C142.963 299.866 143.567 299.507 144.013 300.045C144.592 300.745 145.019 301.507 145.188 302.428C145.413 303.65 144.238 305.002 143.346 305.437C143.119 305.548 142.837 305.1 142.7 305.539Z" fill="#23B965"/>
<path fill-rule="evenodd" clip-rule="evenodd" d="M108.048 321.528C108.048 321.891 108.026 322.069 108.052 322.24C108.188 323.131 107.448 323.447 106.933 323.839C106.421 324.229 105.932 323.656 105.453 323.514C105.006 323.382 104.637 322.95 104.26 322.62C103.625 322.065 103.387 320.747 103.79 319.957C103.882 319.777 103.784 319.471 104.208 319.431C104.462 319.407 104.702 319.001 104.905 318.735C105.439 318.04 105.907 317.961 106.479 318.567C106.853 318.964 107.286 319.288 107.552 319.82C107.861 320.436 108.207 320.995 108.048 321.528Z" fill="#23B965"/>
<path fill-rule="evenodd" clip-rule="evenodd" d="M93.8035 291.626C94.3686 292.236 94.9985 292.763 95.2953 293.622C95.6629 294.686 95.4626 295.266 94.5623 295.886C93.5365 296.592 92.8505 296.47 91.955 295.552C91.8333 295.428 91.7096 295.305 91.6113 295.207C91.4627 294.747 91.8031 294.215 91.3156 293.856C91.0447 292.643 91.8606 291.649 93.1482 291.626C93.3653 291.623 93.5825 291.626 93.8035 291.626Z" fill="#23B965"/>
<path fill-rule="evenodd" clip-rule="evenodd" d="M105.956 278.125C106.192 277.941 106.335 277.828 106.479 277.715C106.311 277.573 106.143 277.431 105.978 277.292C106.045 277.217 106.126 277.126 106.24 276.999C105.944 276.934 105.68 276.876 105.363 276.807C105.734 275.807 106.644 275.734 107.357 275.408C107.497 275.344 107.798 275.529 107.97 275.667C108.669 276.223 109.179 276.934 109.533 277.754C109.58 277.863 109.642 278.059 109.598 278.097C108.981 278.626 109.795 279.65 108.986 280.005C108.828 280.074 108.471 279.665 108.045 279.635C108.218 279.826 108.39 280.016 108.587 280.234C108.27 280.445 107.971 280.665 107.649 280.846C107.551 280.903 107.393 280.865 107.265 280.851C107.188 280.842 107.049 280.784 107.052 280.765C107.158 280.048 106.306 280.581 106.211 280.11C106.164 279.877 105.989 279.663 105.968 279.432C105.927 279.001 105.956 278.563 105.956 278.125Z" fill="#23B965"/>
<path fill-rule="evenodd" clip-rule="evenodd" d="M107.813 258.882V258.304H108.978C109.568 259.195 110.376 260.039 110.091 261.381C109.904 261.393 109.669 261.408 109.341 261.429V260.345C109.131 260.385 108.97 260.368 108.911 260.437C108.813 260.554 108.803 260.741 108.714 260.87C108.551 261.108 108.462 261.055 108.244 260.702C108.096 260.463 107.893 260.258 107.689 260.006C107.957 259.882 108.135 259.8 108.324 259.713C107.774 259.44 107.783 259.449 108.237 258.976C108.316 258.894 108.271 258.693 108.292 258.437C108.097 258.618 108.006 258.702 107.813 258.882Z" fill="#23B965"/>
<path d="M337.783 229.302L327.69 227.643L321.645 264.753L278.242 274.242L248.465 241.34L254.881 201.955L244.789 200.296L238.539 238.659L194.366 248.317L173.315 225.055L165.747 231.968L188.073 256.638L175.472 296.253L136.884 298.862L137.57 309.114L177.162 306.437L206.319 338.654L190.607 388.05L224.502 425.503L218.121 464.671L228.213 466.33L234.459 427.993L282.38 417.516L297.803 369.026L347.313 358.202L364.245 304.969L331.374 268.646L337.783 229.302ZM185.054 299.883L198.392 257.953L241.205 248.592L270.674 281.155L257.334 323.095L214.53 332.454L185.054 299.883ZM287.773 366.806L274.435 408.737L231.622 418.097L202.147 385.527L215.484 343.596L258.297 334.236L287.773 366.806ZM352.706 307.492L339.368 349.424L296.555 358.784L267.086 326.221L280.427 284.281L323.231 274.922L352.706 307.492Z" fill="#23B965"/>
<path fill-rule="evenodd" clip-rule="evenodd" d="M230.612 72.3809C230.5 72.3713 230.388 72.3624 230.277 72.3529C230.198 72.7403 230.198 73.1701 230.02 73.5038C229.826 73.8676 229.327 74.0974 229.209 74.4652C228.961 75.234 228.436 75.7747 227.966 76.3714C228.21 77.4295 227.443 78.12 227.038 78.942C226.72 79.5867 226.376 80.2204 226.094 80.8806C226.01 81.0754 226.102 81.3454 226.113 81.581C226.541 81.1174 226.605 80.4975 227.28 80.382C227.781 80.2967 227.551 79.9214 227.616 79.6235C227.671 79.3757 228.316 79.1323 228.28 79.0114C228.084 78.3435 228.542 78.0092 228.828 77.5598C229.152 77.0518 229.503 76.522 229.651 75.951C229.799 75.3738 230.26 75.1955 230.605 74.8863C230.388 74.6803 230.179 74.4812 229.839 74.1589L231.152 73.542L230.612 72.3809ZM65.0277 112.583C64.2335 113.658 64.3529 114.881 64.3131 116.074C64.276 117.198 64.5383 118.327 64.5454 119.432C64.5538 120.674 64.8128 121.852 65.2554 122.914C65.7183 124.025 65.4784 125.422 66.5608 126.299C66.592 125.954 66.6597 125.629 66.6365 125.311C66.6211 125.096 66.4458 124.897 66.3981 124.678C66.2242 123.885 66.0746 123.088 65.9149 122.292C65.7436 121.434 65.7677 120.526 65.2687 119.752C65.2873 117.664 64.701 115.602 65.0108 113.5C65.0548 113.2 65.0234 112.888 65.0277 112.583ZM245.317 79.1657C245.532 79.09 245.699 79.0825 245.732 79.0117C246.271 77.836 246.858 76.6767 247.308 75.4655C248.239 72.9557 248.692 70.312 249.029 67.6785C249.18 66.4926 249.43 65.2501 249.166 63.9843C249.047 63.4138 248.673 63.7303 248.508 63.5143C248.407 66.1152 248.459 68.7354 247.776 71.2532C247.061 73.8912 246.16 76.4795 245.317 79.1657ZM214.817 45.6676C215.196 45.7211 215.513 45.7717 215.832 45.8093C216.152 45.8475 216.472 45.8722 216.792 45.903C216.734 46.8481 216.731 46.8406 217.416 46.9727C217.684 47.0246 218.058 47.0696 218.175 47.2532C218.638 47.9722 218.896 47.3031 219.129 47.237C218.823 46.7044 218.534 46.2018 218.246 45.6996C218.713 44.9486 217.86 44.8112 217.617 44.4039C217.465 44.1503 217.132 43.9778 216.843 43.8591C216.787 43.8368 216.561 44.2346 216.383 44.4812C216.029 44.1834 215.75 43.9475 215.298 43.566C215.839 43.5392 216.121 43.5253 216.397 43.5117C216.356 42.6945 215.714 43.3169 215.521 43.0614C215.294 42.7589 215.179 42.3701 214.966 41.9115L212.848 42.9064C212.622 42.6834 212.499 42.5627 212.196 42.264C212.681 43.5205 212.681 43.5205 213.425 43.7344C213.402 43.5227 213.379 43.3108 213.354 43.0877C213.759 43.2203 214.118 43.3384 214.439 43.4431C214.646 43.1547 214.773 42.979 214.994 42.6705C215.309 43.7051 214.698 44.2127 214.407 44.7864L214.817 45.6676ZM254.182 184.079C254.166 184.608 254.066 185.156 254.161 185.192C254.818 185.443 254.827 186.092 255.094 186.567C255.377 187.07 255.729 187.595 255.799 188.143C255.87 188.71 256.788 188.756 256.47 189.453C257.15 189.617 257.171 190.281 257.428 190.756C257.704 191.264 257.925 191.803 258.169 192.329C259.098 194.325 260.024 196.324 260.962 198.317C261.055 198.516 261.216 198.682 261.346 198.862C261.074 197.973 261.012 197.056 260.711 196.256C259.992 194.346 258.967 192.564 258.458 190.555C258.244 189.706 257.532 189.026 257.121 188.269C256.318 186.791 255.294 185.517 254.182 184.079ZM271.581 220.661C271.705 219.886 271.871 219.238 271.9 218.584C271.995 216.438 272.812 214.301 272.002 212.138C271.971 212.055 272.084 211.926 272.109 211.813C272.296 210.984 272.258 210.164 271.843 209.415C271.398 208.611 271.312 207.745 271.298 206.86C271.291 206.445 271.223 206.101 270.597 205.96C270.516 206.328 270.354 206.689 270.382 207.033C270.427 207.571 270.644 208.092 270.714 208.63C270.905 210.12 271.293 211.594 271.125 213.12C271.103 213.328 271.097 213.603 271.208 213.749C271.778 214.499 271.668 215.45 271.484 216.142C271.105 217.573 271.555 219.066 270.836 220.389L271.581 220.661ZM76.1554 105.048C75.2562 105.01 74.5177 104.978 73.7701 104.947C73.7101 105.088 73.6217 105.297 73.5359 105.499C73.7042 105.573 73.851 105.636 73.9347 105.673C73.4852 106.565 73.0447 107.441 72.609 108.307C72.6985 108.351 72.974 108.435 72.9681 108.488C72.9146 108.978 72.7857 109.459 72.728 109.948C72.5998 111.043 72.3891 112.164 73.3795 113.059C73.8425 112.268 73.7743 111.152 74.7981 110.781C74.5738 110.566 74.2077 110.361 74.2285 110.21C74.3259 109.497 74.373 108.698 74.7396 108.123C75.1123 107.537 75.3412 106.84 75.2637 106.339C75.1441 105.566 75.7082 105.558 76.1554 105.048ZM170.908 194.651L171.026 194.324C170.908 194.289 170.75 194.187 170.679 194.23C170.099 194.573 169.359 194.911 169.047 194.79C167.816 194.313 166.947 195.138 166.132 195.729C165.377 196.276 164.873 197.171 164.255 197.911C164.059 198.145 163.885 198.418 163.64 198.579C163.536 198.646 163.234 198.359 163.179 198.736C163.144 198.985 163.139 199.237 163.094 199.853C163.865 199.029 164.998 199.831 165.36 198.653C165.367 198.633 165.813 198.656 165.879 198.764C166.119 199.165 166.463 198.983 166.581 198.81C167.16 197.964 168.173 197.814 168.955 197.283C168.858 196.94 168.769 196.629 168.744 196.543C169.059 196.657 169.446 196.798 169.765 196.913C169.714 196.962 169.561 197.112 169.615 197.059C169.918 197.17 170.306 197.311 170.64 197.433C170.546 196.875 169.648 196.211 170.494 195.432C171.166 195.606 171.703 195.421 172.193 194.841C171.723 194.771 171.315 194.711 170.908 194.651ZM177.573 197.889C177.462 198.708 176.399 198.211 176.222 198.915C175.491 198.625 174.966 199.261 174.303 199.357C174.046 199.555 174.228 198.43 173.669 199.158C173.319 199.616 172.638 199.82 172.041 200.176C171.802 199.848 171.59 199.557 171.251 199.094C171.296 199.532 171.317 199.745 171.342 199.998C170.83 199.922 170.323 199.846 169.743 199.76C169.688 199.422 169.63 199.06 169.569 198.678C168.784 198.58 168.003 198.728 167.211 199.519C167.999 199.524 168.621 199.527 169.295 199.531C169.288 199.94 169.282 200.292 169.276 200.644C168.929 200.64 168.73 199.682 168.232 200.576C168.495 200.804 168.771 201.043 169.044 201.279C168.955 201.398 168.899 201.534 168.849 201.531C168.204 201.501 167.561 201.451 166.917 201.405C166.847 202.502 166.121 203.232 165.226 204.038C165.191 203.697 165.165 203.45 165.127 203.078C164.743 203.031 164.345 202.499 163.736 202.868C164.055 203.317 164.356 203.738 164.644 204.143C164.24 204.614 164.231 204.787 164.549 205.041C164.089 205.959 163.449 204.91 162.838 205.118C162.956 205.521 163.046 205.831 163.14 206.154C162.802 206.254 162.446 205.923 162.171 206.468C161.788 207.227 161.078 207.818 160.699 208.578C160.318 209.345 159.729 209.333 159.01 209.346C159.12 209.636 159.217 209.893 159.364 210.28C158.471 210.512 158.084 211.35 157.458 211.93C155.961 213.314 154.616 214.843 153.195 216.298C151.925 217.6 150.734 218.976 149.492 220.306C148.47 221.401 147.448 222.498 146.385 223.553C144.942 224.987 143.641 226.557 142.245 228.034C141.154 229.188 140.093 230.415 139.032 231.619C138.682 232.017 138.469 232.59 137.842 232.714C137.709 232.74 137.558 232.904 137.5 233.041C136.803 234.694 135.09 235.5 134.227 237.012C134.177 237.099 134.065 237.18 133.967 237.204C132.54 237.558 131.987 238.87 131.139 239.84C129.791 241.383 128.326 242.795 126.73 244.072C126.393 244.34 126.014 244.587 125.766 244.927C125.531 245.249 125.136 245.278 124.917 245.532C124.637 245.857 124.378 246.248 124.254 246.654C124.078 247.227 123.459 246.514 123.229 247.131C123.06 247.581 122.428 247.833 122.108 248.254C121.584 248.945 120.64 249.21 120.33 250.127C120.265 250.317 119.834 250.485 119.574 250.482C119.103 250.477 118.932 250.482 118.919 251.087C118.911 251.418 118.293 251.78 117.897 252.05C116.638 252.906 115.781 254.266 114.338 254.886C113.593 256.173 112.221 256.721 111.148 257.622C110.901 257.83 110.679 258.069 110.419 258.258C109.934 258.611 109.287 258.63 108.922 259.299C108.666 259.769 107.738 259.636 107.491 260.382C107.443 260.527 106.98 260.63 106.733 260.593C106.083 260.493 106.573 260.913 106.489 261.024C106.356 261.2 106.033 261.226 105.885 261.398C105.217 262.181 104.403 262.758 103.44 263.067C101.736 263.613 100.486 264.945 98.8706 265.657C98.3823 265.872 98.047 266.444 97.3872 266.306C96.6978 267.201 95.4787 266.962 94.6669 267.588C94.3267 267.85 94.0202 268.373 93.6842 268.385C92.7954 268.418 92.0897 268.858 91.3106 269.149C90.5371 269.437 89.7338 269.644 88.9432 269.888C88.8374 269.92 88.6945 270.015 88.6333 269.977C88.0843 269.635 87.7059 270.17 87.2969 270.21C86.3651 270.301 85.5707 270.893 84.599 270.793C83.8719 270.718 83.2163 270.689 82.7733 270.468C82.7727 270.74 82.773 271 82.7719 271.368C81.213 271.025 79.5785 271.962 77.9147 270.893L76.7504 271.44C76.4825 271.247 76.1877 270.916 76.074 270.97C75.2761 271.351 74.5914 271.619 74.1383 270.493C74.0681 270.319 73.5437 270.33 72.825 270.161C73.3153 270.672 73.5256 270.891 73.8974 271.279C73.0984 271.158 72.5329 271.091 71.9749 270.982C71.4486 270.879 70.8825 270.823 70.421 270.579C69.883 270.295 69.2617 270.425 68.7507 270.085C68.2937 269.781 67.8126 269.483 67.3002 269.304C66.7623 269.117 66.3459 268.715 65.7116 268.644C65.2905 268.596 64.9311 267.992 64.5353 267.629C64.5857 267.472 64.6552 267.254 64.7224 267.042C64.8936 267.094 65.0475 267.14 65.4043 267.246C65.208 266.939 65.1415 266.71 64.992 266.623C64.3984 266.272 63.7278 266.286 63.0614 266.278C62.7918 266.274 62.4419 266.272 62.2736 266.113C62.0383 265.893 62.0014 265.458 61.764 265.243C61.5722 265.069 61.0264 265.166 60.9534 265.002C60.5849 264.172 59.6727 263.71 59.4958 262.771C58.2835 261.709 57.9991 260.121 57.2626 258.79C55.8946 256.317 55.4908 253.57 55.2366 250.831C54.9494 247.743 55.2106 244.668 55.8982 241.619C56.3774 239.496 56.7798 237.364 57.4072 235.27C58.2657 232.404 58.8197 229.456 59.2917 226.499C59.4368 225.594 59.2887 224.675 59.4702 223.746C59.6409 222.872 59.5459 221.922 59.4339 221.023C59.3337 220.214 59.0737 219.421 58.8428 218.634C58.6564 218.001 58.0983 217.485 58.3215 216.716C58.3658 216.566 58.1456 216.311 58.0054 216.14C57.8369 215.934 57.5587 215.801 57.4398 215.577C55.6901 212.276 52.5581 210.337 49.1218 209.69C47.0245 209.294 44.9212 209.172 42.8296 208.877C39.8818 208.461 36.9069 208.357 33.9623 207.915C31.6718 207.572 29.3512 207.435 27.0447 207.202C24.4573 206.941 21.8365 206.946 19.3086 206.216C18.245 206.518 17.2933 205.849 16.2488 205.868C15.0811 205.89 14.0184 205.3 12.859 205.128C11.5322 204.931 10.2552 204.396 8.95459 204.014C8.20685 203.794 7.52542 203.386 6.68553 203.417C6.2576 203.434 5.71059 203.244 5.40593 202.949C4.79082 202.354 3.99422 202.262 3.28076 201.948C-0.136964 200.443 -3.20454 198.461 -5.79859 195.711C-6.87107 194.574 -7.69048 193.217 -8.9108 192.223C-9.22547 190.977 -10.3031 190.188 -10.7876 189.035C-11.259 187.913 -12.0244 186.87 -12.268 185.709C-12.6331 183.969 -13.4648 182.299 -13.2423 180.448C-13.9579 178.148 -13.6303 173.349 -13.3553 171.438C-13.0326 169.2 -12.1504 167.122 -11.2525 165.095C-10.7984 164.07 -10.1727 162.982 -9.19032 162.221C-8.55668 161.731 -8.08505 161.067 -7.43507 160.549C-6.8388 160.075 -6.38391 159.691 -5.6051 159.648C-5.31788 159.633 -5.07637 159.191 -4.77126 159.024C-4.21467 158.719 -3.64111 158.428 -3.04439 158.218C-2.59772 158.061 -2.00542 158.291 -1.73603 157.687C-1.02292 157.949 -0.595349 157.241 0.00461027 157.168C0.530997 157.104 1.07804 157.217 1.60516 157.157C2.45816 157.06 3.30147 156.876 4.15189 156.748C4.41387 156.708 4.6919 156.684 4.95086 156.727C6.51513 156.983 8.04361 156.556 9.58691 156.463C11.2369 156.365 12.8828 156.069 14.5379 156.114C15.72 156.146 16.8897 155.96 18.0542 155.897C19.279 155.831 20.5122 155.889 21.7351 155.768C24.2432 155.519 26.7545 155.703 29.264 155.713C32.4702 155.727 35.6768 155.756 38.8828 155.807C44.4965 155.896 50.1091 156.024 55.7224 156.098C57.1078 156.117 58.512 156.103 59.8735 155.887C60.5332 155.782 61.1642 155.934 61.798 155.804C62.7505 155.608 63.7101 155.445 64.6546 155.22C65.4028 155.042 66.1269 154.637 66.8724 154.607C68.1867 154.553 69.3811 154.011 70.6788 153.852C72.0487 153.684 73.0824 152.571 73.6955 151.251C73.963 150.674 74.1159 150.046 74.3579 149.456C75.3076 147.146 74.8522 145.132 73.1693 143.328C72.4278 142.534 71.626 141.772 71.1884 140.737C70.2878 140.452 70.4897 139.202 69.6003 138.907C69.1938 137.685 68.3272 136.695 68.1824 135.293C68.0867 134.365 67.9036 133.319 67.3403 132.417C65.9079 130.123 65.3018 127.459 64.3239 124.969C63.645 123.24 63.2753 121.327 62.9721 119.431C62.7658 118.139 62.7914 116.845 62.6779 115.569C62.5506 114.139 62.9144 112.652 63.1536 111.205C63.6581 108.161 64.9427 105.423 66.5629 102.831C67.736 100.954 69.0475 99.1768 70.6619 97.6646C71.3326 97.0367 72.1653 96.5441 72.8512 95.9563C73.6107 95.3051 74.6185 95.115 75.2498 94.464C75.9241 93.7682 76.713 93.3956 77.5335 93.0941C79.0842 92.5243 80.6773 92.0621 82.2704 91.6211C83.8288 91.19 85.4454 91.1643 87.0494 91.0422C89.1601 90.8831 91.2463 90.9637 93.3164 91.4169C93.6366 91.487 93.9997 91.4638 94.2787 91.6082C95.7961 92.3929 97.3448 93.1347 98.7862 94.0452C101.229 95.5888 103.563 96.4093 106.243 97.0186C106.677 97.1169 107.068 97.4031 107.482 97.6034C107.913 97.1776 108.173 96.7809 108.537 96.5984C108.962 96.3869 109.2 96.0397 109.524 95.7518C109.855 95.4565 110.327 95.2256 110.764 95.1701C111.232 95.1105 111.169 94.3955 111.758 94.5225C111.921 94.5567 112.177 94.1512 112.39 93.9469C112.622 93.7243 112.904 93.5342 113.074 93.2711C113.335 92.8674 113.794 93.4883 114.062 93.0034C114.205 92.7462 114.606 92.6446 114.862 92.4374C115.154 92.2024 115.393 91.8992 115.693 91.6793C116.113 91.3717 116.652 91.4656 117.102 91.3325C117.416 91.2394 117.518 90.5681 117.837 90.3076C118.256 89.9663 118.753 89.7773 119.157 89.3359C119.517 88.9425 120.225 88.4121 120.872 89.2091C120.914 89.261 121.338 88.9998 121.631 88.8625C121.358 88.6394 121.166 88.4816 120.965 88.3169C121.377 87.8669 121.45 87.0195 122.344 87.3191C122.399 86.8725 122.767 87.1569 122.9 87.0733C123.281 86.833 122.97 85.7747 123.951 86.1731C124.299 85.7913 124.614 85.369 125.011 85.0494C125.174 84.9189 125.599 85.1115 125.751 84.9796C125.972 84.7879 125.963 84.2516 126.438 84.4752C126.88 84.6828 126.771 84.1031 126.959 84.15C127.14 84.196 127.277 84.42 127.434 84.5661C128.336 83.7287 128.336 83.7287 128.154 82.667C128.486 82.6692 128.813 82.6233 129.118 82.6874C129.385 82.7427 129.629 82.9208 129.854 83.0301C129.893 82.663 129.932 82.2851 129.971 81.9218C132.447 81.4704 132.59 81.3463 132.698 79.523L133.763 79.0231C133.901 79.1384 134.097 79.3024 134.323 79.4914C134.152 78.6065 134.152 78.6065 134.742 77.7974C135.035 77.5496 134.873 78.7667 135.38 77.9831C135.655 77.5588 136.101 77.355 136.681 77.4264C136.942 77.4587 137.305 77.2464 137.51 77.0354C137.917 76.6155 138.628 76.2885 138.123 75.4501C138.036 75.3065 138.169 74.9088 138.722 75.0028C139.258 75.0932 139.867 74.7604 140.556 74.5847C140.335 74.353 140.122 74.1295 139.847 73.84C140.875 73.7462 141.699 73.6169 142.036 72.5684C142.143 72.2325 142.696 72.6044 143.03 72.0998C143.489 71.4074 144.34 70.9782 145.118 70.3605C145.069 70.1933 144.978 69.8837 144.893 69.5956C144.953 69.5232 144.979 69.4576 145.022 69.4436C145.421 69.3125 146.785 68.3963 147.156 68.0588C147.794 67.4795 148.45 66.9191 149.111 66.3675C152.206 63.7871 154.938 60.8101 157.95 58.1501C160.09 56.2606 162.222 54.3491 164.451 52.5494C166.327 51.0355 168.209 49.4959 169.993 47.8511C170.989 46.9322 172.176 46.2232 173.267 45.4065C173.611 45.1483 173.906 44.8249 174.252 44.5707C174.827 44.1482 175.425 43.7573 176.012 43.3531C176.6 42.9486 177.254 42.6141 177.763 42.1258C178.908 41.0261 180.389 40.4019 181.535 39.2774C182.178 38.6462 183.202 38.4526 183.912 37.7549C184.493 37.1857 185.474 36.9652 185.915 36.3344C186.427 35.6034 187.274 35.4785 187.833 34.8108C188.39 34.1462 189.478 33.9731 190.192 33.2826C190.474 33.0102 191.119 33.0427 191.592 33.0627C192.267 33.0917 192.788 32.9801 193.067 32.279C193.193 31.9619 195.431 29.561 195.584 29.6144C196.433 29.9122 196.699 29.1573 197.298 28.6163C197.374 28.997 197.424 29.2262 197.464 29.4571C197.497 29.6494 197.518 29.8441 197.559 30.1504C198.169 29.5732 197.959 29.0613 197.623 28.5398C197.997 28.572 198.337 28.6715 198.383 28.5936C198.63 28.1801 198.962 28.1532 199.396 28.0979C199.698 28.059 199.934 27.6064 200.229 27.3769C200.407 27.2382 200.634 27.1411 200.853 27.0815C201.177 26.995 201.668 27.4432 201.811 26.7948C201.946 26.1792 202.591 26.7712 202.696 26.4535C202.996 25.5488 203.764 26.072 204.283 25.8841C204.724 25.725 205.312 25.5447 205.721 26.1249C205.761 26.1823 206.18 26.096 206.26 25.9713C206.413 25.7309 206.479 25.3997 206.846 25.519C207.847 25.8465 208.914 25.4504 209.912 25.8309C210.152 25.923 210.504 25.9905 210.699 25.8803C211.151 25.6264 211.501 25.875 211.83 26.0382C212.298 26.271 212.761 26.4515 213.274 26.5593C213.814 26.6721 214.255 26.9434 214.904 26.6881C215.399 26.4927 215.982 27.0827 216.664 27.024C218.595 26.8577 220.551 27.0783 222.432 27.3834C224.269 27.6807 226.146 27.87 227.961 28.4372C229.083 28.7882 230.236 29.08 231.354 29.47C233.148 30.0957 234.693 31.2304 236.397 32.0119C238.766 33.0978 240.632 34.8123 242.613 36.4043C244.389 37.8303 245.853 39.5268 247.261 41.322C248.124 42.4237 248.707 43.7715 249.879 44.629C249.92 44.6589 249.939 44.7291 249.953 44.7843C250.3 46.1419 251.445 47.031 251.978 48.2867C252.498 49.5136 253.123 50.6961 253.642 51.9237C253.85 52.4173 253.864 52.9899 254.025 53.5085C254.172 53.9819 254.41 54.3817 254.351 54.9527C254.307 55.3827 254.653 55.8416 254.64 56.3847C254.631 56.7058 255.171 57.0225 255.421 57.3715C255.697 57.7583 255.851 58.1713 255.286 58.4728C255.563 59.3794 255.173 60.3785 255.404 61.1894C255.859 62.786 255.164 64.3243 255.482 65.8696C254.968 66.6219 255.575 67.4926 255.169 68.322C254.852 68.9705 254.965 69.8202 254.818 70.5659C254.655 71.3891 254.411 72.1963 254.209 73.0116C254.169 73.1696 254.077 73.3982 254.146 73.4869C254.777 74.3003 254.246 75.0216 253.992 75.7556C253.575 76.9614 253.175 78.1765 252.686 79.3532C251.851 81.362 250.98 83.3508 249.826 85.2141C249.067 86.4388 248.673 87.9102 247.834 89.0646C246.902 90.3489 246.166 91.7373 245.303 93.0535C244.209 94.7222 243.021 96.3234 241.859 97.9443C240.635 99.653 239.293 101.268 238.088 102.986C237.374 104.005 236.818 105.167 235.975 106.057C234.809 107.287 234.021 108.766 233.033 110.106C231.808 111.767 230.844 113.623 229.774 115.399C228.854 116.926 228.378 118.642 227.737 120.288C227.474 120.962 227.296 121.651 226.819 122.269C226.4 122.814 226.264 123.59 226.264 124.354C226.261 125.859 226.251 127.366 226.498 128.85C226.597 129.451 226.962 130.003 227.131 130.598C227.261 131.052 228.012 131.522 227.175 132.038C227.123 132.07 227.25 132.451 227.341 132.649C227.845 133.757 228.38 134.851 228.871 135.965C229.189 136.689 230.046 137.039 230.157 137.892C231.094 138.224 231.036 139.347 231.799 139.913C232.463 140.405 232.737 141.397 233.278 142.094C233.971 142.985 234.94 143.703 235.457 144.675C236.071 145.831 237.149 146.513 237.859 147.562C238.506 148.519 239.642 149.143 240.29 150.101C241.153 151.372 242.204 152.451 243.186 153.605C243.287 153.724 243.178 154.023 243.166 154.272C243.339 154.253 243.55 154.23 243.816 154.202C244.318 155.151 244.953 156.024 245.75 156.79C246.061 157.088 246.154 157.605 246.404 157.982C246.641 158.339 247.001 158.616 247.223 158.98C247.483 159.406 247.671 159.834 248.132 160.139C248.518 160.394 248.828 160.838 249.043 161.264C249.277 161.726 249.55 162.115 249.976 162.394C250.377 162.656 249.728 163.445 250.565 163.509C251.15 163.554 251.033 164.308 251.371 164.511C252.177 164.994 252.392 165.91 252.988 166.549C253.371 166.961 253.744 167.475 254.085 167.968C254.421 168.454 254.463 169.143 255.1 169.42C254.719 169.928 255.357 169.871 255.485 170.097C255.615 170.327 255.851 170.496 255.993 170.721C256.159 170.986 256.283 171.279 256.407 171.566C256.456 171.68 256.434 171.914 256.484 171.926C257.618 172.196 257.672 173.456 258.438 174.081C258.79 174.368 259.004 174.856 259.33 175.233C259.782 175.758 260.41 176.191 260.611 176.959C260.694 177.28 261.046 177.608 261.359 177.773C261.921 178.069 262.121 178.582 262.328 179.094C262.642 179.869 262.761 179.771 263.32 180.502C263.852 181.199 264.646 181.672 265.016 182.45C265.352 183.154 266.529 183.443 266.087 184.55C266.083 184.562 266.449 184.722 266.643 184.811C267.146 185.042 267.33 185.549 267.659 185.929C268.08 186.414 268.307 186.874 268.216 187.518C268.416 187.474 268.573 187.441 268.731 187.406C268.786 187.426 268.866 187.429 268.89 187.468C269.423 188.315 269.941 189.171 270.482 190.012C270.961 190.759 270.968 191.784 271.895 192.281C272.198 192.443 271.677 193.129 272.36 193.305C272.51 193.344 272.513 193.958 272.583 194.307C272.788 194.287 272.999 194.265 273.202 194.244C273.577 195.17 272.932 196.376 274.066 197.025C273.674 197.453 272.822 197.677 273.359 198.635C273.577 198.363 273.73 198.17 273.873 197.992C274.017 198.022 274.192 198.016 274.214 198.071C274.359 198.433 274.471 198.807 274.592 199.177C274.631 199.296 274.676 199.522 274.697 199.519C275.629 199.412 275.121 200.533 275.824 200.801C276.465 201.046 276.221 202.03 276.297 202.652C276.366 203.223 276.527 203.719 276.707 204.241C276.957 204.972 277.365 205.738 277.309 206.458C277.249 207.219 277.806 207.72 277.771 208.376C277.734 209.041 277.603 209.695 278.005 210.299C277.663 211.49 278.28 212.653 278.104 213.832C278.069 214.063 277.825 214.263 277.669 214.488L278.394 216.045C278.093 216.487 277.577 216.846 277.883 217.494C277.314 218.262 278.523 218.258 278.46 218.863C278.338 218.935 278.176 219.107 278.069 219.077C277.788 218.999 277.593 218.882 277.471 219.304C277.386 219.601 277.523 219.608 277.688 219.77C278.121 220.195 278.034 221.116 277.897 221.065C277.032 220.745 277.336 221.542 277.123 221.806C277.04 221.909 277.014 222.18 277.089 222.272C277.788 223.133 277.109 223.747 276.694 224.355C275.506 226.093 275.486 226.079 274.185 226.752C274.323 227.049 274.426 227.378 274.613 227.649C274.893 228.053 274.801 228.442 274.579 228.776C273.89 229.808 273.217 230.86 272.429 231.813C271.681 232.717 270.911 233.691 269.944 234.305C268.499 235.222 267.381 236.581 265.735 237.227C264.178 237.838 262.685 238.615 261.177 239.347C259.57 240.126 257.828 240.348 256.112 240.709C254.942 240.955 253.795 241.096 252.598 241.103C251.855 241.107 251.058 241.251 250.379 241.715C249.472 242.333 248.41 242.343 247.368 242.365C244.52 242.425 242.147 241.96 239.471 241.447C238.105 241.186 236.736 241.014 235.42 240.495C233.248 239.637 231.456 238.414 229.321 236.461C228.217 235.45 226.95 234.591 225.673 233.801C223.196 232.271 221.294 230.579 218.651 228.408C216.447 226.597 214.496 224.54 212.439 222.598C211.357 221.576 210.215 220.59 209.184 219.496C208.16 218.409 207.118 217.34 205.809 216.516C205.028 216.025 204.341 215.261 203.539 214.743C202.041 213.775 200.725 212.59 199.363 211.46C197.715 210.093 195.995 208.79 194.444 207.333C193.059 206.033 191.409 205.13 190.033 203.836C188.67 202.555 187.117 201.476 185.632 200.331C184.212 199.235 182.667 198.481 180.804 198.557C179.684 198.602 178.59 198.42 177.573 197.889Z" fill="#23B965"/>
<path d="M76.3217 29.6886C75.2883 23.7502 69.6376 19.7621 63.726 20.8004C57.8145 21.8388 53.8457 27.5158 54.8792 33.455C55.9128 39.3941 61.5634 43.3814 67.4749 42.3431C73.3864 41.3047 77.3551 35.6269 76.3217 29.6886ZM61.0065 32.3787C60.5636 29.8337 62.2647 27.4004 64.7979 26.9555C67.3311 26.5105 69.753 28.2195 70.1959 30.7646C70.6388 33.3096 68.9377 35.7428 66.4045 36.1878C63.8713 36.6328 61.4495 34.9245 61.0065 32.3787Z" fill="#23B965" stroke="#23B965" stroke-width="0.875124"/>
<path d="M39.3611 107.541C38.4688 102.414 35.8503 98.02 32.2182 94.842L48.0801 69.7091C53.1844 71.7027 58.8598 72.4004 64.6367 71.3857C80.4935 68.6004 91.4535 54.1358 90.2925 38.3355L115.197 33.961C118.505 44.1208 128.827 50.596 139.608 48.7022C151.432 46.6262 159.369 35.2731 157.302 23.3948C155.234 11.5165 143.934 3.54172 132.111 5.61845C121.33 7.51211 113.807 17.1218 114.126 27.8066L89.2215 32.1811C84.9768 16.9225 69.782 7.05207 53.9259 9.83721C48.1505 10.8517 43.048 13.4418 38.9202 17.0554L15.4019 -0.971563C17.8277 -5.24062 18.8458 -10.3477 17.9393 -15.5566C15.8722 -27.4349 4.57186 -35.409 -7.25119 -33.3322C-19.0742 -31.2555 -27.0113 -19.9023 -24.9442 -8.02405C-22.8771 3.85422 -11.5766 11.829 0.246479 9.7523C4.68049 8.97346 8.56769 6.88952 11.586 3.963L34.6415 21.6345C29.5361 28.3315 27.0934 37.0465 28.6501 45.9919C30.2068 54.9372 35.4479 62.3033 42.5122 66.8627L26.9953 91.4489C23.1184 89.6534 18.6849 88.9725 14.1706 89.7655C2.3475 91.8422 -5.58952 103.195 -3.52243 115.074C-1.45535 126.952 9.84504 134.926 21.6681 132.849C33.4911 130.772 41.4281 119.419 39.3611 107.541ZM-18.8176 -9.10019C-20.2941 -17.5844 -14.6242 -25.6946 -6.17943 -27.178C2.26528 -28.6613 10.3378 -22.9649 11.8143 -14.4807C13.2907 -5.99658 7.62082 2.1137 -0.823902 3.59703C-9.26937 5.08049 -17.3412 -0.616032 -18.8176 -9.10019ZM133.182 11.7736C141.627 10.2903 149.699 15.9867 151.176 24.4708C152.652 32.955 146.982 41.0652 138.538 42.5486C130.093 44.0319 122.02 38.3355 120.544 29.8514C119.067 21.3672 124.737 13.2569 133.182 11.7736ZM34.7768 44.9165C32.4145 31.3415 41.4861 18.3664 54.9972 15.9931C68.5083 13.6199 81.4239 22.7337 83.7861 36.3079C86.1483 49.8821 77.0768 62.858 63.5657 65.2313C50.0546 67.6045 37.139 58.4907 34.7768 44.9165ZM2.60411 113.997C1.12767 105.513 6.79759 97.4031 15.2423 95.9197C19.4048 95.1886 23.4683 96.2149 26.7041 98.4465L26.8956 98.5685C30.1303 100.868 32.5014 104.395 33.236 108.617C34.7125 117.101 29.0426 125.211 20.5978 126.695C12.1522 128.177 4.08041 122.481 2.60411 113.997Z" fill="#23B965" stroke="#23B965" stroke-width="0.875124"/>
<path d="M30.1714 109.155C28.9903 102.367 22.5329 97.8104 15.777 98.9971C14.0852 99.2943 12.9539 100.913 13.2496 102.612C13.5452 104.311 15.157 105.449 16.848 105.152C20.2263 104.558 23.4549 106.836 24.0456 110.231C24.3414 111.93 25.953 113.067 27.644 112.77C29.3358 112.473 30.4671 110.853 30.1714 109.155Z" fill="#23B965" stroke="#23B965" stroke-width="0.875124"/>
<path d="M145.585 28.6235C147.277 28.3263 148.408 26.7072 148.113 25.0083C146.932 18.2208 140.474 13.6642 133.718 14.8509C132.027 15.148 130.895 16.7671 131.191 18.4661C131.487 20.1657 133.098 21.3023 134.789 21.0053C138.168 20.4119 141.396 22.6894 141.987 26.0843C142.282 27.7833 143.894 28.9206 145.585 28.6235Z" fill="#23B965" stroke="#23B965" stroke-width="0.875124"/>
<path d="M53.9435 327.722C53.98 327.499 53.965 327.249 53.8802 326.972C50.4034 315.559 46.8108 304.18 43.8727 292.61C43.875 292.585 43.8836 292.563 43.8863 292.537C44.3912 286.867 45.2703 281.288 46.7568 275.788C46.7957 275.646 46.8151 275.508 46.8219 275.375C47.4619 275.522 48.1022 275.67 48.7432 275.815C48.7859 275.825 48.8261 275.824 48.8681 275.831C48.9567 275.882 49.0499 275.928 49.1501 275.963C52.1136 276.977 55.1611 274.686 55.3459 271.686C55.6425 266.885 49.6162 266.361 46.282 265.316C42.6275 264.172 34.7978 262.022 34.7306 261.995C32.0179 260.911 29.3672 259.658 26.4589 259.199C20.1794 258.208 18.4984 264.563 23.6305 267.742C23.6175 267.773 23.6002 267.799 23.5884 267.832C21.7587 273.007 20.3532 278.279 19.3336 283.674C19.3029 283.836 19.299 283.984 19.3079 284.125C13.8686 295.859 4.11074 304.597 -4.09475 314.326C-4.13685 314.359 -4.18179 314.385 -4.21945 314.423C-5.96534 316.177 -6.90923 318.369 -6.30577 320.857C-6.2667 321.019 -6.20721 321.16 -6.13907 321.291C-6.1132 321.381 -6.08369 321.472 -6.04076 321.559C-5.38627 322.871 -4.25259 323.66 -2.91145 324.165C-2.87128 324.18 -2.83076 324.183 -2.79088 324.196C-2.76209 324.21 -2.73827 324.227 -2.70809 324.239C13.0141 330.463 29.7542 331.806 46.3666 333.904C46.5656 333.929 46.7439 333.915 46.9107 333.885C46.9576 333.897 47.0028 333.912 47.0513 333.921C48.8584 334.26 50.6584 333.714 52.0893 332.587C52.2327 332.473 52.3412 332.349 52.4342 332.221C52.5446 332.131 52.6517 332.034 52.7449 331.92C53.6755 330.788 53.9891 329.343 53.9598 327.905C53.9592 327.843 53.9492 327.783 53.9435 327.722ZM24.1168 263.425C23.9498 262.87 24.0969 262.331 24.3596 261.821C27.2915 262.343 30.1377 263.143 32.9219 264.198C32.9336 264.203 32.9416 264.21 32.9533 264.214C38.8105 266.615 44.7798 268.638 50.8933 270.27C50.94 270.282 50.9854 270.283 51.0308 270.292C51.0747 270.317 51.1177 270.346 51.1648 270.368C51.1908 270.381 51.2015 270.386 51.2212 270.395C51.2425 270.41 51.2765 270.434 51.3422 270.475C51.431 270.531 51.5116 270.599 51.5937 270.663C51.5968 270.677 51.7553 270.827 51.7877 270.866C51.8056 270.89 51.8148 270.902 51.8268 270.919C51.8547 270.972 51.8838 271.025 51.9085 271.08C51.9211 271.106 51.927 271.116 51.9357 271.134C51.94 271.15 51.9403 271.156 51.9456 271.177C51.9678 271.262 51.974 271.349 51.9861 271.436C51.9795 271.456 51.9881 271.678 51.9853 271.727C51.9791 271.807 51.8528 272.412 51.9451 272.041C51.9334 272.087 51.9296 272.134 51.9213 272.18C51.8911 272.228 51.8629 272.276 51.8307 272.321C51.8149 272.346 51.7064 272.465 51.6535 272.528C51.6018 272.574 51.5462 272.618 51.4902 272.66C51.488 272.653 51.4163 272.692 51.3478 272.731C51.2866 272.749 51.154 272.796 51.1084 272.804C51.0779 272.81 51.0648 272.814 51.0452 272.818C51.0233 272.817 51.0053 272.815 50.9687 272.815C50.8611 272.814 50.7548 272.795 50.649 272.779C50.6541 272.769 50.3741 272.702 50.3334 272.689C50.2117 272.627 50.0781 272.575 49.9226 272.54C41.8046 270.695 33.6887 268.838 26.1695 265.144C26.0421 265.081 25.918 265.037 25.7971 265.007C25.1174 264.63 24.3239 264.116 24.1168 263.425ZM17.6048 293.914L23.7229 295.678C25.6897 296.245 26.5648 293.182 24.598 292.615L19.4214 291.122C20.3084 289.678 21.1451 288.194 21.9103 286.658L26.5363 287.992C28.5032 288.559 29.3781 285.496 27.4113 284.929L22.8577 283.616C23.2498 281.587 23.7145 279.58 24.2328 277.588L29.2978 279.049C31.2642 279.616 32.1393 276.552 30.1729 275.985L25.0868 274.519C25.6076 272.748 26.1592 270.984 26.7732 269.236C32.145 271.649 37.7885 273.226 43.4974 274.598C43.4968 274.6 43.4964 274.602 43.4957 274.604C41.9687 280.255 41.0141 285.989 40.4731 291.813C40.3206 292.114 40.2668 292.485 40.3779 292.921C41.0604 295.618 41.7817 298.304 42.5259 300.983C33.1979 303.167 23.394 302.596 15.3379 297.051C16.1176 296.023 16.8765 294.979 17.6048 293.914ZM49.9441 329.864C49.9198 329.882 49.8943 329.893 49.8698 329.911C49.7822 329.983 49.6921 330.052 49.6008 330.117C49.5796 330.13 49.5585 330.142 49.527 330.16C49.4243 330.217 49.3201 330.269 49.2126 330.317C49.216 330.317 48.9011 330.428 48.8886 330.442C48.3128 330.599 47.9822 330.573 47.3221 330.449C47.1451 330.417 46.9719 330.433 46.8039 330.47C46.7481 330.458 46.6976 330.439 46.6372 330.432C30.3278 328.373 13.9077 327.077 -1.52946 320.966C-1.57264 320.948 -1.61368 320.943 -1.65656 320.929C-1.68265 320.917 -1.70619 320.901 -1.73243 320.891C-1.8968 320.83 -2.05668 320.76 -2.21659 320.689C-2.19483 320.687 -2.51898 320.509 -2.57299 320.472C-2.61271 320.443 -2.64894 320.412 -2.68683 320.381C-2.70235 320.363 -2.72606 320.337 -2.76055 320.302C-2.79232 320.264 -2.82021 320.223 -2.8499 320.184C-2.86018 320.162 -2.87644 320.131 -2.90184 320.083C-2.91167 320.065 -2.92387 320.051 -2.93297 320.034C-3.15654 318.888 -2.8547 317.958 -2.00066 317.1C-1.90266 317 -1.8178 316.892 -1.74115 316.781C-1.60207 316.687 -1.46696 316.578 -1.34457 316.433C3.4659 310.718 8.70974 305.353 13.3765 299.563C22.1721 305.799 33.1501 306.476 43.3944 304.054C45.643 311.935 48.0823 319.761 50.4716 327.602C50.4804 327.63 50.4938 327.653 50.503 327.679C50.5186 328.519 50.4654 329.203 49.9441 329.864Z" fill="#23B965" stroke="#23B965" stroke-width="1.75025"/>
</g>
</svg>
