<svg width="42" height="41" viewBox="0 0 42 41" fill="none" xmlns="http://www.w3.org/2000/svg">
<path d="M0 2.05C0 0.917816 0.783502 0 1.75 0H40.25C41.2165 0 42 0.917816 42 2.05C42 3.18218 41.2165 4.1 40.25 4.1H1.75C0.783502 4.1 0 3.18218 0 2.05ZM2.26256 10.8504C2.94598 10.0499 4.05402 10.0499 4.73744 10.8504L11.7374 19.0504C12.4209 19.851 12.4209 21.149 11.7374 21.9496L4.73744 30.1496C4.05402 30.9501 2.94598 30.9501 2.26256 30.1496C1.57915 29.349 1.57915 28.051 2.26256 27.2504L8.02513 20.5L2.26256 13.7496C1.57915 12.949 1.57915 11.651 2.26256 10.8504ZM17.5 14.35C17.5 13.2178 18.2835 12.3 19.25 12.3H40.25C41.2165 12.3 42 13.2178 42 14.35C42 15.4822 41.2165 16.4 40.25 16.4H19.25C18.2835 16.4 17.5 15.4822 17.5 14.35ZM17.5 26.65C17.5 25.5178 18.2835 24.6 19.25 24.6H40.25C41.2165 24.6 42 25.5178 42 26.65C42 27.7822 41.2165 28.7 40.25 28.7H19.25C18.2835 28.7 17.5 27.7822 17.5 26.65ZM0 38.95C0 37.8178 0.783502 36.9 1.75 36.9H40.25C41.2165 36.9 42 37.8178 42 38.95C42 40.0822 41.2165 41 40.25 41H1.75C0.783502 41 0 40.0822 0 38.95Z" fill="black"/>
</svg>
