<svg width="419" height="320" viewBox="0 0 419 320" fill="none" xmlns="http://www.w3.org/2000/svg">
<path d="M246.477 109.357C280.892 122.074 288.728 77.6972 288.344 53.9192C312.359 49.2543 359.737 65.9174 340.92 119.435C325.866 162.248 281.15 162.153 260.673 156.754L234.376 231.543L252.23 237.821L261.397 211.747C270.769 215.814 380.282 233.503 394.48 138.267C407.303 52.2489 298.718 24.415 254.568 35.8754C210.418 47.3357 203.459 93.46 246.477 109.357Z" fill="black" fill-opacity="0.15"/>
<path d="M253.745 269.46C250.014 280.071 238.382 285.646 227.763 281.912C217.145 278.179 211.561 266.551 215.292 255.94C219.023 245.33 230.655 239.755 241.274 243.488C251.892 247.222 257.476 258.85 253.745 269.46Z" fill="black" fill-opacity="0.15"/>
<path d="M77.6696 150.906C110.414 134.357 83.2454 98.405 65.5678 82.4976C78.5009 61.7316 122.961 38.374 149.349 88.5918C170.46 128.766 139.946 161.454 122.051 172.777L158.928 242.956L175.681 234.153L162.824 209.687C172.183 205.59 259.698 137.42 199.607 62.1828C145.333 -5.7714 51.02 54.8123 29.3561 94.9529C7.69226 135.093 36.7385 171.593 77.6696 150.906Z" fill="white" fill-opacity="0.15"/>
<path d="M199.887 254.583C205.119 264.54 201.283 276.855 191.319 282.091C181.355 287.327 169.036 283.5 163.805 273.544C158.573 263.587 162.409 251.272 172.373 246.036C182.337 240.8 194.655 244.627 199.887 254.583Z" fill="white" fill-opacity="0.15"/>
<path d="M161.606 118.005C202.932 118.661 194.678 68.5176 185.385 43.3641C209.164 29.4178 265.742 29.4227 265.742 93.3978C265.742 144.578 218.183 161.204 194.404 163.119V252.524H215.723V221.355C227.203 222.176 350.2 200.029 329.701 93.3978C311.185 -2.91191 185.385 8.09441 142.746 36.8023C100.107 65.5101 109.947 117.184 161.606 118.005Z" fill="white"/>
<path d="M229.157 285.618C229.157 298.302 218.878 308.584 206.198 308.584C193.518 308.584 183.238 298.302 183.238 285.618C183.238 272.934 193.518 262.652 206.198 262.652C218.878 262.652 229.157 272.934 229.157 285.618Z" fill="white"/>
</svg>
