<svg width="42" height="42" viewBox="0 0 42 42" fill="none" xmlns="http://www.w3.org/2000/svg">
<path d="M21 9.1875C21 8.46263 20.4124 7.875 19.6875 7.875C18.9626 7.875 18.375 8.46263 18.375 9.1875V23.625C18.375 24.096 18.6274 24.5309 19.0363 24.7646L28.2238 30.0146C28.8532 30.3742 29.6549 30.1556 30.0146 29.5262C30.3742 28.8968 30.1556 28.0951 29.5262 27.7354L21 22.8633V9.1875Z" fill="black"/>
<path d="M21 42C32.598 42 42 32.598 42 21C42 9.40202 32.598 0 21 0C9.40202 0 0 9.40202 0 21C0 32.598 9.40202 42 21 42ZM39.375 21C39.375 31.1482 31.1482 39.375 21 39.375C10.8518 39.375 2.625 31.1482 2.625 21C2.625 10.8518 10.8518 2.625 21 2.625C31.1482 2.625 39.375 10.8518 39.375 21Z" fill="black"/>
</svg>
