<svg width="518" height="446" viewBox="0 0 518 446" fill="none" xmlns="http://www.w3.org/2000/svg">
<path d="M518 25.5843V134.007C518 183.792 516.77 224.72 468.155 226.793C516.77 228.865 518 269.793 518 319.578V420.584C518 434.391 506.807 445.584 493 445.584L25 445.584C11.1929 445.584 0 434.391 0 420.584V319.578C0 269.793 0.252625 228.865 48.8679 226.793C0.252625 224.72 0 183.792 0 134.007V25.5843C0 11.7772 11.1929 0.58429 25 0.58429L493 0.58429C506.807 0.58429 518 11.7772 518 25.5843Z" fill="#916AFF"/>
</svg>
