<svg width="23" height="23" viewBox="0 0 23 23" fill="none" xmlns="http://www.w3.org/2000/svg">
<path fill-rule="evenodd" clip-rule="evenodd" d="M22.3248 11.6731C22.3248 17.8379 17.3272 22.8355 11.1624 22.8355C4.99757 22.8355 0 17.8379 0 11.6731C0 5.50831 4.99757 0.510742 11.1624 0.510742C17.3272 0.510742 22.3248 5.50831 22.3248 11.6731ZM11.5622 8.75122C10.4765 9.20281 8.30658 10.1375 5.05252 11.5552C4.52411 11.7653 4.24731 11.9709 4.22211 12.1719C4.17952 12.5116 4.60493 12.6454 5.18422 12.8275C5.26302 12.8523 5.34466 12.878 5.42836 12.9052C5.99829 13.0905 6.76495 13.3072 7.16351 13.3158C7.52504 13.3236 7.92854 13.1746 8.37403 12.8687C11.4144 10.8163 12.9838 9.77898 13.0824 9.75662C13.1519 9.74084 13.2482 9.721 13.3135 9.77902C13.3788 9.83703 13.3723 9.94689 13.3654 9.97636C13.3233 10.156 11.6534 11.7085 10.7893 12.5119C10.5199 12.7623 10.3288 12.94 10.2897 12.9806C10.2022 13.0715 10.113 13.1574 10.0273 13.2401C9.49782 13.7505 9.10076 14.1333 10.0493 14.7583C10.5051 15.0587 10.8698 15.3071 11.2337 15.5549C11.6311 15.8255 12.0275 16.0954 12.5404 16.4316C12.671 16.5173 12.7958 16.6062 12.9173 16.6929C13.3798 17.0226 13.7953 17.3188 14.3086 17.2716C14.6069 17.2441 14.915 16.9636 15.0715 16.1272C15.4413 14.1503 16.1681 9.86702 16.3361 8.10199C16.3508 7.94735 16.3323 7.74944 16.3175 7.66256C16.3026 7.57568 16.2715 7.4519 16.1586 7.36027C16.0249 7.25175 15.8184 7.22887 15.7261 7.23049C15.3062 7.23789 14.6621 7.46186 11.5622 8.75122Z" fill="#7A7A7A"/>
</svg>
