<svg width="518" height="446" viewBox="0 0 518 446" fill="none" xmlns="http://www.w3.org/2000/svg">
<path d="M492.983 445.511H362.679H361.782C304.239 445.512 257.076 445.513 254.676 396.028C252.276 445.513 205.114 445.512 147.57 445.511H146.674H25.0028C11.1957 445.511 0.00283255 434.318 0.00283255 420.511V319.505C0.00283255 269.72 -1.3731 228.792 56.5261 226.719C-1.3731 224.647 0.00283255 183.718 0.00283255 133.934V25.5107C0.00283255 11.7036 11.1957 0.510742 25.0028 0.510742H146.674C204.623 0.510742 252.264 1.27531 254.676 51.0169C257.089 1.27531 304.729 0.510742 362.679 0.510742H492.983C506.79 0.510742 517.983 11.7036 517.983 25.5107V133.934C517.983 183.718 520.555 224.647 462.656 226.719C520.555 228.792 517.983 269.72 517.983 319.505V420.511C517.983 434.318 506.79 445.511 492.983 445.511Z" fill="#FFB906"/>
</svg>
