<svg width="518" height="446" viewBox="0 0 518 446" fill="none" xmlns="http://www.w3.org/2000/svg">
<path d="M518 25.5107V133.934C518 183.718 516.77 224.646 468.155 226.719C516.77 228.792 518 269.72 518 319.505V420.511C518 434.318 506.807 445.511 493 445.511L25 445.511C11.1929 445.511 0 434.318 0 420.511V319.505C0 269.72 0.252563 228.792 48.8679 226.719C0.252563 224.646 0 183.718 0 133.934V25.5107C0 11.7036 11.1929 0.510742 25 0.510742L493 0.510742C506.807 0.510742 518 11.7036 518 25.5107Z" fill="#A180FF"/>
</svg>
