<svg width="40" height="41" viewBox="0 0 40 41" fill="none" xmlns="http://www.w3.org/2000/svg">
<rect x="-0.000915527" y="0.11676" width="40" height="39.9999" rx="8" fill="#F5F5F5"/>
<path d="M30.9741 16.8107L23.8881 9.7247C21.7386 7.58078 18.2595 7.58078 16.1101 9.7247L9.02411 16.8107C8.36561 17.4657 7.99652 18.3569 7.9991 19.2857V29.6636C8.0013 31.0183 9.09949 32.1155 10.4541 32.1167H29.5441C30.8987 32.1156 31.9968 31.0183 31.9991 29.6636V19.2857C32.0017 18.3569 31.6326 17.4657 30.9741 16.8107ZM28.9991 29.1167H23.9991V25.9347C23.9991 23.826 22.2897 22.1166 20.1811 22.1166H19.8171C17.7085 22.1166 15.9991 23.826 15.9991 25.9347V29.1167H10.9991V19.2857C10.9994 19.1531 11.0518 19.0259 11.1451 18.9317L18.2311 11.8457C19.2073 10.8692 20.7902 10.8691 21.7666 11.8452C21.7668 11.8454 21.767 11.8456 21.7671 11.8457L28.8531 18.9317C28.9463 19.0259 28.9988 19.1531 28.9991 19.2857V29.1167H28.9991Z" fill="#4526FF"/>
</svg>
