<svg width="24" height="25" viewBox="0 0 24 25" fill="none" xmlns="http://www.w3.org/2000/svg">
<path d="M22.974 8.81075L15.888 1.72476C13.7386 -0.419158 10.2595 -0.419158 8.11004 1.72476L1.02405 8.81075C0.365552 9.46573 -0.00354127 10.3569 -0.000963147 11.2857V21.6637C0.00123997 23.0183 1.09943 24.1156 2.45406 24.1167H21.544C22.8986 24.1156 23.9968 23.0183 23.999 21.6637V11.2857C24.0016 10.3569 23.6325 9.46573 22.974 8.81075ZM20.999 21.1167H15.999V17.9347C15.999 15.8261 14.2896 14.1167 12.181 14.1167H11.817C9.70842 14.1167 7.99904 15.8261 7.99904 17.9347V21.1167H2.99903V11.2857C2.99936 11.1531 3.05177 11.026 3.14505 10.9317L10.231 3.84576C11.2072 2.8693 12.7901 2.86912 13.7666 3.84529C13.7667 3.84543 13.7669 3.84561 13.767 3.84576L20.853 10.9317C20.9463 11.026 20.9987 11.1531 20.999 11.2857V21.1167H20.999Z" fill="white"/>
</svg>
