<svg width="56" height="56" viewBox="0 0 56 56" fill="none" xmlns="http://www.w3.org/2000/svg">
<path d="M40.5235 28.6564C40.5235 31.0758 42.1713 33.0154 44.5072 33.0154C46.8014 33.0154 48.4699 31.1175 48.4699 28.6564C48.4699 26.1953 46.8014 24.2974 44.5072 24.2974C42.1713 24.2974 40.5235 26.237 40.5235 28.6564Z" fill="#4526FF"/>
<path fill-rule="evenodd" clip-rule="evenodd" d="M28.0521 0.5H0V28.4479C0 43.9406 12.5594 56.5 28.0521 56.5H56V28.4479C56 13.0127 43.4874 0.5 28.0521 0.5ZM7.73782 36.0605H4.35901V21.2523H7.84211V30.4292H7.88381L13.5151 21.2523H16.8104V36.0605H13.3274V27.1131L13.2857 27.0922L7.73782 36.0605ZM22.9341 36.0605H19.4928V21.2523H22.9967L27.1054 29.1153H27.1472L31.2142 21.2523H34.739V36.0605H31.2768V27.9056H31.2351L28.2317 33.3283H26L22.9967 27.8847H22.9341V36.0605ZM52.1198 28.6564C52.1198 33.1823 48.9288 36.2482 44.5072 36.2482C40.0021 36.2482 36.8736 33.1197 36.8736 28.6564C36.8736 24.1931 40.0021 21.0438 44.5072 21.0438C48.9288 21.0438 52.1198 24.1097 52.1198 28.6564Z" fill="#4526FF"/>
</svg>
