<svg width="23" height="26" viewBox="0 0 23 26" fill="none" xmlns="http://www.w3.org/2000/svg">
<path d="M4.6 5.90909C4.6 5.25639 5.11487 4.72727 5.75 4.72727H17.25C17.8851 4.72727 18.4 5.25639 18.4 5.90909C18.4 6.56179 17.8851 7.09091 17.25 7.09091H5.75C5.11487 7.09091 4.6 6.56179 4.6 5.90909Z" fill="#4526FF"/>
<path d="M4.6 10.6364C4.6 9.98366 5.11487 9.45455 5.75 9.45455H17.25C17.8851 9.45455 18.4 9.98366 18.4 10.6364C18.4 11.2891 17.8851 11.8182 17.25 11.8182H5.75C5.11487 11.8182 4.6 11.2891 4.6 10.6364Z" fill="#4526FF"/>
<path d="M5.75 14.1818C5.11487 14.1818 4.6 14.7109 4.6 15.3636C4.6 16.0163 5.11487 16.5455 5.75 16.5455H17.25C17.8851 16.5455 18.4 16.0163 18.4 15.3636C18.4 14.7109 17.8851 14.1818 17.25 14.1818H5.75Z" fill="#4526FF"/>
<path d="M4.6 20.0909C4.6 19.4382 5.11487 18.9091 5.75 18.9091H10.35C10.9851 18.9091 11.5 19.4382 11.5 20.0909C11.5 20.7436 10.9851 21.2727 10.35 21.2727H5.75C5.11487 21.2727 4.6 20.7436 4.6 20.0909Z" fill="#4526FF"/>
<path fill-rule="evenodd" clip-rule="evenodd" d="M0 3.54545C0 1.58735 1.54462 0 3.45 0H19.55C21.4554 0 23 1.58735 23 3.54545V22.4545C23 24.4126 21.4554 26 19.55 26H3.45C1.54462 26 0 24.4126 0 22.4545V3.54545ZM3.45 2.36364H19.55C20.1851 2.36364 20.7 2.89275 20.7 3.54545V22.4545C20.7 23.1072 20.1851 23.6364 19.55 23.6364H3.45C2.81487 23.6364 2.3 23.1072 2.3 22.4545V3.54545C2.3 2.89275 2.81487 2.36364 3.45 2.36364Z" fill="#4526FF"/>
</svg>
