<svg width="24" height="23" viewBox="0 0 24 23" fill="none" xmlns="http://www.w3.org/2000/svg">
<path d="M18.6462 16.1207L18.5231 16.2935L18.6731 16.4435L22.5208 20.2909C23.0678 20.8379 23.0678 21.7248 22.5208 22.2718C21.9738 22.8188 21.087 22.8188 20.54 22.2718L16.6921 18.4243L16.5421 18.2743L16.3694 18.3974C12.5977 21.0851 7.32744 20.7369 3.94373 17.3535C0.172053 13.582 0.172053 7.46739 3.94373 3.69598C7.71541 -0.0754411 13.8305 -0.0754415 17.6022 3.69598C20.9859 7.07944 21.3341 12.3493 18.6462 16.1207ZM15.6213 15.3727C18.2989 12.6952 18.2989 8.3542 15.6213 5.67674C12.9436 2.99929 8.60232 2.99929 5.92469 5.67674C3.24704 8.3542 3.24704 12.6952 5.92469 15.3727C8.60232 18.0501 12.9436 18.0501 15.6213 15.3727Z" fill="#000212" stroke="#000212" stroke-width="0.501429"/>
</svg>
