<svg width="560" height="471" viewBox="0 0 560 471" fill="none" xmlns="http://www.w3.org/2000/svg">
<path d="M559.701 57.3736V141.325C559.701 193.882 558.373 237.09 505.861 239.278C558.373 241.466 559.701 284.673 559.701 337.23V413.352C559.701 444.778 534.225 470.254 502.799 470.254L57.0871 470.254C25.6612 470.254 0.185425 444.778 0.185425 413.352V337.23C0.185425 284.673 0.458313 241.466 52.9699 239.278C0.458313 237.09 0.185425 193.882 0.185425 141.325V57.3736C0.185425 25.9476 25.6612 0.471832 57.0871 0.471832L502.799 0.471832C534.225 0.471832 559.701 25.9476 559.701 57.3736Z" fill="#46A9FF"/>
</svg>
