<svg width="423" height="423" viewBox="0 0 423 423" fill="none" xmlns="http://www.w3.org/2000/svg">
<path d="M306.097 212.682C306.097 230.957 318.544 245.608 336.188 245.608C353.518 245.608 366.121 231.272 366.121 212.682C366.121 194.092 353.518 179.755 336.188 179.755C318.544 179.755 306.097 194.407 306.097 212.682Z" fill="#4526FF"/>
<path fill-rule="evenodd" clip-rule="evenodd" d="M211.894 0H0V211.106C0 328.132 94.8682 423 211.894 423H423V211.106C423 94.5155 328.485 0 211.894 0ZM58.4482 268.609H32.9261V156.754H59.2359V226.073H59.5509L102.087 156.754H126.979V268.609H100.669V201.024L100.354 200.866L58.4482 268.609ZM173.235 268.609H147.24V156.754H173.707L204.743 216.147H205.058L235.779 156.754H262.403V268.609H236.251V207.01H235.936L213.25 247.971H196.393L173.707 206.853H173.235V268.609ZM393.691 212.682C393.691 246.868 369.587 270.027 336.188 270.027C302.159 270.027 278.528 246.395 278.528 212.682C278.528 178.968 302.159 155.179 336.188 155.179C369.587 155.179 393.691 178.337 393.691 212.682Z" fill="#4526FF"/>
</svg>
