<svg width="23" height="18" viewBox="0 0 23 18" fill="none" xmlns="http://www.w3.org/2000/svg">
<path d="M7.40223 17.8679C15.7385 17.8679 20.298 11.1895 20.298 5.39803C20.298 5.20834 20.298 5.01951 20.2848 4.83153C21.1718 4.21112 21.9375 3.44294 22.546 2.56296C21.7189 2.91756 20.8413 3.15 19.9428 3.2525C20.889 2.70485 21.5971 1.84336 21.9354 0.828427C21.0457 1.33897 20.0724 1.69874 19.0574 1.89222C18.374 1.18959 17.4703 0.724328 16.4859 0.568429C15.5015 0.41253 14.4915 0.574686 13.612 1.0298C12.7326 1.48492 12.0328 2.20763 11.6209 3.08609C11.209 3.96455 11.108 4.94979 11.3335 5.88934C9.53158 5.80193 7.76879 5.34911 6.15955 4.56025C4.55032 3.77139 3.13062 2.66413 1.99261 1.31034C1.41302 2.27515 1.23551 3.4173 1.4962 4.50422C1.7569 5.59115 2.43621 6.54114 3.39582 7.16076C2.67451 7.14033 1.9689 6.95216 1.33871 6.61221V6.66774C1.339 7.6796 1.70124 8.66021 2.36398 9.44326C3.02673 10.2263 3.94918 10.7636 4.97488 10.9639C4.30762 11.1399 3.60752 11.1656 2.92838 11.0391C3.21811 11.9099 3.782 12.6713 4.5412 13.217C5.3004 13.7627 6.21696 14.0654 7.16276 14.0827C6.22305 14.7969 5.14692 15.325 3.99595 15.6367C2.84498 15.9484 1.64174 16.0376 0.455078 15.8992C2.52779 17.1854 4.93946 17.8676 7.40223 17.8645" fill="#7A7A7A"/>
</svg>
