<svg width="19" height="20" viewBox="0 0 19 20" fill="none" xmlns="http://www.w3.org/2000/svg">
<path d="M9.4592 0.510742C4.2435 0.510742 0.00191815 4.74267 8.95482e-07 9.94435C-0.000772191 11.7269 0.499033 13.463 1.44548 14.9653L1.67048 15.3221L0.715032 18.8034L4.29378 17.8668L4.63935 18.0712C6.09078 18.931 7.75484 19.3856 9.45193 19.3865H9.45553C14.6672 19.3865 18.9088 15.1541 18.9109 9.95201C18.9118 7.43113 17.9293 5.0606 16.144 3.27743C14.3587 1.49427 11.9849 0.511805 9.4592 0.510742Z" fill="#7A7A7A"/>
<path fill-rule="evenodd" clip-rule="evenodd" d="M6.61216 5.19893C6.3991 4.72661 6.17495 4.71704 5.97253 4.70875C5.80677 4.70173 5.61714 4.70215 5.42772 4.70215C5.23809 4.70215 4.9302 4.77318 4.66983 5.05708C4.40925 5.34099 3.6748 6.02724 3.6748 7.42315C3.6748 8.81906 4.69348 10.1678 4.83539 10.3572C4.97751 10.5465 6.8018 13.5025 9.69121 14.6396C12.0923 15.5847 12.5808 15.3967 13.1022 15.3494C13.6234 15.3022 14.784 14.6632 15.0207 14.0008C15.2576 13.3383 15.2576 12.7707 15.1867 12.6521C15.1155 12.5336 14.9261 12.4628 14.6416 12.3209C14.3574 12.1791 12.9599 11.4926 12.6993 11.398C12.4387 11.3034 12.2493 11.2561 12.0597 11.5401C11.8703 11.824 11.3259 12.4628 11.1599 12.6521C10.9941 12.8415 10.8284 12.8651 10.5439 12.7233C10.2597 12.581 9.34413 12.2818 8.25812 11.3153C7.41309 10.5633 6.84271 9.63461 6.67673 9.35071C6.51096 9.06681 6.65904 8.91326 6.80158 8.77185C6.92921 8.64467 7.08582 8.44052 7.22815 8.27486C7.36984 8.10919 7.41735 7.99095 7.51195 7.8019C7.60677 7.61242 7.55947 7.44675 7.4883 7.30491C7.41735 7.16307 6.86486 5.75993 6.61216 5.19893" fill="#F1F1F1"/>
</svg>
