<svg width="1920" height="384" viewBox="0 0 1920 384" fill="none" xmlns="http://www.w3.org/2000/svg">
<path d="M610.188 264.036L622.087 260.666L620.224 251.078C618.213 240.732 624.578 230.601 634.772 227.921L664.21 220.182C662.708 214.237 666.272 208.191 672.2 206.626L732.59 190.679L732.508 190.331C731.251 185.003 734.189 179.58 739.338 177.722C745.093 175.645 751.42 178.771 753.268 184.603L785.221 285.431C787.39 292.277 783.208 299.508 776.192 301.041L775.829 301.12C769.87 302.423 763.9 298.967 762.061 293.151L702.43 310.843C696.642 312.561 690.587 309.115 689.109 303.261L659.55 312.544C649.368 315.742 638.468 310.382 634.786 300.364L630.94 289.904L619.003 293.635C610.659 296.243 601.815 291.41 599.503 282.978C597.261 274.801 602.03 266.346 610.188 264.036Z" fill="#F4F4F4"/>
<path d="M627.5 278L602 283C603.667 290.667 607 292.6 609 297C611 301.4 628.5 293.167 630.5 294L636 308.5L651.5 315.5L658.5 311.5L689 303.5L691 308.5L704 311.5L760 292L771.5 301.5H779L787 287L780 266L757 271.5L686 292L652.557 301.857C644.602 304.202 636.174 300.079 633.141 292.36L627.5 278Z" fill="#C2D8E6"/>
<path d="M622.087 260.666L610.188 264.036C602.03 266.346 597.261 274.801 599.503 282.978V282.978C601.815 291.41 610.659 296.243 619.003 293.635L630.94 289.904M622.087 260.666L620.224 251.078C618.213 240.732 624.578 230.601 634.772 227.921L664.21 220.182M622.087 260.666L630.94 289.904M630.94 289.904L634.786 300.364C638.468 310.382 649.368 315.742 659.55 312.544L689.109 303.261M689.109 303.261L664.21 220.182M689.109 303.261V303.261C690.587 309.115 696.642 312.561 702.43 310.843L762.061 293.151M664.21 220.182V220.182C662.708 214.237 666.272 208.191 672.2 206.626L732.59 190.679M732.59 190.679L762.061 293.151M732.59 190.679L732.508 190.331C731.251 185.003 734.189 179.58 739.338 177.722V177.722C745.093 175.645 751.42 178.771 753.268 184.603L785.221 285.431C787.39 292.277 783.208 299.508 776.192 301.041L775.829 301.12C769.87 302.423 763.9 298.967 762.061 293.151V293.151" stroke="#343D4C" stroke-width="6" stroke-linecap="round"/>
<path d="M599 277.379C599 277.379 601.872 276.631 549.5 285.195C497.128 293.759 459.863 261.668 506.5 190.88C534.5 148.379 477.5 89.6949 413 105.695C348.5 121.695 297.5 153.529 261 172.695C187.5 213.797 31.1 306.1 -6.5 346.5" stroke="#343D4C" stroke-width="6" stroke-linecap="round"/>
<path d="M604 292C604 292 561.5 303.5 524.5 303.5C487.5 303.5 439.076 260.799 481.5 203C516.854 154.833 475 112.198 415 122.5C355 132.802 301.5 173.833 265 193C181.333 246.333 14.5 355.5 -8 380.5" stroke="#343D4C" stroke-width="6" stroke-linecap="round"/>
<path d="M652.5 241L666.5 289M640 245.5L653 291.5" stroke="#343D4C" stroke-width="4" stroke-linecap="round"/>
<path d="M725 206L683.832 217.387C680.619 218.276 678.747 221.613 679.662 224.818L680 226" stroke="#343D4C" stroke-width="3" stroke-linecap="round"/>
<path d="M1316.98 68.1965C1356.65 56.9705 1413.12 36.3412 1479.53 33.9888C1545.94 31.6363 1589.61 100.816 1553.45 136.627C1493.22 196.274 1534 224.5 1576.07 237.783C1618.14 251.067 1904.5 179.264 1921.5 166" stroke="#343D4C" stroke-width="6" stroke-linecap="round"/>
<path d="M1316.71 88.8896C1356.37 77.6636 1417.19 48.5501 1478.02 50.8448C1538.86 53.1395 1571.02 103.491 1526.49 143.33C1473.05 191.136 1504 244.5 1576.5 260C1649 275.5 1900.5 199 1922 185.5" stroke="#343D4C" stroke-width="6" stroke-linecap="round"/>
<path d="M1156.17 174.653L1128.41 93.3625C1126.43 87.553 1129.59 81.244 1135.42 79.3465L1204.81 56.7976L1204.36 55.3092C1202.99 50.7611 1205.87 46.0325 1210.53 45.1498L1213.69 44.5524C1217.51 43.8291 1221.3 45.961 1222.67 49.6039L1223.31 51.301L1226.04 58.9121L1263.32 44.3847C1267.51 42.7543 1272.21 44.8871 1273.75 49.1085L1281.84 71.4121L1304.9 61.8161C1311.39 59.1171 1318.79 62.5406 1320.94 69.229L1323.11 76.01C1325.01 81.9061 1322.1 88.2733 1316.41 90.7087L1292.56 100.912L1298.8 118.125C1300.28 122.186 1298.26 126.684 1294.25 128.285L1256.34 143.412L1258.81 150.297L1259.25 151.789C1260.62 156.337 1257.74 161.066 1253.08 161.949L1249.92 162.546C1246.1 163.269 1242.31 161.137 1240.94 157.495L1240.31 155.797L1170.37 181.427C1164.57 183.55 1158.17 180.493 1156.17 174.653Z" fill="#F4F4F4"/>
<path d="M1263.71 116.469L1248.36 68.8836M1276.08 111.617L1261.79 66.0029" stroke="#343D4C" stroke-width="4" stroke-linecap="round"/>
<path d="M1231.21 136.5L1150.71 162.5V169L1163.21 178.5L1175.21 176L1235.71 158.5H1239.71L1248.21 162.5L1255.71 160L1257.21 147L1273.21 138L1298.21 131V121L1294.21 104L1300.21 102L1324.21 90.5V80.5L1288.71 94L1294.21 114.5L1249.71 129L1252.71 136.5L1233.21 142.5L1231.21 136.5Z" fill="#C2D8E6"/>
<path d="M1238.4 156.408L1167.39 178.902C1161.51 180.766 1155.25 177.427 1153.51 171.504L1129.4 89.0594C1127.68 83.1674 1131.11 77.005 1137.03 75.369L1207.34 55.9272L1238.4 156.408ZM1238.4 156.408L1238.96 158.132C1240.17 161.832 1243.86 164.13 1247.71 163.578L1250.89 163.121C1255.59 162.447 1258.67 157.851 1257.51 153.246L1257.13 151.736L1254.97 144.748M1207.34 55.931L1206.96 54.4207C1205.8 49.8165 1208.88 45.2204 1213.58 44.546L1216.76 44.0896C1220.61 43.5371 1224.3 45.8353 1225.51 49.5354L1226.07 51.2591L1228.46 58.984M1228.46 58.984L1266.35 46.1289C1270.6 44.6862 1275.21 47.0263 1276.55 51.3116L1283.65 73.9533M1228.46 58.984L1254.97 144.748M1254.97 144.748L1293.52 131.322C1297.6 129.901 1299.81 125.496 1298.52 121.374L1293.04 103.9M1283.65 73.9533L1307.11 65.392C1313.71 62.984 1320.96 66.7335 1322.81 73.5107L1324.68 80.3817C1326.31 86.3561 1323.12 92.5879 1317.32 94.7677L1293.04 103.9M1283.65 73.9533L1293.04 103.9" stroke="#343D4C" stroke-width="6"/>
<path d="M1145.97 148.024L1107.6 160.732C1103.18 162.197 1100.85 167.03 1102.45 171.402C1103.97 175.522 1108.44 177.735 1112.64 176.435L1151.55 164.368L1145.97 148.024Z" fill="#F4F4F4"/>
<path d="M1149.5 157.5L1104 172.5L1110 177L1115 176L1144.5 167.5L1151.5 163L1149.5 157.5Z" fill="#C2D8E6"/>
<path d="M1129.66 100.481L1090.74 111.396C1086.26 112.654 1083.71 117.375 1085.11 121.817C1086.43 126.003 1090.8 128.42 1095.05 127.315L1134.48 117.066L1129.66 100.481Z" fill="#F4F4F4"/>
<path d="M1133 110.5L1085.5 123.5L1093 128.5L1129.5 118L1134 116.5L1133 110.5Z" fill="#C2D8E6"/>
<path d="M1145.97 148.024L1107.6 160.732C1103.18 162.197 1100.85 167.03 1102.45 171.402C1103.97 175.522 1108.44 177.735 1112.64 176.435L1151.55 164.368L1145.97 148.024Z" stroke="#343D4C" stroke-width="5"/>
<path d="M1129.66 100.481L1090.74 111.396C1086.26 112.654 1083.71 117.375 1085.11 121.817C1086.43 126.003 1090.8 128.42 1095.05 127.315L1134.48 117.066L1129.66 100.481Z" stroke="#343D4C" stroke-width="5"/>
<path d="M1179.21 116.5L1140.71 128.5L1144.95 142L1183.95 130L1179.21 116.5Z" fill="#F8CC63"/>
<path d="M1141.71 135.5L1180.71 123L1178.21 118L1143.21 129.5L1141.71 135.5Z" fill="#F4F4F4"/>
<path d="M1179.21 116.5L1140.71 128.5L1144.95 142L1183.95 130L1179.21 116.5Z" stroke="#343D4C" stroke-width="4"/>
<path d="M1146 89.5L1183.5 79M1189 77L1195.5 75" stroke="#343D4C" stroke-width="4" stroke-linecap="round"/>
<path d="M930 9L927.5 76M1025 51.5L989 91M840 43.5L879.5 91M784 108.5L837.5 127.5M1033 259.5L1081 284M992 296L1017 353.5M939.5 308.5L938 363M890.5 300.5L861.5 345.5" stroke="#343D4C" stroke-width="6" stroke-linecap="round"/>
<path d="M880.57 211.971L890.458 209.512L894.778 226.884L884.89 229.343L890.024 249.988L867.508 255.587L862.374 234.942L824.758 244.296L819.999 230.865L843.366 158.508L843.317 158.308L865.832 152.708L880.57 211.971ZM840.549 221.924L858.054 217.571L850.611 187.638L849.772 190.259L840.549 221.924ZM967.462 188.518C970.73 201.658 970.288 212.528 966.136 221.128C962.029 229.717 954.608 235.346 943.873 238.015C933.05 240.707 923.784 239.204 916.077 233.506C908.369 227.808 902.893 218.433 899.647 205.383L895.228 187.61C891.96 174.471 892.38 163.606 896.487 155.017C900.639 146.418 908.104 140.777 918.884 138.097C929.663 135.416 938.906 136.925 946.613 142.623C954.321 148.321 959.803 157.718 963.059 170.813L967.462 188.518ZM939.812 173.472C938.073 166.479 935.864 161.495 933.185 158.519C930.495 155.499 927.168 154.482 923.203 155.468C919.328 156.432 916.899 158.739 915.914 162.389C914.975 166.028 915.247 171.115 916.73 177.652L922.911 202.506C924.717 209.766 926.953 214.862 929.621 217.793C932.278 220.68 935.589 221.63 939.553 220.644C943.384 219.691 945.808 217.362 946.826 213.657C947.832 209.906 947.488 204.529 945.794 197.525L939.812 173.472ZM1039.05 172.561L1048.94 170.102L1053.26 187.473L1043.37 189.932L1048.5 210.577L1025.99 216.176L1020.85 195.531L983.238 204.885L978.479 191.454L1001.85 119.097L1001.8 118.897L1024.31 113.298L1039.05 172.561ZM999.029 182.513L1016.53 178.16L1009.09 148.228L1008.25 150.848L999.029 182.513Z" fill="#4526FF"/>
</svg>
