<svg width="17" height="24" viewBox="0 0 17 24" fill="none" xmlns="http://www.w3.org/2000/svg">
<path fill-rule="evenodd" clip-rule="evenodd" d="M10.624 2.70761V3.01066C13.6962 3.91033 15.9365 6.71063 15.9365 10.0258V17.344H16.999V19.4349H-0.000976562V17.344H1.06152V10.0258C1.06152 6.71063 3.30182 3.91033 6.37402 3.01066V2.70761C6.37402 1.55283 7.32542 0.616699 8.49902 0.616699C9.67263 0.616699 10.624 1.55283 10.624 2.70761ZM3.18652 17.344H13.8115V10.0258C13.8115 7.13885 11.433 4.79852 8.49902 4.79852C5.56501 4.79852 3.18652 7.13885 3.18652 10.0258V17.344ZM10.624 21.5258V20.4803H6.37402V21.5258C6.37402 22.6806 7.32542 23.6167 8.49902 23.6167C9.67263 23.6167 10.624 22.6806 10.624 21.5258Z" fill="#686868"/>
</svg>
