<svg width="151" height="152" viewBox="0 0 151 152" fill="none" xmlns="http://www.w3.org/2000/svg">
<path d="M126.524 150.401H24.3781C18.4425 150.376 12.7582 148.003 8.56566 143.801C4.37314 139.599 2.01288 133.91 2 127.974V52.1729C2.02452 48.1546 3.12819 44.2168 5.1956 40.7711C7.263 37.3254 10.2182 34.4985 13.7522 32.5859L64.7272 4.72351C68.0102 2.93633 71.6886 2 75.4266 2C79.1645 2 82.8429 2.93633 86.1259 4.72351L137.248 32.439C140.782 34.3516 143.737 37.1785 145.804 40.6242C147.872 44.0699 148.975 48.0077 149 52.026V127.974C148.987 133.927 146.613 139.631 142.4 143.836C138.186 148.04 132.477 150.401 126.524 150.401ZM75.451 11.7748C73.3483 11.7717 71.2781 12.2935 69.4281 13.2928L18.3061 41.0573C16.3232 42.1554 14.6723 43.7669 13.5265 45.7226C12.3806 47.6783 11.782 49.9062 11.7935 52.1729V127.974C11.7935 131.325 13.1245 134.538 15.4938 136.908C17.863 139.277 21.0764 140.608 24.427 140.608H126.524C129.866 140.595 133.067 139.258 135.426 136.89C137.784 134.522 139.109 131.316 139.109 127.974V52.1729C139.11 49.8964 138.497 47.6617 137.333 45.7051C136.17 43.7484 134.499 42.1426 132.498 41.0573L81.474 13.3418C79.6284 12.3254 77.558 11.7867 75.451 11.7748Z" fill="#00D860"/>
<path d="M75.451 128.905C68.6351 128.906 62.0307 126.538 56.769 122.205C51.5073 117.872 47.9157 111.845 46.6093 105.156C46.5027 104.454 46.5501 103.737 46.748 103.055C46.9459 102.374 47.2897 101.743 47.7554 101.208C48.2212 100.672 48.7979 100.244 49.4455 99.9533C50.0931 99.6626 50.7962 99.5163 51.506 99.5243C52.6726 99.5073 53.8068 99.9075 54.7046 100.653C55.6023 101.398 56.2045 102.439 56.4027 103.589C57.3249 107.99 59.7338 111.941 63.2248 114.776C66.7158 117.611 71.0761 119.159 75.5734 119.159C80.0708 119.159 84.4312 117.611 87.9221 114.776C91.4131 111.941 93.822 107.99 94.7442 103.589C94.9424 102.439 95.5446 101.398 96.4423 100.653C97.3401 99.9075 98.4743 99.5073 99.6409 99.5243C100.351 99.5163 101.054 99.6626 101.701 99.9533C102.349 100.244 102.926 100.672 103.391 101.208C103.857 101.743 104.201 102.374 104.399 103.055C104.597 103.737 104.644 104.454 104.538 105.156C103.223 111.887 99.5959 117.946 94.2836 122.283C88.9713 126.621 82.3089 128.963 75.451 128.905Z" fill="#00D860"/>
<path d="M126.524 150.401H24.3781C18.4425 150.376 12.7582 148.003 8.56566 143.801C4.37314 139.599 2.01288 133.91 2 127.974V52.1729C2.02452 48.1546 3.12819 44.2168 5.1956 40.7711C7.263 37.3254 10.2182 34.4985 13.7522 32.5859L64.7272 4.72351C68.0102 2.93633 71.6886 2 75.4266 2C79.1645 2 82.8429 2.93633 86.1259 4.72351L137.248 32.439C140.782 34.3516 143.737 37.1785 145.804 40.6242C147.872 44.0699 148.975 48.0077 149 52.026V127.974C148.987 133.927 146.613 139.631 142.4 143.836C138.186 148.04 132.477 150.401 126.524 150.401ZM75.451 11.7748C73.3483 11.7717 71.2781 12.2935 69.4281 13.2928L18.3061 41.0573C16.3232 42.1554 14.6723 43.7669 13.5265 45.7226C12.3806 47.6783 11.782 49.9062 11.7935 52.1729V127.974C11.7935 131.325 13.1245 134.538 15.4938 136.908C17.863 139.277 21.0764 140.608 24.427 140.608H126.524C129.866 140.595 133.067 139.258 135.426 136.89C137.784 134.522 139.109 131.316 139.109 127.974V52.1729C139.11 49.8964 138.497 47.6617 137.333 45.7051C136.17 43.7484 134.499 42.1426 132.498 41.0573L81.474 13.3418C79.6284 12.3254 77.558 11.7867 75.451 11.7748Z" stroke="#00D860" stroke-width="3"/>
<path d="M75.451 128.905C68.6351 128.906 62.0307 126.538 56.769 122.205C51.5073 117.872 47.9157 111.845 46.6093 105.156C46.5027 104.454 46.5501 103.737 46.748 103.055C46.9459 102.374 47.2897 101.743 47.7554 101.208C48.2212 100.672 48.7979 100.244 49.4455 99.9533C50.0931 99.6626 50.7962 99.5163 51.506 99.5243C52.6726 99.5073 53.8068 99.9075 54.7046 100.653C55.6023 101.398 56.2045 102.439 56.4027 103.589C57.3249 107.99 59.7338 111.941 63.2248 114.776C66.7158 117.611 71.0761 119.159 75.5734 119.159C80.0708 119.159 84.4312 117.611 87.9221 114.776C91.4131 111.941 93.822 107.99 94.7442 103.589C94.9424 102.439 95.5446 101.398 96.4423 100.653C97.3401 99.9075 98.4743 99.5073 99.6409 99.5243C100.351 99.5163 101.054 99.6626 101.701 99.9533C102.349 100.244 102.926 100.672 103.391 101.208C103.857 101.743 104.201 102.374 104.399 103.055C104.597 103.737 104.644 104.454 104.538 105.156C103.223 111.887 99.5959 117.946 94.2836 122.283C88.9713 126.621 82.3089 128.963 75.451 128.905Z" stroke="#00D860" stroke-width="3"/>
</svg>
