<svg width="172" height="132" viewBox="0 0 172 132" fill="none" xmlns="http://www.w3.org/2000/svg">
<path d="M166.961 94.0625H164.782C163.581 74.8717 155.539 56.9955 141.823 43.2788C131.37 32.8261 118.501 25.671 104.477 22.3237V18.4766C104.477 8.28859 96.188 0 86 0C75.812 0 67.5234 8.28859 67.5234 18.4766V22.3237C53.4991 25.6713 40.63 32.8261 30.1773 43.2788C16.4606 56.9955 8.41893 74.8717 7.21762 94.0625H5.03906C2.25616 94.0625 0 96.3187 0 99.1016C0 116.699 14.3166 131.016 31.9141 131.016H139.414C147.948 131.016 156.06 127.717 162.255 121.728C168.539 115.654 172 107.619 172 99.1016C172 96.3187 169.744 94.0625 166.961 94.0625ZM77.6016 18.4766C77.6016 13.8457 81.3691 10.0781 86 10.0781C90.6309 10.0781 94.3984 13.8457 94.3984 18.4766V20.5997C91.627 20.3084 88.8256 20.1562 86 20.1562C83.1744 20.1562 80.373 20.3084 77.6016 20.5997V18.4766ZM86 30.2344C122.279 30.2344 152.093 58.4326 154.682 94.0625H17.3179C19.9073 58.4326 49.7214 30.2344 86 30.2344ZM139.414 120.938H31.9141C21.6072 120.938 12.9454 113.76 10.665 104.141H161.29C158.873 113.643 149.834 120.938 139.414 120.938Z" fill="#FF5D14"/>
</svg>
