<svg width="185" height="144" viewBox="0 0 185 144" fill="none" xmlns="http://www.w3.org/2000/svg">
<path fill-rule="evenodd" clip-rule="evenodd" d="M59.0619 4.68737C61.2814 2.98009 64.2228 2.53405 66.8486 3.50658L176.69 44.1884C179.881 45.3706 182 48.4146 182 51.8183V133.182C182 137.675 178.357 141.318 173.864 141.318H11.1364C6.64277 141.318 3 137.675 3 133.182V51.8183C3 49.2922 4.1733 46.9094 6.17554 45.3692L59.0619 4.68737ZM108.773 125.046H129.114V90.2281L108.773 83.4478V125.046ZM145.386 125.046V84.3637C145.386 80.8616 143.145 77.7524 139.823 76.6449L103.209 64.4403C100.728 63.6133 98.0007 64.0294 95.879 65.5586C93.7572 67.0879 92.5 69.5438 92.5 72.1592V125.046H72.1591V22.8264L165.727 57.4813V125.046H145.386ZM55.8864 27.6603V125.046H19.2727V55.8246L55.8864 27.6603Z" fill="#3751FF" stroke="#1A1B23" stroke-width="5" stroke-linecap="round" stroke-linejoin="round"/>
</svg>
