<svg width="243" height="316" viewBox="0 0 243 316" fill="none" xmlns="http://www.w3.org/2000/svg">
<path d="M144.401 27.7727C145.61 74.0089 168.167 117.078 205.485 144.402C159.249 145.61 116.18 168.167 88.8558 205.486C87.6472 159.249 65.0903 116.181 27.7722 88.8564C74.0084 87.6478 117.077 65.0908 144.401 27.7727Z" fill="#4526FF"/>
<path d="M204.736 161.308L194.885 180.439C184.314 174.996 171.346 179.149 165.903 189.72L146.771 179.869C157.582 158.689 183.595 150.422 204.736 161.308Z" fill="#FFC906"/>
<path d="M223.258 219.348L204.127 209.497C209.57 198.926 205.417 185.957 194.846 180.514L204.697 161.383C225.877 172.194 234.183 198.132 223.258 219.348Z" fill="#FFC906"/>
<path d="M165.294 237.908L175.145 218.776C185.716 224.219 198.685 220.066 204.128 209.495L223.259 219.346C212.373 240.488 186.436 248.793 165.294 237.908Z" fill="#FFC906"/>
<path d="M147.268 131.719L137.417 150.85C147.987 156.293 152.14 169.262 146.697 179.833L165.829 189.684C176.789 168.581 168.409 142.605 147.268 131.719Z" fill="#FFC906"/>
<path d="M89.2629 150.353L108.394 160.204C113.837 149.633 126.806 145.48 137.377 150.923L147.228 131.792C126.125 120.832 100.187 129.137 89.2629 150.353Z" fill="#FFC906"/>
<path d="M107.825 208.32L117.676 189.189C107.105 183.746 102.952 170.777 108.395 160.206L89.2637 150.355C78.3778 171.497 86.6834 197.435 107.825 208.32Z" fill="#FFC906"/>
<path d="M135.741 295.305L145.592 276.173C135.022 270.73 130.869 257.762 136.311 247.191L117.18 237.34C106.22 258.443 114.6 284.419 135.741 295.305Z" fill="#FFC906"/>
<path d="M193.706 276.745L174.575 266.894C169.132 277.465 156.163 281.617 145.593 276.174L135.742 295.306C156.883 306.192 182.821 297.886 193.706 276.745Z" fill="#FFC906"/>
<path d="M175.145 218.777L165.294 237.909C175.864 243.352 180.017 256.321 174.574 266.891L193.706 276.742C204.592 255.601 196.286 229.663 175.145 218.777Z" fill="#FFC906"/>
<path d="M78.2728 265.712L88.1238 246.581C98.6945 252.024 111.663 247.871 117.106 237.3L136.238 247.151C125.426 268.331 99.4143 276.598 78.2728 265.712Z" fill="#FFC906"/>
<path d="M59.7109 207.75L78.8425 217.601C73.3996 228.172 77.5525 241.14 88.1232 246.583L78.2722 265.715C57.1307 254.829 48.8251 228.892 59.7109 207.75Z" fill="#FFC906"/>
<path d="M117.675 189.186L107.824 208.318C97.2536 202.875 84.2848 207.028 78.8418 217.598L59.7103 207.747C70.5961 186.606 96.5337 178.3 117.675 189.186Z" fill="#FFC906"/>
</svg>
