<svg width="178" height="211" viewBox="0 0 178 211" fill="none" xmlns="http://www.w3.org/2000/svg">
<path d="M56.5325 90.1629V167.479C56.5325 170.917 54.3646 173.975 51.129 175.108C46.5505 176.717 41.0255 177.567 35.1447 177.567C18.2302 177.567 0.0375611 170.626 0.0375611 155.386V56.4552C-0.342631 49.6603 2.0275 37.6559 13.409 31.1603C18.6913 28.143 46.4291 10.3063 60.3587 1.29493C62.8421 -0.314825 66.0131 -0.428073 68.6178 0.979448C71.2225 2.40315 72.8404 5.12921 72.8404 8.08985V19.803C72.8404 24.2683 69.2164 27.8922 64.7512 27.8922C61.2728 27.8922 58.3041 25.7 57.1635 22.61C44.5767 30.6992 26.0363 42.5741 21.4335 45.2031C17.2918 47.5732 16.3939 51.9252 16.216 54.2873C16.216 56.9405 16.7903 59.0276 17.8257 60.1681C20.6974 63.2987 30.2669 61.3492 40.7101 55.08C50.7407 49.0617 100.214 16.1224 100.708 15.7908C103.207 14.1325 106.394 13.9788 109.007 15.3944C111.644 16.8019 113.286 19.5442 113.286 22.5291V23.4512C113.286 26.153 111.935 28.6769 109.695 30.1815C109.695 30.1815 75.348 53.1063 72.3065 55.0558C60.6661 62.5464 56.5325 71.7357 56.5325 90.1629ZM178 51.1244V156.138C178 158.913 176.568 161.502 174.214 162.982C174.214 162.982 127.054 199.61 117.485 205.426C112.453 208.492 106.047 210.11 98.9685 210.11C82.151 210.11 64.7512 201.009 64.7512 185.793V85.4145C64.7512 85.3822 64.7754 85.3498 64.7754 85.3094C64.9372 79.3881 66.3205 70.9349 77.3299 62.8133C83.9307 57.9436 123.244 31.136 124.911 30.0035C127.394 28.3209 130.605 28.143 133.242 29.5343C135.896 30.9338 137.554 33.6841 137.554 36.6852V48.3983C137.554 52.8636 133.938 56.4875 129.465 56.4875C126.124 56.4875 123.252 54.4652 122.023 51.5693C109.476 60.152 91.0573 72.7954 86.9318 75.8288C81.7223 79.6793 81.0266 82.2193 80.9377 85.4792C80.9538 87.8979 81.6091 89.7423 82.9357 90.9556C87.0612 94.7333 98.1677 93.1478 109.12 86.5794C117.226 81.7097 152.155 54.7403 164.92 44.7582C167.371 42.8653 170.671 42.5175 173.454 43.8684C176.237 45.2193 178 48.0262 178 51.1244ZM161.822 87.1699L121.376 118.548V134.726L161.822 103.348V87.1699Z" fill="#8000FF"/>
</svg>
