<svg width="159" height="160" viewBox="0 0 159 160" fill="none" xmlns="http://www.w3.org/2000/svg">
<path d="M146.995 12.0108C139.473 4.48271 128.939 0.088211 118.299 0.0012528C107.379 -0.0857054 96.696 4.35848 88.9412 12.0108L69.4812 31.4739C72.2421 31.0112 75.0527 30.772 77.8913 30.772C83.4349 30.772 88.8946 31.6727 94.1245 33.4429C95.5562 33.9274 96.9538 34.474 98.3233 35.0765L105.165 28.2347C108.358 25.0328 112.789 23.1135 117.305 22.9489C122.283 22.7657 127.252 24.7129 130.774 28.2347C137.833 35.297 137.833 46.7817 130.774 53.8439L93.9102 90.7049C89.4722 95.1429 82.7237 96.9907 76.6428 95.4441C71.3415 94.0963 66.7482 90.208 64.5432 85.2017C64.2823 84.6085 64.0556 84.0029 63.863 83.3849L46.8782 100.478C48.4621 102.848 50.2976 105.047 52.3318 107.044C56.8878 111.516 62.4593 114.972 68.5339 116.957C69.6271 117.314 70.7359 117.625 71.857 117.882C84.938 120.907 99.3948 117.025 109.187 107.839C109.507 107.541 146.995 70.0647 146.995 70.0647C163.002 54.0582 163.002 28.0173 146.995 12.0108ZM64.8755 125.569C63.4438 125.084 62.0462 124.538 60.6766 123.935C60.6766 123.935 53.8349 130.777 53.8349 130.78C50.6237 133.991 46.1795 135.911 41.6421 136.066C36.6917 136.234 31.7196 134.296 28.2257 130.777C21.1666 123.718 21.1666 112.23 28.2257 105.168L66.8848 66.9032C67.6861 66.0926 68.6613 65.4746 69.6768 64.9621C74.3198 62.6143 79.9876 62.3969 84.7951 64.3814C89.7455 66.4218 93.8202 70.8287 95.2643 76.012C95.2767 76.0555 95.2891 76.099 95.3015 76.1425C95.3015 76.1425 112.46 58.9838 112.47 58.9744C112.923 58.5179 107.504 52.7041 106.951 52.1544C104.78 50.0022 102.367 48.0891 99.7799 46.4587C94.6059 43.2008 88.7176 41.058 82.6367 40.3499C70.4035 38.9275 57.5555 43.3313 48.869 52.0861L12.0049 88.9471C-4.00163 104.954 -4.00163 130.994 12.0049 147.001C19.5734 154.573 30.1823 158.973 40.8843 159.011C51.6889 159.048 62.4158 154.641 70.0588 147.001L89.5188 127.541C86.7579 128.004 83.9504 128.24 81.1087 128.24C75.5682 128.24 70.1054 127.342 64.8755 125.569Z" fill="#17CFCF"/>
</svg>
