<svg width="19" height="22" viewBox="0 0 19 22" fill="none" xmlns="http://www.w3.org/2000/svg">
<path d="M4.18382 10.9491H6.27573V13.0029H4.18382V10.9491Z" fill="#A6A6A6"/>
<path d="M4.18382 15.0568H6.27573V17.1107H4.18382V15.0568Z" fill="#A6A6A6"/>
<path d="M10.4595 10.9491H8.36764V13.0029H10.4595V10.9491Z" fill="#A6A6A6"/>
<path d="M8.36764 15.0568H10.4595V17.1107H8.36764V15.0568Z" fill="#A6A6A6"/>
<path d="M14.6434 10.9491H12.5515V13.0029H14.6434V10.9491Z" fill="#A6A6A6"/>
<path d="M12.5515 15.0568H14.6434V17.1107H12.5515V15.0568Z" fill="#A6A6A6"/>
<path fill-rule="evenodd" clip-rule="evenodd" d="M16.7353 21.2184H2.09191C0.938221 21.2184 0 20.2973 0 19.1646V4.78744C0 3.65473 0.938221 2.73356 2.09191 2.73356H4.18382V0.679688H6.27573V2.73356H12.5515V0.679688H14.6434V2.73356H16.7353C17.889 2.73356 18.8272 3.65473 18.8272 4.78744V19.1646C18.8272 20.2973 17.889 21.2184 16.7353 21.2184ZM16.7354 6.84131L16.7353 4.78744H2.09191V6.84131H16.7354ZM16.7356 8.89519L16.7363 19.1646H2.09191V8.89519H16.7356Z" fill="#A6A6A6"/>
</svg>
