<svg width="20" height="10" viewBox="0 0 20 10" fill="none" xmlns="http://www.w3.org/2000/svg">
<path d="M17.8293 2.48473C18.1838 2.05928 18.4588 1.59903 18.6403 1.11077C18.7988 0.684396 18.5816 0.210303 18.1552 0.0517781C17.7287 -0.106582 17.2547 0.110478 17.0962 0.536908C16.7711 1.41179 15.921 2.22511 14.7027 2.82714C13.3858 3.47788 11.7157 3.83622 9.99989 3.83622C8.28418 3.83622 6.61404 3.47788 5.29713 2.82714C4.07885 2.22517 3.22879 1.41184 2.90361 0.536962C2.74508 0.110532 2.27099 -0.106362 1.84456 0.0518886C1.41819 0.210414 1.20102 0.68456 1.35954 1.11094C1.54102 1.59914 1.81606 2.05934 2.17045 2.48478L0.241247 4.41404C-0.0804156 4.73565 -0.0804156 5.25718 0.241247 5.57885C0.402078 5.73968 0.612877 5.82012 0.823676 5.82012C1.03447 5.82012 1.24527 5.73968 1.40605 5.57885L3.38665 3.59824C3.92252 3.9813 4.53668 4.31548 5.2118 4.59168L4.43966 7.23993C4.31232 7.67662 4.56315 8.1338 4.99985 8.2612C5.07683 8.28365 5.15448 8.29436 5.2308 8.29436C5.58755 8.29436 5.91624 8.06077 6.02117 7.701L6.77953 5.10009C7.5324 5.28667 8.33294 5.40912 9.16372 5.45854V8.18641C9.16372 8.64128 9.5325 9.01006 9.98737 9.01006C10.4422 9.01006 10.811 8.64128 10.811 8.18641V5.46008C11.6509 5.41165 12.46 5.28854 13.2205 5.10009L13.9788 7.701C14.0837 8.06077 14.4125 8.29436 14.7692 8.29436C14.8455 8.29436 14.9232 8.28365 15.0002 8.2612C15.4369 8.13386 15.6876 7.67662 15.5603 7.23993L14.7882 4.59168C15.4633 4.31548 16.0775 3.9813 16.6133 3.59824L18.594 5.57885C18.7548 5.73968 18.9656 5.82012 19.1763 5.82012C19.3871 5.82012 19.5979 5.73968 19.7588 5.57885C20.0804 5.25724 20.0804 4.7357 19.7588 4.41404L17.8293 2.48473Z" fill="#484C59"/>
</svg>
