<svg width="15" height="16" viewBox="0 0 15 16" fill="none" xmlns="http://www.w3.org/2000/svg">
<path d="M13.289 13.5848H1.70384C1.3168 13.5848 1 13.887 1 14.2567C1 14.6261 1.3168 14.9286 1.70384 14.9286H13.2962C13.6832 14.9286 14 14.6261 14 14.2567C14 13.887 13.6832 13.5848 13.289 13.5848Z" fill="#4E4E4E"/>
<path d="M6.98268 11.1726C7.11651 11.3069 7.29947 11.3876 7.49644 11.3876C7.69364 11.3876 7.8766 11.3069 8.01021 11.1726L12.1348 6.94635C12.4022 6.67746 12.3811 6.24749 12.0997 5.99897C11.818 5.74366 11.3676 5.76361 11.1073 6.0325L8.20029 9.00897V1.67191C8.20029 1.30221 7.88349 1 7.49644 1C7.1094 1 6.7926 1.30221 6.7926 1.67191V9.00897L3.89274 6.0325C3.6253 5.76383 3.18178 5.74366 2.90033 5.99897C2.61889 6.25428 2.59777 6.67767 2.86521 6.94635L6.98268 11.1726Z" fill="#4E4E4E"/>
<path d="M13.289 13.5848H1.70384C1.3168 13.5848 1 13.887 1 14.2567C1 14.6261 1.3168 14.9286 1.70384 14.9286H13.2962C13.6832 14.9286 14 14.6261 14 14.2567C14 13.887 13.6832 13.5848 13.289 13.5848Z" stroke="white" stroke-width="0.247349"/>
<path d="M6.98268 11.1726C7.11651 11.3069 7.29947 11.3876 7.49644 11.3876C7.69364 11.3876 7.8766 11.3069 8.01021 11.1726L12.1348 6.94635C12.4022 6.67746 12.3811 6.24749 12.0997 5.99897C11.818 5.74366 11.3676 5.76361 11.1073 6.0325L8.20029 9.00897V1.67191C8.20029 1.30221 7.88349 1 7.49644 1C7.1094 1 6.7926 1.30221 6.7926 1.67191V9.00897L3.89274 6.0325C3.6253 5.76383 3.18178 5.74366 2.90033 5.99897C2.61889 6.25428 2.59777 6.67767 2.86521 6.94635L6.98268 11.1726Z" stroke="white" stroke-width="0.247349"/>
</svg>
