<svg width="18" height="22" viewBox="0 0 18 22" fill="none" xmlns="http://www.w3.org/2000/svg">
<path class="testhange2" fill-rule="evenodd" clip-rule="evenodd" d="M3 21.8174C1.34315 21.8174 0 20.4742 0 18.8174V8.81738C0 8.78349 0.00168633 8.74998 0.00498009 8.71695H0C0 8.14099 0.228801 7.58861 0.636071 7.18134L6.87868 0.938738C8.05025 -0.232835 9.94974 -0.232835 11.1213 0.938738L17.3639 7.18136C17.7712 7.58862 18 8.14099 18 8.71695H17.995C17.9983 8.74998 18 8.78349 18 8.81738V18.8174C18 20.4742 16.6569 21.8174 15 21.8174H3ZM9.7071 2.35295L16 8.64585V18.8174C16 19.3697 15.5523 19.8174 15 19.8174H12V14.8174C12 13.1605 10.6569 11.8174 9 11.8174C7.34315 11.8174 6 13.1605 6 14.8174V19.8174H3C2.44772 19.8174 2 19.3697 2 18.8174V8.64592L8.29289 2.35295C8.68341 1.96243 9.31658 1.96243 9.7071 2.35295Z" fill="#686868"/>
</svg>
