<svg width="91" height="108" viewBox="0 0 91 108" fill="none" xmlns="http://www.w3.org/2000/svg">
<path d="M90 69.3218C90 64.3228 86.439 60.1402 81.7209 59.1783V47.9971C81.7209 46.9785 81.2217 46.0249 80.3847 45.4446C79.5477 44.8643 78.4793 44.7314 77.5261 45.0893L71.6006 47.3121C67.7094 43.2655 62.9796 40.2178 57.7965 38.3468C62.8898 34.5717 66.1977 28.5171 66.1977 21.7036C66.1977 10.2874 56.9129 1 45.5 1C34.0871 1 24.8023 10.2874 24.8023 21.7036C24.8023 28.5171 28.1102 34.5717 33.2035 38.3468C28.0202 40.218 23.2906 43.2658 19.3994 47.3121L13.4739 45.0893C12.5205 44.7314 11.4521 44.8643 10.6153 45.4446C9.7783 46.0249 9.27907 46.9785 9.27907 47.9971V59.1783C4.56104 60.1402 1 64.3225 1 69.3218C1 74.3211 4.56104 78.5035 9.27907 79.4654V91.4747C9.27907 92.7693 10.0819 93.9281 11.2936 94.3825L44.4099 106.805C45.1082 107.065 45.8916 107.065 46.5899 106.805L79.7062 94.3825C80.9179 93.9281 81.7207 92.7693 81.7207 91.4747V79.4654C86.439 78.5035 90 74.3209 90 69.3218ZM31.0116 21.7036C31.0116 13.7124 37.5111 7.21108 45.5 7.21108C53.4889 7.21108 59.9884 13.7124 59.9884 21.7036C59.9884 29.6948 53.4889 36.1961 45.5 36.1961C37.5111 36.1961 31.0116 29.6948 31.0116 21.7036ZM45.5 42.4072C52.7738 42.4072 59.7212 45.0367 65.1419 49.7348L45.5 57.1026L25.8581 49.7348C31.279 45.0367 38.2264 42.4072 45.5 42.4072ZM7.2093 69.3218C7.2093 67.0387 9.0663 65.1811 11.3488 65.1811H13.4186V73.4626H11.3488C9.0663 73.4626 7.2093 71.605 7.2093 69.3218ZM15.4884 79.5695C17.8473 79.0886 19.6279 76.9973 19.6279 74.4977V64.1459C19.6279 61.6464 17.8473 59.5551 15.4884 59.0742V52.4784L42.3953 62.5714V99.4157L15.4884 89.3227V79.5695ZM48.6046 99.4155V62.5714L75.5116 52.4784V59.0742C73.1527 59.5551 71.3721 61.6464 71.3721 64.1459V74.4977C71.3721 76.9973 73.1527 79.0886 75.5116 79.5695V89.3225L48.6046 99.4155ZM79.6512 73.4626H77.5814V65.1811H79.6512C81.9337 65.1811 83.7907 67.0387 83.7907 69.3218C83.7907 71.605 81.9339 73.4626 79.6512 73.4626Z" fill="#E3E3E3" stroke="#191C23" stroke-width="2"/>
</svg>
