<svg width="75" height="89" viewBox="0 0 75 89" fill="none" xmlns="http://www.w3.org/2000/svg">
<path d="M73.5674 56.8712C73.5674 52.8135 70.6769 49.4186 66.8473 48.6378V39.5622C66.8473 38.7354 66.4421 37.9613 65.7627 37.4903C65.0833 37.0193 64.2161 36.9114 63.4425 37.2019L58.6327 39.0061C55.4743 35.7216 51.6352 33.2477 47.4281 31.7291C51.5623 28.6649 54.2472 23.7504 54.2472 18.2199C54.2472 8.95355 46.7109 1.41504 37.4471 1.41504C28.1834 1.41504 20.647 8.95355 20.647 18.2199C20.647 23.7504 23.332 28.6649 27.4662 31.7291C23.2589 33.2479 19.4199 35.7218 16.2615 39.0061L11.4518 37.2019C10.678 36.9114 9.81079 37.0193 9.13156 37.4903C8.45217 37.9613 8.04695 38.7354 8.04695 39.5622V48.6378C4.21736 49.4186 1.3269 52.8134 1.3269 56.8712C1.3269 60.9291 4.21736 64.3239 8.04695 65.1046V74.8525C8.04695 75.9033 8.69862 76.8439 9.6821 77.2127L36.5623 87.2957C37.1291 87.5071 37.765 87.5071 38.3318 87.2957L65.212 77.2127C66.1955 76.8439 66.8472 75.9033 66.8472 74.8525V65.1046C70.6769 64.3239 73.5674 60.9289 73.5674 56.8712ZM25.6871 18.2199C25.6871 11.7336 30.9626 6.45651 37.4471 6.45651C43.9316 6.45651 49.2072 11.7336 49.2072 18.2199C49.2072 24.7063 43.9316 29.9834 37.4471 29.9834C30.9626 29.9834 25.6871 24.7063 25.6871 18.2199ZM37.4471 35.0249C43.3512 35.0249 48.9903 37.1592 53.3903 40.9726L37.4471 46.953L21.504 40.9726C25.9041 37.1592 31.5432 35.0249 37.4471 35.0249ZM6.36694 56.8712C6.36694 55.018 7.87424 53.5103 9.72696 53.5103H11.407V60.2322H9.72696C7.87424 60.2322 6.36694 58.7245 6.36694 56.8712ZM13.087 65.1892C15.0017 64.7988 16.447 63.1013 16.447 61.0725V52.67C16.447 50.6412 15.0017 48.9437 13.087 48.5533V43.1996L34.9271 51.392V81.2982L13.087 73.1058V65.1892ZM39.9672 81.298V51.392L61.8073 43.1996V48.5533C59.8926 48.9437 58.4473 50.6412 58.4473 52.67V61.0725C58.4473 63.1013 59.8926 64.7988 61.8073 65.1892V73.1056L39.9672 81.298ZM65.1673 60.2322H63.4873V53.5103H65.1673C67.02 53.5103 68.5273 55.018 68.5273 56.8712C68.5273 58.7245 67.0202 60.2322 65.1673 60.2322Z" fill="#4B4B4B" stroke="white" stroke-width="1.62338"/>
</svg>
