<svg width="91" height="83" viewBox="0 0 91 83" fill="none" xmlns="http://www.w3.org/2000/svg">
<path d="M55.5136 46.6134L55.653 46.8292L55.9076 46.7955C56.4603 46.7225 57.0208 46.6813 57.5899 46.6813H77.4337C84.4869 46.6813 90.2257 52.4198 90.2257 59.4733V79.8428C90.2257 81.0764 89.2256 82.0765 87.992 82.0765H3.17352C1.93991 82.0765 0.939781 81.0764 0.939781 79.8428V57.5519C0.939781 46.4079 10.0066 37.3414 21.1501 37.3414H38.5265C45.6417 37.3414 51.9104 41.0378 55.5136 46.6134ZM44.3921 77.6091H44.798V77.2032V59.4733C44.798 54.8694 47.2439 50.8255 50.9066 48.5716L51.29 48.3356L51.0157 47.9787C48.1364 44.2311 43.6097 41.8089 38.5266 41.8089H21.1503C12.4693 41.8089 5.40725 48.8707 5.40725 57.5519V77.2032V77.6091H5.8131H44.3921ZM85.3524 77.6089H85.7583V77.203V59.4733C85.7583 54.8828 82.0242 51.1488 77.4337 51.1488H57.59C52.9995 51.1488 49.2655 54.8828 49.2655 59.4733V77.203V77.6089H49.6713H85.3524ZM13.492 17.226C13.492 8.21283 20.8254 0.879478 29.8386 0.879478C38.8517 0.879478 46.1851 8.21283 46.1851 17.226C46.1851 26.2391 38.8517 33.5725 29.8386 33.5725C20.8254 33.5725 13.492 26.2391 13.492 17.226ZM17.9595 17.2256C17.9595 23.7761 23.288 29.1047 29.8386 29.1047C36.3891 29.1047 41.7176 23.7761 41.7176 17.2256C41.7176 10.6751 36.3891 5.3466 29.8386 5.3466C23.288 5.3466 17.9595 10.6751 17.9595 17.2256ZM54.4386 29.1981C54.4386 21.9897 60.3035 16.1248 67.5119 16.1248C74.7203 16.1248 80.5851 21.9899 80.5851 29.1981C80.5851 36.4063 74.7201 42.2711 67.5119 42.2711C60.3035 42.2711 54.4386 36.4063 54.4386 29.1981ZM58.9059 29.1982C58.9059 33.9438 62.7661 37.8039 67.5117 37.8039C72.2572 37.8039 76.1175 33.9436 76.1175 29.1982C76.1175 24.4525 72.2572 20.5925 67.5117 20.5925C62.7661 20.5925 58.9059 24.4527 58.9059 29.1982Z" fill="#4B4B4B" stroke="white" stroke-width="0.811691"/>
</svg>
