<svg width="91" height="83" viewBox="0 0 91 83" fill="none" xmlns="http://www.w3.org/2000/svg">
<path d="M54.9796 46.1398L55.119 46.3555L55.3737 46.3219C55.9263 46.2488 56.4869 46.2077 57.0559 46.2077H76.8998C83.9529 46.2077 89.6918 51.9462 89.6918 58.9997V79.3692C89.6918 80.6028 88.6917 81.6029 87.4581 81.6029H2.63958C1.40597 81.6029 0.405845 80.6028 0.405845 79.3692V57.0783C0.405845 45.9343 9.4727 36.8678 20.6162 36.8678H37.9925C45.1078 36.8678 51.3765 40.5642 54.9796 46.1398ZM43.8582 77.1354H44.264V76.7296V58.9997C44.264 54.3957 46.7099 50.3519 50.3726 48.0979L50.756 47.862L50.4818 47.505C47.6025 43.7574 43.0757 41.3352 37.9927 41.3352H20.6164C11.9353 41.3352 4.87331 48.3971 4.87331 57.0783V76.7296V77.1354H5.27916H43.8582ZM84.8185 77.1353H85.2243V76.7294V58.9997C85.2243 54.4092 81.4903 50.6751 76.8998 50.6751H57.0561C52.4656 50.6751 48.7315 54.4092 48.7315 58.9997V76.7294V77.1353H49.1374H84.8185ZM12.9581 16.7524C12.9581 7.7392 20.2915 0.405845 29.3046 0.405845C38.3178 0.405845 45.6511 7.7392 45.6511 16.7524C45.6511 25.7655 38.3178 33.0989 29.3046 33.0989C20.2915 33.0989 12.9581 25.7655 12.9581 16.7524ZM17.4256 16.752C17.4256 23.3025 22.7541 28.6311 29.3046 28.6311C35.8551 28.6311 41.1837 23.3025 41.1837 16.752C41.1837 10.2015 35.8551 4.87296 29.3046 4.87296C22.7541 4.87296 17.4256 10.2015 17.4256 16.752ZM53.9047 28.7244C53.9047 21.516 59.7695 15.6512 66.9779 15.6512C74.1863 15.6512 80.0512 21.5162 80.0512 28.7244C80.0512 35.9326 74.1861 41.7975 66.9779 41.7975C59.7695 41.7975 53.9047 35.9326 53.9047 28.7244ZM58.372 28.7246C58.372 33.4702 62.2322 37.3302 66.9778 37.3302C71.7233 37.3302 75.5835 33.47 75.5835 28.7246C75.5835 23.9789 71.7233 20.1188 66.9778 20.1188C62.2322 20.1188 58.372 23.979 58.372 28.7246Z" fill="#E3E3E3" stroke="#191C23" stroke-width="0.811691"/>
</svg>
