<svg width="16" height="16" viewBox="0 0 16 16" fill="none" xmlns="http://www.w3.org/2000/svg">
<path d="M0 0L14.5 4L16 16L1 11.5L0 0Z" fill="white"/>
<path d="M11.5782 8.04469C11.5782 8.73595 12.0489 9.29012 12.7163 9.29012C13.3718 9.29012 13.8486 8.74786 13.8486 8.04469C13.8486 7.34152 13.3718 6.79926 12.7163 6.79926C12.0489 6.79926 11.5782 7.35344 11.5782 8.04469Z" fill="#4526FF"/>
<path fill-rule="evenodd" clip-rule="evenodd" d="M8.0149 0H0V7.9851C0 12.4116 3.5884 16 8.0149 16H16V7.9851C16 3.57506 12.425 0 8.0149 0ZM2.21081 10.1601H1.24543V5.92924H2.2406V8.55121H2.25252L3.86146 5.92924H4.80299V10.1601H3.80782V7.60373L3.7959 7.59777L2.21081 10.1601ZM6.55261 10.1601H5.56937V5.92924H6.57049L7.74441 8.17579H7.75633L8.91834 5.92924H9.92542V10.1601H8.93622V7.83016H8.9243L8.0662 9.37951H7.42858L6.57049 7.82421H6.55261V10.1601ZM14.8914 8.04469C14.8914 9.3378 13.9797 10.2138 12.7163 10.2138C11.4292 10.2138 10.5353 9.31992 10.5353 8.04469C10.5353 6.76947 11.4292 5.86965 12.7163 5.86965C13.9797 5.86965 14.8914 6.74562 14.8914 8.04469Z" fill="#4526FF"/>
</svg>
