<svg width="26" height="25" viewBox="0 0 26 25" fill="none" xmlns="http://www.w3.org/2000/svg">
<g clip-path="url(#clip0_142_887)">
<path d="M13.1201 2.19065C16.3704 2.19065 16.7553 2.20491 18.0336 2.26193C19.2216 2.3142 19.8631 2.51378 20.2908 2.6801C20.8563 2.89869 21.2649 3.1648 21.6879 3.58772C22.1155 4.0154 22.3769 4.41932 22.5955 4.9848C22.7618 5.41248 22.9614 6.05874 23.0136 7.24198C23.0707 8.525 23.0849 8.90991 23.0849 12.1555C23.0849 15.4058 23.0707 15.7907 23.0136 17.069C22.9614 18.257 22.7618 18.8985 22.5955 19.3262C22.3769 19.8917 22.1108 20.3003 21.6879 20.7233C21.2602 21.1509 20.8563 21.4123 20.2908 21.6309C19.8631 21.7972 19.2168 21.9968 18.0336 22.0491C16.7506 22.1061 16.3657 22.1203 13.1201 22.1203C9.86974 22.1203 9.48484 22.1061 8.20656 22.0491C7.01857 21.9968 6.37706 21.7972 5.94938 21.6309C5.3839 21.4123 4.97523 21.1462 4.55231 20.7233C4.12463 20.2956 3.86327 19.8917 3.64468 19.3262C3.47837 18.8985 3.27878 18.2523 3.22651 17.069C3.16949 15.786 3.15523 15.4011 3.15523 12.1555C3.15523 8.90516 3.16949 8.52025 3.22651 7.24198C3.27878 6.05399 3.47837 5.41248 3.64468 4.9848C3.86327 4.41932 4.12938 4.01065 4.55231 3.58772C4.97998 3.16005 5.3839 2.89869 5.94938 2.6801C6.37706 2.51378 7.02332 2.3142 8.20656 2.26193C9.48484 2.20491 9.86974 2.19065 13.1201 2.19065ZM13.1201 0C9.81747 0 9.40405 0.0142559 8.10677 0.0712793C6.81424 0.128303 5.92562 0.337389 5.15581 0.636762C4.35273 0.950391 3.6732 1.36381 2.99842 2.04334C2.31889 2.71812 1.90547 3.39765 1.59184 4.19598C1.29247 4.97054 1.08338 5.85441 1.02636 7.14694C0.969334 8.44897 0.955078 8.86239 0.955078 12.165C0.955078 15.4676 0.969334 15.881 1.02636 17.1783C1.08338 18.4708 1.29247 19.3595 1.59184 20.1293C1.90547 20.9324 2.31889 21.6119 2.99842 22.2867C3.6732 22.9614 4.35273 23.3796 5.15105 23.6885C5.92562 23.9879 6.80948 24.1969 8.10202 24.254C9.3993 24.311 9.81272 24.3252 13.1153 24.3252C16.4179 24.3252 16.8314 24.311 18.1286 24.254C19.4212 24.1969 20.3098 23.9879 21.0796 23.6885C21.8779 23.3796 22.5575 22.9614 23.2322 22.2867C23.907 21.6119 24.3252 20.9324 24.6341 20.134C24.9334 19.3595 25.1425 18.4756 25.1995 17.1831C25.2566 15.8858 25.2708 15.4724 25.2708 12.1698C25.2708 8.86715 25.2566 8.45373 25.1995 7.15644C25.1425 5.86391 24.9334 4.9753 24.6341 4.20548C24.3347 3.39765 23.9213 2.71812 23.2417 2.04334C22.567 1.36856 21.8874 0.950391 21.0891 0.641514C20.3145 0.342141 19.4307 0.133055 18.1381 0.0760313C16.8361 0.0142559 16.4227 0 13.1201 0Z" fill="white"/>
<path d="M13.1199 5.91797C9.66999 5.91797 6.87109 8.71687 6.87109 12.1668C6.87109 15.6167 9.66999 18.4156 13.1199 18.4156C16.5698 18.4156 19.3687 15.6167 19.3687 12.1668C19.3687 8.71687 16.5698 5.91797 13.1199 5.91797ZM13.1199 16.2202C10.8817 16.2202 9.0665 14.405 9.0665 12.1668C9.0665 9.92862 10.8817 8.11337 13.1199 8.11337C15.3581 8.11337 17.1733 9.92862 17.1733 12.1668C17.1733 14.405 15.3581 16.2202 13.1199 16.2202Z" fill="white"/>
<path d="M21.0739 5.66979C21.0739 6.47762 20.4182 7.12864 19.6151 7.12864C18.8073 7.12864 18.1562 6.47287 18.1562 5.66979C18.1562 4.86196 18.812 4.21094 19.6151 4.21094C20.4182 4.21094 21.0739 4.86671 21.0739 5.66979Z" fill="white"/>
</g>
<defs>
<clipPath id="clip0_142_887">
<rect width="24.33" height="24.33" fill="white" transform="translate(0.955078)"/>
</clipPath>
</defs>
</svg>
