<svg width="24" height="25" viewBox="0 0 24 25" fill="none" xmlns="http://www.w3.org/2000/svg">
<path d="M22.9749 9.19405L15.8889 2.10806C13.7394 -0.0358573 10.2603 -0.0358573 8.11089 2.10806L1.0249 9.19405C0.366406 9.84903 -0.00268677 10.7402 -0.000108654 11.669V22.047C0.00209447 23.4016 1.10028 24.4989 2.45492 24.5H21.5449C22.8995 24.4989 23.9976 23.4016 23.9998 22.047V11.669C24.0025 10.7402 23.6334 9.84903 22.9749 9.19405ZM20.9998 21.5H15.9999V18.318C15.9999 16.2094 14.2905 14.5 12.1819 14.5H11.8179C9.70928 14.5 7.99989 16.2094 7.99989 18.318V21.5H2.99989V11.669C3.00021 11.5364 3.05262 11.4093 3.1459 11.315L10.2319 4.22906C11.2081 3.2526 12.791 3.25242 13.7674 4.22859C13.7676 4.22873 13.7678 4.22892 13.7679 4.22906L20.8539 11.315C20.9471 11.4093 20.9996 11.5364 20.9999 11.669V21.5H20.9998Z" fill="#000212"/>
</svg>
