<svg width="16" height="17" viewBox="0 0 16 17" fill="none" xmlns="http://www.w3.org/2000/svg">
<path d="M11.5782 8.54469C11.5782 9.23595 12.0489 9.79012 12.7163 9.79012C13.3718 9.79012 13.8486 9.24786 13.8486 8.54469C13.8486 7.84152 13.3718 7.29926 12.7163 7.29926C12.0489 7.29926 11.5782 7.85344 11.5782 8.54469Z" fill="#4526FF"/>
<path fill-rule="evenodd" clip-rule="evenodd" d="M8.0149 0.5H0V8.4851C0 12.9116 3.5884 16.5 8.0149 16.5H16V8.4851C16 4.07506 12.425 0.5 8.0149 0.5ZM2.21081 10.6601H1.24543V6.42924H2.2406V9.05121H2.25252L3.86146 6.42924H4.80299V10.6601H3.80782V8.10373L3.7959 8.09777L2.21081 10.6601ZM6.55261 10.6601H5.56937V6.42924H6.57049L7.74441 8.67579H7.75633L8.91834 6.42924H9.92542V10.6601H8.93622V8.33016H8.9243L8.0662 9.87951H7.42858L6.57049 8.32421H6.55261V10.6601ZM14.8914 8.54469C14.8914 9.8378 13.9797 10.7138 12.7163 10.7138C11.4292 10.7138 10.5353 9.81992 10.5353 8.54469C10.5353 7.26947 11.4292 6.36965 12.7163 6.36965C13.9797 6.36965 14.8914 7.24562 14.8914 8.54469Z" fill="#4526FF"/>
</svg>
