<svg width="56" height="56" viewBox="0 0 56 56" fill="none" xmlns="http://www.w3.org/2000/svg">
<path d="M40.5235 28.1564C40.5235 30.5758 42.1713 32.5154 44.5072 32.5154C46.8014 32.5154 48.4699 30.6175 48.4699 28.1564C48.4699 25.6953 46.8014 23.7974 44.5072 23.7974C42.1713 23.7974 40.5235 25.737 40.5235 28.1564Z" fill="#4526FF"/>
<path fill-rule="evenodd" clip-rule="evenodd" d="M28.0521 0H0V27.9479C0 43.4406 12.5594 56 28.0521 56H56V27.9479C56 12.5127 43.4874 0 28.0521 0ZM7.73782 35.5605H4.35901V20.7523H7.84211V29.9292H7.88381L13.5151 20.7523H16.8104V35.5605H13.3274V26.6131L13.2857 26.5922L7.73782 35.5605ZM22.9341 35.5605H19.4928V20.7523H22.9967L27.1054 28.6153H27.1472L31.2142 20.7523H34.739V35.5605H31.2768V27.4056H31.2351L28.2317 32.8283H26L22.9967 27.3847H22.9341V35.5605ZM52.1198 28.1564C52.1198 32.6823 48.9288 35.7482 44.5072 35.7482C40.0021 35.7482 36.8736 32.6197 36.8736 28.1564C36.8736 23.6931 40.0021 20.5438 44.5072 20.5438C48.9288 20.5438 52.1198 23.6097 52.1198 28.1564Z" fill="#4526FF"/>
</svg>
