<svg width="24" height="24" viewBox="0 0 24 24" fill="none" xmlns="http://www.w3.org/2000/svg">
<path d="M15.9941 8.00568C15.8065 7.81821 15.5522 7.71289 15.2871 7.71289C15.0219 7.71289 14.7676 7.81821 14.5801 8.00568L11.9941 10.5917L9.40809 8.00568C9.21949 7.82352 8.96688 7.72272 8.70469 7.725C8.44249 7.72728 8.19168 7.83245 8.00627 8.01786C7.82086 8.20327 7.7157 8.45408 7.71342 8.71628C7.71114 8.97847 7.81193 9.23107 7.99409 9.41968L10.5801 12.0057L7.99409 14.5917C7.81193 14.7803 7.71114 15.0329 7.71342 15.2951C7.7157 15.5573 7.82086 15.8081 8.00627 15.9935C8.19168 16.1789 8.44249 16.2841 8.70469 16.2864C8.96688 16.2886 9.21949 16.1878 9.40809 16.0057L11.9941 13.4197L14.5801 16.0057C14.7687 16.1878 15.0213 16.2886 15.2835 16.2864C15.5457 16.2841 15.7965 16.1789 15.9819 15.9935C16.1673 15.8081 16.2725 15.5573 16.2747 15.2951C16.277 15.0329 16.1762 14.7803 15.9941 14.5917L13.4081 12.0057L15.9941 9.41968C16.1815 9.23215 16.2869 8.97784 16.2869 8.71268C16.2869 8.44751 16.1815 8.1932 15.9941 8.00568Z" fill="#3751FF"/>
<path d="M12 22C6.47715 22 2 17.5228 2 12H-2C-2 19.732 4.26801 26 12 26V22ZM22 12C22 17.5228 17.5228 22 12 22V26C19.732 26 26 19.732 26 12H22ZM12 2C17.5228 2 22 6.47715 22 12H26C26 4.26801 19.732 -2 12 -2V2ZM12 -2C4.26801 -2 -2 4.26801 -2 12H2C2 6.47715 6.47715 2 12 2V-2Z" fill="#3751FF"/>
</svg>
