<svg width="24" height="25" viewBox="0 0 24 25" fill="none" xmlns="http://www.w3.org/2000/svg">
<path d="M12.0001 6.85169C11.7349 6.85173 11.4807 6.95709 11.2932 7.14459C11.1057 7.33209 11.0003 7.58638 11.0003 7.85154L11.0003 11.5087L7.34312 11.5087C7.08095 11.5132 6.83106 11.6206 6.64727 11.8076C6.46348 11.9946 6.3605 12.2463 6.3605 12.5085C6.3605 12.7707 6.46348 13.0225 6.64727 13.2095C6.83106 13.3965 7.08095 13.5038 7.34312 13.5084L11.0003 13.5084L11.0003 17.1655C11.0048 17.4277 11.1122 17.6776 11.2992 17.8614C11.4862 18.0452 11.7379 18.1482 12.0001 18.1482C12.2623 18.1482 12.514 18.0452 12.7011 17.8614C12.8881 17.6776 12.9954 17.4277 13 17.1655L13 13.5084L16.6571 13.5084C16.9193 13.5038 17.1692 13.3965 17.353 13.2095C17.5368 13.0225 17.6397 12.7708 17.6397 12.5085C17.6397 12.2463 17.5368 11.9946 17.353 11.8076C17.1692 11.6206 16.9193 11.5133 16.6571 11.5087L13 11.5087L13 7.85154C12.9999 7.58638 12.8946 7.33209 12.7071 7.14459C12.5196 6.95709 12.2653 6.85173 12.0001 6.85169Z" fill="#374957"/>
<path d="M12 22.5C6.47715 22.5 2 18.0228 2 12.5H-2C-2 20.232 4.26801 26.5 12 26.5V22.5ZM22 12.5C22 18.0228 17.5228 22.5 12 22.5V26.5C19.732 26.5 26 20.232 26 12.5H22ZM12 2.5C17.5228 2.5 22 6.97715 22 12.5H26C26 4.76801 19.732 -1.5 12 -1.5V2.5ZM12 -1.5C4.26801 -1.5 -2 4.76801 -2 12.5H2C2 6.97715 6.47715 2.5 12 2.5V-1.5Z" fill="#374957"/>
</svg>
