<svg width="400" height="77" viewBox="0 0 400 77" fill="none" xmlns="http://www.w3.org/2000/svg">
<path d="M10.7727 63H9.36364C9.2803 62.5947 9.13447 62.2386 8.92614 61.9318C8.72159 61.625 8.47159 61.3674 8.17614 61.1591C7.88447 60.947 7.56061 60.7879 7.20455 60.6818C6.84849 60.5758 6.47727 60.5227 6.09091 60.5227C5.38636 60.5227 4.74811 60.7008 4.17614 61.0568C3.60795 61.4129 3.1553 61.9375 2.81818 62.6307C2.48485 63.3239 2.31818 64.1742 2.31818 65.1818C2.31818 66.1894 2.48485 67.0398 2.81818 67.733C3.1553 68.4261 3.60795 68.9508 4.17614 69.3068C4.74811 69.6629 5.38636 69.8409 6.09091 69.8409C6.47727 69.8409 6.84849 69.7879 7.20455 69.6818C7.56061 69.5758 7.88447 69.4186 8.17614 69.2102C8.47159 68.9981 8.72159 68.7386 8.92614 68.4318C9.13447 68.1212 9.2803 67.7652 9.36364 67.3636H10.7727C10.6667 67.9583 10.4735 68.4905 10.1932 68.9602C9.91288 69.4299 9.56439 69.8295 9.14773 70.1591C8.73106 70.4848 8.26326 70.733 7.74432 70.9034C7.22917 71.0739 6.67803 71.1591 6.09091 71.1591C5.09849 71.1591 4.21591 70.9167 3.44318 70.4318C2.67045 69.947 2.0625 69.2576 1.61932 68.3636C1.17614 67.4697 0.954545 66.4091 0.954545 65.1818C0.954545 63.9545 1.17614 62.8939 1.61932 62C2.0625 61.1061 2.67045 60.4167 3.44318 59.9318C4.21591 59.447 5.09849 59.2045 6.09091 59.2045C6.67803 59.2045 7.22917 59.2898 7.74432 59.4602C8.26326 59.6307 8.73106 59.8807 9.14773 60.2102C9.56439 60.536 9.91288 60.9337 10.1932 61.4034C10.4735 61.8693 10.6667 62.4015 10.7727 63ZM12.3679 63.5227V62.2727H19.4588V63.5227H16.5952V71H15.2543V63.5227H12.3679ZM23.5298 71.2045C22.9768 71.2045 22.4749 71.1004 22.0241 70.892C21.5734 70.6799 21.2154 70.375 20.9503 69.9773C20.6851 69.5758 20.5526 69.0909 20.5526 68.5227C20.5526 68.0227 20.651 67.6174 20.848 67.3068C21.045 66.9924 21.3082 66.7462 21.6378 66.5682C21.9673 66.3902 22.331 66.2576 22.7287 66.1705C23.1302 66.0795 23.5336 66.0076 23.9389 65.9545C24.4692 65.8864 24.8991 65.8352 25.2287 65.8011C25.562 65.7633 25.8045 65.7008 25.956 65.6136C26.1113 65.5265 26.1889 65.375 26.1889 65.1591V65.1136C26.1889 64.553 26.0355 64.1174 25.7287 63.8068C25.4257 63.4962 24.9654 63.3409 24.348 63.3409C23.7079 63.3409 23.206 63.4811 22.8423 63.7614C22.4787 64.0417 22.223 64.3409 22.0753 64.6591L20.8026 64.2045C21.0298 63.6742 21.3329 63.2614 21.7116 62.9659C22.0942 62.6667 22.5109 62.4583 22.9616 62.3409C23.4162 62.2197 23.8632 62.1591 24.3026 62.1591C24.5829 62.1591 24.9048 62.1932 25.2685 62.2614C25.6359 62.3258 25.9901 62.4602 26.331 62.6648C26.6757 62.8693 26.9616 63.178 27.1889 63.5909C27.4162 64.0038 27.5298 64.5568 27.5298 65.25V71H26.1889V69.8182H26.1207C26.0298 70.0076 25.8783 70.2102 25.6662 70.4261C25.4541 70.642 25.1719 70.8258 24.8196 70.9773C24.4673 71.1288 24.0374 71.2045 23.5298 71.2045ZM23.7344 70C24.2647 70 24.7116 69.8958 25.0753 69.6875C25.4427 69.4792 25.7192 69.2102 25.9048 68.8807C26.0942 68.5511 26.1889 68.2045 26.1889 67.8409V66.6136C26.1321 66.6818 26.0071 66.7443 25.8139 66.8011C25.6245 66.8542 25.4048 66.9015 25.1548 66.9432C24.9086 66.9811 24.6681 67.0152 24.4332 67.0455C24.2022 67.072 24.0147 67.0947 23.8707 67.1136C23.5223 67.1591 23.1965 67.233 22.8935 67.3352C22.5942 67.4337 22.3518 67.5833 22.1662 67.7841C21.9844 67.9811 21.8935 68.25 21.8935 68.5909C21.8935 69.0568 22.0658 69.4091 22.4105 69.6477C22.759 69.8826 23.2003 70 23.7344 70ZM35.8182 66.0227V67.2727H31V66.0227H35.8182ZM31.3182 62.2727V71H29.9773V62.2727H31.3182ZM36.8409 62.2727V71H35.5V62.2727H36.8409ZM38.358 73.5V69.75H39.0852C39.2633 69.5644 39.4167 69.3636 39.5455 69.1477C39.6742 68.9318 39.786 68.6761 39.8807 68.3807C39.9792 68.0814 40.0625 67.7178 40.1307 67.2898C40.1989 66.858 40.2595 66.3371 40.3125 65.7273L40.608 62.2727H46.1534V69.75H47.4943V73.5H46.1534V71H39.6989V73.5H38.358ZM40.608 69.75H44.8125V63.5227H41.858L41.6307 65.7273C41.536 66.6402 41.4186 67.4375 41.2784 68.1193C41.1383 68.8011 40.9148 69.3447 40.608 69.75ZM51.8423 71.2045C51.2893 71.2045 50.7874 71.1004 50.3366 70.892C49.8859 70.6799 49.5279 70.375 49.2628 69.9773C48.9976 69.5758 48.8651 69.0909 48.8651 68.5227C48.8651 68.0227 48.9635 67.6174 49.1605 67.3068C49.3575 66.9924 49.6207 66.7462 49.9503 66.5682C50.2798 66.3902 50.6435 66.2576 51.0412 66.1705C51.4427 66.0795 51.8461 66.0076 52.2514 65.9545C52.7817 65.8864 53.2116 65.8352 53.5412 65.8011C53.8745 65.7633 54.117 65.7008 54.2685 65.6136C54.4238 65.5265 54.5014 65.375 54.5014 65.1591V65.1136C54.5014 64.553 54.348 64.1174 54.0412 63.8068C53.7382 63.4962 53.2779 63.3409 52.6605 63.3409C52.0204 63.3409 51.5185 63.4811 51.1548 63.7614C50.7912 64.0417 50.5355 64.3409 50.3878 64.6591L49.1151 64.2045C49.3423 63.6742 49.6454 63.2614 50.0241 62.9659C50.4067 62.6667 50.8234 62.4583 51.2741 62.3409C51.7287 62.2197 52.1757 62.1591 52.6151 62.1591C52.8954 62.1591 53.2173 62.1932 53.581 62.2614C53.9484 62.3258 54.3026 62.4602 54.6435 62.6648C54.9882 62.8693 55.2741 63.178 55.5014 63.5909C55.7287 64.0038 55.8423 64.5568 55.8423 65.25V71H54.5014V69.8182H54.4332C54.3423 70.0076 54.1908 70.2102 53.9787 70.4261C53.7666 70.642 53.4844 70.8258 53.1321 70.9773C52.7798 71.1288 52.3499 71.2045 51.8423 71.2045ZM52.0469 70C52.5772 70 53.0241 69.8958 53.3878 69.6875C53.7552 69.4792 54.0317 69.2102 54.2173 68.8807C54.4067 68.5511 54.5014 68.2045 54.5014 67.8409V66.6136C54.4446 66.6818 54.3196 66.7443 54.1264 66.8011C53.937 66.8542 53.7173 66.9015 53.4673 66.9432C53.2211 66.9811 52.9806 67.0152 52.7457 67.0455C52.5147 67.072 52.3272 67.0947 52.1832 67.1136C51.8348 67.1591 51.509 67.233 51.206 67.3352C50.9067 67.4337 50.6643 67.5833 50.4787 67.7841C50.2969 67.9811 50.206 68.25 50.206 68.5909C50.206 69.0568 50.3783 69.4091 50.723 69.6477C51.0715 69.8826 51.5128 70 52.0469 70ZM58.2898 74.2727V62.2727H59.5852V63.6591H59.7443C59.8428 63.5076 59.9792 63.3144 60.1534 63.0795C60.3314 62.8409 60.5852 62.6288 60.9148 62.4432C61.2481 62.2538 61.6989 62.1591 62.267 62.1591C63.0019 62.1591 63.6496 62.3428 64.2102 62.7102C64.7708 63.0777 65.2083 63.5985 65.5227 64.2727C65.8371 64.947 65.9943 65.7424 65.9943 66.6591C65.9943 67.5833 65.8371 68.3845 65.5227 69.0625C65.2083 69.7367 64.7727 70.2595 64.2159 70.6307C63.6591 70.9981 63.017 71.1818 62.2898 71.1818C61.7292 71.1818 61.2803 71.089 60.9432 70.9034C60.6061 70.714 60.3466 70.5 60.1648 70.2614C59.983 70.0189 59.8428 69.8182 59.7443 69.6591H59.6307V74.2727H58.2898ZM59.608 66.6364C59.608 67.2955 59.7045 67.8769 59.8977 68.3807C60.0909 68.8807 60.3731 69.2727 60.7443 69.5568C61.1155 69.8371 61.5701 69.9773 62.108 69.9773C62.6686 69.9773 63.1364 69.8295 63.5114 69.5341C63.8902 69.2348 64.1742 68.8333 64.3636 68.3295C64.5568 67.822 64.6534 67.2576 64.6534 66.6364C64.6534 66.0227 64.5587 65.4697 64.3693 64.9773C64.1837 64.4811 63.9015 64.089 63.5227 63.8011C63.1477 63.5095 62.6761 63.3636 62.108 63.3636C61.5625 63.3636 61.1042 63.5019 60.733 63.7784C60.3617 64.0511 60.0814 64.4337 59.892 64.9261C59.7027 65.4148 59.608 65.9848 59.608 66.6364ZM66.8991 63.5227V62.2727H73.9901V63.5227H71.1264V71H69.7855V63.5227H66.8991Z" fill="#383838"/>
<circle cx="22.5" cy="22.5" r="21.5" stroke="#4526FF" stroke-width="2"/>
<path d="M13 23L18.1221 28.1221C18.1927 28.1927 18.3073 28.1927 18.3779 28.1221L30.5 16" stroke="#4526FF" stroke-width="2.4" stroke-linecap="round"/>
<path d="M135.707 23.2071C136.098 22.8166 136.098 22.1834 135.707 21.7929L129.343 15.4289C128.953 15.0384 128.319 15.0384 127.929 15.4289C127.538 15.8195 127.538 16.4526 127.929 16.8431L133.586 22.5L127.929 28.1569C127.538 28.5474 127.538 29.1805 127.929 29.5711C128.319 29.9616 128.953 29.9616 129.343 29.5711L135.707 23.2071ZM45 23.5H135V21.5H45V23.5Z" fill="#4526FF"/>
<circle cx="167.5" cy="22.5" r="21.5" stroke="#D6D6D6" stroke-width="2"/>
<path d="M280.707 23.2071C281.098 22.8166 281.098 22.1834 280.707 21.7929L274.343 15.4289C273.953 15.0384 273.319 15.0384 272.929 15.4289C272.538 15.8195 272.538 16.4526 272.929 16.8431L278.586 22.5L272.929 28.1569C272.538 28.5474 272.538 29.1805 272.929 29.5711C273.319 29.9616 273.953 29.9616 274.343 29.5711L280.707 23.2071ZM190 23.5H280V21.5H190V23.5Z" fill="#D6D6D6"/>
<path d="M146.886 71H145.409L149.682 59.3636H151.136L155.409 71H153.932L150.455 61.2045H150.364L146.886 71ZM147.432 66.4545H153.386V67.7045H147.432V66.4545ZM163.517 59L164.199 59.8182C163.934 60.0758 163.627 60.2557 163.278 60.358C162.93 60.4602 162.536 60.5227 162.097 60.5455C161.657 60.5682 161.169 60.5909 160.631 60.6136C160.025 60.6364 159.523 60.7841 159.125 61.0568C158.727 61.3295 158.42 61.7235 158.205 62.2386C157.989 62.7538 157.85 63.3864 157.79 64.1364H157.903C158.199 63.5909 158.608 63.1894 159.131 62.9318C159.653 62.6742 160.214 62.5455 160.812 62.5455C161.494 62.5455 162.108 62.7045 162.653 63.0227C163.199 63.3409 163.631 63.8125 163.949 64.4375C164.267 65.0625 164.426 65.8333 164.426 66.75C164.426 67.6629 164.263 68.4508 163.938 69.1136C163.616 69.7765 163.163 70.2879 162.58 70.6477C162 71.0038 161.32 71.1818 160.54 71.1818C159.759 71.1818 159.076 70.9981 158.489 70.6307C157.902 70.2595 157.445 69.7102 157.119 68.983C156.794 68.2519 156.631 67.3485 156.631 66.2727V65.3409C156.631 63.3977 156.96 61.9242 157.619 60.9205C158.282 59.9167 159.278 59.3977 160.608 59.3636C161.078 59.3485 161.496 59.3447 161.864 59.3523C162.231 59.3598 162.551 59.3428 162.824 59.3011C163.097 59.2595 163.328 59.1591 163.517 59ZM160.54 69.9773C161.066 69.9773 161.519 69.8447 161.898 69.5795C162.28 69.3144 162.574 68.9413 162.778 68.4602C162.983 67.9754 163.085 67.4053 163.085 66.75C163.085 66.1136 162.981 65.572 162.773 65.125C162.568 64.678 162.275 64.3371 161.892 64.1023C161.509 63.8674 161.051 63.75 160.517 63.75C160.127 63.75 159.777 63.8163 159.466 63.9489C159.155 64.0814 158.89 64.2765 158.67 64.5341C158.451 64.7917 158.28 65.1061 158.159 65.4773C158.042 65.8485 157.979 66.2727 157.972 66.75C157.972 67.7273 158.201 68.5095 158.659 69.0966C159.117 69.6837 159.744 69.9773 160.54 69.9773ZM167.818 69.0227L172.023 62.2727H173.568V71H172.227V64.25L168.045 71H166.477V62.2727H167.818V69.0227ZM174.837 63.5227V62.2727H181.928V63.5227H179.064V71H177.723V63.5227H174.837ZM184.747 74.2727C184.52 74.2727 184.317 74.2538 184.139 74.2159C183.961 74.1818 183.838 74.1477 183.77 74.1136L184.111 72.9318C184.437 73.0152 184.724 73.0455 184.974 73.0227C185.224 73 185.446 72.8883 185.639 72.6875C185.836 72.4905 186.016 72.1705 186.179 71.7273L186.429 71.0455L183.202 62.2727H184.656L187.065 69.2273H187.156L189.565 62.2727H191.02L187.315 72.2727C187.149 72.7235 186.942 73.0966 186.696 73.392C186.45 73.6913 186.164 73.9129 185.838 74.0568C185.516 74.2008 185.152 74.2727 184.747 74.2727ZM192.79 74.2727V62.2727H194.085V63.6591H194.244C194.343 63.5076 194.479 63.3144 194.653 63.0795C194.831 62.8409 195.085 62.6288 195.415 62.4432C195.748 62.2538 196.199 62.1591 196.767 62.1591C197.502 62.1591 198.15 62.3428 198.71 62.7102C199.271 63.0777 199.708 63.5985 200.023 64.2727C200.337 64.947 200.494 65.7424 200.494 66.6591C200.494 67.5833 200.337 68.3845 200.023 69.0625C199.708 69.7367 199.273 70.2595 198.716 70.6307C198.159 70.9981 197.517 71.1818 196.79 71.1818C196.229 71.1818 195.78 71.089 195.443 70.9034C195.106 70.714 194.847 70.5 194.665 70.2614C194.483 70.0189 194.343 69.8182 194.244 69.6591H194.131V74.2727H192.79ZM194.108 66.6364C194.108 67.2955 194.205 67.8769 194.398 68.3807C194.591 68.8807 194.873 69.2727 195.244 69.5568C195.616 69.8371 196.07 69.9773 196.608 69.9773C197.169 69.9773 197.636 69.8295 198.011 69.5341C198.39 69.2348 198.674 68.8333 198.864 68.3295C199.057 67.822 199.153 67.2576 199.153 66.6364C199.153 66.0227 199.059 65.4697 198.869 64.9773C198.684 64.4811 198.402 64.089 198.023 63.8011C197.648 63.5095 197.176 63.3636 196.608 63.3636C196.063 63.3636 195.604 63.5019 195.233 63.7784C194.862 64.0511 194.581 64.4337 194.392 64.9261C194.203 65.4148 194.108 65.9848 194.108 66.6364ZM203.881 69.0227L208.085 62.2727H209.631V71H208.29V64.25L204.108 71H202.54V62.2727H203.881V69.0227ZM215.746 71.1818C214.905 71.1818 214.179 70.9962 213.57 70.625C212.964 70.25 212.496 69.7273 212.166 69.0568C211.84 68.3826 211.678 67.5985 211.678 66.7045C211.678 65.8106 211.84 65.0227 212.166 64.3409C212.496 63.6553 212.954 63.1212 213.541 62.7386C214.132 62.3523 214.821 62.1591 215.609 62.1591C216.064 62.1591 216.513 62.2348 216.956 62.3864C217.399 62.5379 217.803 62.7841 218.166 63.125C218.53 63.4621 218.82 63.9091 219.036 64.4659C219.251 65.0227 219.359 65.7083 219.359 66.5227V67.0909H212.632V65.9318H217.996C217.996 65.4394 217.897 65 217.7 64.6136C217.507 64.2273 217.231 63.9223 216.871 63.6989C216.515 63.4754 216.094 63.3636 215.609 63.3636C215.075 63.3636 214.613 63.4962 214.223 63.7614C213.837 64.0227 213.539 64.3636 213.331 64.7841C213.123 65.2045 213.018 65.6553 213.018 66.1364V66.9091C213.018 67.5682 213.132 68.1269 213.359 68.5852C213.59 69.0398 213.911 69.3864 214.32 69.625C214.729 69.8598 215.204 69.9773 215.746 69.9773C216.098 69.9773 216.416 69.928 216.7 69.8295C216.988 69.7273 217.236 69.5758 217.445 69.375C217.653 69.1705 217.814 68.9167 217.928 68.6136L219.223 68.9773C219.087 69.4167 218.857 69.803 218.536 70.1364C218.214 70.4659 217.816 70.7235 217.342 70.9091C216.869 71.0909 216.337 71.1818 215.746 71.1818ZM227.24 66.0227V67.2727H222.422V66.0227H227.24ZM222.74 62.2727V71H221.399V62.2727H222.74ZM228.263 62.2727V71H226.922V62.2727H228.263ZM229.524 63.5227V62.2727H236.615V63.5227H233.751V71H232.411V63.5227H229.524Z" fill="#676767"/>
<circle cx="312.5" cy="22.5" r="21.5" stroke="#D6D6D6" stroke-width="2"/>
<path d="M300.773 63H299.364C299.28 62.5947 299.134 62.2386 298.926 61.9318C298.722 61.625 298.472 61.3674 298.176 61.1591C297.884 60.947 297.561 60.7879 297.205 60.6818C296.848 60.5758 296.477 60.5227 296.091 60.5227C295.386 60.5227 294.748 60.7008 294.176 61.0568C293.608 61.4129 293.155 61.9375 292.818 62.6307C292.485 63.3239 292.318 64.1742 292.318 65.1818C292.318 66.1894 292.485 67.0398 292.818 67.733C293.155 68.4261 293.608 68.9508 294.176 69.3068C294.748 69.6629 295.386 69.8409 296.091 69.8409C296.477 69.8409 296.848 69.7879 297.205 69.6818C297.561 69.5758 297.884 69.4186 298.176 69.2102C298.472 68.9981 298.722 68.7386 298.926 68.4318C299.134 68.1212 299.28 67.7652 299.364 67.3636H300.773C300.667 67.9583 300.473 68.4905 300.193 68.9602C299.913 69.4299 299.564 69.8295 299.148 70.1591C298.731 70.4848 298.263 70.733 297.744 70.9034C297.229 71.0739 296.678 71.1591 296.091 71.1591C295.098 71.1591 294.216 70.9167 293.443 70.4318C292.67 69.947 292.063 69.2576 291.619 68.3636C291.176 67.4697 290.955 66.4091 290.955 65.1818C290.955 63.9545 291.176 62.8939 291.619 62C292.063 61.1061 292.67 60.4167 293.443 59.9318C294.216 59.447 295.098 59.2045 296.091 59.2045C296.678 59.2045 297.229 59.2898 297.744 59.4602C298.263 59.6307 298.731 59.8807 299.148 60.2102C299.564 60.536 299.913 60.9337 300.193 61.4034C300.473 61.8693 300.667 62.4015 300.773 63ZM302.368 63.5227V62.2727H309.459V63.5227H306.595V71H305.254V63.5227H302.368ZM312.278 74.2727C312.051 74.2727 311.848 74.2538 311.67 74.2159C311.492 74.1818 311.369 74.1477 311.301 74.1136L311.642 72.9318C311.968 73.0152 312.256 73.0455 312.506 73.0227C312.756 73 312.977 72.8883 313.17 72.6875C313.367 72.4905 313.547 72.1705 313.71 71.7273L313.96 71.0455L310.733 62.2727H312.188L314.597 69.2273H314.688L317.097 62.2727H318.551L314.847 72.2727C314.68 72.7235 314.473 73.0966 314.227 73.392C313.981 73.6913 313.695 73.9129 313.369 74.0568C313.047 74.2008 312.684 74.2727 312.278 74.2727ZM318.655 73.5V69.75H319.382C319.56 69.5644 319.714 69.3636 319.842 69.1477C319.971 68.9318 320.083 68.6761 320.178 68.3807C320.276 68.0814 320.359 67.7178 320.428 67.2898C320.496 66.858 320.556 66.3371 320.609 65.7273L320.905 62.2727H326.45V69.75H327.791V73.5H326.45V71H319.996V73.5H318.655ZM320.905 69.75H325.109V63.5227H322.155L321.928 65.7273C321.833 66.6402 321.715 67.4375 321.575 68.1193C321.435 68.8011 321.212 69.3447 320.905 69.75ZM333.23 71.1818C332.389 71.1818 331.664 70.9962 331.054 70.625C330.448 70.25 329.98 69.7273 329.651 69.0568C329.325 68.3826 329.162 67.5985 329.162 66.7045C329.162 65.8106 329.325 65.0227 329.651 64.3409C329.98 63.6553 330.438 63.1212 331.026 62.7386C331.616 62.3523 332.306 62.1591 333.094 62.1591C333.548 62.1591 333.997 62.2348 334.44 62.3864C334.884 62.5379 335.287 62.7841 335.651 63.125C336.014 63.4621 336.304 63.9091 336.52 64.4659C336.736 65.0227 336.844 65.7083 336.844 66.5227V67.0909H330.116V65.9318H335.48C335.48 65.4394 335.382 65 335.185 64.6136C334.991 64.2273 334.715 63.9223 334.355 63.6989C333.999 63.4754 333.579 63.3636 333.094 63.3636C332.56 63.3636 332.098 63.4962 331.707 63.7614C331.321 64.0227 331.024 64.3636 330.815 64.7841C330.607 65.2045 330.503 65.6553 330.503 66.1364V66.9091C330.503 67.5682 330.616 68.1269 330.844 68.5852C331.075 69.0398 331.395 69.3864 331.804 69.625C332.213 69.8598 332.688 69.9773 333.23 69.9773C333.582 69.9773 333.901 69.928 334.185 69.8295C334.473 69.7273 334.721 69.5758 334.929 69.375C335.137 69.1705 335.298 68.9167 335.412 68.6136L336.707 68.9773C336.571 69.4167 336.342 69.803 336.02 70.1364C335.698 70.4659 335.3 70.7235 334.827 70.9091C334.353 71.0909 333.821 71.1818 333.23 71.1818ZM344.724 66.0227V67.2727H339.906V66.0227H344.724ZM340.224 62.2727V71H338.884V62.2727H340.224ZM345.747 62.2727V71H344.406V62.2727H345.747ZM347.009 63.5227V62.2727H354.099V63.5227H351.236V71H349.895V63.5227H347.009Z" fill="#676767"/>
</svg>
