<svg width="33" height="32" viewBox="0 0 33 32" fill="none" xmlns="http://www.w3.org/2000/svg">
<path fill-rule="evenodd" clip-rule="evenodd" d="M3.42303 28.5199V13.4397H5.61277V28.5199C5.61277 29.1606 6.10296 29.68 6.70763 29.68H26.4153C27.0199 29.68 27.5101 29.1606 27.5101 28.5199V13.4397H29.6999V28.5199C29.6999 30.4419 28.2293 32 26.4153 32H6.70763C4.8936 32 3.42303 30.4419 3.42303 28.5199Z" fill="black"/>
<path fill-rule="evenodd" clip-rule="evenodd" d="M27.5101 2.99956V11.1197L23.1307 6.47961V2.99956C23.1307 2.3589 23.6208 1.83954 24.2255 1.83954H26.4153C27.0199 1.83954 27.5101 2.3589 27.5101 2.99956Z" fill="black"/>
<path fill-rule="evenodd" clip-rule="evenodd" d="M15.0131 0.679523C15.8682 -0.22651 17.2547 -0.226505 18.1098 0.679523L32.6638 16.0995C33.0914 16.5525 33.0914 17.287 32.6638 17.74C32.2362 18.193 31.543 18.193 31.1154 17.74L16.5614 2.32003L2.00748 17.74C1.57991 18.193 0.88668 18.193 0.459107 17.74C0.0315346 17.287 0.0315346 16.5525 0.459107 16.0995L15.0131 0.679523Z" fill="black"/>
</svg>
