<svg width="33" height="33" viewBox="0 0 33 33" fill="none" xmlns="http://www.w3.org/2000/svg">
<path fill-rule="evenodd" clip-rule="evenodd" d="M16.578 0.267944C16.9633 0.267944 17.3156 0.481947 17.4879 0.820731L18.2241 2.26794H27.769C29.4546 2.26794 30.8211 3.61109 30.8211 5.26794V22.2679H31.8384C32.4003 22.2679 32.8558 22.7157 32.8558 23.2679C32.8558 23.8202 32.4003 24.2679 31.8384 24.2679H26.0199L27.7386 31.0254C27.8749 31.5612 27.5435 32.1041 26.9984 32.2381C26.4533 32.372 25.9009 32.0463 25.7646 31.5105L24.9399 28.2679H8.21604L7.39133 31.5105C7.25505 32.0463 6.70269 32.372 6.15759 32.2381C5.61249 32.1041 5.28108 31.5612 5.41735 31.0254L7.13605 24.2679H1.31752C0.755645 24.2679 0.300156 23.8202 0.300156 23.2679C0.300156 22.7157 0.755645 22.2679 1.31752 22.2679H2.33488V5.26794C2.33488 3.61109 3.70135 2.26794 5.38698 2.26794H14.9319L15.668 0.820731C15.8404 0.481947 16.1926 0.267944 16.578 0.267944ZM4.36961 22.2679H28.7863V5.26794C28.7863 4.71566 28.3309 4.26794 27.769 4.26794H5.38698C4.8251 4.26794 4.36961 4.71566 4.36961 5.26794V22.2679ZM23.9226 24.2679H9.2334L8.72472 26.2679H24.4312L23.9226 24.2679Z" fill="black"/>
</svg>
