<svg width="34" height="32" viewBox="0 0 34 32" fill="none" xmlns="http://www.w3.org/2000/svg">
<path d="M29.4417 2C30.5755 2 31.4946 2.89543 31.4946 4V28C31.4946 29.1046 30.5755 30 29.4417 30H4.80716C3.67338 30 2.75428 29.1046 2.75428 28V4C2.75428 2.89543 3.67338 2 4.80716 2H29.4417ZM4.80716 0C2.53961 0 0.701401 1.79086 0.701401 4V28C0.701401 30.2091 2.53961 32 4.80716 32H29.4417C31.7092 32 33.5474 30.2091 33.5474 28V4C33.5474 1.79086 31.7092 0 29.4417 0H4.80716Z" fill="black"/>
<path d="M11.4895 11.5723C11.4739 11.8447 11.7046 12.0654 11.9847 12.0654H13.6773C13.9607 12.0654 14.1861 11.8403 14.2242 11.5666C14.4068 10.2544 15.3312 9.29785 16.9791 9.29785C18.3865 9.29785 19.6765 9.9834 19.6765 11.6338C19.6765 12.9033 18.9077 13.4873 17.6958 14.376C16.3145 15.3535 15.2199 16.4961 15.2981 18.3496L15.3042 18.7832C15.3081 19.0567 15.5367 19.2764 15.8174 19.2764H17.4823C17.7658 19.2764 17.9955 19.0525 17.9955 18.7764V18.5654C17.9955 17.1309 18.5559 16.7119 20.0675 15.5947C21.3184 14.668 22.6215 13.6396 22.6215 11.4814C22.6215 8.45996 20.0023 7 17.1355 7C14.5343 7 11.6835 8.18122 11.4895 11.5723ZM14.6857 23.0977C14.6857 24.1641 15.5587 24.9512 16.7576 24.9512C18.0086 24.9512 18.8686 24.1641 18.8686 23.0977C18.8686 21.9932 18.0086 21.2188 16.7576 21.2188C15.5587 21.2188 14.6857 21.9932 14.6857 23.0977Z" fill="black"/>
</svg>
