<svg width="45" height="45" viewBox="0 0 45 45" fill="none" xmlns="http://www.w3.org/2000/svg">
<path d="M24 42.946C23.5047 42.9818 23.0045 43 22.5 43C11.1782 43 2 33.8218 2 22.5C2 11.1782 11.1782 2 22.5 2C33.8218 2 43 11.1782 43 22.5C43 23.1748 42.9674 23.8419 42.9037 24.5H44.9123C44.9704 23.8411 45 23.174 45 22.5C45 10.0736 34.9264 0 22.5 0C10.0736 0 0 10.0736 0 22.5C0 34.9264 10.0736 45 22.5 45C23.004 45 23.5042 44.9834 24 44.9508V42.946Z" fill="white"/>
<path d="M19.2964 24.537L18 25.8334L23.5 31.3333L29 25.8333L27.7036 24.537L24.4166 27.824L24.4166 17L22.5832 17L22.5832 27.8239L19.2964 24.537Z" fill="white" stroke="white" stroke-width="0.32"/>
</svg>
