<svg width="20" height="25" viewBox="0 0 20 25" fill="none" xmlns="http://www.w3.org/2000/svg">
<path d="M15 13C15 13.3978 14.842 13.7794 14.5607 14.0607C14.2794 14.342 13.8978 14.5 13.5 14.5H6.5C6.10218 14.5 5.72064 14.342 5.43934 14.0607C5.15804 13.7794 5 13.3978 5 13C5 12.6022 5.15804 12.2207 5.43934 11.9394C5.72064 11.6581 6.10218 11.5 6.5 11.5H13.5C13.8978 11.5 14.2794 11.6581 14.5607 11.9394C14.842 12.2207 15 12.6022 15 13ZM10.5 16.5H6.5C6.10218 16.5 5.72064 16.6581 5.43934 16.9394C5.15804 17.2207 5 17.6022 5 18C5 18.3978 5.15804 18.7794 5.43934 19.0607C5.72064 19.342 6.10218 19.5 6.5 19.5H10.5C10.8978 19.5 11.2794 19.342 11.5607 19.0607C11.842 18.7794 12 18.3978 12 18C12 17.6022 11.842 17.2207 11.5607 16.9394C11.2794 16.6581 10.8978 16.5 10.5 16.5ZM20 8.65702V19C19.9984 20.4582 19.4184 21.8563 18.3873 22.8874C17.3562 23.9185 15.9582 24.4984 14.5 24.5H5.5C4.0418 24.4984 2.64377 23.9185 1.61267 22.8874C0.581561 21.8563 0.00158817 20.4582 0 19V6.00002C0.00158817 4.54182 0.581561 3.1438 1.61267 2.11269C2.64377 1.08158 4.0418 0.50161 5.5 0.500022H11.843C12.5656 0.497962 13.2814 0.639292 13.9489 0.915827C14.6165 1.19236 15.2226 1.5986 15.732 2.11102L18.389 4.76802C18.9013 5.27754 19.3075 5.88361 19.584 6.55116C19.8606 7.2187 20.0019 7.93447 20 8.65702ZM17 19V9.50002H13C12.4696 9.50002 11.9609 9.28931 11.5858 8.91424C11.2107 8.53916 11 8.03046 11 7.50002V3.50002H5.5C4.83696 3.50002 4.20107 3.76341 3.73223 4.23226C3.26339 4.7011 3 5.33698 3 6.00002V19C3 19.6631 3.26339 20.2989 3.73223 20.7678C4.20107 21.2366 4.83696 21.5 5.5 21.5H14.5C15.163 21.5 15.7989 21.2366 16.2678 20.7678C16.7366 20.2989 17 19.6631 17 19Z" fill="#4526FF"/>
</svg>
