<svg width="25" height="25" viewBox="0 0 25 25" fill="none" xmlns="http://www.w3.org/2000/svg">
<path d="M18.5059 24.5026H13.0399C11.1667 24.5353 9.30726 24.1778 7.57979 23.4529C5.85231 22.7279 4.29464 21.6513 3.00587 20.2916C1.91538 19.0994 1.08912 17.6903 0.581255 16.1565C0.0733862 14.6228 -0.104632 12.999 0.0588662 11.3916C0.306955 8.77623 1.40477 6.31409 3.18445 4.38163C4.96413 2.44917 7.32774 1.15275 9.91387 0.690589C11.6128 0.375459 13.3606 0.442503 15.0305 0.886856C16.7003 1.33121 18.2502 2.14172 19.5679 3.25959C20.9628 4.43219 22.0832 5.89677 22.8501 7.54987C23.617 9.20298 24.0115 11.0043 24.0059 12.8266V19.0026C24.004 20.4607 23.424 21.8586 22.3929 22.8896C21.3619 23.9207 19.964 24.5007 18.5059 24.5026ZM12.0359 3.50259C9.79037 3.50065 7.62487 4.33625 5.9627 5.84603C4.30053 7.35582 3.26119 9.43125 3.04787 11.6666C2.92552 12.859 3.05648 14.0638 3.43216 15.202C3.80785 16.3403 4.41978 17.3863 5.22787 18.2716C6.235 19.3221 7.44951 20.1518 8.79433 20.708C10.1392 21.2642 11.5849 21.5348 13.0399 21.5026H18.5059C19.1689 21.5026 19.8048 21.2392 20.2736 20.7704C20.7425 20.3015 21.0059 19.6656 21.0059 19.0026V12.8266C21.0105 11.4424 20.7115 10.074 20.1299 8.81794C19.5483 7.56184 18.6983 6.44858 17.6399 5.55659C16.0753 4.22773 14.0886 3.49956 12.0359 3.50259ZM12.0059 6.50259C11.608 6.50259 11.2265 6.66062 10.9452 6.94193C10.6639 7.22323 10.5059 7.60476 10.5059 8.00259C10.5059 8.40041 10.6639 8.78195 10.9452 9.06325C11.2265 9.34455 11.608 9.50259 12.0059 9.50259C12.4037 9.50259 12.7852 9.34455 13.0665 9.06325C13.3478 8.78195 13.5059 8.40041 13.5059 8.00259C13.5059 7.60476 13.3478 7.22323 13.0665 6.94193C12.7852 6.66062 12.4037 6.50259 12.0059 6.50259ZM12.5059 19.5026C12.108 19.5026 11.7265 19.3446 11.4452 19.0632C11.1639 18.7819 11.0059 18.4004 11.0059 18.0026V13.5026H10.5059C10.108 13.5026 9.72651 13.3446 9.44521 13.0632C9.1639 12.7819 9.00587 12.4004 9.00587 12.0026C9.00587 11.6048 9.1639 11.2232 9.44521 10.9419C9.72651 10.6606 10.108 10.5026 10.5059 10.5026H11.5059C12.1689 10.5026 12.8048 10.766 13.2736 11.2348C13.7425 11.7037 14.0059 12.3395 14.0059 13.0026V18.0026C14.0059 18.4004 13.8478 18.7819 13.5665 19.0632C13.2852 19.3446 12.9037 19.5026 12.5059 19.5026Z" fill="#4526FF"/>
</svg>
