<svg width="17" height="17" viewBox="0 0 17 17" fill="none" xmlns="http://www.w3.org/2000/svg">
<path d="M5.39551 2.39675H5.29552V2.49675V4.02963V4.12963H5.39551H11.527H11.627V4.02963V2.49675V2.39675H11.527H5.39551ZM12.9599 4.02963V4.12963H13.0599H16.0257V13.1269H13.0599H12.9599V13.2269V16.1927H3.96263V13.2269V13.1269H3.86263H0.896875V4.12963H3.86263H3.96263V4.02963V1.06387H12.9599V4.02963ZM14.5928 11.794H14.6928V11.694V5.56251V5.46251H14.5928H2.32975H2.22975V5.56251V11.694V11.794H2.32975H3.86263H3.96263V11.694V10.2611H12.9599V11.694V11.794H13.0599H14.5928ZM5.39551 11.594H5.29552V11.694V14.7598V14.8598H5.39551H11.527H11.627V14.7598V11.694V11.594H11.527H5.39551ZM3.96263 8.52827V7.19539H5.29552V8.52827H3.96263Z" fill="#4E4E4E" stroke="white" stroke-width="0.2"/>
</svg>
