<svg width="111" height="106" viewBox="0 0 111 106" fill="none" xmlns="http://www.w3.org/2000/svg">
<path d="M100.321 80.1008C99.4547 80.1109 99.5499 80.069 98.3978 80.1494V53.2553C98.3978 50.377 96.051 48.0353 93.1665 48.0353H79.9592C79.952 48.0353 79.9453 48.0342 79.9381 48.0342H64.7294V7.51918L77.2028 19.5503C77.9078 20.2304 78.3122 21.1814 78.3122 22.1598V42.0088C78.3122 42.9049 79.0402 43.6313 79.9381 43.6313C80.8361 43.6313 81.5641 42.9049 81.5641 42.0088V22.1598C81.5641 20.3068 80.7984 18.5052 79.4629 17.2172L64.2334 2.52784C63.891 2.20724 63.235 1.91952 62.5853 2.1564L35.2643 11.3201V5.00328C35.2848 2.24315 32.803 -0.159178 29.9159 0.00826046C27.1545 0.00826046 24.9078 2.24899 24.9078 5.00328V14.7936L17.7598 17.1912C14.9521 18.1331 13.0655 20.7515 13.0655 23.7075V80.1096C5.8299 80.2946 0 86.2211 0 93.4848V101.735C0 103.975 1.82608 105.797 4.07059 105.797H106.929C109.174 105.797 111 103.975 111 101.735V90.7564C111 84.881 106.21 80.1008 100.321 80.1008ZM100.321 83.3457C104.417 83.3457 107.748 86.6702 107.748 90.7567V92.4587H91.9763V90.7567C91.9799 86.3217 95.8851 82.9615 100.321 83.3457ZM95.1458 53.2553V80.9866C91.3705 82.6311 88.7243 86.3903 88.7243 90.7564V92.4585H64.7294V51.2802H93.1665C94.2578 51.2802 95.1458 52.1663 95.1458 53.2553ZM28.1598 5.00328C28.1598 4.03824 28.9476 3.25318 29.9159 3.25318C30.7854 3.12577 31.9564 3.80612 32.0123 5.00328V12.4108L28.1598 13.7029V5.00328ZM13.0657 83.3515V92.4587H3.30356C3.80935 87.4611 7.9673 83.5233 13.0657 83.3515ZM3.25196 101.735V95.7037H13.0657V102.552H4.0708C3.61921 102.552 3.25196 102.186 3.25196 101.735ZM16.3177 23.7075C16.3177 22.1469 17.3137 20.7645 18.7961 20.2672L61.4776 5.95145V14.7917L26.0157 26.6861C25.1645 26.9714 24.7064 27.8915 24.9926 28.741C25.2209 29.4189 25.8544 29.8468 26.5336 29.8468C26.7053 29.8468 26.88 29.8196 27.052 29.7618L61.4776 18.2153V26.4693L26.0157 38.3635C25.1645 38.649 24.7064 39.5691 24.9926 40.4184C25.2209 41.0963 25.8544 41.5242 26.5336 41.5242C26.7053 41.5242 26.88 41.497 27.052 41.4392L61.4776 29.8925V38.1465L26.0157 50.0409C25.1645 50.3262 24.7064 51.2463 24.9926 52.0958C25.2209 52.7737 25.8544 53.2016 26.5336 53.2016C26.7053 53.2016 26.88 53.1744 27.052 53.1166L61.4776 41.5701V49.6517C61.4776 49.6539 61.4774 49.6558 61.4774 49.658V49.8243L26.0157 61.7183C25.1645 62.0038 24.7064 62.9239 24.9926 63.7732C25.2209 64.4511 25.8544 64.879 26.5336 64.879C26.7053 64.879 26.88 64.8518 27.052 64.794L61.4772 53.2473V61.5015L39.3342 68.9285C38.483 69.2138 38.0249 70.1339 38.3111 70.9834C38.5394 71.6614 39.1729 72.0893 39.8521 72.0893C40.0238 72.0893 40.1986 72.062 40.3705 72.0042L61.4772 64.9247V102.552H47.4305V85.6928C47.4305 84.5878 46.9245 83.5707 46.0423 82.9026C45.1602 82.2346 44.0424 82.0218 42.9757 82.319L27.8418 86.5348C26.1145 87.0159 24.9083 88.6016 24.9083 90.3911V102.552H16.3177V23.7075ZM28.1602 90.3913C28.1602 90.0521 28.389 89.7516 28.7161 89.6603L34.5432 88.037V102.552H28.16L28.1602 90.3913ZM37.7951 102.552V87.131L43.8501 85.4443C43.9318 85.4214 44.0081 85.4356 44.076 85.4873C44.1438 85.5388 44.1783 85.608 44.1783 85.6931V102.552H37.7951ZM64.7294 102.552V95.7037H88.7243V102.552H64.7294ZM107.748 101.735C107.748 102.186 107.381 102.552 106.93 102.552H91.9763V95.7037H107.748V101.735Z" fill="#E3E3E3"/>
<path d="M26.5336 76.5564C26.7053 76.5564 26.88 76.5292 27.052 76.4714L33.0889 74.4466C33.9401 74.1612 34.3981 73.2412 34.112 72.3917C33.8258 71.5422 32.9038 71.0848 32.0526 71.3708L26.0157 73.3957C25.1645 73.681 24.7064 74.601 24.9926 75.4506C25.2209 76.1283 25.8544 76.5564 26.5336 76.5564Z" fill="#E3E3E3"/>
<path d="M71.8503 64.6623H87.796C89.3081 64.6623 90.5382 63.4348 90.5382 61.9262V58.0208C90.5382 56.5119 89.3081 55.2845 87.796 55.2845H71.8503C70.3382 55.2845 69.1083 56.5119 69.1083 58.0208V61.9262C69.1083 63.4348 70.3384 64.6623 71.8503 64.6623ZM72.3602 58.5294H87.2863V61.4174H72.3602V58.5294Z" fill="#E3E3E3"/>
<path d="M71.8503 76.9995H87.796C89.3081 76.9995 90.5382 75.772 90.5382 74.2631V70.3578C90.5382 68.8489 89.3081 67.6216 87.796 67.6216H71.8503C70.3382 67.6216 69.1083 68.8491 69.1083 70.3578V74.2631C69.1083 75.772 70.3384 76.9995 71.8503 76.9995ZM72.3602 70.8666H87.2863V73.7546H72.3602V70.8666Z" fill="#E3E3E3"/>
<path d="M71.8503 89.4628H77.1246C78.6367 89.4628 79.8668 88.2353 79.8668 86.7267V82.8213C79.8668 81.3124 78.6367 80.085 77.1246 80.085H71.8503C70.3382 80.085 69.1083 81.3124 69.1083 82.8213V86.7267C69.1083 88.2353 70.3384 89.4628 71.8503 89.4628ZM72.3602 83.3299H76.6149V86.2179H72.3602V83.3299Z" fill="#E3E3E3"/>
</svg>
