<svg width="91" height="87" viewBox="0 0 91 87" fill="none" xmlns="http://www.w3.org/2000/svg">
<path d="M81.4452 65.4321C80.7418 65.4403 80.8191 65.4062 79.8839 65.4716V43.6419C79.8839 41.3056 77.979 39.4048 75.6377 39.4048H64.9175C64.9117 39.4048 64.9062 39.404 64.9004 39.404H52.5556V6.51828L62.6802 16.2838C63.2524 16.8359 63.5806 17.6078 63.5806 18.402V34.5132C63.5806 35.2405 64.1715 35.8301 64.9004 35.8301C65.6293 35.8301 66.2202 35.2405 66.2202 34.5132V18.402C66.2202 16.8979 65.5987 15.4355 64.5147 14.3901L52.153 2.46686C51.8751 2.20663 51.3426 1.9731 50.8152 2.16537L28.639 9.60343V4.47615C28.6558 2.23578 26.6412 0.285836 24.2978 0.421744C22.0564 0.421744 20.2328 2.24052 20.2328 4.47615V12.4229L14.4309 14.369C12.1518 15.1335 10.6205 17.2589 10.6205 19.6582V65.4393C4.74745 65.5894 0.0153809 70.3999 0.0153809 76.2957V82.9925C0.0153809 84.8105 1.4976 86.2894 3.31944 86.2894H86.809C88.631 86.2894 90.113 84.8104 90.113 82.9925V74.0812C90.1132 69.3121 86.2248 65.4321 81.4452 65.4321ZM81.4452 68.0659C84.7693 68.0659 87.4736 70.7644 87.4736 74.0814V75.4629H74.6716V74.0814C74.6746 70.4816 77.8444 67.7541 81.4452 68.0659ZM77.2444 43.6419V66.1511C74.18 67.486 72.0321 70.5372 72.0321 74.0812V75.4627H52.5556V42.0387H75.6377C76.5236 42.0387 77.2444 42.7579 77.2444 43.6419ZM22.8724 4.47615C22.8724 3.69284 23.5119 3.05562 24.2978 3.05562C25.0036 2.95219 25.9541 3.50443 25.9995 4.47615V10.4888L22.8724 11.5376V4.47615ZM10.6207 68.0707V75.4629H2.69685C3.10739 71.4064 6.48236 68.2101 10.6207 68.0707ZM2.65497 82.9926V78.0968H10.6207V83.6557H3.31961C2.95306 83.6557 2.65497 83.3582 2.65497 82.9926ZM13.2603 19.6582C13.2603 18.3914 14.0687 17.2694 15.272 16.8657L49.9162 5.24577V12.4213L21.1321 22.0759C20.4412 22.3075 20.0694 23.0543 20.3016 23.7438C20.4869 24.2941 21.0011 24.6414 21.5525 24.6414C21.6918 24.6414 21.8337 24.6193 21.9732 24.5724L49.9162 15.2002V21.8999L21.1321 31.5543C20.4412 31.7861 20.0694 32.5329 20.3016 33.2223C20.4869 33.7726 21.0011 34.1199 21.5525 34.1199C21.6918 34.1199 21.8337 34.0978 21.9732 34.0509L49.9162 24.6785V31.3782L21.1321 41.0327C20.4412 41.2643 20.0694 42.0111 20.3016 42.7007C20.4869 43.251 21.0011 43.5983 21.5525 43.5983C21.6918 43.5983 21.8337 43.5762 21.9732 43.5293L49.9162 34.1571V40.7169C49.9162 40.7186 49.916 40.7202 49.916 40.7219V40.857L21.1321 50.5112C20.4412 50.743 20.0694 51.4897 20.3016 52.1791C20.4869 52.7294 21.0011 53.0767 21.5525 53.0767C21.6918 53.0767 21.8337 53.0546 21.9732 53.0077L49.9159 43.6354V50.3352L31.9426 56.3636C31.2517 56.5952 30.8799 57.342 31.1122 58.0316C31.2975 58.5819 31.8116 58.9292 32.363 58.9292C32.5023 58.9292 32.6442 58.9071 32.7837 58.8602L49.9159 53.1138V83.6555H38.5143V69.9711C38.5143 69.0742 38.1035 68.2486 37.3875 67.7063C36.6715 67.1641 35.7642 66.9913 34.8984 67.2326L22.6143 70.6545C21.2123 71.045 20.2332 72.3321 20.2332 73.7846V83.6555H13.2603V19.6582ZM22.8728 73.7848C22.8728 73.5095 23.0584 73.2656 23.324 73.1915L28.0538 71.8738V83.6557H22.8726L22.8728 73.7848ZM30.6933 83.6557V71.1384L35.6081 69.7694C35.6744 69.7507 35.7364 69.7623 35.7914 69.8043C35.8465 69.8461 35.8745 69.9023 35.8745 69.9713V83.6557H30.6933ZM52.5556 83.6557V78.0968H72.0321V83.6557H52.5556ZM87.4736 82.9926C87.4736 83.3584 87.1755 83.6557 86.8092 83.6557H74.6716V78.0968H87.4736V82.9926Z" fill="#4B4B4B"/>
<path d="M21.5525 62.5552C21.6918 62.5552 21.8337 62.533 21.9732 62.4862L26.8733 60.8426C27.5642 60.611 27.936 59.8642 27.7037 59.1747C27.4715 58.4851 26.7231 58.1139 26.0322 58.3461L21.1321 59.9896C20.4412 60.2212 20.0694 60.968 20.3016 61.6575C20.4869 62.2077 21.0011 62.5552 21.5525 62.5552Z" fill="#4B4B4B"/>
<path d="M58.3356 52.9008H71.2785C72.5059 52.9008 73.5044 51.9045 73.5044 50.6799V47.51C73.5044 46.2852 72.5059 45.2889 71.2785 45.2889H58.3356C57.1082 45.2889 56.1099 46.2852 56.1099 47.51V50.6799C56.1099 51.9045 57.1084 52.9008 58.3356 52.9008ZM58.7495 47.9228H70.8648V50.2669H58.7495V47.9228Z" fill="#4B4B4B"/>
<path d="M58.3356 62.9148H71.2785C72.5059 62.9148 73.5044 61.9185 73.5044 60.6937V57.5238C73.5044 56.299 72.5059 55.3029 71.2785 55.3029H58.3356C57.1082 55.3029 56.1099 56.2992 56.1099 57.5238V60.6937C56.1099 61.9185 57.1084 62.9148 58.3356 62.9148ZM58.7495 57.9368H70.8648V60.2809H58.7495V57.9368Z" fill="#4B4B4B"/>
<path d="M58.3356 73.0311H62.6167C63.8441 73.0311 64.8425 72.0348 64.8425 70.8103V67.6403C64.8425 66.4156 63.8441 65.4192 62.6167 65.4192H58.3356C57.1082 65.4192 56.1099 66.4156 56.1099 67.6403V70.8103C56.1099 72.0348 57.1084 73.0311 58.3356 73.0311ZM58.7495 68.0531H62.2029V70.3973H58.7495V68.0531Z" fill="#4B4B4B"/>
</svg>
