<svg width="20" height="21" viewBox="0 0 20 21" fill="none" xmlns="http://www.w3.org/2000/svg">
<path d="M19.1662 9.66644C18.9451 9.66644 18.7331 9.75423 18.5767 9.91051C18.4203 10.0668 18.3325 10.2787 18.3325 10.4997C18.3393 12.4374 17.6725 14.3173 16.4462 15.8181C15.2198 17.3188 13.51 18.3473 11.609 18.7277C9.70806 19.1081 7.73391 18.8168 6.024 17.9036C4.3141 16.9904 2.97461 15.512 2.23448 13.7211C1.49435 11.9301 1.39954 9.93787 1.96625 8.08481C2.53296 6.23176 3.726 4.63294 5.34146 3.56165C6.95692 2.49035 8.89451 2.01309 10.823 2.21143C12.7516 2.40977 14.5513 3.27141 15.9146 4.64906C15.8872 4.65654 15.8594 4.66238 15.8312 4.66656H13.33C13.1089 4.66656 12.8968 4.75436 12.7404 4.91063C12.5841 5.06691 12.4962 5.27887 12.4962 5.49987C12.4962 5.72088 12.5841 5.93284 12.7404 6.08911C12.8968 6.24539 13.1089 6.33319 13.33 6.33319H15.8312C16.4946 6.33319 17.1308 6.0698 17.5999 5.60097C18.069 5.13214 18.3325 4.49627 18.3325 3.83325V1.33331C18.3325 1.1123 18.2447 0.900348 18.0883 0.744072C17.9319 0.587795 17.7199 0.5 17.4987 0.5C17.2776 0.5 17.0656 0.587795 16.9092 0.744072C16.7528 0.900348 16.665 1.1123 16.665 1.33331V3.0541C14.9579 1.52875 12.7788 0.635135 10.4918 0.522585C8.20475 0.410035 5.94835 1.08537 4.09962 2.43573C2.25089 3.78609 0.921827 5.72969 0.334525 7.94173C-0.252776 10.1538 -0.0627411 12.5003 0.872876 14.5891C1.80849 16.6779 3.43301 18.3826 5.47498 19.4182C7.51694 20.4538 9.85264 20.7576 12.0918 20.2789C14.3309 19.8001 16.3379 18.5679 17.7773 16.788C19.2166 15.0081 20.0013 12.7884 20 10.4997C20 10.2787 19.9122 10.0668 19.7558 9.91051C19.5994 9.75423 19.3874 9.66644 19.1662 9.66644Z" fill="#4526FF"/>
<path d="M9.99523 5.49987C9.77411 5.49987 9.56204 5.58767 9.40568 5.74395C9.24932 5.90022 9.16148 6.11218 9.16148 6.33319V10.4997C9.16153 10.7207 9.2494 10.9327 9.40577 11.0889L11.907 13.5888C12.0643 13.7406 12.2749 13.8246 12.4935 13.8227C12.7121 13.8208 12.9212 13.7332 13.0758 13.5787C13.2304 13.4242 13.3181 13.2152 13.32 12.9967C13.3219 12.7782 13.2378 12.5677 13.0859 12.4105L10.829 10.1548V6.33319C10.829 6.11218 10.7411 5.90022 10.5848 5.74395C10.4284 5.58767 10.2164 5.49987 9.99523 5.49987Z" fill="#4526FF"/>
</svg>
