<svg width="27" height="27" viewBox="0 0 27 27" fill="none" xmlns="http://www.w3.org/2000/svg">
<path d="M20.7878 18.1743L20.6353 18.3883L20.8211 18.574L25.3223 23.0752C25.9555 23.7084 25.9555 24.7351 25.3223 25.3683C24.6891 26.0015 23.6624 26.0015 23.0292 25.3683L18.528 20.8671L18.3422 20.6813L18.1283 20.8338C13.7229 23.9734 7.56691 23.5667 3.6146 19.6143C-0.7909 15.2088 -0.7909 8.06612 3.6146 3.66062C8.0201 -0.744879 15.1628 -0.744879 19.5683 3.66062C23.5206 7.61293 23.9274 13.7689 20.7878 18.1743ZM17.2753 17.3213C20.4144 14.1822 20.4144 9.09276 17.2753 5.95368C14.1362 2.8146 9.04674 2.8146 5.90766 5.95368C2.76858 9.09276 2.76858 14.1822 5.90766 17.3213C9.04674 20.4604 14.1362 20.4604 17.2753 17.3213Z" fill="#A6A6A6" stroke="#A6A6A6" stroke-width="0.620951"/>
</svg>
