<svg width="560" height="471" viewBox="0 0 560 471" fill="none" xmlns="http://www.w3.org/2000/svg">
<path d="M559.701 57.3736V141.325C559.701 193.882 558.373 237.09 505.861 239.278C558.373 241.466 559.701 284.673 559.701 337.23V413.352C559.701 444.778 534.225 470.254 502.799 470.254L57.0871 470.254C25.6612 470.254 0.185425 444.778 0.185425 413.352V337.23C0.185425 284.673 0.458313 241.466 52.9699 239.278C0.458313 237.09 0.185425 193.882 0.185425 141.325V57.3736C0.185425 25.9476 25.6612 0.471832 57.0871 0.471832L502.799 0.471832C534.225 0.471832 559.701 25.9476 559.701 57.3736Z" fill="#46A9FF"/>
<path d="M133.174 225.135C139.825 225.135 145.051 221.968 148.27 218.009L141.831 212.467C139.667 215.053 136.658 216.69 133.174 216.69C127.051 216.69 123.092 211.992 123.092 205.974C123.092 199.112 127.685 195.101 133.121 195.101C136.763 195.101 139.772 197.054 141.778 199.429L148.218 193.887C144.101 188.872 138.4 186.655 133.121 186.655C120.77 186.655 113.802 195.259 113.802 205.974C113.802 218.432 122.406 225.135 133.174 225.135ZM152.328 224.66H160.14V211.675H160.246L164.679 220.173H170.222L174.709 211.622L174.814 211.675V224.66H182.626V198.849H174.656L167.53 212.678H167.424L160.246 198.849H152.328V224.66ZM201.029 225.135C209.158 225.135 214.964 219.698 214.964 211.781C214.964 203.81 209.158 198.373 201.029 198.373C192.689 198.373 187.041 203.916 187.041 211.781C187.041 219.593 192.689 225.135 201.029 225.135ZM201.029 217.851C197.756 217.851 195.381 215.212 195.381 211.781C195.381 208.244 197.704 205.711 201.029 205.711C204.249 205.711 206.624 208.191 206.624 211.781C206.624 215.317 204.143 217.851 201.029 217.851ZM223.787 224.66H232.074V205.552H239.042V198.849H216.767V205.552H223.787V224.66ZM242.793 235.111H251.028V222.179L251.133 222.127C252.823 224.08 255.092 225.135 258.048 225.135C265.174 225.135 270.241 219.751 270.241 211.781C270.241 203.863 265.174 198.373 258.47 198.373C255.567 198.373 252.981 199.482 251.133 201.593H251.028V198.849H242.793V235.111ZM256.412 217.851C253.139 217.851 250.658 215.476 250.658 211.781C250.658 208.244 253.034 205.658 256.359 205.658C259.526 205.658 261.901 208.086 261.901 211.781C261.901 215.423 259.579 217.851 256.412 217.851ZM299.3 211.464C299.3 203.81 293.969 198.373 286.685 198.373C278.873 198.373 273.383 203.916 273.383 211.728C273.383 219.751 279.084 225.135 286.896 225.135C292.755 225.135 296.344 223.182 298.508 220.49L293.758 215.634C292.016 217.587 289.852 218.379 287.74 218.432C284.573 218.432 282.092 216.901 281.565 213.945H299.142C299.195 213.417 299.3 212.203 299.3 211.464ZM286.579 204.919C289.06 204.919 290.749 206.502 291.277 209.036H281.617C282.145 206.45 284.045 204.919 286.579 204.919ZM308.067 224.66H316.354V205.552H323.322V198.849H301.047V205.552H308.067V224.66ZM327.073 224.66H338.475C347.026 224.66 350.14 220.807 350.14 214.737C350.14 209.142 347.132 205.552 338.686 205.552H335.202V198.849H327.073V224.66ZM334.674 218.115V211.781H338.158C340.428 211.781 341.748 212.784 341.748 214.895C341.748 217.059 340.375 218.115 337.947 218.115H334.674ZM366.92 224.66H380.696C388.72 224.66 391.306 221.335 391.306 217.112C391.306 214.103 389.406 211.781 385.605 210.989V210.883C389.036 209.722 389.986 207.505 389.986 205.13C389.986 201.171 387.189 198.849 379.693 198.849H366.92V224.66ZM374.837 209.194V204.972H379.007C380.749 204.972 381.91 205.552 381.91 207.03C381.91 208.508 380.96 209.194 378.849 209.194H374.837ZM374.837 218.537V213.998H379.641C381.91 213.998 382.966 214.737 382.966 216.215C382.966 217.798 381.963 218.537 379.588 218.537H374.837ZM407.414 225.135C412.798 225.135 416.598 223.341 418.921 220.649L413.853 215.37C412.375 216.954 410.686 217.798 408.364 217.798C404.774 217.798 402.241 215.423 402.241 211.781C402.241 208.139 404.721 205.711 408.311 205.711C410.211 205.711 412.217 206.555 413.431 208.139L418.762 202.86C415.912 199.64 411.583 198.373 407.625 198.373C399.39 198.373 393.901 203.757 393.901 211.834C393.901 219.751 399.601 225.135 407.414 225.135ZM446.571 211.464C446.571 203.81 441.24 198.373 433.955 198.373C426.143 198.373 420.654 203.916 420.654 211.728C420.654 219.751 426.354 225.135 434.167 225.135C440.026 225.135 443.615 223.182 445.779 220.49L441.029 215.634C439.287 217.587 437.123 218.379 435.011 218.432C431.844 218.432 429.363 216.901 428.835 213.945H446.413C446.465 213.417 446.571 212.203 446.571 211.464ZM433.85 204.919C436.331 204.919 438.02 206.502 438.548 209.036H428.888C429.416 206.45 431.316 204.919 433.85 204.919ZM137.766 285.66H146V266.552H153.337V285.66H161.624V259.796H137.766V285.66ZM167.251 296.111H175.485V283.179L175.591 283.127C177.28 285.08 179.55 286.135 182.506 286.135C189.631 286.135 194.699 280.751 194.699 272.781C194.699 264.863 189.631 259.373 182.928 259.373C180.025 259.373 177.438 260.482 175.591 262.593H175.485V259.849H167.251V296.111ZM180.869 278.851C177.597 278.851 175.116 276.476 175.116 272.781C175.116 269.244 177.491 266.658 180.816 266.658C183.984 266.658 186.359 269.086 186.359 272.781C186.359 276.423 184.036 278.851 180.869 278.851ZM211.828 286.135C219.957 286.135 225.763 280.698 225.763 272.781C225.763 264.81 219.957 259.373 211.828 259.373C203.488 259.373 197.84 264.916 197.84 272.781C197.84 280.593 203.488 286.135 211.828 286.135ZM211.828 278.851C208.556 278.851 206.18 276.212 206.18 272.781C206.18 269.244 208.503 266.711 211.828 266.711C215.048 266.711 217.423 269.191 217.423 272.781C217.423 276.317 214.942 278.851 211.828 278.851ZM230.19 285.66H238.425V266.552H248.981V259.849H230.19V285.66ZM252.819 296.111H261.054V283.179L261.159 283.127C262.849 285.08 265.118 286.135 268.074 286.135C275.2 286.135 280.267 280.751 280.267 272.781C280.267 264.863 275.2 259.373 268.496 259.373C265.593 259.373 263.007 260.482 261.159 262.593H261.054V259.849H252.819V296.111ZM266.438 278.851C263.165 278.851 260.684 276.476 260.684 272.781C260.684 269.244 263.06 266.658 266.385 266.658C269.552 266.658 271.927 269.086 271.927 272.781C271.927 276.423 269.605 278.851 266.438 278.851ZM295.497 286.135C298.611 286.135 300.933 285.08 302.622 282.915L302.728 282.968V285.66H310.593V259.849H302.306V262.541L302.2 262.593C300.406 260.482 297.819 259.373 295.074 259.373C288.423 259.373 283.303 264.863 283.303 272.781C283.303 280.751 288.423 286.135 295.497 286.135ZM297.238 278.851C293.966 278.851 291.696 276.423 291.696 272.781C291.696 269.086 294.071 266.658 297.238 266.658C300.3 266.658 302.675 269.244 302.675 272.781C302.675 276.476 300.194 278.851 297.238 278.851ZM316.12 285.66H323.932V272.675H324.037L328.471 281.173H334.014L338.5 272.622L338.606 272.675V285.66H346.418V259.849H338.447L331.322 273.678H331.216L324.037 259.849H316.12V285.66ZM352.1 285.66H359.912V272.675H360.017L364.451 281.173H369.994L374.48 272.622L374.586 272.675V285.66H382.398V259.849H374.428L367.302 273.678H367.196L360.017 259.849H352.1V285.66ZM388.08 285.66H399.217C407.821 285.66 410.883 281.807 410.883 275.737C410.883 270.142 407.927 266.552 399.481 266.552H396.209V259.849H388.08V285.66ZM413.891 285.66H422.179V259.849H413.891V285.66ZM395.681 279.115V272.781H398.901C401.17 272.781 402.49 273.784 402.49 275.895C402.49 278.059 401.118 279.115 398.689 279.115H395.681Z" fill="black"/>
</svg>
