<svg width="23" height="17" viewBox="0 0 23 17" fill="none" xmlns="http://www.w3.org/2000/svg">
<path d="M11.2545 5.04321C9.43923 5.04321 7.93792 6.54562 7.93792 8.3598C7.93792 10.1751 9.43923 11.6764 11.2545 11.6764C13.0687 11.6764 14.5711 10.1751 14.5711 8.3598C14.5711 6.54562 13.0687 5.04321 11.2545 5.04321Z" fill="#A6A6A6"/>
<path d="M11.2545 0.621094C2.86133 0.621094 0.338867 7.93638 0.315775 8.01045L0.199219 8.3598L0.314676 8.70914C0.338867 8.78321 2.86133 16.0985 11.2545 16.0985C19.6477 16.0985 22.1702 8.78321 22.1932 8.70914L22.3098 8.3598L22.1943 8.01045C22.1702 7.93638 19.6477 0.621094 11.2545 0.621094ZM11.2545 13.8874C5.3706 13.8874 3.09114 9.63558 2.53915 8.3598C3.09334 7.07959 5.37389 2.83215 11.2545 2.83215C17.1384 2.83215 19.4179 7.08402 19.9699 8.3598C19.4157 9.64 17.1351 13.8874 11.2545 13.8874Z" fill="#A6A6A6"/>
</svg>
