<svg width="41" height="40" viewBox="0 0 41 40" fill="none" xmlns="http://www.w3.org/2000/svg">
<path d="M29.2983 20.1111C29.2983 21.8304 30.4693 23.2088 32.1293 23.2088C33.7597 23.2088 34.9454 21.8601 34.9454 20.1111C34.9454 18.3621 33.7597 17.0133 32.1293 17.0133C30.4693 17.0133 29.2983 18.3917 29.2983 20.1111Z" fill="black"/>
<path fill-rule="evenodd" clip-rule="evenodd" d="M20.4354 0.101562H0.5V19.9629C0.5 30.9729 9.4254 39.8983 20.4354 39.8983H40.2967V19.9629C40.2967 8.99377 31.4045 0.101562 20.4354 0.101562ZM5.99893 25.3728H3.59775V14.8493H6.07303V21.3709H6.10267L10.1046 14.8493H12.4464V25.3728H9.97116V19.0143L9.94152 18.9994L5.99893 25.3728ZM16.7983 25.3728H14.3527V14.8493H16.8427L19.7626 20.4371H19.7923L22.6825 14.8493H25.1874V25.3728H22.727V19.5775H22.6974L20.563 23.4312H18.9771L16.8427 19.5627H16.7983V25.3728ZM37.5392 20.1111C37.5392 23.3274 35.2715 25.5062 32.1293 25.5062C28.9277 25.5062 26.7044 23.2829 26.7044 20.1111C26.7044 16.9392 28.9277 14.7011 32.1293 14.7011C35.2715 14.7011 37.5392 16.8799 37.5392 20.1111Z" fill="black"/>
</svg>
