<svg width="23" height="19" viewBox="0 0 23 19" fill="none" xmlns="http://www.w3.org/2000/svg">
<path fill-rule="evenodd" clip-rule="evenodd" d="M1.98887 8.16239C7.80259 5.62944 11.6793 3.95957 13.6191 3.15277C19.1574 0.849194 20.3082 0.449038 21.0583 0.435825C21.2233 0.432919 21.5921 0.473804 21.8311 0.667686C22.0328 0.831397 22.0883 1.05255 22.1149 1.20776C22.1415 1.36298 22.1745 1.71656 22.1482 1.99284C21.8481 5.14626 20.5495 12.7988 19.8888 16.3307C19.6093 17.8251 19.0588 18.3262 18.5259 18.3753C17.3678 18.4818 16.4884 17.6099 15.3667 16.8746C13.6115 15.7241 12.6199 15.0078 10.9161 13.8851C8.94715 12.5876 10.2236 11.8744 11.3457 10.7089C11.6393 10.4039 16.742 5.76265 16.8408 5.34162C16.8531 5.28896 16.8646 5.09268 16.748 4.98903C16.6314 4.88539 16.4593 4.92083 16.3351 4.94902C16.159 4.98897 13.355 6.84231 7.92309 10.509C7.12718 11.0555 6.40628 11.3218 5.76037 11.3079C5.04831 11.2925 3.67859 10.9053 2.66035 10.5743C1.41143 10.1683 0.418812 9.95367 0.505247 9.2642C0.550267 8.90508 1.04481 8.53781 1.98887 8.16239Z" fill="#000212"/>
</svg>
