<svg width="20" height="20" viewBox="0 0 20 20" fill="none" xmlns="http://www.w3.org/2000/svg">
<path d="M10 16C8.46329 16 7.06151 15.4223 6 14.4722C4.7725 13.3736 4 11.777 4 10C4 8.223 4.7725 6.62643 6 5.52779C7.06151 4.57771 8.46329 4 10 4V16Z" fill="#4526FF"/>
<path fill-rule="evenodd" clip-rule="evenodd" d="M0 10C0 4.47715 4.47715 0 10 0C15.5228 0 20 4.47715 20 10C20 15.5228 15.5228 20 10 20C4.47715 20 0 15.5228 0 10ZM10 18C5.58172 18 2 14.4183 2 10C2 5.58172 5.58172 2 10 2C14.4183 2 18 5.58172 18 10C18 14.4183 14.4183 18 10 18Z" fill="#4526FF"/>
</svg>
