<svg width="18" height="21" viewBox="0 0 18 21" fill="none" xmlns="http://www.w3.org/2000/svg">
<path fill-rule="evenodd" clip-rule="evenodd" d="M0 3.81738C0 2.16053 1.34315 0.817383 3 0.817383H11C14.866 0.817383 18 3.95139 18 7.81738V17.8174C18 19.4742 16.6569 20.8174 15 20.8174H3C1.34315 20.8174 0 19.4742 0 17.8174V3.81738ZM10 2.81738H3C2.44772 2.81738 2 3.2651 2 3.81738V17.8174C2 18.3697 2.44772 18.8174 3 18.8174H15C15.5523 18.8174 16 18.3697 16 17.8174V7.81738H10V2.81738ZM15.584 5.81738C14.9413 4.34644 13.6113 3.24448 12 2.9174V5.81738H15.584Z" fill="#686868"/>
</svg>
