<svg width="24" height="25" viewBox="0 0 24 25" fill="none" xmlns="http://www.w3.org/2000/svg">
<path d="M12 0.5C9.62663 0.5 7.30655 1.20379 5.33316 2.52236C3.35977 3.84094 1.8217 5.71509 0.913451 7.9078C0.00519943 10.1005 -0.232441 12.5133 0.230582 14.8411C0.693605 17.1689 1.83649 19.3071 3.51472 20.9853C5.19295 22.6635 7.33115 23.8064 9.65892 24.2694C11.9867 24.7324 14.3995 24.4948 16.5922 23.5866C18.7849 22.6783 20.6591 21.1402 21.9776 19.1668C23.2962 17.1935 24 14.8734 24 12.5C23.9966 9.31846 22.7312 6.26821 20.4815 4.01852C18.2318 1.76883 15.1815 0.503441 12 0.5ZM12 22.5C10.0222 22.5 8.08879 21.9135 6.4443 20.8147C4.79981 19.7159 3.51809 18.1541 2.76121 16.3268C2.00433 14.4996 1.8063 12.4889 2.19215 10.5491C2.578 8.60929 3.53041 6.82746 4.92894 5.42893C6.32746 4.03041 8.10929 3.078 10.0491 2.69215C11.9889 2.3063 13.9996 2.50433 15.8268 3.2612C17.6541 4.01808 19.2159 5.29981 20.3147 6.9443C21.4135 8.58879 22 10.5222 22 12.5C21.9971 15.1513 20.9426 17.6931 19.0679 19.5679C17.1931 21.4426 14.6513 22.4971 12 22.5Z" fill="#3751FF"/>
<path d="M12.7172 5.56265C12.1406 5.45758 11.5478 5.48053 10.981 5.62989C10.4142 5.77925 9.88715 6.05135 9.43714 6.42695C8.98712 6.80256 8.62516 7.27247 8.37685 7.80345C8.12855 8.33442 7.99998 8.91348 8.00024 9.49965C8.00024 9.76487 8.1056 10.0192 8.29314 10.2068C8.48067 10.3943 8.73503 10.4996 9.00024 10.4996C9.26546 10.4996 9.51981 10.3943 9.70735 10.2068C9.89488 10.0192 10.0002 9.76487 10.0002 9.49965C9.99999 9.20543 10.0647 8.91477 10.1896 8.64841C10.3146 8.38204 10.4968 8.14654 10.7233 7.95868C10.9497 7.77082 11.2148 7.63524 11.4997 7.56159C11.7845 7.48795 12.0821 7.47807 12.3712 7.53265C12.7663 7.60933 13.1295 7.80203 13.4145 8.08614C13.6995 8.37024 13.8933 8.73285 13.9712 9.12765C14.0499 9.54205 13.9956 9.97073 13.816 10.3524C13.6364 10.734 13.3407 11.0492 12.9712 11.2526C12.3594 11.6071 11.8538 12.1192 11.5072 12.7355C11.1605 13.3517 10.9854 14.0497 11.0002 14.7566V15.4996C11.0002 15.7649 11.1056 16.0192 11.2931 16.2068C11.4807 16.3943 11.735 16.4996 12.0002 16.4996C12.2655 16.4996 12.5198 16.3943 12.7073 16.2068C12.8949 16.0192 13.0002 15.7649 13.0002 15.4996V14.7566C12.9877 14.4087 13.067 14.0635 13.2303 13.7559C13.3936 13.4484 13.635 13.1892 13.9302 13.0046C14.6547 12.6067 15.2382 11.9941 15.6003 11.2511C15.9624 10.508 16.0855 9.67101 15.9525 8.85517C15.8195 8.03934 15.4371 7.28474 14.8577 6.69514C14.2784 6.10555 13.5306 5.70991 12.7172 5.56265Z" fill="#3751FF"/>
<path d="M13.0003 18.4997C13.0003 17.9474 12.5525 17.4997 12.0002 17.4997C11.448 17.4997 11.0002 17.9474 11.0002 18.4997C11.0002 19.052 11.448 19.4997 12.0002 19.4997C12.5525 19.4997 13.0003 19.052 13.0003 18.4997Z" fill="#3751FF"/>
</svg>
