<svg width="23" height="15" viewBox="0 0 23 15" fill="none" xmlns="http://www.w3.org/2000/svg">
<path fill-rule="evenodd" clip-rule="evenodd" d="M22.4722 1.45873C22.6321 0.912278 22.4722 0.510742 21.7113 0.510742H19.1951C18.5553 0.510742 18.2603 0.85761 18.1004 1.2401C18.1004 1.2401 16.8208 4.43681 15.0081 6.51328C14.4217 7.11435 14.1551 7.3056 13.8352 7.3056C13.6752 7.3056 13.4437 7.11435 13.4437 6.56795V1.45873C13.4437 0.802989 13.258 0.510742 12.7248 0.510742H8.77079C8.37098 0.510742 8.13053 0.815088 8.13053 1.10353C8.13053 1.72516 9.03683 1.86851 9.13025 3.61716V7.41493C9.13025 8.24758 8.98354 8.39855 8.66364 8.39855C7.81064 8.39855 5.73569 5.18756 4.50506 1.51335C4.26389 0.799216 4.02199 0.510742 3.37892 0.510742H0.862708C0.143791 0.510742 0 0.85761 0 1.2401C0 1.92318 0.85305 5.31113 3.97195 9.79194C6.05119 12.852 8.98071 14.5107 11.6465 14.5107C13.2459 14.5107 13.4438 14.1423 13.4438 13.5077V11.195C13.4438 10.4581 13.5953 10.3111 14.1018 10.3111C14.475 10.3111 15.1147 10.5023 16.6076 11.9777C18.3136 13.7263 18.5949 14.5107 19.5545 14.5107H22.0708C22.7897 14.5107 23.1491 14.1423 22.9418 13.4153C22.7148 12.6906 21.9003 11.6393 20.8195 10.393C20.233 9.68265 19.3533 8.91766 19.0867 8.53508C18.7135 8.04334 18.8201 7.82472 19.0867 7.3876C19.0867 7.3876 22.1523 2.96141 22.4722 1.45873Z" fill="#7A7A7A"/>
</svg>
