<svg width="29" height="17" viewBox="0 0 29 17" fill="none" xmlns="http://www.w3.org/2000/svg">
<path fill-rule="evenodd" clip-rule="evenodd" d="M4.27117 0.00993347H1.20798C0.332767 0.00993347 0.157715 0.42622 0.157715 0.885126C0.157715 1.70488 1.19622 5.77039 4.99314 11.1474C7.52442 14.8194 11.0907 16.8099 14.336 16.8099C16.2832 16.8099 16.5241 16.3678 16.5241 15.6063V12.831C16.5241 11.9468 16.7085 11.7703 17.325 11.7703C17.7794 11.7703 18.5583 11.9998 20.3756 13.7703C22.4526 15.8686 22.795 16.8099 23.9632 16.8099H27.0264C27.9017 16.8099 28.3393 16.3678 28.0868 15.4954C27.8106 14.6258 26.8189 13.3642 25.5031 11.8687C24.7891 11.0162 23.7182 10.0982 23.3937 9.63916C22.9394 9.04904 23.0691 8.7867 23.3937 8.26218C23.3937 8.26218 27.1257 2.95073 27.5152 1.14756C27.7099 0.49174 27.5152 0.00993347 26.5888 0.00993347H23.5256C22.7468 0.00993347 22.3877 0.42622 22.1929 0.885126C22.1929 0.885126 20.6352 4.72118 18.4285 7.21298C17.7145 7.93423 17.39 8.16377 17.0005 8.16377C16.8058 8.16377 16.524 7.93423 16.524 7.27859V1.14756C16.524 0.360611 16.298 0.00993347 15.6488 0.00993347H10.8352C10.3485 0.00993347 10.0557 0.375112 10.0557 0.721281C10.0557 1.4672 11.1591 1.63927 11.2728 3.73759V8.29499C11.2728 9.29415 11.0942 9.47532 10.7048 9.47532C9.66633 9.47532 7.1403 5.62211 5.64212 1.21308C5.34856 0.356102 5.05404 0.00993347 4.27117 0.00993347Z" fill="#000212"/>
</svg>
