<svg width="25" height="25" viewBox="0 0 25 25" fill="none" xmlns="http://www.w3.org/2000/svg">
<g clip-path="url(#clip0_142_898)">
<path fill-rule="evenodd" clip-rule="evenodd" d="M23.3535 4.90012C23.731 5.28004 24.0021 5.75244 24.1396 6.27005C24.6484 8.18051 24.6484 12.1645 24.6484 12.1645C24.6484 12.1645 24.6484 16.1486 24.1396 18.059C24.0021 18.5766 23.731 19.049 23.3535 19.429C22.976 19.8089 22.5054 20.083 21.9886 20.2239C20.0865 20.7353 12.4834 20.7353 12.4834 20.7353C12.4834 20.7353 4.88023 20.7353 2.97807 20.2239C2.46136 20.083 1.9907 19.8089 1.61321 19.429C1.23572 19.049 0.964631 18.5766 0.827078 18.059C0.318359 16.1486 0.318359 12.1645 0.318359 12.1645C0.318359 12.1645 0.318359 8.18051 0.827078 6.27005C0.964631 5.75244 1.23572 5.28004 1.61321 4.90012C1.9907 4.52021 2.46136 4.2461 2.97807 4.10523C4.88023 3.59375 12.4834 3.59375 12.4834 3.59375C12.4834 3.59375 20.0865 3.59375 21.9886 4.10523C22.5054 4.2461 22.976 4.52021 23.3535 4.90012ZM16.3546 12.1633L9.99558 8.54557V15.781L16.3546 12.1633Z" fill="white"/>
</g>
<defs>
<clipPath id="clip0_142_898">
<rect width="24.33" height="24.33" fill="white" transform="translate(0.294922)"/>
</clipPath>
</defs>
</svg>
